<?xml version="1.0" encoding="UTF-8" standalone="no"?>
<!-- Created with Inkscape (http://www.inkscape.org/) -->

<svg
   width="53.577534mm"
   height="90.787239mm"
   viewBox="0 0 53.577534 90.787239"
   version="1.1"
   id="svg9132"
   xml:space="preserve"
   xmlns="http://www.w3.org/2000/svg"
   xmlns:svg="http://www.w3.org/2000/svg"><defs
     id="defs9129"><clipPath
       clipPathUnits="userSpaceOnUse"
       id="clipPath9949"><path
         id="path9951"
         style="fill:#ff0000;fill-opacity:1;fill-rule:nonzero;stroke:none;stroke-width:0.264583"
         d="m -342.80028,139.57236 v 34.72139 c 0.11359,-0.0401 0.22659,-0.0819 0.34161,-0.11782 1.18358,-0.36988 2.4195,-0.52295 3.64937,-0.63768 0.85682,-0.11014 1.70534,-0.27257 2.56005,-0.3974 0.88953,-0.15405 1.78507,-0.27937 2.68822,-0.29197 0.12901,-0.002 0.25821,-0.001 0.38756,0.002 h 2.42052 c 1.10021,1e-5 2.2004,-5e-5 3.3006,0 1.12762,5e-5 2.25509,1.4e-4 3.38272,5.3e-4 1.17835,0 2.35683,0.001 3.53518,0.003 1.46396,0.003 2.92806,0.007 4.39197,0.0186 1.66545,0.0159 3.3309,0.0407 4.99558,0.0951 1.73132,0.0598 3.46212,0.13312 5.19038,0.25476 1.23441,0.0454 2.47097,0.0273 3.70467,0.0997 1.35427,0.0773 2.70891,0.20041 4.02923,0.52865 1.67601,0.41719 3.33523,0.93359 4.78936,1.89704 0.27604,0.21455 0.56245,0.41693 0.82838,0.64389 0.87789,0.74926 1.78377,1.83558 2.15903,2.91869 0.27826,0.80316 0.55509,1.65675 0.48318,2.50372 -0.0973,1.14624 -0.65106,2.20708 -0.97668,3.31039 -0.48811,0.51891 -0.93335,1.0822 -1.44746,1.57406 0.96544,0.92252 1.76504,2.0139 2.36781,3.24632 0.18243,0.37298 0.32446,0.76404 0.48681,1.14618 0.0768,0.21056 0.14634,0.42294 0.21291,0.63614 v -52.15553 z m 44.29808,37.6468 c -0.0206,0.001 -0.0478,0.005 -0.0605,0.0103 -0.11774,0.0509 -0.24103,0.0951 -0.35658,0.15141 0.14812,-0.048 0.2948,-0.099 0.43926,-0.15606 0.0127,-0.005 -0.003,-0.007 -0.0222,-0.006 z m -44.29808,16.56539 v 19.24017 c 0.322,-0.21461 0.64527,-0.42714 0.98187,-0.61753 0.35769,-0.20233 0.73985,-0.35862 1.12085,-0.51263 0.31483,-0.12727 0.62945,-0.23958 0.94414,-0.34468 -0.29487,-1.97207 -0.34512,-3.98273 -0.0289,-5.92574 0.0124,-0.0757 0.043,-0.14967 0.0873,-0.22221 -0.12118,-2.73663 -0.41318,-5.49201 0.0119,-8.16849 -0.55536,-0.20077 -1.10262,-0.42608 -1.65674,-0.63045 -0.004,-0.7526 -0.0466,-1.50941 -0.0992,-2.26705 -0.0333,-0.0107 -0.067,-0.02 -0.10025,-0.031 -0.55639,-0.18446 -0.92704,-0.34423 -1.26092,-0.52039 z" /></clipPath></defs><g
     id="layer1"
     transform="translate(254.64585,-140.31023)"><path
       style="fill:#91b0c4;fill-opacity:1;stroke:#fef2f0;stroke-width:0"
       d="m -243.91817,177.92329 v 53.17418 h 31.95007 V 176.4425 h -31.8277 z"
       id="path12016" /><path
       style="display:inline;fill:#bafefd;fill-opacity:1;stroke:#fef2f0;stroke-width:0"
       d="m -331.77779,228.79428 0.55015,-52.43882 -11.57245,-5.73806 3.32626,-30.91462 46.11103,-0.13044 4.04371,30.91462 -10.965,6.91995 -0.0573,51.51781 z"
       id="path9499"
       clip-path="url(#clipPath9949)"
       transform="translate(88.17764,0.7378882)" /><path
       style="display:inline;fill:#030039;fill-opacity:1;stroke:#fef2f0;stroke-width:0"
       d="m -250.22005,167.53988 2.38054,-22.85987 39.23027,-0.26088 2.80451,23.18597 z"
       id="path9930" /><path
       style="display:inline;fill:#405f78;fill-opacity:1;stroke:#fef2f0;stroke-width:0"
       d="m -239.99813,183.04239 0.0922,9.40808 25.04207,0.41506 0.0923,-10.19208 z"
       id="path9932" /><path
       style="display:inline;fill:#748fa2;fill-opacity:1;stroke:#fef2f0;stroke-width:0"
       d="m -254.64585,171.31709 53.57753,-0.11132 -10.89978,7.45426 h -31.97444 z"
       id="path9934" /></g></svg>
