<?xml version="1.0" encoding="UTF-8" standalone="no"?>
<!-- Created with Inkscape (http://www.inkscape.org/) -->

<svg
   width="194.05832mm"
   height="239.18442mm"
   viewBox="0 0 194.05832 239.18442"
   version="1.1"
   id="svg5"
   xml:space="preserve"
   xmlns="http://www.w3.org/2000/svg"
   xmlns:svg="http://www.w3.org/2000/svg"><defs
     id="defs2" /><g
     id="layer1"
     transform="translate(279.60231,3.6919066)"><path
       id="path165"
       style="display:none;fill:#000000;stroke-width:0.855041"
       d="m -182.71105,-3.6798104 c -2.06997,0.02553 -4.07076,0.4685804 -4.91816,1.3159659 -1.1273,1.1273277 -1.34469,3.9835979 -1.35439,17.7421285 -0.006,9.019151 -0.10147,39.088153 -0.21361,66.818551 l -0.20359,50.419105 -8.05445,1.07883 c -14.52791,1.94616 -19.94585,4.6126 -30.71974,15.12189 -13.86733,13.52678 -43.30571,47.21439 -48.98958,56.06038 -1.34337,2.09072 -2.4432,4.83483 -2.4432,6.09886 0,5.174 12.25473,12.55405 27.54671,16.58815 13.35779,3.52386 24.61762,5.27921 48.97959,7.6386 7.73083,0.74871 47.66521,-0.35797 57.71534,-1.59986 27.78408,-3.43321 47.403078,-9.39753 56.219036,-17.09083 6.129824,-5.34921 5.452036,-7.07024 -10.475941,-26.5514 -10.367005,-12.6797 -22.997005,-26.82148 -35.308915,-39.53402 -9.88738,-10.2091 -14.87761,-13.00977 -27.10752,-15.22209 -4.2324,-0.76561 -9.04204,-1.66482 -10.68802,-1.99732 l -2.99265,-0.60454 V 65.66546 c 0,-65.27313486 -0.0414,-66.9695443 -1.65997,-68.1562278 -1.12252,-0.8230414 -3.26068,-1.2146276 -5.33065,-1.1890426 z m -1.04709,2.1643274 c 0.33735,-0.011634 0.7108,4.168e-4 1.0955,0.036744 0.76939,0.07268 1.58681,0.2368481 2.26788,0.4742811 l 2.47661,0.86339184 -0.18356,66.40606006 -0.18355,66.407736 -4.06145,0.26053 -4.06145,0.26051 -0.0323,-40.019991 c -0.0162,-22.010994 -0.062,-44.252492 -0.0986,-49.425456 -0.0359,-5.172998 -0.0194,-17.345755 0.0333,-27.049064 0.095,-17.07618749 0.15383,-17.65691609 1.86538,-18.1045199 0.24302,-0.063567 0.5444,-0.098662 0.88179,-0.1102317 z m -1.36773,137.610043 c 26.72243,-0.002 35.50313,3.06274 49.26679,17.20105 13.08249,13.43865 33.224,36.30741 43.400074,49.27683 2.49068,3.17432 4.205813,5.74303 3.812621,5.70974 -0.393195,-0.0332 -2.446205,-0.83205 -4.562452,-1.77521 -8.559443,-3.8148 -32.927433,-9.18078 -52.059053,-11.46458 -37.88001,-4.52195 -90.07928,-0.78756 -121.38762,8.68402 -3.92824,1.18837 -7.29899,2.00461 -7.48998,1.81362 -0.89792,-0.89788 38.86005,-46.55987 49.3787,-56.71168 11.27942,-10.88603 17.02446,-12.73207 39.64092,-12.73379 z m 2.56512,59.42378 h 19.23844 v 2.29458 c 0,3.10643 -6.94796,9.77914 -11.64828,11.18736 v 0.002 c -4.19921,1.25731 -13.41738,1.26916 -16.99563,0.0217 -3.42074,-1.19248 -7.20824,-4.75177 -8.65564,-8.1346 -2.39478,-5.59702 -3.1529,-5.37073 18.06111,-5.37073 z m -26.71842,0.85504 c 3.98747,0 5.05948,0.29553 5.42753,1.49632 3.33985,10.89612 10.62362,15.52971 22.86067,14.54741 8.785,-0.70517 16.34294,-5.53774 19.08316,-12.20105 1.53972,-3.74419 1.67154,-3.83629 5.42585,-3.836 14.99314,0.001 58.081416,9.37682 65.53431,14.26017 2.934127,1.92251 2.507147,3.19428 -2.047426,6.10887 -10.495004,6.71608 -28.764904,11.62932 -53.226374,14.31194 -14.30034,1.56826 -47.82231,2.23374 -59.85299,1.18905 -23.8641,-2.0723 -47.57001,-6.88725 -58.65223,-11.91215 -10.83209,-4.91152 -13.85039,-8.67997 -9.3253,-11.64494 6.5496,-4.29143 48.76123,-12.31962 64.7728,-12.31962 z" /><path
       style="fill:#100202;fill-opacity:1;stroke-width:0.264583"
       d="m -188.73353,1.7461552 c -0.0406,0.7716274 -0.12182,2.314627 -0.22333,24.1201108 -0.10151,21.805484 -0.22332,63.871755 -0.28507,85.024774 -0.0617,21.15301 -0.0634,21.39192 -0.0684,21.86904 -0.005,0.47712 -0.0134,1.19241 0.0435,1.55503 0.0569,0.36262 0.17869,0.37279 1.26489,0.36262 1.0862,-0.0102 3.13673,-0.0406 5.22285,-0.0356 2.08613,0.005 4.20771,0.0457 5.40555,0.0558 1.19785,0.0101 1.47193,-0.0102 1.59871,-0.15212 0.12679,-0.14197 0.10649,-0.4059 0.0938,-0.86526 -0.0127,-0.45937 -0.0178,-1.11412 -0.0228,-2.03029 -0.005,-0.91617 -0.0101,-2.0937 -0.038,-22.37899 -0.0279,-20.285287 -0.0787,-59.676733 -0.12943,-80.179894 -0.0507,-20.5031608 -0.1015,-22.1171898 -0.14972,-23.5840695 -0.0482,-1.4668797 -0.0939,-2.7865268 -0.15226,-3.7001405 -0.0583,-0.91361373 -0.12941,-1.42116889 -0.20934,-1.91224434 -0.0799,-0.49107544 -0.16876,-0.96563306 -0.26006,-1.28538876 -0.0913,-0.3197557 -0.1852,-0.4847295 -0.30572,-0.6560469 -0.12052,-0.1713174 -0.26771,-0.3489669 -0.53161,-0.5216125 -0.2639,-0.1726455 -0.64457,-0.3401395 -1.0189,-0.4848152 -0.37434,-0.1446758 -0.74232,-0.2664906 -1.1598,-0.3566174 -0.41749,-0.090127 -0.88444,-0.1484951 -1.37045,-0.1979901 -0.486,-0.049495 -0.99102,-0.090099 -1.55572,-0.083776 -0.56469,0.00632 -1.18898,0.059616 -1.71941,0.1243243 -0.53043,0.064708 -0.96692,0.1408394 -1.37302,0.2499594 -0.40609,0.10912 -0.78168,0.251236 -1.09514,0.3958977 -0.31345,0.1446616 -0.56469,0.2918523 -0.75382,0.4543237 -0.18913,0.1624714 -0.31602,0.3401158 -0.44292,0.5698287 -0.12691,0.229713 -0.25379,0.511404 -0.35022,0.835025 -0.0964,0.32362111 -0.16241,0.68906482 -0.21444,1.01518692 -0.052,0.3261221 -0.0901,0.6128959 -0.11421,0.77657654 -0.0241,0.16368064 -0.0343,0.20424592 -0.0393,0.22446336 -0.005,0.0202174 -0.005,0.0201974 -0.0461,0.79182498 z"
       id="path293" /><path
       style="fill:#897e8a;fill-opacity:1;stroke-width:0.264583"
       d="m -151.5237,234.1861 c 1.11169,-0.066 3.33483,-0.19796 6.20768,-0.54312 2.87284,-0.34516 6.39529,-0.90347 10.85685,-1.64961 4.46156,-0.74613 9.86196,-1.68003 15.24219,-2.99973 5.38024,-1.3197 10.74003,-3.02509 15.02391,-4.53765 4.283877,-1.51256 7.491633,-2.83221 10.212154,-4.49703 2.72052,-1.66482 4.953767,-3.67474 6.146526,-4.78628 1.192758,-1.11154 1.345025,-1.32471 1.537893,-1.65461 0.192868,-0.3299 0.426347,-0.77656 0.568478,-1.22822 0.14213,-0.45167 0.192886,-0.90847 0.18277,-1.37033 -0.01011,-0.46186 -0.08117,-0.92882 -0.182638,-1.30441 -0.101463,-0.37559 -0.233427,-0.65982 -0.416167,-1.11156 -0.18274,-0.45174 -0.416215,-1.07096 -0.695336,-1.61914 -0.279121,-0.54818 -0.60396,-1.02529 -0.938969,-1.55824 -0.335009,-0.53294 -0.680144,-1.1217 -1.070954,-1.70035 -0.39081,-0.57864 -0.827307,-1.1471 -1.334889,-1.85262 -0.507581,-0.70552 -1.086194,-1.54806 -1.715564,-2.35004 -0.629371,-0.80198 -1.309493,-1.56331 -4.096064,-2.18775 -2.786571,-0.62443 -7.67942,-1.11169 -21.92087,-2.95214 -14.24146,-1.84045 -37.8305,-5.03397 -57.23418,-6.48722 -19.40369,-1.45325 -34.62091,-1.16613 -48.77623,0.58533 -14.15533,1.75147 -27.24788,4.96718 -34.9738,6.72497 -7.72592,1.75778 -10.08489,2.05753 -11.31773,2.22516 -1.23285,0.16764 -1.33942,0.20316 -1.44609,0.27425 -0.10667,0.0711 -0.21326,0.17768 -0.35794,0.35028 -0.14467,0.17259 -0.3274,0.41114 -0.88826,1.13189 -0.56087,0.72075 -1.49985,1.92366 -2.30689,3.02256 -0.80704,1.09891 -1.48209,2.09372 -1.96428,2.82717 -0.4822,0.73344 -0.77151,1.20548 -1.02784,1.71561 -0.25632,0.51014 -0.47965,1.0583 -0.70298,1.61917 -0.22333,0.56087 -0.44666,1.1344 -0.56086,1.60397 -0.11421,0.46957 -0.11934,0.83501 -0.11682,1.14971 0.003,0.31469 0.0127,0.57863 0.0686,0.81975 0.0559,0.24111 0.15743,0.45936 0.25385,0.69284 0.0964,0.23348 0.18779,0.4822 0.31727,0.71312 0.12949,0.23093 0.29698,0.4441 0.56346,0.78925 0.26648,0.34516 0.63191,0.82226 1.06084,1.28159 0.42892,0.45934 0.92124,0.9009 1.55064,1.42623 0.6294,0.52534 1.39581,1.1344 2.14956,1.65972 0.75376,0.52531 1.49478,0.96688 2.35258,1.4643 0.85781,0.49742 1.83233,1.05066 3.00481,1.64196 1.17249,0.5913 2.5429,1.22067 3.76361,1.76377 1.2207,0.5431 2.29164,0.9999 3.46921,1.44401 1.17757,0.44411 2.46168,0.87553 4.51736,1.52775 2.05567,0.65223 4.88276,1.52522 8.04239,2.31702 3.15963,0.79179 6.65162,1.50237 9.48386,2.04039 2.83224,0.53802 5.00458,0.90346 8.18198,1.39073 3.17741,0.48727 7.35968,1.09633 11.32888,1.57344 3.9692,0.47711 7.72512,0.82224 11.81615,1.14708 4.09103,0.32485 8.51692,0.62938 12.59777,0.73088 4.08086,0.1015 7.81648,-1e-5 11.52175,-0.0812 3.70527,-0.0812 7.37999,-0.14212 11.29844,-0.26394 3.91845,-0.12182 8.08041,-0.30454 11.38977,-0.45681 3.30936,-0.15227 5.76593,-0.27409 6.99411,-0.33499 1.22819,-0.0609 1.2283,-0.0609 2.34,-0.12689 z"
       id="path1028" /><path
       style="fill:#fff20f;fill-opacity:0.471503;stroke-width:0.264583"
       d="m -204.43867,196.55736 c 0.1795,0.5098 0.53841,1.52909 0.9691,2.69913 0.4307,1.17004 0.93315,2.49078 1.60795,3.6967 0.6748,1.20591 1.52179,2.29696 2.5124,3.42392 0.9906,1.12696 2.12471,2.28978 3.30914,3.10801 1.18442,0.81823 2.41903,1.29197 3.66802,1.72983 1.24899,0.43785 2.51231,0.83982 4.14173,1.06947 1.62943,0.22965 3.62489,0.28707 5.54144,0.24399 1.91655,-0.0431 3.7541,-0.18664 5.7711,-0.71784 2.01701,-0.53121 4.21345,-1.44998 5.90029,-2.24675 1.68684,-0.79677 2.86402,-1.4715 4.034,-2.48358 1.16999,-1.01209 2.33282,-2.36154 3.26596,-3.76124 0.93313,-1.39969 1.63657,-2.84963 2.16775,-3.95506 0.53118,-1.10543 0.89008,-1.86629 1.10543,-2.41896 0.21535,-0.55266 0.28713,-0.89721 0.31586,-1.38529 0.0287,-0.48808 0.0144,-1.11974 -0.64588,-1.62948 -0.66025,-0.50974 -1.96663,-0.89735 -5.10352,-1.19887 -3.13689,-0.30152 -8.10402,-0.51686 -14.65051,-0.54558 -6.5465,-0.0287 -14.67192,0.1292 -19.10803,0.35887 -4.43612,0.22968 -5.18263,0.53116 -5.47695,0.99792 -0.29433,0.46677 -0.13641,1.09843 0.0216,1.54346 0.15798,0.44504 0.31589,0.70345 0.39476,0.8325 0.0789,0.12905 0.0789,0.12905 0.2584,0.63885 z"
       id="path1360" /><path
       style="fill:#e3d6e4;fill-opacity:1;stroke-width:0.264583"
       d="m -199.6652,133.95721 c 1.11989,-0.15794 3.35945,-0.47377 5.25448,-0.73219 1.89503,-0.25841 3.44546,-0.45939 5.2113,-0.6173 1.76583,-0.15791 3.74694,-0.27275 6.01525,-0.25838 2.26831,0.0144 4.82366,0.15793 7.6088,0.48814 2.78513,0.33021 5.79986,0.84702 9.18795,1.46435 3.38809,0.61732 7.14933,1.33512 10.35078,2.25396 3.20146,0.91885 5.84293,2.0386 8.48449,3.51734 2.64155,1.47875 5.28302,3.31629 7.17801,4.92423 1.89499,1.60794 3.04346,2.9861 5.75683,5.87172 2.71337,2.88562 6.99141,7.27852 10.37948,10.86759 3.38807,3.58907 5.88599,6.37411 9.69042,10.72408 3.80443,4.34998 8.91511,10.26459 12.71951,14.77245 3.804401,4.50787 6.302323,7.60874 8.316225,10.20113 2.013903,2.59239 3.543692,4.67616 4.562375,6.12921 1.018683,1.45305 1.526239,2.27528 1.89674,2.95036 0.370501,0.67507 0.603978,1.20293 0.837446,1.79171 0.233468,0.58878 0.466945,1.23846 0.558239,1.87289 0.09129,0.63443 0.04054,1.25364 -0.01531,1.67489 -0.05585,0.42125 -0.116754,0.64457 -0.274102,0.98461 -0.157348,0.34003 -0.411126,0.79683 -0.634421,1.10639 -0.223295,0.30956 -0.416167,0.47198 -0.817039,0.20819 -0.400871,-0.26379 -1.009936,-0.95407 -1.45538,-1.49798 -0.445445,-0.5439 -0.727206,-0.94143 -1.320269,-1.40944 -0.593063,-0.46801 -1.49748,-1.00636 -2.721353,-1.59499 -1.223873,-0.58864 -2.767126,-1.22748 -4.540133,-1.82687 -1.773007,-0.5994 -3.775648,-1.15928 -5.979348,-1.79095 -2.20369,-0.63168 -4.60829,-1.33511 -7.87077,-2.14267 -3.26249,-0.80756 -7.38261,-1.71916 -11.60539,-2.58418 -4.22278,-0.86502 -8.54794,-1.6834 -12.47694,-2.3667 -3.92899,-0.6833 -7.46159,-1.23145 -11.0552,-1.63752 -3.59361,-0.40607 -7.24802,-0.67 -9.90768,-0.89332 -2.65966,-0.22333 -4.32444,-0.40605 -7.04505,-0.54818 -2.7206,-0.14214 -6.49682,-0.24365 -12.36438,-0.28426 -5.86755,-0.0406 -13.82603,-0.0203 -18.94233,0.0812 -5.1163,0.10151 -7.39016,0.28423 -10.04984,0.44665 -2.65967,0.16243 -5.705,0.30455 -9.4712,0.57863 -3.7662,0.27409 -8.253,0.68014 -11.94812,1.09634 -3.69512,0.4162 -6.59834,0.84255 -9.74529,1.35012 -3.14695,0.50757 -6.53742,1.09634 -10.02953,1.82724 -3.4921,0.73089 -7.08561,1.60389 -10.49648,2.36525 -3.41087,0.76136 -6.63893,1.41103 -9.14636,2.09117 -2.50743,0.68014 -4.29403,1.39072 -5.62386,1.9186 -1.32983,0.52787 -2.20284,0.873 -2.9947,1.32983 -0.79186,0.45682 -1.50245,1.02529 -2.13181,1.47702 -0.62937,0.45173 -1.17751,0.78671 -1.66981,1.02019 -0.4923,0.23349 -0.92881,0.36546 -1.17724,0.39291 -0.24843,0.0275 -0.30888,-0.05 -0.35171,-0.12095 -0.0428,-0.071 -0.068,-0.1356 -0.0788,-0.26664 -0.0108,-0.13104 -0.007,-0.32842 0.0215,-0.58686 0.0287,-0.25844 0.0826,-0.57785 0.19021,-0.96012 0.10766,-0.38227 0.26916,-0.82731 0.42915,-1.24402 0.15999,-0.41672 0.31847,-0.80509 0.47131,-1.14141 0.15284,-0.33633 0.30003,-0.62055 0.46626,-0.93905 0.16623,-0.3185 0.35149,-0.67126 0.65223,-1.14586 0.30074,-0.4746 0.71694,-1.07098 1.10777,-1.6255 0.39084,-0.55453 0.75627,-1.06716 1.06589,-1.48464 0.30962,-0.41749 0.56341,-0.73979 0.90221,-1.17757 0.3388,-0.43777 0.76262,-0.99101 1.22832,-1.58868 0.4657,-0.59767 0.97326,-1.23972 1.57473,-1.99094 0.60147,-0.75121 1.29682,-1.61152 1.95667,-2.41856 0.65984,-0.80705 1.28413,-1.56076 3.61249,-4.29698 2.32836,-2.73623 6.3606,-7.45475 10.58765,-12.31208 4.22705,-4.85734 8.64866,-9.85317 12.58946,-14.16723 3.9408,-4.31407 7.40056,-7.9461 10.64509,-11.21216 3.24452,-3.26606 6.27361,-6.16595 8.34809,-8.11122 2.07448,-1.94527 3.19424,-2.93582 4.88833,-4.01974 1.69409,-1.08392 3.96232,-2.26111 6.05835,-3.23015 2.09603,-0.96905 4.01972,-1.72992 5.87172,-2.23955 1.85201,-0.50964 3.63214,-0.76804 4.64424,-0.91878 1.01211,-0.15075 1.25616,-0.19381 1.37808,-0.21533 0.12192,-0.0215 0.12183,-0.0215 1.24172,-0.17943 z"
       id="path1032" /></g></svg>
