<?xml version="1.0" encoding="UTF-8" standalone="no"?>
<!-- Created with Inkscape (http://www.inkscape.org/) -->

<svg
   width="118.42318mm"
   height="107.60902mm"
   viewBox="0 0 118.42318 107.60902"
   version="1.1"
   id="svg8707"
   xml:space="preserve"
   xmlns="http://www.w3.org/2000/svg"
   xmlns:svg="http://www.w3.org/2000/svg"><defs
     id="defs8704" /><g
     id="layer1"
     transform="translate(-42.129174,-81.982878)"
     style="stroke:#994849;stroke-opacity:1"><path
       id="path8983"
       style="fill:#1d396a;fill-opacity:0;stroke:#994849;stroke-width:5.51368;stroke-dasharray:none;stroke-opacity:1"
       d="m 61.33791,173.04475 a 52.180217,50.974684 0 0 1 -2.571509,-71.99944 52.180217,50.974684 0 0 1 73.698859,-2.603658 52.180217,50.974684 0 0 1 2.75895,71.992818 52.180217,50.974684 0 0 1 -73.69184,2.78676" /><path
       id="rect15484"
       style="fill:#994849;fill-opacity:1;stroke:#994849;stroke-width:1.34715;stroke-dasharray:none;stroke-opacity:1"
       d="m 98.634066,137.761 h -3.63086 c -0.34572,0 -0.62404,-0.30143 -0.62404,-0.67585 V 83.898252 c 0,-0.37442 0.27832,-0.67585 0.62404,-0.67585 h 3.63086 c 0.34572,0 0.62404,0.30143 0.62404,0.67585 v 53.186898 c 0,0.37442 -0.27832,0.67585 -0.62404,0.67585 z" /><path
       id="rect15484-8"
       style="fill:#994849;fill-opacity:1;stroke:#994849;stroke-width:1.32796;stroke-dasharray:none;stroke-opacity:1"
       d="m 101.47223,137.10283 -1.641364,-1.3401 c -0.62099,-0.50701 -0.70595,-1.40691 -0.19049,-2.01772 L 131.04845,96.526952 c 0.51545,-0.61081 1.43035,-0.69438 2.05134,-0.18736 l 1.64136,1.34008 c 0.62098,0.50701 0.70595,1.40693 0.19048,2.01773 l -31.40806,37.218068 c -0.51545,0.6108 -1.43036,0.69437 -2.05134,0.18736 z" /><path
       id="rect15484-7"
       style="fill:#994849;fill-opacity:1;stroke:#994849;stroke-width:1.33856;stroke-dasharray:none;stroke-opacity:1"
       d="m 94.295743,136.49443 -2.97839,2.29767 c -0.28359,0.21877 -0.69077,0.17009 -0.91294,-0.10916 L 58.843889,99.015262 c -0.222178,-0.27925 -0.172737,-0.68019 0.110855,-0.89897 l 2.978389,-2.29766 c 0.28359,-0.21878 0.69076,-0.1701 0.91294,0.10915 l 31.56052,39.667678 c 0.22218,0.27926 0.17274,0.68019 -0.11085,0.89897 z" /><path
       id="rect15484-73"
       style="fill:#994849;fill-opacity:1;stroke:#994849;stroke-width:1.34715;stroke-dasharray:none;stroke-opacity:1"
       d="m 44.138388,138.63272 7.2e-4,-3.93232 c 6e-5,-0.37442 0.27844,-0.67578 0.62416,-0.67571 l 49.10955,0.0105 c 0.34572,7e-5 0.62399,0.30155 0.62392,0.67597 l -7.2e-4,3.93233 c -6e-5,0.37442 -0.27844,0.67578 -0.62416,0.67571 l -49.10955,-0.0105 c -0.34572,-7e-5 -0.62399,-0.30155 -0.62392,-0.67597 z" /><path
       id="rect15484-70"
       style="fill:#994849;fill-opacity:1;stroke:#994849;stroke-width:1.34715;stroke-dasharray:none;stroke-opacity:1"
       d="m 61.018704,175.14794 -2.43265,-2.7593 c -0.23153,-0.26262 -0.22436,-0.67776 0.0161,-0.93083 l 34.15259,-35.94759 c 0.24043,-0.25306 0.62037,-0.24537 0.8519,0.0172 l 2.43265,2.7593 c 0.23152,0.26261 0.22436,0.67776 -0.0161,0.93082 l -34.15259,35.94764 c -0.24042,0.25306 -0.62037,0.24537 -0.8519,-0.0172 z" /><path
       id="rect15484-81"
       style="fill:#994849;fill-opacity:1;stroke:#994849;stroke-width:1.35033;stroke-dasharray:none;stroke-opacity:1"
       d="m 98.460319,187.84837 -3.62855,-0.0129 c -0.3455,-10e-4 -0.62273,-0.30526 -0.62159,-0.6817 l 0.16229,-53.47213 c 9.2e-4,-0.37644 0.2802,-0.67849 0.6257,-0.67726 l 3.62855,0.0129 c 0.3455,0.001 0.62273,0.30526 0.62159,0.68169 l -0.16228,53.47214 c -10e-4,0.37643 -0.28021,0.67849 -0.62571,0.67726 z" /><path
       id="rect15484-76"
       style="fill:#994849;fill-opacity:1;stroke:#994849;stroke-width:1.34715;stroke-dasharray:none;stroke-opacity:1"
       d="m 131.26032,174.68547 -2.68438,2.33651 c -0.25362,0.22075 -0.62808,0.18289 -0.8396,-0.0849 L 97.689818,138.89976 c -0.21152,-0.26777 -0.17762,-0.66106 0.076,-0.88182 l 2.684382,-2.3365 c 0.25362,-0.22075 0.62809,-0.1829 0.8396,0.0849 l 30.04652,38.03731 c 0.21152,0.26777 0.17763,0.66106 -0.076,0.88182 z" /><path
       id="rect15484-3"
       style="fill:#994849;fill-opacity:1;stroke:#994849;stroke-width:1.34715;stroke-dasharray:none;stroke-opacity:1"
       d="m 149.25685,134.57192 0.0264,3.93221 c 0.003,0.37441 -0.27378,0.67803 -0.61949,0.68075 l -49.10825,0.3863 c -0.34571,0.003 -0.62604,-0.29651 -0.62856,-0.67093 l -0.0264,-3.93222 c -0.003,-0.37441 0.27378,-0.67801 0.61949,-0.68073 l 49.10825,-0.3863 c 0.34571,-0.003 0.62605,0.29651 0.62856,0.67092 z" /><path
       id="path15759"
       style="fill:#994849;fill-opacity:1;stroke:#994849;stroke-width:0;stroke-opacity:1"
       d="m 87.380109,145.52271 a 13.577588,12.585255 0 0 1 -0.66911,-17.77611 13.577588,12.585255 0 0 1 19.176851,-0.64281 13.577588,12.585255 0 0 1 0.7179,17.77446 13.577588,12.585255 0 0 1 -19.175031,0.68803" /><path
       id="path17939"
       style="fill:#9a9a9a;fill-opacity:1;stroke:#994849;stroke-width:0;stroke-opacity:1"
       d="m 92.230199,140.63267 a 6.3541824,6.2070617 0 0 1 -0.31315,-8.76721 6.3541824,6.2070617 0 0 1 8.974591,-0.31704 6.3541824,6.2070617 0 0 1 0.33597,8.7664 6.3541824,6.2070617 0 0 1 -8.973731,0.33934" /></g></svg>
