<?xml version="1.0" encoding="UTF-8" standalone="no"?>
<!-- Created with Inkscape (http://www.inkscape.org/) -->

<svg
   width="116.87195mm"
   height="105.98909mm"
   viewBox="0 0 116.87195 105.98909"
   version="1.1"
   id="svg8707"
   xmlns="http://www.w3.org/2000/svg"
   xmlns:svg="http://www.w3.org/2000/svg">
  <defs
     id="defs8704" />
  <g
     id="layer1"
     transform="translate(-42.904802,-82.792841)">
    <path
       id="path8983"
       style="fill:#1d396a;fill-opacity:0;stroke:#635a4a;stroke-width:4.13"
       d="m 139.85601,98.581967 a 56.433716,50.90361 0 0 1 2.78113,71.899043 56.433716,50.90361 0 0 1 -79.70646,2.60003 56.433716,50.90361 0 0 1 -2.983855,-71.89243 56.433716,50.90361 0 0 1 79.698875,-2.782877" />
    <path
       id="rect15484"
       style="fill:#635a4a;stroke:#635a4a;stroke-width:0"
       d="m 99.235189,83.295685 h 3.926831 c 0.3739,0 0.67491,0.301009 0.67491,0.674909 v 53.112746 c 0,0.3739 -0.30101,0.67491 -0.67491,0.67491 h -3.926831 c -0.3739,0 -0.674909,-0.30101 -0.674909,-0.67491 V 83.970594 c 0,-0.3739 0.301009,-0.674909 0.674909,-0.674909 z" />
    <path
       id="rect15484-8"
       style="fill:#635a4a;stroke:#635a4a;stroke-width:0"
       transform="rotate(39.69474)"
       d="m 169.69986,-15.544693 h 2.23035 c 0.84383,0 1.52315,0.679324 1.52315,1.523148 v 51.416266 c 0,0.843824 -0.67932,1.523149 -1.52315,1.523149 h -2.23035 c -0.84382,0 -1.52315,-0.679325 -1.52315,-1.523149 v -51.416266 c 0,-0.843824 0.67933,-1.523148 1.52315,-1.523148 z" />
    <path
       id="rect15484-7"
       style="fill:#635a4a;stroke:#635a4a;stroke-width:0"
       transform="rotate(-38.076624)"
       d="m -13.206557,114.53879 h 3.9268319 c 0.3738994,0 0.6749087,0.30101 0.6749087,0.67491 v 53.11274 c 0,0.3739 -0.3010093,0.67491 -0.6749087,0.67491 h -3.9268319 c -0.3739,0 -0.674909,-0.30101 -0.674909,-0.67491 V 115.2137 c 0,-0.3739 0.301009,-0.67491 0.674909,-0.67491 z" />
    <path
       id="rect15484-73"
       style="fill:#635a4a;stroke:#635a4a;stroke-width:0"
       transform="rotate(90.011291)"
       d="m 136.53193,-98.431473 h 3.92684 c 0.3739,0 0.6749,0.30101 0.6749,0.674909 v 53.112745 c 0,0.3739 -0.301,0.674909 -0.6749,0.674909 h -3.92684 c -0.3739,0 -0.6749,-0.301009 -0.6749,-0.674909 v -53.112745 c 0,-0.373899 0.301,-0.674909 0.6749,-0.674909 z" />
    <path
       id="rect15484-70"
       style="fill:#635a4a;stroke:#635a4a;stroke-width:0"
       transform="matrix(0.69057831,0.72325763,-0.71712177,0.69694789,0,0)"
       d="m 165.30547,22.913282 h 3.80978 c 0.3626,0 0.6545,0.291907 0.6545,0.654501 v 51.506673 c 0,0.362593 -0.2919,0.6545 -0.6545,0.6545 h -3.80978 c -0.36259,0 -0.6545,-0.291907 -0.6545,-0.6545 V 23.567783 c 0,-0.362594 0.29191,-0.654501 0.6545,-0.654501 z" />
    <path
       id="rect15484-81"
       style="fill:#635a4a;stroke:#635a4a;stroke-width:0"
       d="m 98.842832,133.89996 h 3.926828 c 0.3739,0 0.67491,0.30101 0.67491,0.67491 v 53.11275 c 0,0.3739 -0.30101,0.67491 -0.67491,0.67491 h -3.926828 c -0.3739,0 -0.674909,-0.30101 -0.674909,-0.67491 v -53.11275 c 0,-0.3739 0.301009,-0.67491 0.674909,-0.67491 z" />
    <path
       id="rect15484-76"
       style="fill:#635a4a;stroke:#635a4a;stroke-width:0"
       transform="matrix(0.77946663,-0.62644376,0.65007396,0.75987094,0,0)"
       d="m -13.476884,171.44952 h 3.7245955 c 0.3519006,0 0.6351997,0.2833 0.6351997,0.6352 v 49.98781 c 0,0.3519 -0.2832991,0.6352 -0.6351997,0.6352 h -3.7245955 c -0.3519,0 -0.635199,-0.2833 -0.635199,-0.6352 v -49.98781 c 0,-0.3519 0.283299,-0.6352 0.635199,-0.6352 z" />
    <path
       id="rect15484-3"
       style="fill:#635a4a;stroke:#635a4a;stroke-width:0"
       transform="rotate(-90.416148)"
       d="m -140.4934,102.60245 h 3.92684 c 0.3739,0 0.67491,0.30101 0.67491,0.67491 v 53.11274 c 0,0.3739 -0.30101,0.67491 -0.67491,0.67491 h -3.92684 c -0.3739,0 -0.6749,-0.30101 -0.6749,-0.67491 v -53.11274 c 0,-0.3739 0.301,-0.67491 0.6749,-0.67491 z" />
    <path
       id="path15759"
       style="fill:#635a4a;stroke:#635a4a;stroke-width:0"
       d="m 111.03443,127.13768 a 14.684373,12.567707 0 0 1 0.72366,17.75132 14.684373,12.567707 0 0 1 -20.74007,0.64192 14.684373,12.567707 0 0 1 -0.776416,-17.74968 14.684373,12.567707 0 0 1 20.738096,-0.68707" />
    <path
       id="path17939"
       style="fill:#a49985;stroke:#635a4a;stroke-width:0"
       d="m 105.61641,131.56508 a 6.8721471,6.1984072 0 0 1 0.33867,8.75497 6.8721471,6.1984072 0 0 1 -9.706159,0.3166 6.8721471,6.1984072 0 0 1 -0.363356,-8.75417 6.8721471,6.1984072 0 0 1 9.705235,-0.33886" />
  </g>
</svg>
