<?xml version="1.0" encoding="UTF-8" standalone="no"?>
<!-- Created with Inkscape (http://www.inkscape.org/) -->

<svg
   width="118.42318mm"
   height="107.60902mm"
   viewBox="0 0 118.42318 107.60902"
   version="1.1"
   id="svg8707"
   xml:space="preserve"
   xmlns="http://www.w3.org/2000/svg"
   xmlns:svg="http://www.w3.org/2000/svg"><defs
     id="defs8704" /><g
     id="layer1"
     transform="translate(-42.129174,-81.982878)"
     style="stroke:#994849;stroke-opacity:1"><path
       id="path8983"
       style="fill:#1d396a;fill-opacity:0;stroke:#994849;stroke-width:5.73;stroke-dasharray:none;stroke-opacity:1"
       d="m 139.85601,98.581967 a 56.433716,50.90361 0 0 1 2.78113,71.899043 56.433716,50.90361 0 0 1 -79.70646,2.60003 56.433716,50.90361 0 0 1 -2.983855,-71.89243 56.433716,50.90361 0 0 1 79.698875,-2.782877" /><path
       id="rect15484"
       style="fill:#994849;fill-opacity:1;stroke:#994849;stroke-width:1.4;stroke-dasharray:none;stroke-opacity:1"
       d="m 99.235189,83.295685 h 3.926831 c 0.3739,0 0.67491,0.301009 0.67491,0.674909 v 53.112746 c 0,0.3739 -0.30101,0.67491 -0.67491,0.67491 h -3.926831 c -0.3739,0 -0.674909,-0.30101 -0.674909,-0.67491 V 83.970594 c 0,-0.3739 0.301009,-0.674909 0.674909,-0.674909 z" /><path
       id="rect15484-8"
       style="fill:#994849;fill-opacity:1;stroke:#994849;stroke-width:1.38006;stroke-dasharray:none;stroke-opacity:1"
       d="m 140.43723,96.394586 1.77515,1.338229 c 0.67162,0.506305 0.7635,1.404951 0.20602,2.014908 l -33.96831,37.166167 c -0.55747,0.60996 -1.54695,0.69341 -2.21856,0.1871 l -1.77516,-1.33822 c -0.6716,-0.5063 -0.76349,-1.40496 -0.20601,-2.01491 l 33.96831,-37.166171 c 0.55747,-0.609957 1.54696,-0.693402 2.21856,-0.187103 z" /><path
       id="rect15484-7"
       style="fill:#994849;fill-opacity:1;stroke:#994849;stroke-width:1.39108;stroke-dasharray:none;stroke-opacity:1"
       d="m 60.248218,98.168813 3.221173,-2.294463 c 0.306708,-0.218471 0.747072,-0.169853 0.98736,0.109007 l 34.133195,39.612373 c 0.240289,0.27886 0.186818,0.67924 -0.119891,0.89771 l -3.221173,2.29446 c -0.306709,0.21848 -0.747072,0.16986 -0.987361,-0.109 L 60.128326,99.066524 c -0.240288,-0.278861 -0.186817,-0.67924 0.119892,-0.897711 z" /><path
       id="rect15484-73"
       style="fill:#994849;fill-opacity:1;stroke:#994849;stroke-width:1.4;stroke-dasharray:none;stroke-opacity:1"
       d="m 98.687435,134.71267 -7.73e-4,3.92684 c -7.4e-5,0.3739 -0.301143,0.67484 -0.675042,0.67477 l -53.112744,-0.0105 c -0.3739,-7e-5 -0.67485,-0.30113 -0.674776,-0.67503 l 7.73e-4,-3.92684 c 7.4e-5,-0.3739 0.301142,-0.67484 0.675042,-0.67477 l 53.112744,0.0105 c 0.373899,7e-5 0.67485,0.30113 0.674776,0.67503 z" /><path
       id="rect15484-70"
       style="fill:#994849;fill-opacity:1;stroke:#994849;stroke-width:1.40003;stroke-dasharray:none;stroke-opacity:1"
       transform="matrix(0.69057831,0.72325763,-0.71712177,0.69694789,0,0)"
       d="m 165.30547,22.913282 h 3.80978 c 0.3626,0 0.6545,0.291907 0.6545,0.654501 v 51.506673 c 0,0.362593 -0.2919,0.6545 -0.6545,0.6545 h -3.80978 c -0.36259,0 -0.6545,-0.291907 -0.6545,-0.6545 V 23.567783 c 0,-0.362594 0.29191,-0.654501 0.6545,-0.654501 z" /><path
       id="rect15484-81"
       style="fill:#994849;fill-opacity:1;stroke:#994849;stroke-width:1.40331;stroke-dasharray:none;stroke-opacity:1"
       d="m 99.229743,133.00826 3.924337,0.0129 c 0.37366,0.001 0.67349,0.30484 0.67225,0.68075 l -0.17551,53.39758 c -10e-4,0.37591 -0.30305,0.67754 -0.67671,0.67631 l -3.924336,-0.0129 c -0.373663,-0.001 -0.673487,-0.30483 -0.672251,-0.68074 l 0.175509,-53.39758 c 0.0012,-0.37591 0.303048,-0.67755 0.676711,-0.67632 z" /><path
       id="rect15484-76"
       style="fill:#994849;fill-opacity:1;stroke:#994849;stroke-width:1.4;stroke-dasharray:none;stroke-opacity:1"
       d="m 102.223,138.01484 2.9032,-2.33325 c 0.27429,-0.22044 0.67928,-0.18264 0.90804,0.0848 l 32.49578,37.98428 c 0.22876,0.2674 0.1921,0.66014 -0.0822,0.88059 l -2.9032,2.33325 c -0.27429,0.22044 -0.67928,0.18264 -0.90804,-0.0848 L 102.1408,138.89543 c -0.22876,-0.2674 -0.1921,-0.66014 0.0822,-0.88059 z" /><path
       id="rect15484-3"
       style="fill:#994849;fill-opacity:1;stroke:#994849;stroke-width:1.4;stroke-dasharray:none;stroke-opacity:1"
       d="m 103.47872,138.89587 -0.0285,-3.92673 c -0.003,-0.37389 0.2961,-0.67708 0.66999,-0.6798 l 53.11134,-0.38576 c 0.37389,-0.003 0.67708,0.2961 0.6798,0.66999 l 0.0285,3.92674 c 0.003,0.37389 -0.2961,0.67707 -0.66999,0.67978 l -53.11134,0.38576 c -0.37389,0.003 -0.67708,-0.29609 -0.6798,-0.66998 z" /><path
       id="path15759"
       style="fill:#994849;fill-opacity:1;stroke:#994849;stroke-width:0;stroke-opacity:1"
       d="m 111.03443,127.13768 a 14.684373,12.567707 0 0 1 0.72366,17.75132 14.684373,12.567707 0 0 1 -20.74007,0.64192 14.684373,12.567707 0 0 1 -0.776416,-17.74968 14.684373,12.567707 0 0 1 20.738096,-0.68707" /><path
       id="path17939"
       style="fill:#9a9a9a;fill-opacity:1;stroke:#994849;stroke-width:0;stroke-opacity:1"
       d="m 105.61641,131.56508 a 6.8721471,6.1984072 0 0 1 0.33867,8.75497 6.8721471,6.1984072 0 0 1 -9.706159,0.3166 6.8721471,6.1984072 0 0 1 -0.363356,-8.75417 6.8721471,6.1984072 0 0 1 9.705235,-0.33886" /></g></svg>
