<?xml version="1.0" encoding="UTF-8" standalone="no"?>
<!-- Created with Inkscape (http://www.inkscape.org/) -->

<svg
   width="61.025261mm"
   height="19.288942mm"
   viewBox="0 0 61.025261 19.288942"
   version="1.1"
   id="svg33617"
   xml:space="preserve"
   inkscape:export-filename="screen.svg"
   inkscape:export-xdpi="96"
   inkscape:export-ydpi="96"
   inkscape:version="1.2.2 (732a01da63, 2022-12-09)"
   sodipodi:docname="screen.svg"
   xmlns:inkscape="http://www.inkscape.org/namespaces/inkscape"
   xmlns:sodipodi="http://sodipodi.sourceforge.net/DTD/sodipodi-0.dtd"
   xmlns="http://www.w3.org/2000/svg"
   xmlns:svg="http://www.w3.org/2000/svg"><sodipodi:namedview
     id="namedview33619"
     pagecolor="#ffffff"
     bordercolor="#000000"
     borderopacity="0.25"
     inkscape:showpageshadow="2"
     inkscape:pageopacity="0.0"
     inkscape:pagecheckerboard="0"
     inkscape:deskcolor="#d1d1d1"
     inkscape:document-units="mm"
     showgrid="false"
     inkscape:zoom="2.7711773"
     inkscape:cx="97.251086"
     inkscape:cy="55.932907"
     inkscape:window-width="1920"
     inkscape:window-height="986"
     inkscape:window-x="-11"
     inkscape:window-y="-11"
     inkscape:window-maximized="1"
     inkscape:current-layer="layer1" /><defs
     id="defs33614" /><g
     inkscape:label="Lager 1"
     inkscape:groupmode="layer"
     id="layer1"
     transform="translate(-60.784031,-137.37432)"><path
       style="fill:#82c245;fill-opacity:1;stroke:#044251;stroke-width:0.6861;stroke-dasharray:none;stroke-opacity:1"
       d="m 61.445527,156.22848 60.016843,0.0912 -0.20839,-18.6018 -60.121037,0.0912 z"
       id="path36391" /><path
       id="path44270-6-6"
       style="fill:#cd6b9d;fill-opacity:0;stroke:#d6dce8;stroke-width:0.576776"
       d="m 115.2408,148.99939 a 3.9399772,3.3240488 0 0 1 0.19417,4.69507 3.9399772,3.3240488 0 0 1 -5.56479,0.16979 3.9399772,3.3240488 0 0 1 -0.20832,-4.69464 3.9399772,3.3240488 0 0 1 5.56426,-0.18172" /><path
       id="path44270-0"
       style="fill:#cd6b9d;fill-opacity:0;stroke:#d6dce8;stroke-width:0.576776"
       d="m 115.24079,140.13071 a 3.9399772,3.3240488 0 0 1 0.19417,4.69507 3.9399772,3.3240488 0 0 1 -5.56479,0.16978 3.9399772,3.3240488 0 0 1 -0.20832,-4.69463 3.9399772,3.3240488 0 0 1 5.56425,-0.18173" /><path
       id="path44270-6"
       style="fill:#cd6b9d;fill-opacity:0;stroke:#d6dce8;stroke-width:0.576776"
       d="m 73.638554,149.14452 a 3.9399772,3.3240488 0 0 1 0.194167,4.69507 3.9399772,3.3240488 0 0 1 -5.564787,0.16978 3.9399772,3.3240488 0 0 1 -0.208321,-4.69463 3.9399772,3.3240488 0 0 1 5.564258,-0.18173" /><path
       style="fill:#9ecd6b;fill-opacity:1;stroke:#9fce6c;stroke-width:0;stroke-dasharray:none;stroke-opacity:1"
       d="m 80.020791,155.64992 c 0.05479,-0.24693 0.164431,-0.74102 0.538524,-1.61144 0.374093,-0.87043 1.012623,-2.11698 1.773981,-3.39583 0.761358,-1.27886 1.645468,-2.58988 2.357684,-3.75047 0.712215,-1.16058 1.252497,-2.1707 1.768262,-3.03044 0.515765,-0.85975 1.006945,-1.569 1.594871,-2.51381 0.587927,-0.9448 1.272586,-2.12514 1.64557,-2.69263 0.372983,-0.56749 0.433854,-0.52225 3.841799,-0.50363 3.407945,0.0186 10.162848,0.011 13.514828,0.004 3.35197,-0.007 3.30068,-0.0123 2.84129,0.51617 -0.4594,0.52851 -1.32692,1.59121 -1.99403,2.49872 -0.6671,0.90751 -1.13371,1.65973 -1.50212,2.41204 -0.3684,0.7523 -0.63855,1.50454 -0.87186,2.07405 -0.23331,0.56952 -0.42978,0.95641 -0.63853,1.37551 -0.20875,0.4191 -0.42979,0.87045 -0.71221,1.354 -0.28243,0.48354 -0.62625,0.99935 -0.98233,1.45067 -0.35608,0.45131 -0.72446,0.83817 -1.01921,1.27885 -0.29475,0.44068 -0.51579,0.93502 -0.73681,1.35409 -0.22103,0.41906 -0.44206,0.76294 -0.62627,1.14989 -0.18421,0.38695 -0.33155,0.81677 -0.45436,1.18861 -0.12281,0.37183 -0.22102,0.68544 -0.30974,0.86224 -0.08873,0.17679 -0.16805,0.21693 -3.514461,0.22435 -3.346411,0.007 -9.956957,-0.018 -13.263255,-0.023 -3.306298,-0.005 -3.306325,0.0101 -3.306338,0.0174 -1.3e-5,0.007 -7.8e-5,0.007 0.05472,-0.2397 z"
       id="path36393"
       sodipodi:nodetypes="scccccccccccccccccccccsss" /><path
       id="path44270-6-7"
       style="fill:#cd6b9d;fill-opacity:0;stroke:#d6dce8;stroke-width:0.576776"
       d="m 101.95388,149.19289 a 3.9399772,3.3240488 0 0 1 0.19417,4.69507 3.9399772,3.3240488 0 0 1 -5.564786,0.16978 3.9399772,3.3240488 0 0 1 -0.208321,-4.69463 3.9399772,3.3240488 0 0 1 5.564257,-0.18173" /><path
       id="path44270-56"
       style="fill:#cd6b9d;fill-opacity:0;stroke:#d6dce8;stroke-width:0.576776"
       d="m 101.95388,140.32421 a 3.9399772,3.3240488 0 0 1 0.19416,4.69507 3.9399772,3.3240488 0 0 1 -5.564783,0.16978 3.9399772,3.3240488 0 0 1 -0.208321,-4.69464 3.9399772,3.3240488 0 0 1 5.564254,-0.18172" /><path
       id="path44270-6-4"
       style="fill:#cd6b9d;fill-opacity:0;stroke:#d6dce8;stroke-width:0.576776"
       d="m 87.95747,149.25741 a 3.9399772,3.3240488 0 0 1 0.194168,4.69506 3.9399772,3.3240488 0 0 1 -5.564788,0.16979 3.9399772,3.3240488 0 0 1 -0.208321,-4.69464 3.9399772,3.3240488 0 0 1 5.564258,-0.18172" /><path
       id="path44270-5"
       style="fill:#cd6b9d;fill-opacity:0;stroke:#d6dce8;stroke-width:0.576776"
       d="m 87.957462,140.38872 a 3.9399772,3.3240488 0 0 1 0.194168,4.69507 3.9399772,3.3240488 0 0 1 -5.564787,0.16978 3.9399772,3.3240488 0 0 1 -0.208321,-4.69463 3.9399772,3.3240488 0 0 1 5.564257,-0.18173" /><path
       id="path44270"
       style="fill:#50668c;fill-opacity:0;stroke:#d6dce8;stroke-width:0.576776"
       d="m 73.638546,140.27584 a 3.9399772,3.3240488 0 0 1 0.194168,4.69507 3.9399772,3.3240488 0 0 1 -5.564788,0.16978 3.9399772,3.3240488 0 0 1 -0.208321,-4.69464 3.9399772,3.3240488 0 0 1 5.564258,-0.18172" /></g></svg>
