<?xml version="1.0" encoding="UTF-8" standalone="no"?>
<!-- Created with Inkscape (http://www.inkscape.org/) -->

<svg
   width="191.87781mm"
   height="81.345367mm"
   viewBox="0 0 191.87781 81.345367"
   version="1.1"
   id="svg1711"
   xml:space="preserve"
   xmlns="http://www.w3.org/2000/svg"
   xmlns:svg="http://www.w3.org/2000/svg"><defs
     id="defs1708" /><g
     id="layer1"
     transform="translate(480.12633,50.316874)"><path
       style="fill:#8b7337;fill-opacity:1;stroke-width:0.264583"
       d="m -312.21375,-13.636912 c 0.12687,0.220639 0.38043,0.661619 0.74971,1.604214 0.36928,0.942595 0.85434,2.3867523 1.33941,3.897097 0.48507,1.5103447 0.97013,3.0867895 1.35048,4.2663965 0.38035,1.179607 0.65595,1.9623133 0.94809,2.89387719 0.29214,0.93156388 0.60081,2.01192311 0.7883,2.55195811 0.1875,0.540035 0.25365,0.540035 2.28216,0.4849089 2.0285,-0.055126 6.01924,-0.1653674 8.07113,-0.2232479 2.05189,-0.057881 2.1649,-0.063394 2.25024,-0.081321 0.0854,-0.017927 0.14326,-0.048263 0.20386,-0.093724 0.0606,-0.045461 0.12396,-0.1060722 0.16941,-0.1886579 0.0455,-0.082586 0.073,-0.1873239 0.0566,-0.3650322 -0.0165,-0.17770826 -0.0771,-0.42850311 -0.85435,-2.7483652 -0.77724,-2.3198622 -2.27105,-6.7086127 -3.85986,-10.6180465 -1.58881,-3.909433 -3.27257,-7.339333 -4.6757,-9.677976 -1.40314,-2.338642 -2.52564,-3.585863 -3.60137,-4.427838 -1.07574,-0.841976 -2.1047,-1.278506 -2.9156,-1.114847 -0.8109,0.163658 -1.40334,0.927599 -1.89446,1.917682 -0.49112,0.990082 -0.88088,2.206134 -1.06015,3.593775 -0.17927,1.387642 -0.1481,2.946684 -0.0255,4.326751 0.12264,1.380067 0.33671,2.581046 0.44371,3.1814 0.10701,0.600353 0.10703,0.600356 0.2339,0.820996 z"
       id="path15626" /><path
       style="fill:#594a23;fill-opacity:1;stroke-width:0.264583"
       d="m -305.71348,-21.357931 c 2.17879,4.568084 6.48183,13.6107061 8.72695,18.2255302 2.24512,4.6148241 2.43221,4.8019121 2.60038,4.8229498 0.16816,0.021038 0.31765,-0.1236916 1.29989,-1.00458381 0.98224,-0.88089225 2.79714,-2.49788279 3.75528,-3.34926779 0.95814,-0.851385 1.05948,-0.9371371 1.07907,-1.018833 0.0196,-0.081696 -0.0428,-0.1596468 -0.26496,-0.4753581 -0.22218,-0.3157114 -0.60414,-0.86917 -1.4032,-2.31133 -0.79906,-1.4421599 -2.01511,-3.7729253 -3.20002,-6.0725803 -1.18491,-2.299654 -2.3386,-4.568058 -3.43775,-6.700104 -1.09916,-2.132047 -2.14372,-4.127629 -3.05968,-5.90109 -0.91596,-1.77346 -1.70327,-3.324708 -2.17099,-4.236767 -0.46772,-0.912058 -0.61583,-1.184892 -0.799,-1.469434 -0.18317,-0.284543 -0.40144,-0.580758 -0.68603,-0.6394 -0.28458,-0.05864 -0.63537,0.120653 -1.44225,0.818372 -0.80688,0.697718 -2.06971,1.91377 -2.79861,2.693353 -0.7289,0.779584 -0.92378,1.122578 -0.9158,1.360392 0.008,0.237815 0.21844,0.370334 0.3509,0.48342 0.13245,0.113086 0.18703,0.206648 2.36582,4.774731 z"
       id="path15622" /><path
       style="fill:#594a23;fill-opacity:1;stroke-width:0.264583"
       d="m -316.0191,24.279684 c -1.28233,1.095241 -3.847,3.285731 -5.30863,4.52909 -1.46163,1.243359 -1.82022,1.539581 -2.11642,1.753943 -0.2962,0.214363 -0.53004,0.346875 -0.71315,0.409268 -0.18311,0.06239 -0.31558,0.0546 -0.44419,0.03125 -0.12861,-0.02335 -0.25334,-0.06232 -0.35483,-0.549448 -0.10148,-0.487123 -0.17944,-1.422553 -0.0976,-3.722242 0.0818,-2.29969 0.32348,-5.963429 0.56124,-9.884536 0.23777,-3.921106 0.47163,-8.0993379 0.67431,-11.4669614 0.20268,-3.3676236 0.37417,-5.92445194 0.52228,-8.5748986 0.14811,-2.6504467 0.27284,-5.3943587 0.43653,-7.63945 0.1637,-2.245092 0.36637,-3.991217 0.53009,-4.942358 0.16371,-0.95114 0.28843,-1.107038 1.17715,-1.886612 0.88871,-0.779573 2.54129,-2.182711 4.13157,-3.422192 1.59028,-1.23948 3.11815,-2.315224 4.24073,-2.977839 1.12259,-0.662616 1.83976,-0.912067 2.17486,-0.88854 0.33509,0.02353 0.28832,0.319751 0.0779,2.650615 -0.21047,2.330865 -0.58464,6.696182 -0.96661,11.077219 -0.38198,4.3810358 -0.77175,8.7775284 -1.15373,12.8311528 -0.38197,4.0536243 -0.75614,7.7641417 -1.08355,10.8979012 -0.32741,3.133759 -0.60804,5.690585 -0.76979,7.294493 -0.16175,1.603907 -0.20462,2.254809 -0.22604,2.634843 -0.0214,0.380033 -0.0214,0.489173 -0.0234,0.551565 -0.002,0.06239 -0.006,0.0777 -0.004,0.103156 0.002,0.02546 0.01,0.06059 0.0136,0.07797 0.004,0.01739 0.004,0.01737 -1.27849,1.112607 z"
       id="path14312" /><path
       style="fill:#8b7337;fill-opacity:1;stroke-width:0.264583"
       d="m -320.90423,-13.955263 c -0.13591,2.363758 -0.51552,6.9478674 -0.85735,11.3487154 -0.34182,4.400848 -0.64583,8.6179681 -1.02392,13.7669086 -0.37808,5.14894 -0.83021,11.229202 -1.09526,14.647468 -0.26505,3.418266 -0.343,4.174404 -0.40537,4.595274 -0.0624,0.42087 -0.10916,0.506648 -0.21038,0.568935 -0.10122,0.06229 -0.25711,0.10126 -1.99546,-0.03902 -1.73834,-0.140281 -5.0591,-0.459885 -6.75069,-0.642978 -1.6916,-0.183092 -1.75397,-0.229872 -1.76192,-0.533884 -0.008,-0.304013 0.0388,-0.865265 0.40521,-4.653883 0.36638,-3.788617 1.05236,-10.804307 1.62923,-16.767807 0.57686,-5.9635001 1.04457,-10.8744771 1.34859,-14.0939764 0.30402,-3.2194993 0.44434,-4.7473596 0.51451,-5.7373606 0.0702,-0.990002 0.0702,-1.442125 0.10134,-2.011205 0.0312,-0.569081 0.0935,-1.255061 0.60034,-1.691742 0.50682,-0.436681 1.45784,-0.623766 3.10208,-0.816522 1.64425,-0.192755 3.98144,-0.391178 5.20419,-0.418582 1.22276,-0.0274 1.33078,0.1159 1.19486,2.479659 z"
       id="path14237" /><path
       style="fill:#8b7337;fill-opacity:1;stroke-width:0.264583"
       d="m -464.75124,-20.99978 c -0.0609,0.436619 -0.18274,1.309633 -0.30963,2.228339 -0.1269,0.918706 -0.25887,1.883063 -0.51774,3.258571 -0.25887,1.375509 -0.64461,3.16211 -0.96946,4.608683 -0.32484,1.446573 -0.58878,2.5530416 -0.89332,3.6950692 -0.30455,1.1420276 -0.64968,2.3195578 -0.96437,3.4615996 -0.3147,1.1420418 -0.59893,2.2485144 -0.81211,3.18753145 -0.21318,0.93901703 -0.35529,1.71050595 -0.52787,2.43631505 -0.17258,0.7258092 -0.3756,1.4059335 -0.67506,2.58859 -0.29947,1.1826565 -0.69536,2.8677436 -1.05574,4.3752278 -0.36038,1.5074839 -0.68522,2.8372799 -0.98468,4.2584929 -0.29947,1.421212 -0.57354,2.93373 -0.85753,4.615919 -0.28398,1.68219 -0.57785,3.533929 -0.71756,4.49218 -0.1397,0.958251 -0.12534,1.02283 0.19062,1.083704 0.31595,0.06087 0.93325,0.118296 2.87943,0.251086 1.94619,0.132791 5.22112,0.34095 6.86668,0.445023 1.64557,0.104073 1.66167,0.104073 1.73875,0.05739 0.0771,-0.04668 0.21524,-0.139989 0.40994,-0.27727 0.1947,-0.13728 0.44592,-0.318519 0.66394,-0.49168 0.21802,-0.173162 0.40285,-0.338257 1.99233,-7.727944 1.58947,-7.3896873 4.58353,-22.0035966 6.02997,-29.366494 1.44645,-7.362897 1.34494,-7.474555 1.07341,-7.566034 -0.27152,-0.09148 -0.71311,-0.162538 -2.70319,-0.317756 -1.99007,-0.155217 -5.5285,-0.394558 -7.45573,-0.464017 -1.92723,-0.06946 -2.24306,0.03103 -2.36452,0.18134 -0.12146,0.150308 -0.0485,0.350069 -0.0121,0.449791 0.0364,0.09972 0.0364,0.09972 -0.0245,0.536342 z"
       id="path5456" /><path
       style="fill:#382c12;fill-opacity:1;stroke-width:0.264583"
       d="m -299.0309,-34.37115 c -1.63961,1.711375 -4.91842,5.13411 -9.2799,8.941623 -4.36148,3.807512 -9.80563,7.999796 -12.53588,10.097312 -2.73025,2.097515 -2.74676,2.100277 -2.81428,2.10718 -0.0675,0.0069 -0.18604,0.01792 -0.25366,-0.09355 -0.0676,-0.111477 -0.0842,-0.34573 -0.0787,-0.822551 0.006,-0.476821 0.0331,-1.196146 0.0496,-2.59487 0.0165,-1.398724 0.022,-3.476764 0.0247,-4.515937 0.003,-1.039173 0.003,-2.097506 0.14053,-2.257352 0.1378,-0.159847 0.41339,-0.479539 1.95684,-1.857621 1.54345,-1.378082 4.35459,-3.81441 7.03353,-6.135047 2.67893,-2.320637 5.2255,-4.525457 7.74458,-6.735853 2.51908,-2.210397 5.01051,-4.426226 6.59805,-5.73814 1.58754,-1.311914 2.27103,-1.719808 2.72754,-1.968892 0.45651,-0.249084 0.68595,-0.339343 0.80455,-0.38599 0.1186,-0.04665 0.12668,-0.0498 0.13509,-0.0517 0.008,-0.0019 0.0169,-0.0026 0.0241,-0.0027 0.007,-1.29e-4 0.0118,1.96e-4 0.0147,8.93e-4 0.003,6.96e-4 0.005,0.003 0.004,0.0088 -2.5e-4,0.0058 -0.001,0.01636 -0.006,0.07087 -0.004,0.0545 -0.0119,0.152707 -0.079,1.134033 -0.0671,0.981325 -0.1936,2.845708 -0.28025,4.176464 -0.0866,1.330755 -0.13341,2.127814 -0.17434,2.827453 -0.0409,0.69964 -0.076,1.301819 -0.0946,1.630428 -0.0185,0.32861 -0.0205,0.383552 -0.0211,0.41188 -5.3e-4,0.02833 8.2e-4,0.03112 6.8e-4,0.03339 -1.4e-4,0.0023 -10e-4,0.006 -0.002,0.0085 -1.2e-4,-9e-6 0,0 -1.63961,1.711374 z"
       id="path9353" /><path
       style="fill:#7b652c;fill-opacity:1;stroke-width:0.264583"
       d="m -440.77008,-6.3473019 c 2.01719,0.075035 6.05129,0.2250956 8.07519,0.3001201 2.0239,0.075025 2.0375,0.075025 2.06656,0.051639 0.0291,-0.023385 0.0739,-0.070141 0.10019,-0.313629 0.0263,-0.243488 0.0341,-0.6839183 -0.44727,-2.6181489 -0.48135,-1.9342303 -1.45185,-5.3621733 -1.99553,-7.1775163 -0.54368,-1.815344 -0.66062,-2.01803 -1.33878,-2.158493 -0.67815,-0.140462 -1.91759,-0.218415 -3.59361,-0.296373 -1.67602,-0.07796 -3.78854,-0.155911 -5.12156,-0.187101 -1.33302,-0.03119 -1.88647,-0.0156 -2.13603,0.175538 -0.24957,0.191138 -0.195,0.557522 -0.12095,1.075917 0.0741,0.518395 0.1676,1.188784 0.24946,1.718873 0.0819,0.530089 0.15202,0.919853 0.25337,1.453845 0.10134,0.533992 0.23386,1.212173 0.40147,1.948845 0.16761,0.736671 0.37029,1.531787 0.58467,2.342512 0.21438,0.810724 0.44044,1.6370137 0.58855,2.1904865 0.14811,0.5534728 0.21826,0.8341058 0.26596,1.0147429 0.0477,0.180637 0.0729,0.2613514 0.0904,0.3092754 0.0175,0.047924 0.0271,0.063061 0.0359,0.073264 0.009,0.010203 0.0169,0.015743 0.0208,0.018448 0.004,0.00271 0.004,0.00272 2.02118,0.077755 z"
       id="path11004" /><path
       style="fill:#584920;fill-opacity:1;stroke-width:0.264583"
       d="m -444.09281,-20.032902 c -0.22254,0.861461 -0.66759,2.584196 -1.02649,4.120326 -0.35891,1.53613 -0.63166,2.885583 -1.01928,4.845227 -0.38762,1.9596429 -0.89008,4.5293382 -1.34231,6.8048053 -0.45222,2.2754672 -0.85419,4.25657603 -1.25616,6.2808153 -0.40198,2.0242393 -0.80394,4.0914839 -1.1331,5.7449152 -0.32915,1.6534312 -0.58549,2.8929562 -0.82025,4.0380752 -0.23476,1.145119 -0.44794,2.19576 -0.60529,2.995185 -0.15735,0.799425 -0.25886,1.347585 -0.32486,1.657163 -0.066,0.309577 -0.0965,0.380607 -1.80283,1.552647 -1.70639,1.17204 -5.08867,3.445119 -6.86599,4.653473 -1.77733,1.208354 -1.9496,1.351916 -2.06433,1.416561 -0.11472,0.06464 -0.17212,0.05028 -0.079,-0.685421 0.0931,-0.735706 0.3372,-2.192826 0.53819,-3.309027 0.20098,-1.116202 0.3589,-1.891418 0.59937,-3.194253 0.24047,-1.302835 0.56348,-3.133205 0.87573,-4.924152 0.31224,-1.790947 0.61371,-3.5423665 0.91519,-5.2758889 0.30148,-1.7335223 0.60296,-3.4490451 0.93315,-5.2543533 0.3302,-1.80530809 0.68909,-3.7002806 1.02287,-5.3871454 0.33379,-1.6868648 0.64244,-3.1655184 0.87214,-4.2494161 0.2297,-1.0838977 0.38043,-1.7729815 0.8506,-3.9084943 0.47017,-2.135514 1.25974,-5.717302 1.68325,-7.630262 0.42351,-1.91296 0.48094,-2.157009 0.62463,-2.293502 0.14369,-0.136492 0.37341,-0.165206 1.94546,-0.06468 1.57205,0.100522 4.4863,0.330216 6.02242,0.481018 1.53613,0.150801 1.69404,0.222578 1.7441,0.330254 0.0501,0.107677 -0.007,0.251224 -0.036,0.322936 -0.0287,0.07171 -0.0286,0.07174 -0.25119,0.933197 z"
       id="path4493" /><path
       style="fill:#584920;fill-opacity:1;stroke-width:0.264583"
       d="m -428.70874,-7.4072266 c 1.96678,-1.4541013 5.90028,-4.3622624 7.85929,-5.8317774 1.959,-1.469514 1.94342,-1.500654 1.90836,-1.55913 -0.0351,-0.05848 -0.0896,-0.144229 -0.31571,-0.498925 -0.22607,-0.354695 -0.62362,-0.978304 -0.88865,-1.379773 -0.26503,-0.401469 -0.39755,-0.580764 -0.55341,-0.709465 -0.15587,-0.128701 -0.33516,-0.206651 -2.54756,-0.337716 -2.2124,-0.131065 -6.45769,-0.315105 -8.56393,-0.346346 -2.10625,-0.03124 -2.07318,0.09003 -1.98499,0.431792 0.0882,0.341759 0.2315,0.903984 0.73312,2.811224 0.50162,1.90724 1.3615,5.1593415 1.81074,6.8550131 0.44924,1.6956715 0.48783,1.8348532 0.50852,1.9065292 0.0207,0.071676 0.0234,0.075939 0.0316,0.083398 0.008,0.00746 0.022,0.018489 0.0287,0.023887 0.007,0.0054 0.007,0.00539 1.97385,-1.4487103 z"
       id="path10930" /><path
       style="fill:#735f2c;fill-opacity:1;stroke-width:0.264583"
       d="m -480.09752,-29.907598 c -0.0127,0.04069 -0.0381,0.121904 -0.0253,0.327532 0.0127,0.205628 0.0635,0.535545 0.17009,1.345123 0.10659,0.809578 0.26901,2.098771 0.40606,3.195123 0.13704,1.096352 0.2487,1.999802 0.35277,2.667265 0.10406,0.667463 0.2005,1.098884 0.26914,1.329792 0.0686,0.230908 0.10924,0.261358 0.36809,0.299322 0.25885,0.03796 0.73597,0.08365 1.51509,0.14455 0.77912,0.0609 1.86021,0.137036 2.99209,0.210633 1.13189,0.0736 2.31449,0.144654 3.55551,0.218252 1.24101,0.0736 2.54035,0.149731 3.42101,0.236044 0.88065,0.08631 1.34251,0.182747 5.34474,0.451737 4.00223,0.268991 11.54452,0.710564 17.7115,1.063325 6.16697,0.35276 10.95831,0.616691 15.43509,0.870477 4.47677,0.253786 8.63872,0.497412 14.00885,0.801956 5.37013,0.304543 11.94804,0.669983 17.59224,1.055743 5.6442,0.385759 10.35432,0.791804 16.52639,1.096337 6.17208,0.304533 13.80573,0.507555 20.44476,0.669977 6.63903,0.162421 12.28304,0.284235 16.9527,0.385749 4.66966,0.101514 8.36465,0.182723 11.34916,0.24363 2.9845,0.06091 5.25836,0.101513 6.50533,0.109254 1.24696,0.0077 1.46699,-0.01735 1.61274,-0.101599 0.14576,-0.08425 0.21755,-0.227831 0.27141,-0.863026 0.0539,-0.635196 0.0898,-1.762127 0.13282,-2.860386 0.0431,-1.09826 0.0933,-2.167772 0.10051,-3.079382 0.007,-0.91161 -0.0287,-1.665293 -0.0753,-2.246714 -0.0466,-0.581421 -0.10407,-0.990557 -0.1578,-1.195281 -0.0537,-0.204724 -0.10397,-0.204724 -0.8505,-0.219077 -0.74653,-0.01435 -2.18927,-0.04306 -4.37504,-0.08254 -2.18577,-0.03948 -5.11436,-0.08973 -8.66037,-0.172273 -3.54601,-0.08255 -7.7092,-0.197394 -12.46831,-0.337368 -4.75911,-0.139973 -10.11386,-0.305066 -13.97209,-0.445037 -3.85823,-0.139971 -6.21977,-0.254817 -10.76356,-0.470163 -4.5438,-0.215346 -11.26951,-0.531175 -17.27402,-0.789589 -6.00451,-0.258414 -11.28747,-0.459396 -16.64237,-0.703451 -5.3549,-0.244055 -10.78143,-0.531173 -17.58631,-0.832657 -6.80489,-0.301485 -14.98773,-0.617314 -21.2327,-0.918792 -6.24497,-0.301478 -10.55173,-0.588595 -14.95194,-0.825476 -4.40021,-0.236882 -8.89357,-0.423507 -11.84378,-0.559889 -2.95021,-0.136382 -4.35707,-0.222517 -5.12514,-0.265594 -0.76807,-0.04308 -0.89727,-0.04308 -0.961,-0.0015 -0.0637,0.04162 -0.0617,0.124547 -0.0607,0.165892 0.001,0.04134 9.6e-4,0.04135 -0.0117,0.08204 z"
       id="path6151" /><path
       style="fill:#8b7337;fill-opacity:1;stroke-width:0.264583"
       d="m -479.26505,-30.572621 c 0.78931,-0.441609 2.36784,-1.324775 4.41082,-2.515033 2.04297,-1.190258 4.55029,-2.687546 6.67955,-4.004691 2.12925,-1.317146 3.88032,-2.454073 5.08326,-3.243342 1.20293,-0.789269 1.85768,-1.230838 3.13931,-2.035348 1.28164,-0.80451 3.19005,-1.971891 4.90311,-2.923587 1.71307,-0.951696 3.23066,-1.687655 4.74069,-2.441399 1.51003,-0.753744 3.01238,-1.52522 3.86828,-1.958558 0.8559,-0.433337 1.06526,-0.5285 1.17569,-0.576061 0.11044,-0.04756 0.12184,-0.04756 0.1758,-0.04565 0.054,0.0019 0.15039,0.0057 2.68194,0.104066 2.53155,0.09834 7.49796,0.291216 12.55465,0.494245 5.05669,0.20303 10.20331,0.416203 13.51774,0.5634 3.31442,0.147197 4.79648,0.228407 8.51193,0.365449 3.71545,0.137042 9.664,0.329913 13.52152,0.441575 3.85751,0.111663 5.62381,0.142115 8.64895,0.197949 3.02514,0.05583 7.30891,0.137043 11.98873,0.192874 4.67981,0.05583 9.75539,0.08628 15.91731,0.121813 6.16192,0.03553 13.40984,0.07613 18.46016,0.152276 5.05032,0.07614 7.90279,0.187804 11.91768,0.309619 4.0149,0.121815 9.19197,0.25378 13.47586,0.38575 4.2839,0.13197 7.67438,0.263934 10.34167,0.36291 2.66729,0.09897 4.61121,0.164957 5.62633,0.199232 1.01512,0.03428 1.1013,0.03684 1.14007,0.04404 0.0388,0.0072 0.0303,0.01915 -0.0457,0.104674 -0.076,0.08552 -0.21951,0.244714 -0.38566,0.417598 -0.16616,0.172884 -0.35491,0.359445 -0.62877,0.639679 -0.27385,0.280234 -0.63273,0.65407 -1.08004,1.122502 -0.44731,0.468431 -0.98272,1.031105 -1.53986,1.609028 -0.55713,0.577923 -1.13429,1.169321 -1.95071,1.934505 -0.81643,0.765184 -1.87031,1.702432 -3.17688,2.830933 -1.30658,1.1285 -2.86526,2.44773 -4.10865,3.488705 -1.24339,1.040974 -2.17136,1.803585 -3.10161,2.558851 -0.93025,0.755266 -1.8627,1.503113 -2.63521,2.140462 -0.77251,0.63735 -1.38499,1.16412 -1.87575,1.608907 -0.49076,0.444786 -0.85968,0.80747 -1.23417,1.126792 -0.37448,0.319321 -0.75435,0.595129 -1.10225,0.869799 -0.3479,0.274669 -0.66364,0.548062 -0.99586,0.834585 -0.33221,0.286523 -0.68075,0.586047 -0.97331,0.846161 -0.29255,0.260114 -0.52896,0.480669 -0.78252,0.72696 -0.25357,0.24629 -0.52422,0.518259 -0.68785,0.650793 -0.16362,0.132535 -0.22049,0.125578 -2.19078,0.0875 -1.9703,-0.03808 -5.85383,-0.107258 -17.29746,-0.334725 -11.44362,-0.227467 -30.44653,-0.61321 -47.88667,-1.19184 -17.44014,-0.57863 -33.31652,-1.350117 -47.16305,-1.999808 -13.84653,-0.649691 -25.66243,-1.177549 -32.24346,-1.60425 -6.58102,-0.426702 -7.9269,-0.752285 -8.74882,-1.036132 -0.82192,-0.283847 -1.11981,-0.526103 -1.27157,-0.684893 -0.15177,-0.15879 -0.15713,-0.234173 -0.16082,-0.299492 -0.004,-0.06532 -0.006,-0.120503 -0.006,-0.150144 -2.7e-4,-0.02964 8.7e-4,-0.0326 0.002,-0.0344 7e-4,-0.0018 7e-4,-0.01267 7e-4,-0.01267 0,0 7.6e-4,10e-7 0.79007,-0.441608 z"
       id="path8555" /></g></svg>
