<?xml version="1.0" encoding="UTF-8" standalone="no"?>
<!-- Created with Inkscape (http://www.inkscape.org/) -->

<svg
   width="306.91666mm"
   height="135.30167mm"
   viewBox="0 0 306.91666 135.30167"
   version="1.1"
   id="svg5"
   xml:space="preserve"
   xmlns:xlink="http://www.w3.org/1999/xlink"
   xmlns="http://www.w3.org/2000/svg"
   xmlns:svg="http://www.w3.org/2000/svg"><defs
     id="defs2"><linearGradient
       id="linearGradient8400"><stop
         style="stop-color:#33484e;stop-opacity:0.98823529;"
         offset="0"
         id="stop8396" /><stop
         style="stop-color:#253538;stop-opacity:1;"
         offset="1"
         id="stop8398" /></linearGradient><linearGradient
       id="linearGradient7692"><stop
         style="stop-color:#243435;stop-opacity:1;"
         offset="0"
         id="stop7690" /><stop
         style="stop-color:#1a2525;stop-opacity:1;"
         offset="0.62703961"
         id="stop7688" /></linearGradient><linearGradient
       xlink:href="#linearGradient7692"
       id="linearGradient7694"
       x1="-742.28876"
       y1="115.3914"
       x2="-700.68304"
       y2="115.3914"
       gradientUnits="userSpaceOnUse"
       gradientTransform="rotate(-90.233937,-720.95009,114.85778)" /><linearGradient
       xlink:href="#linearGradient8400"
       id="linearGradient8402"
       x1="-733.82159"
       y1="80.882179"
       x2="-701.66296"
       y2="80.882179"
       gradientUnits="userSpaceOnUse"
       gradientTransform="rotate(-90,-718.39709,81.53699)" /></defs><g
     id="layer1"
     transform="translate(872.1195,-25.631147)"><path
       style="display:none;fill:#000000;stroke-width:0.383645"
       d="m -802.84954,156.35585 c 1.97761,-2.58482 7.45646,-9.9394 12.17526,-16.34355 l 8.5796,-11.64387 4.82479,-3.2224 4.82478,-3.22239 h 2.97554 2.97553 v -1.50768 c 0,-1.35081 -0.23059,-1.71474 -2.216,-3.49759 -4.1106,-3.69116 -17.59459,-11.52286 -29.63577,-17.212858 l -5.75363,-2.718851 h -23.75642 -23.75644 l -2.54991,-7.960645 c -1.40246,-4.378362 -3.67842,-11.456624 -5.05769,-15.729484 l -2.50777,-7.768825 h -4.55902 -4.55902 V 62.650356 59.77302 h 152.88287 152.88286 v -1.342758 -1.342767 h -152.32157 -152.32158 l 18.71691,-18.591302 18.71692,-18.591304 114.13464,-0.01276 114.13463,-0.01276 18.63841,17.740928 c 10.25114,9.757511 19.27161,18.296735 20.0455,18.976056 l 1.40708,1.235127 v 3.848174 3.848184 h -4.92232 -4.92232 l -1.2266,3.932371 c -0.67464,2.162805 -2.91095,9.197901 -4.96957,15.633566 l -3.74298,11.701196 -19.42656,0.09947 -19.42656,0.09947 -2.14876,2.09786 c -5.52577,5.394899 -13.6243,9.259609 -26.51396,12.652779 -17.77095,4.67818 -25.49224,7.40705 -25.49224,9.00949 0,0.74076 0.2246,0.78621 3.88584,0.78621 h 3.88585 l 5.99302,3.29663 5.99304,3.29663 11.50938,15.91688 c 6.33016,8.75429 11.56814,16.07914 11.63996,16.27743 0.0812,0.22431 -32.2984,0.35122 -85.69633,0.33588 -47.20481,-0.013 -85.92068,0.0692 -86.03529,0.1837 -0.11455,0.11455 -0.36392,0.20836 -0.55404,0.20836 -0.19013,0 1.27234,-2.11485 3.24994,-4.69967 z m 82.96846,-5.07376 c 38.82497,-0.15171 70.64284,-0.32546 70.7064,-0.38613 0.0635,-0.0606 -0.39583,-0.91663 -1.02083,-1.90217 l -1.13638,-1.79189 -0.67936,1.15008 -0.67937,1.15007 -4.43814,0.11817 c -2.44097,0.065 -32.81191,0.17213 -67.49095,0.23808 -59.24262,0.11266 -63.09693,0.0799 -63.78347,-0.54138 -0.40186,-0.36369 -0.78595,-0.59038 -0.85352,-0.50376 -0.60715,0.77841 -1.85671,3.12322 -1.57621,2.95774 0.19855,-0.11716 32.12688,-0.33708 70.95183,-0.48881 z m 59.84875,-8.25793 c 0.15769,-0.25512 -19.30618,-0.38365 -58.0997,-0.38365 -38.63544,0 -58.33681,0.12949 -58.33681,0.38365 0,0.25408 19.62233,0.38365 58.09971,0.38365 38.31931,0 58.18042,-0.13064 58.3368,-0.38365 z m -91.49046,-1.58262 c 3.01484,-0.90328 3.34125,-2.51832 0.72085,-3.56678 -2.06342,-0.82563 -2.27003,-0.75938 -0.94309,0.30234 1.07209,0.8578 1.0916,0.92386 0.38364,1.29789 -2.53635,1.33999 -8.25898,1.50178 -11.10203,0.31388 -1.25981,-0.52639 -1.88769,-1.75211 -0.89752,-1.75211 0.24618,0 0.33788,-0.10976 0.2038,-0.24378 -0.43725,-0.43725 -2.18596,1.00814 -2.18596,1.80678 0,2.14329 8.869,3.32523 13.82031,1.84178 z m 50.40293,-0.3724 c 2.86362,-1.03033 2.65701,-2.77767 -0.44084,-3.72843 l -1.43404,-0.44012 1.12366,0.89598 1.12367,0.89597 -1.00948,0.66145 c -1.96059,1.28463 -8.21805,1.50629 -10.93082,0.38722 -1.31652,-0.5431 -1.55971,-1.2035 -0.7673,-2.08361 0.35393,-0.39309 0.23384,-0.37948 -0.4584,0.0519 -2.34244,1.45985 -1.88355,2.67385 1.36052,3.5993 2.34441,0.66879 9.31413,0.52268 11.43303,-0.23969 z m -20.10398,0.0183 c 2.77311,-0.61589 3.83647,-1.15796 3.83647,-1.95574 0,-0.70654 -0.65606,-1.10259 -2.68553,-1.62115 -0.94143,-0.24056 -0.94319,-0.23688 -0.0958,0.19921 1.4269,0.73444 0.99935,1.41697 -1.30771,2.08765 -3.53629,1.02802 -10.48941,0.29324 -10.48941,-1.10851 0,-0.20662 0.30213,-0.60814 0.67138,-0.89225 0.57834,-0.44499 0.50166,-0.46003 -0.5532,-0.10846 -2.83018,0.94328 -2.45907,2.30017 0.87984,3.21685 2.25342,0.61867 7.35014,0.71407 9.74406,0.18238 z m 40.68274,-0.59252 c 0.72819,-0.42528 1.37827,-1.05512 1.44461,-1.39964 0.1509,-0.78355 -1.27753,-1.74625 -3.01552,-2.03231 l -1.32271,-0.21771 1.28031,0.59132 c 0.70416,0.32522 1.20934,0.80913 1.1226,1.07534 -0.36612,1.12375 -2.37694,1.63494 -6.43118,1.63494 -5.44427,0 -7.98364,-1.24189 -5.4907,-2.68525 0.59332,-0.34352 0.76252,-0.52726 0.37601,-0.40834 -0.38653,0.1189 -0.86128,0.21624 -1.05503,0.21624 -0.46882,0 -1.88685,1.43497 -1.88685,1.90939 0,0.52973 1.71174,1.58664 3.17469,1.9602 0.68047,0.17375 3.31681,0.27387 5.85851,0.22249 3.82775,-0.0774 4.84863,-0.2262 5.94526,-0.86667 z m -25.76356,-0.92353 c 0.59437,0 0.62493,-0.24494 0.301,-2.41248 l -0.36055,-2.4125 -1.67512,-0.0729 c -1.58532,-0.069 -1.67535,-0.0168 -1.67935,0.97382 -0.003,0.57569 -0.10904,1.68069 -0.23718,2.45553 -0.21911,1.32512 -0.16759,1.41845 0.86744,1.57104 0.6052,0.0892 1.33028,0.10266 1.61131,0.0299 0.28101,-0.0728 0.80862,-0.13238 1.17245,-0.13238 z m 20.16533,-0.0958 c 0.0818,-0.26375 0.23568,-2.17213 0.34208,-4.24083 0.18498,-3.59634 0.15691,-3.77493 -0.64023,-4.07296 -1.80825,-0.67606 -2.57575,-0.84175 -2.4967,-0.53898 0.0455,0.17416 -0.0547,2.19433 -0.2224,4.48926 -0.2446,3.34534 -0.20203,4.2379 0.21469,4.50196 0.78472,0.49725 2.63382,0.4059 2.80256,-0.13848 z m -36.43538,-0.35384 c 0.54291,-0.24737 0.93947,-0.54949 0.88126,-0.67138 -0.0583,-0.12194 -0.7009,-1.64591 -1.42817,-3.38671 -1.32691,-3.17608 -1.73235,-3.54003 -3.03635,-2.72565 -0.67668,0.42259 -0.66871,0.55118 0.20812,3.3569 0.50147,1.60461 0.98765,3.13327 1.08044,3.39703 0.21128,0.60067 1.01878,0.61116 2.2947,0.0299 z m -33.56089,-1.66031 c 0,-0.88096 -0.14065,-0.9591 -1.72641,-0.9591 -1.4499,0 -1.7264,0.11861 -1.7264,0.7406 0,0.72825 0.64268,1.00755 2.58961,1.12537 0.67892,0.041 0.8632,-0.15251 0.8632,-0.90687 z m -0.20073,-3.24658 c 0.12557,-0.20308 0.0316,-1.49788 -0.20856,-2.87733 -0.45912,-2.63642 -0.66113,-2.81145 -2.45687,-2.12872 -0.94724,0.36014 -0.98587,0.48176 -0.76132,2.39778 0.13006,1.11012 0.30353,2.2342 0.38539,2.49796 0.17403,0.56074 2.70621,0.6526 3.04136,0.11034 z m 49.61074,-4.77289 -0.11151,-2.72261 -1.21315,-0.11774 -1.21314,-0.11774 -0.13152,2.61141 c -0.0724,1.43627 0.0319,2.72839 0.23177,2.87138 0.19979,0.14297 0.85508,0.246 1.45618,0.22891 l 1.0929,-0.031 z m -1.01007,-1.37985 c 0,-0.52751 0.0871,-0.74331 0.19352,-0.47956 0.10643,0.26376 0.10643,0.69536 0,0.95912 -0.10643,0.26375 -0.19352,0.048 -0.19352,-0.47956 z m -17.77791,1.96939 c 0.40394,-0.25613 0.30708,-0.80985 -0.48085,-2.74894 -0.54267,-1.33551 -1.23835,-2.81232 -1.54595,-3.28178 -0.99048,-1.51166 -4.8092,-1.60662 -4.8092,-0.11963 0,0.18088 0.68075,0.67615 1.51277,1.10062 1.27684,0.6514 1.64384,1.13125 2.35328,3.07696 0.85543,2.3461 1.60055,2.84103 2.96995,1.97273 z m -4.82865,-5.97813 c -1.40051,-0.77384 -1.46881,-1.01848 -0.15664,-0.56105 0.67016,0.23361 1.21846,0.58051 1.21846,0.77086 0,0.19037 -0.0432,0.3292 -0.0958,0.30851 -0.0528,-0.0207 -0.48742,-0.25393 -0.96592,-0.51832 z m 45.84275,3.14157 c 0.24044,-0.89894 0.87194,-2.27517 1.40337,-3.05825 0.90545,-1.33427 0.79176,-2.2175 -0.20607,-1.6008 -0.25722,0.15896 -0.33942,0.10628 -0.19604,-0.12572 0.13572,-0.2197 -0.03,-0.62921 -0.36835,-0.91003 -0.52645,-0.43692 -0.72785,-0.37399 -1.39584,0.43608 -0.81915,0.99338 -3.1089,5.72911 -2.8805,5.95752 0.27012,0.27012 2.04221,0.88783 2.61447,0.91135 0.38059,0.0157 0.74782,-0.55902 1.02896,-1.61015 z m -73.62069,-0.23465 c 0.41102,-0.26058 0.42201,-0.64766 0.057,-2.00827 -0.61005,-2.27424 -0.55582,-2.23068 -2.24395,-1.80219 l -1.49038,0.37829 0.60227,1.88336 c 0.51521,1.6111 0.7442,1.88249 1.58407,1.87748 0.53999,-0.003 1.21092,-0.15114 1.49094,-0.32867 z m 52.39839,-4.65754 c 0.14036,-1.0576 0.35366,-2.17975 0.47412,-2.49369 0.16458,-0.42888 -0.0737,-0.57079 -0.95816,-0.57079 -1.0637,0 -1.21743,0.15719 -1.59458,1.63048 -0.22955,0.89678 -0.50102,1.87566 -0.60324,2.1753 -0.22179,0.65004 0.48829,1.16762 1.61301,1.17574 0.68825,0.004 0.85312,-0.2907 1.06885,-1.91704 z m -29.22691,0.40776 c -0.058,-0.25305 0.0365,-0.37235 0.21015,-0.26509 0.17355,0.1073 0.52949,0.0628 0.791,-0.0987 0.27515,-0.17006 -1.64762,-0.80507 -4.56402,-1.50734 -4.94257,-1.19014 -5.05684,-1.19981 -5.94261,-0.50308 l -0.90313,0.7104 3.72244,0.86043 c 2.04733,0.47325 4.24034,0.99947 4.87337,1.16941 1.38132,0.37081 1.95506,0.25502 1.8128,-0.36592 z m -25.4029,-1.93987 c 0.68494,-0.36657 0.66149,-0.4894 -0.4692,-2.458 -1.13295,-1.97249 -1.238,-2.05161 -2.18486,-1.6457 -2.32509,0.99677 -2.37117,1.10206 -1.25022,2.85674 1.07738,1.6865 2.33342,2.08764 3.90428,1.24696 z m 82.28913,-1.76726 c 1.05435,-0.76219 2.8977,-1.85799 4.09633,-2.43507 l 2.17934,-1.04926 -0.78177,-0.78177 -0.78177,-0.78175 -3.31578,1.54232 c -4.21839,1.96214 -6.39091,3.48961 -5.71909,4.02101 0.53471,0.42295 1.42539,0.79319 2.02086,0.84005 0.21169,0.0167 1.24754,-0.59332 2.30188,-1.35553 z m -69.45918,0.55695 c 1.29246,-0.58889 1.23357,-0.8425 -0.32663,-1.40668 -1.2174,-0.44022 -3.74777,-2.86468 -4.6606,-4.4655 -0.32263,-0.56581 -0.60388,-0.63625 -1.43127,-0.35847 l -1.02974,0.34572 1.16327,2.0351 c 0.76462,1.33767 1.77389,2.42234 2.94505,3.16508 2.0289,1.28668 2.02194,1.28526 3.33992,0.68475 z m 42.93775,-3.29533 c 0.10715,-0.36926 0.31243,-1.67278 0.45612,-2.89671 l 0.26124,-2.22533 -1.10166,0.17964 c -0.60589,0.0987 -1.21695,0.19385 -1.35789,0.21119 -0.14094,0.0174 -0.31358,1.24042 -0.38366,2.71794 l -0.12745,2.68639 1.02916,-7.7e-4 c 0.64966,-3.8e-4 1.10105,-0.24844 1.22407,-0.67225 z m -60.20181,-0.92478 c 0.53744,-0.24488 0.97717,-0.58066 0.97717,-0.74617 0,-0.16553 -0.96356,-0.99095 -2.14122,-1.83425 l -2.14123,-1.53329 -1.49389,0.77866 -1.4939,0.77867 1.8128,1.47611 c 1.92224,1.56523 2.899,1.80074 4.48027,1.08027 z m 100.78136,-2.1553 5.2355,-1.43595 -0.90854,-1.13941 -0.90854,-1.13942 -5.09424,1.67192 c -2.80184,0.91956 -5.17799,1.74806 -5.28035,1.84114 -0.10237,0.0931 0.24293,0.49884 0.7673,0.90172 0.52436,0.40289 0.95337,0.7333 0.95337,0.73424 0,7.7e-4 2.35598,-0.64445 5.2355,-1.43424 z m -10.41855,-1.6018 c 0.10759,-0.16776 0.7999,-0.43295 1.53842,-0.58932 0.73853,-0.15637 3.67341,-0.96525 6.52198,-1.79752 2.84857,-0.83227 6.30138,-1.76007 7.67292,-2.06177 3.87177,-0.85169 7.69716,-2.07597 9.59115,-3.06958 0.94951,-0.49813 2.158,-0.99451 2.68551,-1.10307 0.91449,-0.18821 9.76791,-4.926475 10.53109,-5.636148 0.21124,-0.196432 -8.29645,-0.338909 -20.23733,-0.338909 h -20.60177 v 3.644637 c 0,3.27008 0.0718,3.64464 0.69894,3.64464 1.66086,0 4.37823,-1.35174 7.63734,-3.79914 2.78942,-2.094686 3.87338,-2.680834 5.3498,-2.892925 l 1.85156,-0.265974 -1.44222,1.20801 c -0.79324,0.664404 -1.34412,1.366755 -1.22421,1.560799 0.47173,0.76326 1.89128,0.28092 3.47817,-1.181813 1.70461,-1.571249 2.82634,-1.836367 5.08771,-1.202427 0.85999,0.241092 0.77242,0.377247 -1.53458,2.38616 -5.38,4.68482 -8.20458,6.37856 -15.68241,9.40387 -2.63189,1.0648 -4.0747,1.85722 -4.16218,2.28599 -0.11092,0.5438 0.0528,0.60942 0.95528,0.38288 0.59904,-0.15035 1.17721,-0.41062 1.28483,-0.57839 z m -97.25576,-0.99937 c 0.78708,-0.32886 1.36925,-0.65583 1.2937,-0.72658 -0.0755,-0.0708 -1.04533,-0.66133 -2.15503,-1.31241 -1.98956,-1.16726 -2.03631,-1.17486 -3.35691,-0.54511 -0.73659,0.35125 -1.33419,0.73615 -1.328,0.85531 0.0155,0.30017 3.15089,2.25304 3.68245,2.29367 0.23799,0.0181 1.0767,-0.236 1.86379,-0.56488 z m 17.4064,-1.60802 c -0.38989,-1.21327 -0.79922,-2.8288 -0.90964,-3.59007 -0.18081,-1.24682 -0.29918,-1.36527 -1.19333,-1.19434 -0.92596,0.17699 -0.97668,0.29571 -0.75535,1.76775 0.1305,0.86789 0.44038,2.39803 0.68863,3.4003 0.41981,1.69482 0.5363,1.82233 1.66498,1.82233 h 1.2136 z m 103.15683,0.34567 4.69683,-1.45395 -0.77941,-0.83657 c -0.42866,-0.46012 -0.98059,-0.83658 -1.22651,-0.83658 -0.75224,0 -8.90133,2.35979 -9.2374,2.67494 -0.22753,0.21337 1.46056,2.00614 1.80551,1.91746 0.0242,-0.006 2.15773,-0.66563 4.74098,-1.4653 z m -54.51433,-0.35154 c 0.57887,-0.37075 -1.26826,-5.07743 -1.99263,-5.07743 -0.91233,0 -0.97529,0.68458 -0.2804,3.04918 0.66601,2.26634 1.18217,2.72692 2.27303,2.02825 z m 33.63284,-2.50769 c -0.116,-0.18776 -1.01062,-0.21554 -1.98794,-0.0618 -0.97733,0.1538 -1.99276,0.28543 -2.25652,0.29252 -0.4738,0.013 -0.6796,1.47531 -0.26582,1.88908 0.33557,0.33557 4.74653,-1.73761 4.51028,-2.11986 z m -105.97492,0.6749 c 0.62943,-0.32549 1.03988,-0.76096 0.91211,-0.9677 -0.12775,-0.20674 -1.24583,-0.88751 -2.48458,-1.51283 -2.21061,-1.11591 -2.2739,-1.12461 -3.42244,-0.47097 -0.64359,0.36628 -1.15985,0.75229 -1.14724,0.85779 0.0184,0.15328 4.44854,2.56749 4.88275,2.66081 0.0632,0.0131 0.62996,-0.2416 1.2594,-0.5671 z m 11.35479,-10.01749 c -0.0799,-0.0799 -4.87572,-0.09933 -10.65734,-0.04321 l -10.51202,0.102225 4.41193,1.87456 c 5.27812,2.242585 10.78224,4.983305 14.19489,7.068165 l 2.49371,1.52346 0.10701,-5.18994 c 0.0589,-2.854484 0.0416,-5.255351 -0.0383,-5.335289 z m 127.37927,7.88636 c 1.64531,-0.8646 3.06821,-1.64629 3.16198,-1.73707 0.0938,-0.0908 -0.17259,-0.50814 -0.59193,-0.92749 -0.76083,-0.76083 -0.77073,-0.75857 -4.677,1.06568 -2.15301,1.00546 -3.91516,1.93123 -3.9159,2.05724 -10e-4,0.32439 1.59933,1.05671 2.37821,1.08768 0.35924,0.0145 1.99932,-0.68144 3.64464,-1.54604 z m -28.73993,0.0755 c 0.78287,-0.40101 2.06305,-1.23919 2.84484,-1.86261 l 1.42145,-1.13348 -0.91144,-0.48778 c -0.82952,-0.44394 -1.07793,-0.34963 -2.76419,1.04938 -1.01905,0.84546 -2.28055,1.7576 -2.80335,2.02701 -0.90351,0.46558 -0.91299,0.50452 -0.19183,0.78627 0.41731,0.16303 0.80878,0.30857 0.86994,0.32339 0.0612,0.0148 0.75171,-0.30115 1.53458,-0.70218 z m -116.59622,-2.13861 c 0.44413,-0.43441 0.20298,-0.70117 -1.5346,-1.69756 -1.13384,-0.6502 -2.21379,-1.18378 -2.39989,-1.18577 -0.1861,-0.001 -0.93634,0.36598 -1.66721,0.81769 l -1.32887,0.82128 2.24269,1.07933 c 2.30574,1.10969 3.67285,1.15781 4.68788,0.16503 z m 28.88452,-2.53665 c -0.1321,-1.385647 -0.24484,-1.542392 -0.96926,-1.348005 -0.45084,0.12093 -0.9546,0.222314 -1.11947,0.2252 -0.16486,0.0029 -0.25905,0.609478 -0.20932,1.347995 0.0824,1.22357 0.19505,1.34277 1.26901,1.34277 1.14781,0 1.17467,-0.0409 1.02904,-1.56796 z m 47.76488,1.01973 c -0.11571,-0.30153 -0.32603,-1.16473 -0.46739,-1.918235 -0.2602,-1.387026 -0.68318,-1.641472 -1.68006,-1.010635 -0.45859,0.290203 -0.47189,0.606027 -0.0805,1.91236 0.39021,1.30239 0.63391,1.56474 1.45356,1.56474 0.69597,0 0.92307,-0.16078 0.77439,-0.54823 z m 76.43688,-1.34319 1.68948,-1.120854 -1.38333,-0.259521 c -1.08449,-0.203449 -1.63593,-0.07961 -2.55268,0.573156 -1.25657,0.894749 -1.45191,1.369739 -0.68981,1.677259 0.88913,0.35877 1.24148,0.25436 2.93634,-0.87004 z m -162.0433,-0.336375 c -0.11817,-0.118175 -0.42767,-2.32e-4 -0.68792,0.261955 -0.37607,0.37889 -0.33201,0.42295 0.21476,0.21476 0.37836,-0.14413 0.59129,-0.358583 0.47316,-0.476715 z m 214.6397,-49.948047 c -0.73851,-0.621663 -1.69036,-1.134941 -2.11521,-1.140616 -0.4898,-0.0065 -5.40346,-4.550268 -13.42776,-12.416834 l -12.65528,-12.406515 -61.57502,-0.255042 c -33.86625,-0.140273 -83.36476,-0.368445 -109.99666,-0.507049 l -48.42167,-0.252007 -1.83594,1.660837 c -1.00977,0.913463 -7.47661,7.242488 -14.37075,14.064503 l -12.53478,12.403661 139.13791,-0.01029 139.13792,-0.01029 z M -834.29934,39.52994 c 3.21557,-3.11552 7.35496,-7.114783 9.19862,-8.887253 l 3.35214,-3.222672 52.46834,0.254323 c 28.85758,0.139882 75.28332,0.254729 103.16831,0.255222 l 50.69997,8.97e-4 5.1205,4.700657 c 2.81627,2.585361 7.05753,6.469775 9.42502,8.632031 l 4.30454,3.931375 h -121.79197 -121.79196 z m 96.19508,4.173794 c 0,-0.685495 -0.57927,-0.738489 -11.02981,-1.00903 -13.30249,-0.344374 -34.05744,0.07718 -35.0746,0.712415 -0.38521,0.240563 -0.70037,0.568499 -0.70037,0.728749 0,0.160248 10.53108,0.29136 23.40239,0.29136 22.67439,0 23.40239,-0.0225 23.40239,-0.723494 z m -50.83775,-1.605907 c 1.6152,-0.780351 1.66034,-1.701588 0.12441,-2.539894 -1.84584,-1.007489 -11.03846,-1.016296 -12.87599,-0.01232 -2.08034,1.136622 -1.54981,2.208568 1.43866,2.906855 2.43687,0.569394 9.88347,0.335967 11.31288,-0.354623 z m 76.86872,0.387549 c 1.04446,-0.223999 2.17652,-0.713899 2.51568,-1.088667 0.56769,-0.627292 0.56265,-0.730272 -0.0635,-1.296928 -2.8929,-2.618029 -17.38707,-1.303438 -14.74619,1.337447 1.2623,1.262306 8.44143,1.874375 12.294,1.048148 z m -101.71412,-2.748208 c 1.53475,-1.524507 2.79045,-2.905632 2.79045,-3.069166 0,-0.163535 -0.83311,-0.297337 -1.85136,-0.297337 -1.46984,0 -2.03374,0.194149 -2.73644,0.942139 -0.48681,0.518176 -1.01755,0.906618 -1.17944,0.863204 -0.16191,-0.04341 -0.26847,0.04395 -0.23682,0.194155 0.0316,0.150201 -0.79917,1.142886 -1.84625,2.205965 l -1.90381,1.93287 h 2.08661 c 2.07635,0 2.10031,-0.01363 4.87706,-2.77183 z m 8.18023,-0.201424 2.78007,-2.973255 -1.81286,-0.118146 c -1.00682,-0.06561 -2.05546,0.0832 -2.35851,0.334709 -0.39469,0.327566 -0.54567,0.33282 -0.54567,0.01898 0,-0.306825 -0.22594,-0.292773 -0.77157,0.04798 -0.71694,0.447737 -1.15909,1.261546 -1.38437,2.548127 -0.051,0.291383 -0.65654,1.111426 -1.34555,1.822318 l -1.25277,1.292531 h 1.95559 c 1.94432,0 1.97161,-0.01712 4.73564,-2.973254 z m 200.05257,2.188331 c -1.86295,-0.727446 -3.18707,-0.749044 -45.9416,-0.749347 -43.7677,-3.11e-4 -44.02335,0.0042 -44.02335,0.766979 0,0.763119 0.24978,0.767194 45.94159,0.749347 l 45.94158,-0.01795 -1.91822,-0.749035 z m -215.32195,-2.380154 2.67114,-2.781432 -2.00058,-0.117421 c -2.25772,-0.132501 -2.40217,-0.04043 -5.45045,3.474316 l -1.9132,2.205963 h 2.01098 c 1.99498,0 2.03219,-0.0221 4.68211,-2.781432 z m 63.73607,1.556421 c -0.10527,-0.170265 3.97662,-0.309572 9.07077,-0.309572 7.23903,0 9.22727,-0.104748 9.10255,-0.479557 -0.1189,-0.357161 -2.08533,-0.506107 -7.70488,-0.58358 -4.14993,-0.05722 -7.54533,-0.238485 -7.54533,-0.402828 0,-0.164344 -0.38844,-0.304371 -0.8632,-0.311171 -0.47476,-0.0068 -1.7264,-0.140201 -2.78143,-0.296435 -1.05502,-0.156239 -2.09088,-0.269162 -2.30188,-0.250939 -0.211,0.01823 -2.02372,0.132661 -4.02827,0.254316 -2.00456,0.121655 -3.80865,0.378251 -4.00911,0.570221 -0.20045,0.191968 -2.97286,0.349035 -6.16092,0.349035 -4.50268,0 -5.96267,0.125715 -6.54115,0.563267 -0.66248,0.501064 0.1556,0.564616 7.40776,0.575469 4.5302,0.0068 8.15248,0.164706 8.15248,0.355434 0,0.188779 1.88862,0.328086 4.19697,0.309574 2.30832,-0.01852 4.11086,-0.172968 4.00564,-0.343234 z m 131.06083,-2.044967 c 13.98939,-0.292794 15.36563,-0.377126 13.81125,-0.846314 -1.40635,-0.424502 -9.04587,-0.521084 -41.20609,-0.520943 -37.10346,1.62e-4 -40.96134,0.09415 -40.07906,0.976434 0.10368,0.103646 5.8756,0.227914 12.82656,0.276151 6.95096,0.04824 15.05509,0.182116 18.00916,0.297507 6.96071,0.271894 17.40094,0.219794 36.63818,-0.182835 z m -129.30262,-1.717157 c 8.9957,-0.892917 9.20595,-2.189698 0.49923,-3.079191 -5.99428,-0.612384 -14.23962,0.367849 -13.81705,1.642618 0.18973,0.572337 3.2866,1.348265 5.58561,1.399482 0.90922,0.02026 1.56872,0.17339 1.46557,0.340298 -0.20038,0.324223 0.0844,0.310441 6.26664,-0.303207 z m -21.68783,-4.891746 c 1.34585,-1.21328 2.46331,-2.335444 2.48324,-2.493698 0.02,-0.158253 -9.09628,-0.287734 -20.25828,-0.287734 h -20.29455 l -2.6283,2.358978 c -1.44556,1.297438 -2.70022,2.419602 -2.78814,2.493698 -0.0879,0.07409 9.10991,0.13472 20.4396,0.13472 h 20.59944 z m 143.69178,0.311301 15.91193,-0.215389 -1.96024,-1.438673 -1.96024,-1.438671 -29.48934,-0.03824 c -16.21913,-0.02103 -29.05773,-0.176465 -28.53021,-0.345403 0.52751,-0.16894 -5.94652,-0.297249 -14.38673,-0.285133 -8.4402,0.01218 -14.48263,0.140433 -13.42761,0.285133 1.05504,0.14471 -12.96579,0.290223 -31.15738,0.323373 l -33.07563,0.06028 -0.97295,1.431819 c -0.53511,0.787499 -0.97288,1.521221 -0.97279,1.630494 1.9e-4,0.271884 120.25286,0.29801 140.02119,0.03042 z m -165.06222,-3.708165 c -0.12746,-0.127484 -0.45838,-0.141114 -0.73533,-0.03029 -0.30604,0.122467 -0.21514,0.213377 0.2318,0.231786 0.40442,0.01666 0.63101,-0.07402 0.50353,-0.201499 z"
       id="path2209" /><path
       style="fill:#253538;fill-opacity:1;stroke:#fef2f0;stroke-width:0"
       d="m -633.90316,160.21806 -23.04071,-32.07705 -11.6582,-6.49882 -0.51264,0.3638 14.86628,30.26172 6.68073,4.56406 8.33437,2.64583 z"
       id="path7075" /><path
       style="fill:#253538;fill-opacity:1;stroke:#fef2f0;stroke-width:0"
       d="m -806.08619,160.86666 c 0.16537,-0.19843 24.04401,-32.60989 24.04401,-32.60989 l 9.59115,-6.64766 3.47265,1.28985 -21.84542,34.44261 -9.58829,2.57247 z"
       id="path7072" /><path
       style="fill:#2e4247;fill-opacity:1;stroke:#fef2f0;stroke-width:0"
       d="m -806.11926,160.93281 19.97604,-12.23698 h 133.08542 l 19.18229,11.50938 z"
       id="path6532" /><path
       style="fill:#3f5960;fill-opacity:1;stroke:#fef2f0;stroke-width:0"
       d="m -790.83957,151.47396 18.25625,-29.89792 h 104.02196 l 19.45722,29.40451 z"
       id="path6260" /><path
       style="fill:#666666;fill-opacity:1;stroke:#fef2f0;stroke-width:0"
       d="m -777.38733,143.38147 9.6573,-17.4625 h 94.32395 l 11.64167,17.59479 z"
       id="path5651" /><path
       style="fill:url(#linearGradient7694);fill-opacity:1;fill-rule:nonzero;stroke:#fef2f0;stroke-width:0"
       d="m -765.20868,136.37734 -0.16987,-41.605385 89.7587,-0.366484 0.1696,41.539239 z"
       id="path5033" /><path
       style="fill:url(#linearGradient8402);fill-opacity:1;stroke:#fef2f0;stroke-width:0"
       d="m -852.9124,96.96152 -10.36148,-32.15868 h 288.44396 l -10.19188,31.99125 z"
       id="path4002" /><path
       style="fill:#46636b;fill-opacity:1;stroke:#fef2f0;stroke-width:0"
       d="m -872.02026,57.076084 38.6338,-31.444937 h 228.36383 l 39.81979,31.518852 z"
       id="path2267" /><path
       style="fill:#33484f;fill-opacity:1;stroke:#fef2f0;stroke-width:0"
       d="m -872.1195,65.418228 v -6.81302 h 306.88359 v 6.945312 z"
       id="path2269" /><path
       style="fill:#617e81;fill-opacity:1;stroke:#fef2f0;stroke-width:0"
       d="m -872.11122,59.771028 v -2.720247 h 306.88359 v 2.736783 z"
       id="path2757" /><path
       style="fill:#7e8b8c;fill-opacity:1;stroke:#fef2f0;stroke-width:0"
       d="M -851.17183,50.265519 -826.6,29.784043 h 213.80816 l 25.68223,20.155443 z"
       id="path8826" /></g></svg>
