<?xml version="1.0" encoding="UTF-8" standalone="no"?>
<!-- Created with Inkscape (http://www.inkscape.org/) -->

<svg
   width="51.537067mm"
   height="612.71973mm"
   viewBox="0 0 51.537067 612.71972"
   version="1.1"
   id="svg5"
   xml:space="preserve"
   xmlns="http://www.w3.org/2000/svg"
   xmlns:svg="http://www.w3.org/2000/svg"><defs
     id="defs2"><clipPath
       clipPathUnits="userSpaceOnUse"
       id="clipPath394"><path
         id="path396"
         style="fill:#ff0000;fill-opacity:1;fill-rule:nonzero;stroke:none;stroke-width:0.264583"
         d="m -115.77588,18.36322 c 0.0289,0.04592 0.0556,0.09327 0.0847,0.13901 0.38337,1.225878 0.88571,2.420418 1.15032,3.677295 0.20145,0.956924 0.24826,1.946512 0.23926,2.924369 -0.0316,3.363966 -1.10304,6.522593 -2.68511,9.450586 -0.51078,0.768133 -0.98766,1.56006 -1.53272,2.304251 -1.2986,1.773039 -3.00986,3.202215 -4.54753,4.754232 -0.22115,0.22761 -0.46455,0.434163 -0.67489,0.671793 -0.7628,0.861803 -1.31901,1.893504 -1.98903,2.823085 -0.6271,0.984314 -1.26824,1.971826 -1.95853,2.920752 0.35433,-0.208053 0.71039,-0.413441 1.05781,-0.631487 1.01877,-0.399039 2.01237,-0.869243 3.05615,-1.197342 3.58846,-1.127993 7.55433,-1.244783 11.20345,-0.367935 0.75418,0.181221 1.47374,0.483687 2.21072,0.725535 0.67498,0.318693 1.37156,0.595556 2.02519,0.956016 3.60712,1.989135 6.35023,5.090994 8.1132,8.792745 0.828384,2.353961 1.279271,3.157447 1.489837,5.678204 0.263925,3.159572 -0.34217,6.221651 -1.157552,9.251633 -0.642575,2.083625 -0.910895,3.152992 -1.824695,5.208984 -0.13833,0.311224 -0.28912,0.615251 -0.43718,0.920874 0.66403,0.27083 1.32326,0.557218 2.085657,0.934826 1.779172,0.881208 3.425193,1.977462 5.002279,3.177069 2.126448,1.583576 4.271454,3.142655 6.408396,4.711856 2.317406,1.596967 4.697164,3.098655 7.188189,4.410067 V 18.36322 Z m -20.72225,3.694865 c -0.16445,0.154609 -0.30068,0.336608 -0.45113,0.504879 -0.0637,0.07711 -0.12751,0.1544 -0.19121,0.23151 -0.004,-0.02775 0.001,-0.107578 -0.0129,-0.0832 -0.0395,0.06911 -0.0733,0.144937 -0.10748,0.220142 0.059,-0.05938 0.12077,-0.115901 0.17931,-0.1757 0.14946,-0.152673 0.29437,-0.31004 0.4315,-0.473873 0.0578,-0.06906 0.21753,-0.285449 0.15193,-0.223759 z m -15.34118,5.469435 c -5.5803,0.05229 -11.15086,0.67487 -16.70027,1.237649 -7.4052,0.860928 -14.819,1.62278 -22.25498,2.157492 -2.86027,0.141878 -5.72091,0.281845 -8.58138,0.419095 0.40343,0.405418 0.80553,0.812607 1.20922,1.211297 4.00451,4.381214 7.06251,9.348536 9.73636,14.615644 2.20705,4.343998 3.47804,9.022773 4.38113,13.784688 0.64727,3.561816 0.85074,7.175773 0.98133,10.786423 0.0513,1.622001 0.0789,3.244357 0.10646,4.866886 0.0188,1.101688 -0.22277,2.087988 -0.65061,2.97036 0.57873,1.564146 1.11547,3.142671 1.5751,4.749065 0.41163,1.541571 0.91327,3.05589 1.35961,4.587317 0.63186,2.304351 0.92052,4.680566 1.12758,7.054865 0.29787,4.090499 -0.67317,7.293949 -2.83549,10.722349 -1.15895,1.91618 -2.93336,3.25261 -4.55269,4.73562 -1.16415,1.03573 -2.36334,2.02937 -3.60237,2.97398 -0.80298,0.60818 -1.77579,1.10073 -2.48925,1.78904 -1.36771,1.44627 -2.99978,2.5961 -4.65863,3.67885 -2.11478,1.38531 -4.4845,2.18934 -6.94015,2.70474 -2.16093,0.39767 -4.36289,0.42569 -6.55257,0.40979 -2.83052,-0.0961 -5.64418,-0.44085 -8.46563,-0.66869 -2.17198,-0.10247 -4.32429,-0.32727 -6.47196,-0.66507 -3.29832,-0.42184 -6.63848,-1.25042 -9.33431,-3.31763 -0.90076,-0.69072 -1.67887,-1.52654 -2.49597,-2.31614 v 107.15108 h 77.83142 c 0.98372,-2.27763 1.7889,-4.62972 2.5399,-6.99337 0.57497,-1.75908 0.97447,-3.5668 1.25212,-5.3945 0.14751,-0.93036 0.20398,-1.86904 0.23358,-2.80913 0.0419,-1.7267 0.0488,-3.45396 0.0568,-5.18108 0.0142,-2.26285 0.22658,-4.51968 0.36018,-6.77788 0.0954,-1.61175 0.71033,-2.94517 1.67535,-4.01733 -0.81618,-0.90675 -1.38926,-2.0306 -1.61643,-3.39566 -0.43535,-2.6159 -0.79789,-5.2327 -0.96687,-7.87962 -0.0487,-3.83107 0.82724,-7.28644 2.61379,-10.68048 0.93132,-1.76928 2.00655,-3.18884 3.1502,-4.80591 2.6513,-3.6063 5.757,-6.82896 9.10384,-9.78752 1.4637,-1.23449 2.71892,-2.18318 4.06848,-2.93264 -0.1225,-0.55496 -0.17502,-1.14247 -0.14676,-1.76268 0.0885,-1.94134 0.15211,-3.88335 0.20671,-5.82548 -0.4382,-1.91378 -0.63181,-3.24215 -1.03405,-5.60741 -0.44043,-2.96518 -0.62197,-5.95878 -0.70487,-8.95243 -0.0392,-1.41407 -0.0736,-2.89112 0.0987,-4.29793 0.10492,-0.85663 0.30862,-1.69802 0.46302,-2.54713 1.39495,-3.20584 1.78098,-4.87281 3.95634,-6.53448 -0.19141,-0.89176 0.9769,-1.83009 1.37046,-2.74195 2.70601,-6.49055 1.27624,-3.04699 2.89802,-7.06004 -1.79506,1.2863 -3.56572,2.60658 -5.3883,3.85351 -3.6409,2.4909 -7.68518,5.03416 -11.51868,7.22592 -2.36641,1.35297 -10.03218,5.62551 -12.57339,5.98516 -3.48419,0.49311 -7.03198,-0.27522 -10.5482,-0.41289 -2.44811,-2.86459 -5.24717,-5.46343 -7.34477,-8.59379 -0.57418,-0.85687 -0.35526,-2.03408 -0.46405,-3.05976 -0.21926,-2.06706 0.0858,-4.17169 0.20774,-6.2327 0.40516,-3.58972 1.04806,-7.157189 2.20916,-10.587983 0.85734,-2.294548 1.26327,-3.682798 2.62827,-5.855456 2.48891,-3.961609 6.13687,-6.878865 10.49186,-8.551934 0.86259,-0.284848 1.71322,-0.609727 2.58796,-0.854726 3.3544,-0.939509 6.82712,-1.24836 10.26759,-1.706356 1.23073,-0.211172 2.45538,-0.447135 3.67574,-0.7028 -1.3697,-1.244163 -2.66829,-2.566897 -3.88038,-3.974952 -0.80141,-0.930968 -1.51864,-1.931336 -2.2779,-2.896981 -2.712,-4.011805 -4.23681,-7.269966 -4.66018,-12.22716 -0.22975,-2.69013 0.25713,-5.649862 0.92139,-8.253759 0.26636,-1.044115 0.65986,-2.051471 0.98961,-3.077332 1.13129,-2.960404 2.50685,-5.826874 4.37337,-8.398454 0.95443,-1.314943 1.52857,-1.851684 2.63033,-3.021521 0.43278,-0.401293 0.86533,-0.802251 1.29812,-1.203544 0.34149,-0.292407 0.69483,-0.572048 1.02474,-0.877467 0.0224,-0.02074 -0.24588,0.106526 -0.24288,0.09147 0.0247,-0.116975 0.10647,-0.214048 0.16847,-0.316262 0.186,-0.306538 0.38352,-0.605938 0.57516,-0.908987 1.00076,-1.626118 2.1199,-3.159199 3.32382,-4.626591 -1.44156,-0.140406 -2.23116,-0.18419 -4.19199,-0.307475 -1.86185,-0.132588 -3.72302,-0.178665 -5.58312,-0.161229 z m 30.20797,34.876422 c -0.0513,0.303247 -0.082,0.567958 -0.0997,0.819071 0.0223,-0.125582 0.0503,-0.253722 0.0677,-0.376203 0.0208,-0.146442 0.0567,-0.588698 0.032,-0.442868 z m -116.31744,5.432743 v 0.792202 c 0.0933,-0.114014 0.17908,-0.231915 0.27336,-0.345199 -0.0934,-0.147884 -0.18129,-0.298358 -0.27336,-0.447003 z m 17.99941,14.898833 c -0.0202,0.02748 -0.0599,0.146047 -0.0713,0.195855 -0.0372,0.16301 -0.0614,0.328417 -0.0884,0.493509 0.009,-0.0057 0.0177,-0.01029 0.0264,-0.01603 0.0641,-0.05279 0.0115,-0.01183 0.0651,-0.05633 -0.0928,-0.01373 0.0919,-0.337362 0.0801,-0.608232 -7.9e-4,-0.01701 -0.005,-0.01794 -0.0119,-0.0088 z m -0.31677,14.844572 c 0.0325,0.341601 0.0684,0.715373 0.13952,1.37201 0.7888,0.03975 1.58142,0.04794 2.36265,0.150895 2.29995,0.187248 4.59452,0.440539 6.89674,0.594796 0.45196,0.01357 0.93243,0.0021 1.39423,-5.29e-4 0.21662,-0.22665 0.43239,-0.454221 0.67903,-0.646988 0.36623,-0.327131 0.73735,-0.650497 1.11311,-0.968417 -2.00081,0.52529 -4.06761,1.103759 -6.1557,0.961699 -1.92203,-0.130762 -3.88112,-0.405744 -5.66994,-1.120862 -0.26272,-0.105027 -0.51056,-0.224433 -0.75964,-0.342614 z m 10.52184,2.383317 c -0.0133,0.0059 -0.0261,0.01249 -0.0393,0.0186 v 5.29e-4 c -0.043,0.04885 -0.0861,0.09785 -0.12919,0.146764 0.0601,-0.0509 0.11146,-0.11152 0.16847,-0.165886 z m 104.02259,9.884673 c -0.32686,-0.092 -1.06316,0.90287 -1.37098,1.52083 -0.58127,1.16697 -0.99494,2.41005 -1.4857,3.61787 -3.03612,7.47235 -0.35622,1.01179 -3.57497,8.70489 -0.46015,1.0178 -0.96557,2.19671 -1.5198,3.40083 -0.26474,3.62601 -0.34763,7.26544 -0.45269,10.89908 -0.0311,1.41021 -0.0625,2.82025 -0.0956,4.23023 0.83071,2.62178 1.97523,5.14486 2.91868,7.72408 0.85294,2.26218 1.69171,4.53667 2.48667,6.82645 0.60667,0.32352 1.20803,0.65668 1.81385,0.98186 3.46987,2.25764 6.37366,5.0253 8.485784,8.61962 2.158976,3.67409 3.288064,7.72341 4.407998,11.78895 0.858014,3.80356 1.786006,7.6247 2.15129,11.51713 0.242681,2.58595 0.164335,2.97292 0.120406,5.56761 -0.233963,3.84378 -1.101886,7.60709 -1.910477,11.36107 -0.223538,1.23919 -0.225422,2.52168 -0.06356,3.76928 0.308803,2.04566 0.486841,4.10427 0.606681,6.16861 0.111475,2.22435 -0.03897,4.45121 -0.48524,6.61975 h 12.421462 V 115.50768 c -0.623794,0.0454 -1.238329,0.0838 -1.827794,0.12661 -1.975689,-0.0916 -2.55777,-0.0763 -4.600236,-0.36381 -3.548476,-0.49951 -6.996907,-1.49599 -10.461377,-2.38125 -2.529027,-0.69673 -2.165267,-0.60966 -4.603337,-1.23145 -0.46272,-0.11801 -0.92412,-0.24236 -1.3901,-0.34674 -0.22674,-0.0508 -1.1816,-0.1569 -1.49965,-0.38086 -0.0897,-0.0631 -0.11458,-0.18669 -0.17208,-0.28009 0.0712,-0.23067 0.31172,-0.47143 0.21342,-0.69194 -0.0275,-0.0618 -0.066,-0.0969 -0.11265,-0.11007 z m -49.40215,0.58394 c -0.002,0.1487 -0.0127,0.29711 -0.009,0.44597 0.004,0.18088 0.031,0.7225 0.032,0.54157 0.002,-0.32879 0.12987,-0.69978 -0.0227,-0.98754 z m 27.95643,68.4506 c -0.0123,0.01 -0.0337,0.0197 -0.0413,0.0284 -0.19272,0.21894 -0.35896,0.46438 -0.4899,0.72502 -0.0919,0.18304 -0.14663,0.33171 -0.21962,0.49661 0.28654,-0.29348 0.53554,-0.58473 0.79685,-1.05006 -0.008,-0.0302 -0.0198,-0.0598 -0.0258,-0.0904 -0.007,-0.0364 -0.013,-0.0731 -0.0202,-0.10956 z m 0.17777,5.43274 c 0.27706,0.66783 1.04414,1.04931 1.55132,1.5813 0.31805,0.3336 -1.07024,-1.16755 -1.55132,-1.5813 z m 9.17049,7.19905 c -0.86506,0.14138 -1.43619,0.2447 -0.21859,0.14418 0.0541,-0.004 0.10783,-0.0181 0.16175,-0.03 0.0189,-0.0381 0.0395,-0.0754 0.0568,-0.1142 z m 1.63246,8.66252 c -3.26009,1.24994 -6.82858,1.3529 -10.2464,0.72657 0.58602,0.85001 1.16183,1.70758 1.79731,2.52078 1.4054,1.7984 3.83897,4.51287 5.55366,6.04924 0.64523,0.57812 1.31546,1.11778 2.0004,1.63504 -0.18219,-3.15179 -0.0997,-6.31483 0.57206,-9.41648 0.1093,-0.50428 0.21392,-1.01038 0.32297,-1.51515 z m -0.27388,18.0728 c -0.0368,0.0397 -0.0587,0.0606 -0.0971,0.10232 -0.082,0.0886 0.0699,0.29008 0.0956,0.43563 0.0213,-0.17016 0.012,-0.36107 0.002,-0.53795 z m -0.0233,0.65319 c -0.0388,0.0396 -0.12116,0.0591 -0.27802,0.0444 0.17713,0.23116 -0.0816,-0.0669 0.12868,0.0589 0.0306,0.0184 0.035,0.1159 0.0589,0.0894 0.0445,-0.0492 0.0709,-0.11759 0.0904,-0.19275 z" /></clipPath></defs><g
     id="layer1"
     transform="translate(225.08949,425.47584)"><path
       style="display:none;fill:#000000;stroke-width:0.365272"
       d="m -145.21261,220.46727 c -2.73296,-2.72411 -4.54903,-5.44635 -4.1087,-6.15882 0.13155,-0.21285 0.0685,-0.28151 -0.14014,-0.15257 -0.35016,0.21642 -1.35803,-1.60033 -1.20127,-2.16536 0.038,-0.13683 -0.0796,-0.34935 -0.26128,-0.47226 -0.48295,-0.32675 -1.60478,-3.32307 -1.38021,-3.68643 0.10537,-0.1705 0.001,-0.37332 -0.23052,-0.4507 -0.23216,-0.0774 -0.43865,-0.89748 -0.45887,-1.82242 -0.0202,-0.92494 -0.15094,-1.49707 -0.2905,-1.2714 -0.13956,0.22567 -0.25199,-1.63933 -0.24985,-4.14445 0.004,-4.34405 0.41052,-7.35237 1.11704,-8.26034 0.17895,-0.22998 0.2897,-0.55872 0.24612,-0.73054 -0.15161,-0.59766 0.89464,-3.39204 1.19948,-3.20365 0.16877,0.10431 0.23247,-0.0244 0.14157,-0.28591 -0.15428,-0.44391 0.7512,-2.06676 3.20022,-5.7356 0.63323,-0.94862 1.18511,-1.42823 1.46109,-1.26976 0.24393,0.14007 0.32849,0.127 0.18792,-0.029 -0.47239,-0.52436 3.58926,-4.20217 6.68498,-6.05323 2.26512,-1.35441 3.30657,-1.78123 3.98085,-1.63149 0.69627,0.15463 0.78303,0.11473 0.36527,-0.16797 -0.47062,-0.31847 -0.45774,-0.37156 0.0913,-0.37637 0.52281,-0.005 0.63922,-0.33822 0.63922,-1.83196 v -1.82636 h -1.29709 c -1.15109,0 -1.36081,-0.15252 -1.86326,-1.35503 -0.58973,-1.41145 -0.48476,-3.71956 0.26729,-5.8769 0.32097,-0.92074 0.55077,-1.07099 1.54377,-1.00934 0.64166,0.0398 2.0707,-0.23204 3.17565,-0.60417 3.02696,-1.01944 6.43799,-1.74818 8.14996,-1.74117 1.39633,0.006 2.56578,0.27484 8.65253,1.99118 1.10495,0.31157 2.19401,0.49574 2.42013,0.40925 0.61628,-0.23571 1.18533,1.32037 1.42167,3.88761 0.25469,2.76657 -0.28063,4.06102 -1.74995,4.23152 -0.91375,0.10603 -0.99603,0.24652 -0.99603,1.70061 v 1.58503 l 2.43054,1.13739 c 8.58735,4.0185 14.954318,12.36593 16.588116,21.74788 0.619584,3.55792 0.252143,9.94797 -0.756887,13.16284 -1.308695,4.16964 -3.830379,8.65955 -6.456589,11.49609 -1.30736,1.41207 -2.49087,2.49704 -2.63002,2.41104 -0.13915,-0.086 -1.20791,-1.48261 -2.37501,-3.10358 l -2.12201,-2.94721 1.64515,-1.8298 c 6.03301,-6.71017 7.20395,-16.40755 2.95704,-24.48944 -3.31572,-6.30982 -9.19062,-10.32474 -16.95103,-11.58436 -1.9305,-0.31334 -1.97043,-0.34222 -1.022,-0.73908 2.20101,-0.92098 2.6641,-4.2639 0.81143,-5.8575 -0.8494,-0.73062 -1.307,-0.84892 -2.74808,-0.71045 -1.57179,0.15103 -2.69503,0.74324 -2.79279,1.47244 -0.0206,0.15401 -0.14312,0.76077 -0.27217,1.34834 -0.31124,1.41705 0.90356,3.66806 1.97953,3.66806 0.21525,0 0.39136,0.1287 0.39136,0.286 0,0.15731 -1.1917,0.50491 -2.64822,0.77246 -1.45652,0.26755 -3.11508,0.72604 -3.68569,1.01888 -0.5706,0.29283 -1.27772,0.44022 -1.57137,0.32754 -0.29365,-0.11269 -0.44338,-0.0584 -0.33273,0.12062 0.11064,0.17903 -0.31628,0.50589 -0.94872,0.72636 -1.4342,0.49997 -1.5097,0.49864 -1.18863,-0.0209 0.16277,-0.26338 0.10006,-0.32247 -0.16704,-0.1574 -0.23521,0.14537 -0.33953,0.40691 -0.23182,0.5812 0.10772,0.17429 -0.69672,1.02589 -1.78763,1.89244 -1.09091,0.86655 -2.19345,1.95113 -2.45008,2.41018 -0.25663,0.45905 -0.67393,0.75507 -0.92734,0.65783 -0.30074,-0.1154 -0.38222,0.0278 -0.23464,0.41242 0.16274,0.4241 0.0905,0.50544 -0.25768,0.29023 -0.32591,-0.20142 -0.3967,-0.1581 -0.21694,0.13276 0.14896,0.24103 -0.22951,1.18111 -0.85674,2.12806 -0.61797,0.93296 -1.12358,1.84219 -1.12358,2.0205 0,0.17832 -0.18977,0.20692 -0.42171,0.0636 -0.25274,-0.1562 -0.32289,-0.10074 -0.17508,0.13842 0.13565,0.21948 -0.0855,1.59765 -0.49147,3.06259 -0.44105,1.5916 -0.7381,3.77636 -0.7381,5.42867 0,1.72329 -0.17204,2.93845 -0.45659,3.22511 -0.36578,0.36848 -0.34632,0.41804 0.0978,0.24916 0.43112,-0.16393 0.64659,0.2577 0.96894,1.89603 0.228,1.15877 0.70763,2.76434 1.06586,3.56793 0.35822,0.8036 0.62078,1.58437 0.58346,1.73504 -0.0373,0.15068 0.0747,0.27396 0.24887,0.27396 0.1742,0 0.7782,0.69858 1.34222,1.5524 0.56401,0.85382 1.90876,2.41592 2.98832,3.47133 l 1.96283,1.91892 -2.11255,2.92093 c -1.1619,1.60651 -2.29453,2.92092 -2.51695,2.92092 -0.22242,0 -1.62282,-1.21448 -3.11201,-2.69884 z m -1.20973,-7.80003 c -0.25331,-0.25331 -0.94631,0.26137 -0.94631,0.70282 0,0.24221 0.20959,0.2145 0.55674,-0.0736 0.3062,-0.25412 0.48151,-0.53727 0.38957,-0.62921 z m -3.37716,0.0729 c -0.11896,-0.31001 -0.29464,-0.48532 -0.39038,-0.38957 -0.0958,0.0958 -0.0657,0.34939 0.0667,0.56366 0.36017,0.58277 0.57069,0.46956 0.3237,-0.17409 z m 0.0133,-25.20696 c 0.12474,-0.32506 0.0635,-0.47168 -0.14355,-0.34371 -0.1986,0.12274 -0.36109,0.37783 -0.36109,0.56688 0,0.52541 0.26181,0.40963 0.50464,-0.22317 z m 9.35769,-11.48708 c 0.30134,-0.19475 0.38353,-0.35409 0.18263,-0.35409 -0.2009,0 -0.61183,0.15934 -0.91318,0.35409 -0.30135,0.19474 -0.38353,0.35408 -0.18263,0.35408 0.2009,0 0.61183,-0.15934 0.91318,-0.35408 z m 10.49395,-4.60395 c -0.12138,-0.12138 -0.43643,-0.13435 -0.70011,-0.0288 -0.29139,0.1166 -0.20484,0.20316 0.22069,0.22068 0.38505,0.0159 0.60079,-0.0705 0.47942,-0.19184 z m -93.63786,45.58724 c -0.61405,-1.14503 -1.98945,-3.72559 -3.05646,-5.73458 -1.06701,-2.009 -2.9616,-5.543 -4.21022,-7.85334 -1.24861,-2.31035 -3.13292,-5.84435 -4.18734,-7.85334 -1.05442,-2.009 -2.06275,-3.80887 -2.24073,-3.99973 -0.68579,-0.7354 -0.51428,-1.15129 7.67521,-18.61123 1.86298,-3.97186 1.8658,-3.9835 1.09778,-4.52144 -0.98701,-0.69133 -1.72607,-2.44773 -1.50862,-3.58527 0.0932,-0.48748 0.65566,-1.29546 1.24993,-1.79551 0.86058,-0.72414 1.48367,-0.90918 3.06146,-0.90918 h 1.98097 v -2.6051 c 0,-3.19523 0.79539,-4.71992 2.90196,-5.5628 0.99054,-0.39634 1.46311,-0.82647 1.54539,-1.40663 0.11853,-0.8356 0.1195,-0.83572 7.52291,-0.93461 l 7.40436,-0.0989 0.20772,1.01209 c 0.14559,0.70938 0.60952,1.20012 1.55114,1.6408 1.95185,0.91345 2.60917,2.26462 2.60917,5.3633 v 2.59186 h 2.00323 c 1.69013,0 2.18683,0.16404 3.17786,1.04954 1.64267,1.46772 1.65176,3.36525 0.0231,4.82045 l -1.15153,1.0289 1.44375,2.95442 c 0.79406,1.62492 1.44375,3.01619 1.44375,3.09168 0,0.0755 0.71629,1.67291 1.59175,3.5498 0.87547,1.87688 2.46135,5.28649 3.52418,7.57689 l 1.93242,4.16437 -1.50188,2.95842 c -0.82603,1.62714 -2.05114,3.94466 -2.72248,5.15006 -1.13517,2.03823 -2.76724,5.10298 -7.87796,14.7935 -3.52367,6.6813 -4.17614,7.48121 -2.28832,2.80546 0.58242,-1.44255 2.96085,-7.75349 5.28538,-14.02432 l 4.22646,-11.40149 -3.90366,-10.78876 -3.90365,-10.78875 h -5.58236 -5.58236 l -0.004,1.00449 c -0.002,0.55248 0.59447,6.03542 1.3255,12.18432 l 1.32915,11.17983 -1.53631,7.99693 c -0.84498,4.39832 -1.87716,9.76656 -2.29373,11.92944 -0.41658,2.16287 -0.81219,3.87772 -0.87913,3.81078 -0.0669,-0.067 -1.13046,-5.37058 -2.36336,-11.78584 l -2.24163,-11.66412 1.32715,-11.50606 c 0.72994,-6.32833 1.32511,-11.87589 1.3226,-12.32791 -0.005,-0.81621 -0.0429,-0.82186 -5.57977,-0.82186 h -5.5752 l -3.91142,10.78773 -3.91142,10.78775 4.57406,12.31568 c 2.51573,6.77363 4.89604,13.12225 5.28957,14.10804 0.39353,0.98579 0.66741,1.84045 0.60863,1.89923 -0.0588,0.0588 -0.60929,-0.82996 -1.22333,-1.97498 z m -1.07729,-50.32381 c 0.67309,-0.6731 0.70959,-1.04703 0.19587,-2.00692 -0.5645,-1.05477 -2.44763,-0.95252 -2.95473,0.16045 -0.84044,1.84455 1.3169,3.28843 2.75886,1.84647 z m 6.44235,0.19588 c 1.44879,-0.77537 0.5302,-2.90933 -1.25236,-2.90933 -0.83425,0 -1.6906,1.03884 -1.43897,1.74561 0.54766,1.53825 1.34628,1.88357 2.69133,1.16372 z m 7.57364,-0.0602 c 1.02459,-1.02459 0.25267,-2.84912 -1.2054,-2.84912 -0.97909,0 -1.64372,0.66463 -1.64372,1.64372 0,0.9791 0.66463,1.64373 1.64372,1.64373 0.42189,0 0.96432,-0.19725 1.2054,-0.43833 z m 7.97102,-0.49179 c 0.41994,-0.63592 0.40947,-0.86763 -0.0702,-1.55241 -1.01133,-1.44387 -3.07926,-0.84368 -3.07926,0.89371 0,1.58919 2.22733,2.05504 3.14943,0.6587 z m 6.69971,0.0416 c 0.61184,-1.14323 0.28909,-1.95047 -0.89907,-2.24868 -0.64877,-0.16283 -1.16716,-0.0344 -1.65936,0.411 -0.87347,0.79048 -0.89519,1.19205 -0.1113,2.05823 0.85517,0.94496 2.10105,0.84204 2.66973,-0.22055 z m 67.95371,-27.29856 v -13.45387 h 3.28744 3.28745 l -0.001,13.42373 -0.001,13.42374 -3.28603,0.0301 -3.28603,0.0301 v -13.45386 z m -86.56937,-4.68735 v -9.86233 h 2.73953 2.73954 v 9.86233 9.86234 h -2.73954 -2.73953 z m -9.09962,-18.66479 c -3.66312,-1.62496 -8.24526,-5.6499 -10.56296,-9.27849 -4.92505,-7.710633 -4.94569,-19.130097 -0.0492,-27.234006 1.47754,-2.445402 6.45346,-7.879767 6.85102,-7.482209 0.10467,0.104672 -0.8771,1.219379 -2.18171,2.477129 -5.25398,5.065262 -7.96961,11.44674 -7.96961,18.727853 0,2.829335 0.81741,7.300563 1.63535,8.945343 0.24977,0.50225 0.87176,1.81722 1.38221,2.92217 1.76675,3.82439 6.2954,8.18351 10.67171,10.27219 1.96964,0.94006 2.23763,0.98659 2.73953,0.47572 0.49929,-0.50821 0.45575,-0.64818 -0.42458,-1.36515 -1.68963,-1.37606 -4.12099,-2.96865 -4.40684,-2.88655 -0.15068,0.0433 -0.23286,-0.051 -0.18264,-0.20941 0.0502,-0.15845 -0.68945,-1.2035 -1.64372,-2.32233 -0.95427,-1.11883 -1.73504,-2.15551 -1.73504,-2.30374 0,-0.14823 -0.29647,-0.70581 -0.65881,-1.23907 -1.13191,-1.66582 -2.07297,-6.147036 -2.04458,-9.736086 0.0296,-3.739344 0.87137,-6.751158 2.74222,-9.811173 1.13405,-1.85489 4.29871,-5.521505 4.77058,-5.527261 0.13393,-0.0015 0.36679,-0.126253 0.51747,-0.276927 0.15067,-0.150675 0.42981,-0.273954 0.62031,-0.273954 0.19049,0 -0.53562,0.726091 -1.61359,1.613536 -2.26262,1.862707 -3.12856,2.953455 -4.5117,5.682947 -1.96912,3.885877 -2.60966,7.68278 -1.98335,11.756757 0.93351,6.072201 4.18386,11.075041 9.37556,14.430571 1.91684,1.2389 2.34702,2.10263 1.47935,2.9703 -0.56776,0.56776 -0.879,0.5315 -2.81694,-0.32816 z m 20.8821,0.0504 c -0.6368,-1.01968 -0.31855,-1.51196 1.78038,-2.75398 2.53732,-1.50143 6.15906,-5.43034 7.37701,-8.0027 4.06985,-8.595657 2.09251,-18.564606 -4.76442,-24.020295 -0.67392,-0.536197 -1.07406,-1.068383 -0.8892,-1.182633 0.44102,-0.272566 5.53423,5.095528 5.53423,5.832917 0,0.336605 0.17196,0.462086 0.42171,0.307734 0.26678,-0.16488 0.32232,-0.09983 0.15119,0.17708 -0.14879,0.240739 -0.11381,0.635974 0.0777,0.878295 0.75976,0.961227 1.87288,5.02319 2.03122,7.412209 0.36398,5.491785 -1.6304,11.374063 -5.14978,15.188953 -0.53794,0.5831 -0.78721,1.1562 -0.62033,1.4262 0.18089,0.2927 0.12844,0.35836 -0.14922,0.18676 -0.24034,-0.14854 -1.02627,0.20537 -1.79148,0.80669 -0.7498,0.58924 -1.89749,1.34463 -2.55042,1.67867 -1.29429,0.66216 -1.60969,1.89726 -0.5479,2.1456 1.17293,0.27434 7.73314,-3.65578 7.12215,-4.26677 -0.13808,-0.13807 -0.01,-0.16934 0.28573,-0.0695 0.71936,0.2433 4.21168,-3.91013 5.74146,-6.82834 3.26649,-6.23116 3.85368,-13.298687 1.67514,-20.162064 -0.94855,-2.988346 -3.77959,-7.422798 -6.31943,-9.898536 -1.29897,-1.266196 -2.26619,-2.397752 -2.14937,-2.51457 0.11682,-0.116817 1.43738,1.089762 2.93458,2.681295 4.56549,4.853152 6.79366,10.004786 7.13628,16.499439 0.26447,5.013149 -0.45596,8.467654 -2.73855,13.131606 -2.21179,4.51926 -5.82514,8.24585 -10.2044,10.5242 -3.35149,1.74363 -3.76972,1.82184 -4.3943,0.82173 z m 33.51378,-5.9501 c 0.009,-1.59871 1.12702,-7.34212 1.73802,-8.92877 3.36048,-8.726547 11.36323,-15.687112 22.00125,-19.136039 3.0925,-1.002616 4.04466,-1.061005 2.83108,-0.173614 -0.35126,0.256848 -0.63865,0.736527 -0.63865,1.06595 0,0.70222 -0.6059,0.805654 -0.83397,0.142369 -0.0863,-0.251125 -0.11551,-0.175517 -0.0648,0.168021 0.13495,0.91433 -0.78922,3.422628 -1.03376,2.805717 -0.11078,-0.279488 -0.21379,-0.343783 -0.22889,-0.142883 -0.0532,0.707797 1.445,2.768302 2.22184,3.055672 1.81243,0.670463 2.85857,-0.09058 5.55245,-4.039309 l 1.16944,-1.714179 3.33874,2.809994 c 1.83631,1.545497 3.35118,2.892181 3.36637,2.99263 0.0152,0.10045 -0.67095,0.182636 -1.52477,0.182636 -2.38348,0 -3.25872,1.07643 -3.29677,4.054577 -0.0294,2.29822 -0.0434,2.330283 -0.78648,1.790927 -5.11373,-3.711868 -11.78738,-4.519166 -16.83132,-2.036046 -4.18689,2.061202 -9.59643,8.194117 -12.95854,14.691397 -0.86569,1.67294 -2.29916,2.86753 -3.44096,2.86753 -0.32057,0 -0.5817,-0.20546 -0.58028,-0.45658 z m 1.91106,-5.92462 c 0.0948,-0.49616 0.0318,-0.81521 -0.14005,-0.70898 -0.30265,0.18705 -0.45508,1.61111 -0.17245,1.61111 0.077,0 0.21765,-0.40595 0.3125,-0.90213 z m 6.30497,-4.576944 c 0.12416,-0.200899 0.0517,-0.365271 -0.16108,-0.365271 -0.21275,0 -0.38683,0.164372 -0.38683,0.365271 0,0.2009 0.0725,0.365272 0.16108,0.365272 0.0886,0 0.26267,-0.164372 0.38683,-0.365272 z m -2.53399,-2.275419 c 0.12468,-0.124678 0.0773,-0.493628 -0.10528,-0.819885 -0.28641,-0.511782 -0.38795,-0.470331 -0.73986,0.302007 -0.32947,0.723113 -0.30923,0.880724 0.10529,0.819885 0.28223,-0.04142 0.61517,-0.177325 0.73985,-0.302007 z m 26.09401,-5.030013 c -0.30135,-0.194748 -0.71228,-0.354083 -0.91318,-0.354083 -0.2009,0 -0.11871,0.159335 0.18263,0.354083 0.30135,0.194748 0.71228,0.354083 0.91318,0.354083 0.2009,0 0.11872,-0.159335 -0.18263,-0.354083 z m -7.03909,-1.681773 c -0.12138,-0.121376 -0.43643,-0.13435 -0.7001,-0.02882 -0.29139,0.116602 -0.20484,0.203157 0.22068,0.220683 0.38506,0.01585 0.6008,-0.07047 0.47942,-0.191848 z m 6.55807,-3.86579 c -0.11661,-0.291388 -0.20316,-0.204837 -0.22069,0.220686 -0.0159,0.385055 0.0705,0.600796 0.19185,0.479419 0.12138,-0.121379 0.13435,-0.436426 0.0288,-0.700105 z m 0.94417,-1.392598 c 0.34403,-0.401798 0.46853,-0.730543 0.27667,-0.730543 -0.19187,0 -0.52479,0.328745 -0.73982,0.730543 -0.21504,0.401799 -0.33954,0.730544 -0.27667,0.730544 0.0629,0 0.39579,-0.328745 0.73982,-0.730544 z m -7.64254,-1.659476 c -0.11896,-0.310013 -0.29464,-0.485322 -0.39038,-0.389573 -0.0958,0.09575 -0.0657,0.349397 0.0667,0.563661 0.36018,0.582777 0.57069,0.469561 0.3237,-0.174088 z m 61.604859,26.464533 c -0.537698,-0.20079 -1.213564,-0.9712 -1.643722,-1.87366 -1.480183,-3.10537 -5.652929,-8.941976 -8.204341,-11.475785 -3.535887,-3.511495 -6.468266,-5.006168 -10.190296,-5.194118 -4.52588,-0.228547 -9.16865,1.276131 -12.22927,3.963387 -0.68814,0.604195 -1.32064,1.098539 -1.40556,1.098539 -0.175,0 -0.004,-3.499053 0.2191,-4.474577 0.0803,-0.351574 -0.003,-0.639225 -0.1851,-0.639225 -0.18209,0 -0.33107,-0.322962 -0.33107,-0.717693 0,-0.733612 -0.89971,-1.38698 -2.49882,-1.814648 -0.85019,-0.227378 -0.77392,-0.338698 1.43976,-2.101323 1.28563,-1.023674 2.65063,-2.207972 3.03335,-2.631768 0.83987,-0.930036 1.48308,-1.009691 1.15029,-0.142452 -0.13256,0.345448 -0.13428,0.521352 -0.004,0.390892 0.13046,-0.130464 1.00479,0.778595 1.94295,2.020127 1.69132,2.238231 1.72179,2.257697 3.60151,2.30081 1.04267,0.02393 1.88347,-0.05827 1.86845,-0.182636 -0.0808,-0.668926 0.10876,-0.896099 0.38454,-0.46086 0.19373,0.305758 0.27983,-0.217968 0.22462,-1.366331 -0.0492,-1.024178 -0.28947,-2.103041 -0.53383,-2.397479 -0.24436,-0.294438 -0.33574,-0.710986 -0.20306,-0.925664 0.13268,-0.214677 0.0821,-0.345156 -0.11241,-0.289956 -0.49883,0.141576 -2.34303,-2.062002 -1.86064,-2.223218 0.68967,-0.230501 6.22882,1.771673 10.013321,3.619399 6.077666,2.967332 11.6756,8.081215 14.348026,13.10736 1.40799,2.648069 2.65528,6.953999 2.890504,9.978709 0.237788,3.05763 0.179987,3.13963 -1.714487,2.43217 z m 0.614792,-2.95725 c -0.116602,-0.29139 -0.203156,-0.20484 -0.220682,0.22069 -0.01585,0.38505 0.07047,0.60079 0.191848,0.47942 0.121376,-0.12138 0.13435,-0.43643 0.02882,-0.70011 z m 0,-1.82636 c -0.116602,-0.29138 -0.203156,-0.20483 -0.220682,0.22069 -0.01585,0.38505 0.07047,0.6008 0.191848,0.47942 0.121376,-0.12138 0.13435,-0.43643 0.02882,-0.70011 z M -94.404261,93.333613 c 0,-0.08859 -0.164372,-0.262667 -0.365272,-0.38683 -0.200899,-0.124163 -0.365271,-0.05168 -0.365271,0.161078 0,0.212756 0.164372,0.38683 0.365271,0.38683 0.2009,0 0.365272,-0.07249 0.365272,-0.161078 z m -11.049469,-3.012888 c -0.35157,-0.09187 -0.92687,-0.09187 -1.27845,0 -0.35157,0.09188 -0.0639,0.16705 0.63923,0.16705 0.70314,0 0.9908,-0.07517 0.63922,-0.16705 z m -12.05654,-2.757092 c 0.0464,-0.61625 -0.0184,-0.68792 -0.26344,-0.291396 -0.17875,0.289226 -0.24396,0.656989 -0.14491,0.817255 0.27555,0.445855 0.34155,0.36086 0.40835,-0.525859 z m 5.69902,-0.111678 c -0.11897,-0.310014 -0.29464,-0.485322 -0.39038,-0.389573 -0.0958,0.09575 -0.0658,0.349396 0.0667,0.563661 0.36017,0.582776 0.57069,0.46956 0.3237,-0.174088 z m 6.44711,-3.349245 c -0.398,-0.620703 -0.40831,-0.619906 -0.20849,0.01611 0.11562,0.368004 0.2232,0.861121 0.23906,1.095815 0.0208,0.307983 0.0788,0.303497 0.20848,-0.01611 0.0988,-0.243556 -0.009,-0.736673 -0.23905,-1.095815 z m -86.36152,23.16523 c 0.13717,-0.36024 0.34141,-0.56296 0.45388,-0.4505 0.11246,0.11246 2.3e-4,0.4072 -0.2494,0.65498 -0.36075,0.35806 -0.40271,0.31611 -0.20448,-0.20448 z M -222.6146,85.832406 c 0,-0.804832 1.11394,-1.654991 2.67001,-2.037744 0.69713,-0.171477 0.96072,-0.423288 0.82186,-0.785155 -0.11243,-0.292992 -0.20442,-0.765829 -0.20442,-1.050748 0,-0.284916 -0.17155,-0.518032 -0.38122,-0.518032 -0.20967,0 -0.82438,-0.41093 -1.36604,-0.913179 -0.54165,-0.502248 -0.8139,-0.913179 -0.60501,-0.913179 0.20889,0 0.60116,0.205465 0.87171,0.45659 0.39381,0.365534 0.4401,0.36488 0.23212,-0.0033 -0.14289,-0.252921 -0.14618,-0.817858 -0.007,-1.255417 0.2421,-0.762778 0.27285,-0.767731 0.74633,-0.120203 0.47075,0.643784 0.52959,0.629903 1.25868,-0.296988 l 0.76484,-0.972342 h 5.94386 c 5.29442,0 6.00991,0.07299 6.54838,0.667987 0.33248,0.367394 0.60452,0.86051 0.60452,1.095815 0,0.654355 0.62479,0.510792 1.40046,-0.32179 0.64047,-0.687463 0.71838,-0.697457 0.93977,-0.120518 0.13629,0.35515 0.0372,0.765938 -0.22755,0.943347 -0.27685,0.185518 -0.02,0.210072 0.62685,0.05993 0.98864,-0.229445 1.04714,-0.195234 0.59817,0.349762 -0.27371,0.332248 -1.03579,0.936674 -1.69352,1.34317 -1.57745,0.974917 -1.87514,2.054751 -0.65115,2.361952 1.43241,0.359515 2.65968,1.311731 2.65968,2.063602 0,0.658968 -0.46266,0.688534 -10.77551,0.688534 -10.49011,0 -10.77551,-0.01914 -10.77551,-0.722124 z m 89.49155,-7.348783 c 0,-0.64633 1.48818,-2.548339 1.82905,-2.337672 0.17165,0.106089 0.43104,3.65e-4 0.57641,-0.234779 0.16507,-0.267094 0.10598,-0.329811 -0.15739,-0.167035 -0.67825,0.419179 -0.4936,-0.05484 0.62039,-1.592664 0.82279,-1.135823 1.13969,-1.34656 1.5058,-1.001334 0.37191,0.350697 0.38758,0.288744 0.0792,-0.312976 -0.23851,-0.465392 -0.25761,-0.950773 -0.0503,-1.27845 0.26847,-0.424347 0.34096,-0.384558 0.36862,0.202316 0.0195,0.413458 0.11618,0.527036 0.22277,0.261674 0.10358,-0.257879 0.003,-0.691927 -0.22305,-0.964548 -0.22625,-0.272624 -0.44726,-0.992589 -0.49112,-1.599926 -0.0439,-0.607337 -0.14681,-1.037674 -0.22878,-0.956299 -0.082,0.08137 -0.38599,-0.04871 -0.67561,-0.289073 -0.59729,-0.49571 -2.56551,-0.442961 -3.20268,0.08583 -0.23273,0.193156 -0.54501,0.229339 -0.69394,0.08041 -0.14893,-0.148928 -0.21912,-0.106411 -0.15598,0.09449 0.0631,0.200899 -0.33409,1.019823 -0.88274,1.81983 -0.59651,0.869803 -0.99754,1.208874 -0.99754,0.84342 0,-0.336127 0.16437,-0.712729 0.36527,-0.836892 0.2009,-0.124163 0.36527,-0.390121 0.36527,-0.591021 0,-0.200899 -0.16848,-0.261143 -0.37441,-0.133875 -0.25258,0.156102 -0.32762,-2.038782 -0.23062,-6.745504 0.15764,-7.648894 0.19335,-7.774471 2.53289,-8.907543 0.83245,-0.403169 1.33236,-0.451973 1.84105,-0.179728 0.42626,0.228126 3.27895,0.32973 7.32254,0.2608 3.81355,-0.06501 6.87445,0.03623 7.21396,0.238636 0.32436,0.193356 0.8641,0.888311 1.19944,1.544342 0.51512,1.007767 0.60356,2.353431 0.57012,8.675201 -0.0218,4.115329 -0.0871,7.482414 -0.14526,7.482414 -0.41645,0 -2.04751,-2.965874 -1.82714,-3.322434 0.178,-0.288002 0.12064,-0.348447 -0.16383,-0.172638 -0.24074,0.148786 -0.69343,0.05828 -1.006,-0.201122 -0.63159,-0.524176 -2.58829,-0.493289 -3.24438,0.05122 -0.23274,0.193156 -0.4961,0.27826 -0.58523,0.189119 -0.29265,-0.292641 -0.43091,1.984748 -0.23644,3.894307 0.10837,1.064095 1.01363,2.320622 1.01363,1.406946 0,-0.27079 0.40394,0.06617 0.89765,0.748807 1.48312,2.050668 2.0687,3.24843 1.80038,3.682581 -0.14924,0.241466 -0.0905,0.309914 0.14247,0.16595 0.21806,-0.134767 0.49971,-0.07798 0.6259,0.126198 0.15232,0.246467 -2.09524,0.371229 -6.68756,0.371229 -5.68009,0 -6.99771,-0.09726 -7.36838,-0.543886 -0.24826,-0.299136 -0.62732,-0.435155 -0.84234,-0.302262 -0.23663,0.146247 -0.11215,0.350807 0.31534,0.518214 0.64895,0.254131 0.63957,0.278673 -0.11556,0.302259 -0.45203,0.01414 -0.82186,-0.154415 -0.82186,-0.374528 z m 1.82636,-1.426155 c 0,-0.2009 -0.0725,-0.365272 -0.16108,-0.365272 -0.0886,0 -0.26267,0.164372 -0.38683,0.365272 -0.12417,0.200899 -0.0517,0.365271 0.16108,0.365271 0.21275,0 0.38683,-0.164372 0.38683,-0.365271 z m 11.32342,-1.256893 c 0,-0.08859 -0.16438,-0.262666 -0.36528,-0.38683 -0.2009,-0.124163 -0.36527,-0.05168 -0.36527,0.161078 0,0.212756 0.16437,0.38683 0.36527,0.38683 0.2009,0 0.36528,-0.07249 0.36528,-0.161078 z m -9.95366,-9.012365 c -0.38567,-0.217157 -0.87086,-0.230289 -1.2232,-0.03309 -0.4396,0.246014 -0.28157,0.334994 0.63923,0.35992 0.98359,0.02663 1.09798,-0.03739 0.58397,-0.326808 z m 11.30153,-0.197213 c -0.56452,-0.295878 -1.22201,-0.458336 -1.46109,-0.36102 -0.23908,0.09731 -0.13734,0.189916 0.22609,0.205776 0.36343,0.01585 0.58467,0.152117 0.49164,0.302792 -0.093,0.150674 0.26711,0.300154 0.80031,0.332181 l 0.96944,0.05822 z m -15.60079,-10.545476 c -0.25413,-0.306203 -0.55715,-0.461637 -0.67338,-0.345408 -0.11623,0.116226 0.0305,0.364241 0.32601,0.55114 0.77327,0.489029 0.87431,0.429191 0.34737,-0.205732 z m -88.98949,21.623477 c 0.0981,-0.698136 0.0251,-0.912233 -0.22557,-0.661532 -0.41291,0.41291 -1.85002,-2.017596 -1.51423,-2.560923 0.1058,-0.171188 0.03,-0.311248 -0.16857,-0.311248 -0.52978,0 -1.25306,-3.915705 -0.93323,-5.052364 0.15083,-0.53604 0.24146,-1.17486 0.20139,-1.419599 -0.0994,-0.607246 1.17582,-2.987089 2.2571,-4.212232 0.81117,-0.919089 1.10811,-1.004497 3.49227,-1.004497 1.43315,0 2.61924,-0.123279 2.63576,-0.273954 0.0165,-0.150674 0.10101,-0.701193 0.18776,-1.223371 0.13713,-0.825521 -0.11704,-1.119225 -1.94772,-2.250636 -1.15798,-0.715669 -3.06014,-2.137617 -4.227,-3.159888 -1.84542,-1.616747 -2.32571,-1.85867 -3.69001,-1.85867 -1.8621,0 -3.78127,-1.141455 -4.61833,-2.746817 -0.31218,-0.598695 -0.92796,-1.663838 -1.36841,-2.366985 -0.45823,-0.731535 -0.8014,-1.872192 -0.80218,-2.666359 -7.3e-4,-0.763349 -0.23084,-1.831769 -0.51131,-2.374266 -0.68051,-1.316263 -0.67469,-7.203985 0.008,-8.547604 0.27582,-0.542496 0.50732,-1.775288 0.51444,-2.739537 0.007,-0.964249 0.24787,-2.16411 0.53498,-2.666359 0.28711,-0.502248 0.52982,-1.324109 0.53936,-1.826358 0.01,-0.502248 0.4263,-1.628539 0.92613,-2.502868 0.49982,-0.874329 0.90877,-1.945313 0.90877,-2.379964 0,-1.30797 1.25595,-3.235833 2.58513,-3.96815 2.39835,-1.321382 5.71453,-0.06265 6.55655,2.488683 0.53069,1.608015 0.20697,3.495919 -0.74757,4.35977 -0.39787,0.360068 -0.7234,1.087554 -0.7234,1.616637 0,0.529082 -0.32875,1.606781 -0.73055,2.394886 -0.40179,0.788105 -0.73054,1.936892 -0.73054,2.55286 0,0.615968 -0.24304,1.466936 -0.5401,1.89104 -0.36391,0.519557 -0.54198,1.707842 -0.54587,3.642674 -0.003,1.579366 -0.01,3.326312 -0.0141,3.882102 -0.009,1.090742 0.56885,2.375753 2.04579,4.549785 0.92368,1.359644 1.0116,2.381334 0.4625,5.374905 -0.0947,0.516369 0.63798,1.330808 2.71105,3.01349 1.56246,1.268234 3.00071,2.30588 3.19612,2.30588 0.20764,0 0.35529,-1.593801 0.35529,-3.835352 v -3.835352 h 5.29643 5.29644 v 5.433415 c 0,2.988378 0.10273,5.947079 0.2283,6.574889 l 0.22829,1.141474 h 2.92499 c 2.56099,0 3.01192,0.100238 3.62359,0.805493 1.87525,2.162193 2.37029,3.499507 2.64383,7.142204 0.10828,1.441931 -1.40191,5.949781 -2.19051,6.538585 -0.31184,0.232831 -0.5437,0.524592 -0.51526,0.648357 0.0285,0.123768 -0.0298,0.426389 -0.12947,0.67249 -0.11095,0.273983 -0.19237,0.216909 -0.21003,-0.147215 -0.0159,-0.327068 -0.36901,-0.820535 -0.78476,-1.096589 -0.67438,-0.447769 -0.70773,-0.620049 -0.30915,-1.596957 0.67529,-1.655104 0.73146,-1.984396 0.80988,-4.747757 0.0599,-2.111423 -0.0794,-2.822161 -0.79976,-4.079404 -0.84804,-1.480132 -0.93145,-1.525879 -2.99688,-1.643722 -1.61185,-0.09197 -2.31464,0.03306 -2.91219,0.518006 -0.62615,0.50818 -1.49563,0.639225 -4.24124,0.639225 -1.8995,0 -3.7914,-0.180773 -4.20424,-0.401715 -0.53482,-0.286223 -0.67998,-0.287428 -0.50492,-0.0042 0.15315,0.247808 0.0322,0.315602 -0.32119,0.179999 -0.31179,-0.119663 -0.56688,-0.364337 -0.56688,-0.543743 0,-0.179404 -0.89212,-0.326192 -1.98249,-0.326192 -1.70674,0 -2.0878,0.133891 -2.73969,0.962637 -1.33548,1.69779 -1.67779,3.543014 -1.18759,6.401667 0.24009,1.400067 0.68687,3.029697 0.99285,3.621397 0.30598,0.5917 0.42794,1.054653 0.27104,1.028784 -0.79918,-0.131757 -1.25598,0.116745 -1.58332,0.86134 -0.33382,0.759323 -0.35027,0.743317 -0.21623,-0.210331 z m -2.21604,-27.339156 c 0.39905,-0.536785 0.62923,-1.22696 0.51151,-1.533722 -0.17283,-0.450392 -0.43598,-0.350419 -1.3671,0.519385 -0.6342,0.592423 -1.45474,1.077135 -1.82344,1.077135 -0.74451,0 -1.19599,0.491538 -0.80791,0.879614 0.59971,0.599706 2.77825,0.01092 3.48694,-0.942412 z m -2.37796,-2.33218 c 1.0101,-0.707499 1.05594,-1.62301 0.0813,-1.62301 -0.76103,0 -2.19163,1.192171 -2.19163,1.826358 0,0.552741 1.19532,0.437562 2.11035,-0.203348 z m -3.57144,-1.827203 c 0,-0.313206 -0.16437,-0.467877 -0.36527,-0.343715 -0.2009,0.124163 -0.36527,0.380422 -0.36527,0.569465 0,0.189043 0.16437,0.343714 0.36527,0.343714 0.2009,0 0.36527,-0.256259 0.36527,-0.569464 z m 2.09271,-2.573394 c -0.12138,-0.121376 -0.43643,-0.134353 -0.70011,-0.02884 -0.29139,0.116604 -0.20484,0.203158 0.22069,0.220685 0.38505,0.01586 0.60079,-0.07047 0.47942,-0.191848 z m -2.73051,-1.79744 c 0.0208,-0.195877 -0.23744,-0.409175 -0.57403,-0.473995 -0.43365,-0.08351 -0.54601,0.05402 -0.38561,0.472028 0.23652,0.61635 0.89403,0.617698 0.95964,0.002 z m 2.81038,-2.34563 c 0.41477,-0.262403 0.31645,-0.387893 -0.45577,-0.581708 -1.1492,-0.288431 -2.22876,0.02936 -1.90104,0.559624 0.28247,0.457046 1.64905,0.469851 2.35681,0.02208 z m -2.66532,-2.597378 c 0.81331,-0.30922 0.9091,-0.453788 0.48037,-0.72495 -0.84371,-0.533618 -1.34774,-0.4102 -1.55455,0.380651 -0.22276,0.851835 -0.24337,0.84523 1.07418,0.344299 z m 4.14546,0.02097 c 0,-0.2009 -0.25626,-0.365272 -0.56947,-0.365272 -0.3132,0 -0.46787,0.164372 -0.34371,0.365272 0.12416,0.200899 0.38042,0.365271 0.56947,0.365271 0.18904,0 0.34371,-0.164372 0.34371,-0.365271 z m 0.73054,-4.149127 c 0,-0.274138 -0.50296,-0.453296 -1.27255,-0.453296 -0.73538,0 -1.728,-0.33673 -2.35152,-0.797714 -1.06016,-0.783811 -1.08295,-0.785141 -1.30792,-0.07632 -0.32914,1.036998 0.003,1.35845 1.21878,1.179995 0.58711,-0.08617 1.53885,0.09031 2.11497,0.392168 1.10574,0.579356 1.59824,0.503911 1.59824,-0.24483 z m -0.73054,-2.595546 c 0,-0.09338 -0.33214,-0.347541 -0.7381,-0.564799 -0.86378,-0.462286 -1.81707,-0.08557 -1.03594,0.409377 0.52499,0.332649 1.77404,0.442077 1.77404,0.155422 z m 2.19163,-1.83921 c 0,-0.31493 -0.32966,-0.547908 -0.77527,-0.547908 -0.64771,0 -0.70045,0.09015 -0.32055,0.547908 0.2501,0.301349 0.59897,0.547907 0.77527,0.547907 0.1763,0 0.32055,-0.246558 0.32055,-0.547907 z m -3.62139,-1.671684 c -0.68893,-0.573584 -0.94741,-0.630857 -1.18154,-0.261802 -0.51973,0.819259 -0.34469,1.020653 0.87626,1.008154 l 1.18713,-0.01215 z m 5.37796,-3.514891 c 0.2221,-2.287998 -2.66551,-3.584183 -4.31347,-1.936222 -1.11303,1.113022 -0.90667,1.704826 0.6831,1.95904 0.77751,0.124329 1.62535,0.481131 1.88409,0.792894 0.74536,0.898107 1.61956,0.489756 1.74628,-0.815712 z m 97.71211,29.558016 c -4.50761,-0.09523 -4.81294,-0.147128 -4.76304,-0.809544 0.0411,-0.545377 0.24362,-0.660024 0.88266,-0.499634 0.47019,0.118012 1.66357,-0.137608 2.75566,-0.590257 l 1.92631,-0.798407 1.93512,0.762753 c 1.15853,0.456652 2.29394,0.672692 2.82925,0.538341 0.7245,-0.181839 0.89413,-0.08639 0.89413,0.503144 0,0.942473 -0.54948,1.018479 -6.46009,0.893604 z m -93.26271,-5.499074 c -0.19889,-0.06697 -0.36163,-0.601177 -0.36163,-1.187133 v -1.065376 h 7.85334 7.85334 v 1.081436 1.081435 l -7.49171,0.105697 c -4.12044,0.05813 -7.65444,0.05091 -7.85334,-0.01606 z m 3.65636,-8.997255 v -4.213402 h 3.84732 3.84731 l -0.10328,4.109306 -0.10328,4.109305 -3.74403,0.104096 -3.74404,0.104097 z m 88.39573,-9.579865 v -9.609673 h 2.009 2.00899 v 9.66197 9.66197 l -2.00899,-0.0523 -2.009,-0.0523 z"
       id="path302"
       clip-path="url(#clipPath394)"
       transform="translate(12.411369,-31.827025)" /><path
       style="fill:#1a6743;fill-opacity:1;stroke:#fef2f0;stroke-width:0"
       d="m -202.17068,104.98155 c -0.001,-1.30378 -0.004,-3.91598 -0.005,-92.540966 -0.001,-88.624611 -0.001,-263.253784 6.6e-4,-350.572164 0.002,-87.31839 0.005,-87.31625 0.0163,-87.32017 0.0112,-0.005 0.0306,-0.0136 0.94097,-0.0196 0.91042,-0.006 2.71182,-0.006 3.61392,1.1e-4 0.9021,0.006 0.90512,0.0156 0.90904,0.0793 0.004,0.0643 0.008,0.16834 0.01,0.37847 0.002,0.20873 6.5e-4,0.51339 1.6e-4,88.50596 -4.9e-4,87.99266 -4.9e-4,263.666034 -6.6e-4,351.910477 -1.7e-4,88.244623 -0.0997,96.662473 -0.11302,97.457623 -0.0133,0.79478 -0.12208,0.25529 -0.61364,0.032 -0.57421,1.39655 -1.6966,1.1255 -2.55683,0.5206 -0.87676,0.78344 -2.25203,0.0614 -2.26082,-1.1941 -0.009,-1.26872 0.10875,-3.91389 0.0848,-4.92403 -0.024,-1.00861 -0.0239,-1.00861 -0.0252,-2.31261 z"
       id="path464" /><path
       style="fill:#84ab90;fill-opacity:1;stroke:#fef2f0;stroke-width:0"
       d="m -204.05315,119.0442 c 0,-0.86194 0,-2.58608 0.0149,-3.56386 0.0149,-0.97777 0.0448,-1.20916 0.15674,-1.47794 0.11196,-0.26877 0.30601,-0.57479 0.5449,-0.82861 0.23889,-0.25382 0.52251,-0.45534 0.72784,-0.57104 0.20533,-0.1157 0.33219,-0.14556 1.30628,-0.15674 0.97409,-0.0112 2.79523,-0.004 3.801,0.0206 1.00577,0.0243 1.1961,0.0653 1.38269,0.16245 0.18658,0.0971 0.36944,0.25013 0.51678,0.45169 0.14734,0.20157 0.2593,0.4516 0.33576,0.66432 0.0765,0.21271 0.11752,0.38811 0.15481,1.38266 0.0373,0.99456 0.0709,2.80822 0.0802,3.72242 0.009,0.91419 -0.006,0.92909 -0.0764,0.96826 -0.0709,0.0392 -0.19775,0.10261 -0.79479,0.16794 -0.59705,0.0653 -1.66435,0.1325 -3.0545,0.18475 -1.39015,0.0523 -3.10306,0.0896 -4.05095,0.10265 -0.94789,0.0131 -1.13075,0.002 -1.17756,-0.0634 -0.0468,-0.0653 0.0428,-0.18473 0.0876,-0.24446 0.0448,-0.0597 0.0448,-0.0597 0.0448,-0.92165 z"
       id="path460" /><path
       style="fill:#58595b;fill-opacity:1;stroke:#fef2f0;stroke-width:0"
       d="m -211.2932,130.02712 c 0,-0.24792 0,-0.74402 -0.005,-1.32457 -0.005,-0.58056 -0.0159,-1.24553 0.029,-1.89209 0.0448,-0.64656 0.14511,-1.27459 0.29552,-1.80241 0.1504,-0.52783 0.35095,-0.95532 0.60166,-1.34064 0.25072,-0.38533 0.55154,-0.72838 0.99494,-1.02924 0.44341,-0.30087 1.02922,-0.55947 1.42504,-0.74155 0.39582,-0.18208 0.60165,-0.28764 0.76254,-0.45645 0.1609,-0.16881 0.277,-0.40102 0.34036,-0.59623 0.0634,-0.19521 0.0739,-0.35353 0.13995,-0.47243 0.066,-0.11889 0.1874,-0.19806 0.33259,-0.25875 0.1452,-0.0607 0.3141,-0.10292 0.64927,-0.13456 0.33517,-0.0316 0.83654,-0.0527 2.12169,-0.0844 1.28515,-0.0317 3.35396,-0.0739 5.43869,-0.10819 2.08472,-0.0343 4.1852,-0.0607 5.24335,-0.0605 1.05816,1.7e-4 1.07394,0.0265 1.09763,0.16901 0.0237,0.14252 0.0554,0.40113 0.10551,0.68878 0.0502,0.28765 0.11877,0.60429 0.3168,0.88661 0.19803,0.28233 0.52524,0.53037 0.88414,0.75201 0.3589,0.22163 0.74944,0.4169 1.11096,0.62804 0.36152,0.21113 0.69401,0.43807 0.9235,0.72576 0.22948,0.28769 0.35615,0.63602 0.48545,1.00018 0.12931,0.36417 0.26125,0.74415 0.34037,1.20594 0.0791,0.46178 0.10552,1.00538 0.11343,1.57009 0.008,0.56472 -0.003,1.15052 -0.003,1.61498 1e-5,0.46445 0.0106,0.80749 0.0159,1.00278 0.005,0.19529 0.005,0.24279 -1e-5,0.33776 -0.005,0.095 -0.0159,0.23746 -0.41948,0.33233 -0.40363,0.0949 -1.20055,0.14238 -5.01111,0.16877 -3.81057,0.0264 -10.63452,0.0317 -14.17059,0.0343 -3.53607,0.003 -3.78411,0.003 -3.94772,-0.0368 -0.16361,-0.0394 -0.24278,-0.11862 -0.26405,-0.21367 -0.0213,-0.0951 0.0157,-0.2059 0.0342,-0.26139 0.0185,-0.0555 0.0185,-0.0555 0.0185,-0.3034 z"
       id="path456" /><g
       id="g588"><path
         style="fill:#5a5a5c;fill-opacity:1;stroke:#fef2f0;stroke-width:0"
         d="m -215.69758,136.85356 c 0.0273,0.0684 0.0819,0.20479 0.0779,0.40156 -0.004,0.19678 -0.0663,0.45402 -0.19887,0.82623 -0.13253,0.3722 -0.3352,0.8594 -0.57881,1.39922 -0.24361,0.53983 -0.52814,1.13227 -1.05628,2.23143 -0.52814,1.09916 -1.29986,2.70497 -1.96832,4.13544 -0.66846,1.43047 -1.23362,2.6855 -1.90987,4.14519 -0.67625,1.45969 -1.46357,3.12397 -2.00535,4.32837 -0.54178,1.2044 -0.838,1.94884 -1.07966,2.58417 -0.24166,0.63534 -0.42874,1.16151 -0.53982,1.54743 -0.11107,0.38591 -0.14615,0.63146 -0.12851,0.82249 0.0176,0.19102 0.0878,0.32745 0.16578,0.45216 0.078,0.12471 0.16373,0.23775 0.63534,1.08357 0.4716,0.84583 1.32907,2.42436 2.50229,4.60319 1.17321,2.17883 2.6621,4.95782 3.87428,7.22823 1.21219,2.27042 2.14761,4.03214 2.98367,5.59318 0.83606,1.56103 1.57271,2.92129 2.07552,3.8392 0.5028,0.91791 0.77174,1.39342 1.09719,1.98782 0.32546,0.5944 0.70742,1.30766 0.97248,1.79097 0.26505,0.48332 0.41316,0.73667 0.50857,0.89474 0.0954,0.15807 0.13806,0.22084 0.17629,0.27358 0.0382,0.0528 0.072,0.0955 0.0955,0.12303 0.0235,0.0276 0.0366,0.04 0.0468,0.0433 0.0102,0.003 0.0178,-0.002 0.0212,-0.0186 0.003,-0.0164 0.003,-0.0439 -0.003,-0.0887 -0.006,-0.0448 -0.0179,-0.1068 -0.10257,-0.37379 -0.0847,-0.26699 -0.2425,-0.73896 -0.36927,-1.08794 -0.12676,-0.34899 -0.22253,-0.57499 -0.34829,-0.89194 -0.12575,-0.31696 -0.28147,-0.72485 -0.43581,-1.12999 -0.15434,-0.40514 -0.30731,-0.80752 -0.45304,-1.19407 -0.14573,-0.38655 -0.28421,-0.75723 -0.40927,-1.09278 -0.12506,-0.33556 -0.23668,-0.63597 -0.34348,-0.9226 -0.1068,-0.28664 -0.20877,-0.55948 -0.3228,-0.86231 -0.11403,-0.30283 -0.24012,-0.63562 -0.3638,-0.96497 -0.12368,-0.32936 -0.24495,-0.65526 -0.3669,-0.98323 -0.12196,-0.32798 -0.2446,-0.65801 -0.36071,-0.97083 -0.1161,-0.31282 -0.22565,-0.6084 -0.35587,-0.95877 -0.13023,-0.35037 -0.28112,-0.75551 -0.41996,-1.12896 -0.13884,-0.37345 -0.26562,-0.71519 -1.2077,-3.26092 -0.94208,-2.54572 -2.69939,-7.29522 -3.5995,-9.72361 -0.90011,-2.42839 -0.94298,-2.53558 -0.97116,-2.59506 -0.0282,-0.0595 -0.0418,-0.0712 -0.0127,-0.1677 0.0291,-0.0965 0.10116,-0.27777 0.5375,-1.46951 0.43634,-1.19175 1.23688,-3.39391 2.15807,-5.94198 0.92119,-2.54807 1.96296,-5.44189 2.70435,-7.48141 0.74139,-2.03951 1.18235,-3.22459 1.51308,-4.13685 0.33074,-0.91227 0.55122,-1.55167 0.68282,-1.92582 0.13161,-0.37414 0.17433,-0.483 0.20121,-0.56429 0.0269,-0.0813 0.0379,-0.135 -0.0618,-0.19844 -0.0997,-0.0634 -0.31055,-0.13647 -0.67024,-0.20266 -0.35968,-0.0662 -0.86817,-0.12543 -1.2692,-0.15574 -0.40102,-0.0303 -0.69454,-0.0316 -0.87579,-0.0206 -0.18125,0.011 -0.25017,0.0345 -0.27606,0.0553 -0.0259,0.0208 -0.009,0.0386 -4.8e-4,0.0474 0.008,0.009 0.008,0.009 0.0355,0.077 z"
         id="path556" /><path
         style="fill:#5a5a5c;fill-opacity:1;stroke:#fef2f0;stroke-width:0"
         d="m -201.39122,137.39823 c -0.008,0.14531 -0.0234,0.43569 -0.0458,0.74751 -0.0224,0.31182 -0.0517,0.64505 -0.4183,3.90638 -0.36663,3.26133 -1.07064,9.4505 -1.49569,13.2259 -0.42505,3.77541 -0.57111,5.13688 -0.64968,5.84243 -0.0786,0.70556 -0.0896,0.75515 -0.0827,0.83099 0.007,0.0758 0.0317,0.17782 0.70007,3.62348 0.66832,3.44565 1.98012,10.23472 2.73322,14.07532 0.75311,3.8406 0.94747,4.73256 1.0481,5.19371 0.10064,0.46114 0.10754,0.49146 0.11282,0.51051 0.005,0.0191 0.009,0.0263 0.0123,0.0302 0.004,0.004 0.007,0.004 0.0121,-0.003 0.005,-0.007 0.013,-0.0204 0.0245,-0.0471 0.0115,-0.0267 0.027,-0.0663 0.0406,-0.10689 0.0136,-0.0406 0.0253,-0.0823 0.0518,-0.18428 0.0265,-0.10197 0.0679,-0.26424 0.1676,-0.7078 0.0997,-0.44355 0.25787,-1.16838 0.39619,-1.84155 0.13833,-0.67318 0.25684,-1.29466 0.38431,-1.95337 0.12747,-0.65871 0.26389,-1.35461 0.40789,-2.09669 0.14401,-0.74208 0.29559,-1.5303 0.44511,-2.30614 0.14952,-0.77585 0.29697,-1.53926 0.52732,-2.73866 0.23034,-1.19941 0.54357,-2.83471 0.8561,-4.44947 0.31253,-1.61476 0.62434,-3.20888 0.86015,-4.42301 0.23581,-1.21414 0.39561,-2.04823 0.47587,-2.47039 0.0803,-0.42216 0.0809,-0.4317 0.0751,-0.47865 -0.006,-0.047 -0.0182,-0.13103 -0.0989,-0.79456 -0.0806,-0.66354 -0.22944,-1.9065 -0.46922,-3.96257 -0.23978,-2.05606 -0.57051,-4.92507 -0.92329,-8.09046 -0.35278,-3.16539 -0.7276,-6.62695 -0.92431,-8.42552 -0.19671,-1.79857 -0.21531,-1.93409 -0.22463,-2.0876 -0.009,-0.15352 -0.009,-0.32502 -0.0103,-0.50334 -10e-4,-0.17832 -0.003,-0.36345 -0.0205,-0.47261 -0.0174,-0.10915 -0.0505,-0.14225 -0.67711,-0.1648 -0.62657,-0.0225 -1.84652,-0.0343 -2.50526,-0.0343 -0.65874,-1e-5 -0.75616,0.0117 -0.79226,0.0489 -0.0361,0.0372 -0.0108,0.0996 0.002,0.13059 0.0126,0.031 0.0127,0.0311 0.005,0.17645 z"
         id="path560" /><path
         style="fill:#5a5a5c;fill-opacity:1;stroke:#fef2f0;stroke-width:0"
         d="m -182.78945,138.59778 c 0.86146,1.85936 2.58423,5.57774 4.22907,9.12467 1.64484,3.54692 3.21167,6.92224 4.03506,8.70008 0.82338,1.77784 0.90328,1.9581 0.94367,2.05502 0.0404,0.0969 0.0414,0.11052 -0.0127,0.21568 -0.0541,0.10517 -0.16324,0.302 -2.41679,4.55466 -2.25356,4.25265 -6.65136,12.5608 -9.05087,17.06847 -2.39951,4.50767 -2.80064,5.21468 -3.05626,5.66027 -0.25562,0.4456 -0.36573,0.62976 -0.45001,0.76519 -0.0843,0.13544 -0.14275,0.22216 -0.18854,0.28548 -0.0458,0.0633 -0.0789,0.10329 -0.10816,0.13445 -0.0292,0.0312 -0.0545,0.0536 -0.0725,0.0664 -0.0179,0.0129 -0.0283,0.0162 -0.036,0.0157 -0.008,-4.7e-4 -0.0123,-0.005 -0.0159,-0.0179 -0.004,-0.0131 -0.006,-0.0348 -0.003,-0.0677 0.003,-0.0329 0.0103,-0.077 0.0248,-0.13527 0.0145,-0.0583 0.0358,-0.1306 0.0725,-0.2474 0.0367,-0.1168 0.0887,-0.27802 0.14745,-0.44856 0.0587,-0.17054 0.1242,-0.35038 1.08178,-2.89205 0.95759,-2.54167 2.80722,-7.44497 4.4266,-11.75982 1.61939,-4.31485 3.00842,-8.04099 3.76428,-10.07084 0.75585,-2.02985 0.87849,-2.36333 0.94257,-2.53972 0.0641,-0.17639 0.0696,-0.19564 0.0723,-0.21424 0.003,-0.0186 0.003,-0.0365 -0.0316,-0.1357 -0.0344,-0.0992 -0.10329,-0.27973 -1.234,-3.40173 -1.1307,-3.12201 -3.32311,-9.18525 -4.59022,-12.68548 -1.26712,-3.50023 -1.60886,-4.43727 -1.7928,-4.93473 -0.18395,-0.49747 -0.21013,-0.55538 -0.10191,-0.61136 0.10822,-0.056 0.35074,-0.10973 0.72835,-0.16829 0.3776,-0.0586 0.89022,-0.12195 1.19889,-0.1633 0.30867,-0.0414 0.4134,-0.0607 0.48494,-0.0587 0.0715,0.002 0.10974,0.0248 0.12867,0.0362 0.0189,0.0113 0.0186,0.0112 0.88011,1.87057 z"
         id="path568" /></g><path
       style="fill:#221e1f;fill-opacity:1;stroke:#fef2f0;stroke-width:0"
       d="m -203.39247,137.3528 c 0.23525,0.004 0.70546,0.0112 1.25406,0.0112 0.54859,0 1.17554,-0.007 2.14212,-0.0149 0.96658,-0.007 2.27272,-0.0149 3.7543,-0.0261 1.48158,-0.0112 3.13852,-0.0261 4.83282,-0.0336 1.6943,-0.007 3.42587,-0.007 4.66861,0 1.24274,0.007 1.99656,0.0224 2.52643,-0.0299 0.52987,-0.0523 0.83588,-0.17169 1.16795,-0.41051 0.33208,-0.23882 0.69034,-0.59708 1.00753,-0.9889 0.31719,-0.39182 0.59334,-0.81725 0.74637,-1.23514 0.15303,-0.41789 0.1829,-0.82839 0.0897,-1.27619 -0.0932,-0.44779 -0.30965,-0.93292 -0.638,-1.3696 -0.32834,-0.43668 -0.7687,-0.82479 -1.22024,-1.09729 -0.45155,-0.2725 -0.9143,-0.42923 -1.66072,-0.50392 -0.74641,-0.0747 -1.7764,-0.0672 -6.58692,-0.0672 -4.81051,0 -13.40118,-0.007 -18.0101,0.0187 -4.60893,0.0261 -5.23588,0.0858 -5.70989,0.18656 -0.47401,0.10075 -0.79495,0.24256 -1.08238,0.45532 -0.28742,0.21275 -0.54119,0.49637 -0.78377,0.79868 -0.24259,0.3023 -0.47396,0.62324 -0.60831,0.9816 -0.13434,0.35836 -0.17166,0.75394 -0.10815,1.19434 0.0635,0.44041 0.22771,0.92555 0.44049,1.35472 0.21277,0.42916 0.474,0.80235 0.69796,1.04487 0.22397,0.24251 0.41056,0.35447 0.5486,0.45525 0.13804,0.10079 0.22764,0.19038 0.70161,0.26863 0.47397,0.0782 1.33229,0.14543 1.94805,0.18274 0.61577,0.0373 0.98895,0.0448 2.55637,0.056 1.56743,0.0112 4.32898,0.0261 5.70966,0.0336 1.38067,0.007 1.38063,0.007 1.61587,0.0112 z"
       id="path452" /><g
       id="g577"><path
         style="fill:#7eaf8b;fill-opacity:1;stroke:#fef2f0;stroke-width:0"
         d="m -213.25565,135.45801 c 0.10727,-0.0292 0.32164,-0.0877 0.54179,-0.20853 0.22015,-0.12082 0.44621,-0.30401 0.62156,-0.51442 0.17536,-0.21042 0.30008,-0.44818 0.35273,-0.6761 0.0527,-0.22792 0.0332,-0.44619 -0.0389,-0.68003 -0.0721,-0.23385 -0.19678,-0.4833 -0.41497,-0.69774 -0.2182,-0.21444 -0.53001,-0.39373 -0.8633,-0.47568 -0.33328,-0.0819 -0.68796,-0.0663 -0.97064,0.0116 -0.28268,0.078 -0.49315,0.21826 -0.68224,0.4171 -0.18909,0.19883 -0.35669,0.45608 -0.43071,0.78944 -0.074,0.33336 -0.0545,0.7426 0.045,1.04663 0.0995,0.30402 0.27881,0.5028 0.51076,0.66253 0.23195,0.15974 0.51646,0.28056 0.72884,0.3331 0.21238,0.0525 0.3527,0.0369 0.42275,0.0291 0.07,-0.008 0.07,-0.008 0.17733,-0.037 z"
         id="path468" /><path
         style="fill:#7eaf8b;fill-opacity:1;stroke:#fef2f0;stroke-width:0"
         d="m -206.63475,135.39925 c 0.10727,-0.0292 0.32164,-0.0877 0.54179,-0.20853 0.22015,-0.12082 0.44621,-0.30401 0.62156,-0.51442 0.17536,-0.21042 0.30008,-0.44818 0.35273,-0.6761 0.0527,-0.22792 0.0332,-0.44619 -0.0389,-0.68003 -0.0721,-0.23385 -0.19678,-0.4833 -0.41497,-0.69774 -0.2182,-0.21444 -0.53001,-0.39373 -0.8633,-0.47568 -0.33328,-0.0819 -0.68796,-0.0663 -0.97064,0.0116 -0.28268,0.0779 -0.49315,0.21826 -0.68224,0.4171 -0.18909,0.19883 -0.35669,0.45608 -0.43071,0.78944 -0.074,0.33336 -0.0545,0.7426 0.045,1.04663 0.0995,0.30402 0.27881,0.5028 0.51076,0.66253 0.23195,0.15974 0.51646,0.28056 0.72884,0.3331 0.21238,0.0525 0.3527,0.0369 0.42275,0.0291 0.07,-0.008 0.0701,-0.008 0.17733,-0.037 z"
         id="path468-0" /><path
         style="fill:#7eaf8b;fill-opacity:1;stroke:#fef2f0;stroke-width:0"
         d="m -199.24474,135.58633 c 0.10727,-0.0292 0.32164,-0.0877 0.54179,-0.20853 0.22015,-0.12082 0.44621,-0.30401 0.62156,-0.51442 0.17536,-0.21042 0.30008,-0.44818 0.35273,-0.6761 0.0527,-0.22792 0.0332,-0.44619 -0.0389,-0.68003 -0.072,-0.23385 -0.19678,-0.4833 -0.41497,-0.69774 -0.2182,-0.21444 -0.53001,-0.39373 -0.8633,-0.47568 -0.33328,-0.0819 -0.68796,-0.0663 -0.97064,0.0116 -0.28268,0.078 -0.49315,0.21826 -0.68224,0.4171 -0.18909,0.19883 -0.35669,0.45608 -0.43071,0.78944 -0.074,0.33336 -0.0545,0.7426 0.045,1.04663 0.0995,0.30402 0.27881,0.5028 0.51076,0.66253 0.23195,0.15974 0.51646,0.28056 0.72884,0.3331 0.21238,0.0525 0.3527,0.0369 0.42275,0.0291 0.07,-0.008 0.07,-0.008 0.17733,-0.037 z"
         id="path468-0-4" /><path
         style="fill:#7eaf8b;fill-opacity:1;stroke:#fef2f0;stroke-width:0"
         d="m -191.57411,135.49279 c 0.10727,-0.0293 0.32164,-0.0877 0.54179,-0.20853 0.22015,-0.12082 0.44621,-0.30401 0.62156,-0.51442 0.17536,-0.21042 0.30008,-0.44818 0.35273,-0.6761 0.0527,-0.22792 0.0332,-0.44619 -0.0389,-0.68003 -0.072,-0.23385 -0.19678,-0.4833 -0.41497,-0.69774 -0.2182,-0.21444 -0.53001,-0.39373 -0.8633,-0.47568 -0.33328,-0.0819 -0.68796,-0.0663 -0.97064,0.0116 -0.28268,0.0779 -0.49315,0.21826 -0.68224,0.4171 -0.18909,0.19883 -0.35669,0.45608 -0.43071,0.78944 -0.074,0.33336 -0.0545,0.7426 0.045,1.04663 0.0995,0.30402 0.27881,0.5028 0.51076,0.66253 0.23195,0.15974 0.51646,0.28056 0.72884,0.3331 0.21238,0.0525 0.3527,0.0369 0.42275,0.0292 0.07,-0.008 0.0701,-0.008 0.17733,-0.037 z"
         id="path468-0-6" /><path
         style="fill:#7eaf8b;fill-opacity:1;stroke:#fef2f0;stroke-width:0"
         d="m -184.69859,135.49279 c 0.10727,-0.0293 0.32164,-0.0877 0.54179,-0.20853 0.22015,-0.12082 0.44621,-0.30401 0.62156,-0.51442 0.17536,-0.21042 0.30008,-0.44818 0.35273,-0.6761 0.0527,-0.22792 0.0332,-0.44619 -0.0389,-0.68003 -0.0721,-0.23385 -0.19678,-0.4833 -0.41497,-0.69774 -0.2182,-0.21444 -0.53001,-0.39373 -0.8633,-0.47568 -0.33328,-0.0819 -0.68797,-0.0663 -0.97065,0.0116 -0.28267,0.0779 -0.49315,0.21826 -0.68224,0.4171 -0.18909,0.19883 -0.35669,0.45608 -0.43071,0.78944 -0.074,0.33336 -0.0545,0.7426 0.045,1.04663 0.0995,0.30402 0.2788,0.50279 0.51075,0.66253 0.23195,0.15973 0.51647,0.28056 0.72885,0.3331 0.21238,0.0525 0.3527,0.0369 0.42275,0.0292 0.07,-0.008 0.0701,-0.008 0.17734,-0.037 z"
         id="path468-0-1" /></g><path
       style="fill:#201c1d;fill-opacity:1;stroke:#fef2f0;stroke-width:0"
       d="m -205.42679,119.03966 c 0.004,0.33923 0.0117,1.01742 0.0195,1.3799 0.008,0.36249 0.0156,0.4093 0.14437,0.42863 0.12874,0.0193 0.37817,0.0115 1.87102,0.031 1.49284,0.0195 4.22896,0.0663 6.05308,0.0741 1.82411,0.008 2.73615,-0.0234 3.20373,-0.0779 0.46757,-0.0545 0.49096,-0.13241 0.50269,-0.40521 0.0117,-0.2728 0.0117,-0.74051 0.004,-1.06401 -0.008,-0.3235 -0.0234,-0.50279 -0.0622,-0.62363 -0.0389,-0.12084 -0.10122,-0.1832 -1.98384,-0.21062 -1.88262,-0.0274 -5.58534,-0.0196 -7.49129,-0.0235 -1.90594,-0.004 -2.01507,-0.0195 -2.09319,0.004 -0.0781,0.0234 -0.12491,0.0858 -0.14827,0.11692 -0.0234,0.0311 -0.0234,0.0311 -0.0195,0.37038 z"
       id="path4905" /></g></svg>
