<?xml version="1.0" encoding="UTF-8" standalone="no"?>
<!-- Created with Inkscape (http://www.inkscape.org/) -->

<svg
   width="92.331978mm"
   height="73.528107mm"
   viewBox="0 0 92.331978 73.528107"
   version="1.1"
   id="svg14193"
   xml:space="preserve"
   xmlns="http://www.w3.org/2000/svg"
   xmlns:svg="http://www.w3.org/2000/svg"><defs
     id="defs14190" /><g
     id="layer1"
     transform="translate(-99.229728,-122.49769)"><path
       style="fill:#d7e210;fill-opacity:0.945525;stroke:#f0f4a1;stroke-width:0.5;stroke-dasharray:none;stroke-opacity:1"
       d="m 99.57801,162.72053 c 0.140385,0.32757 0.421017,0.98237 0.76403,1.69955 0.34301,0.71718 0.74836,1.4967 1.24729,2.3308 0.49893,0.83411 1.09137,1.72277 1.68381,2.65823 0.59245,0.93545 1.18488,1.91765 1.83973,2.8297 0.65484,0.91205 1.372,1.75393 2.14377,2.51006 0.77178,0.75614 1.59806,1.42652 2.53352,2.15149 0.93546,0.72497 1.98002,1.5045 2.82973,2.02674 0.84971,0.52225 1.50451,0.78729 2.17492,1.01333 0.6704,0.22605 1.35638,0.41313 2.06575,0.53003 0.70936,0.11689 1.44212,0.16366 2.13593,0.27283 0.69381,0.10917 1.34861,0.28067 2.00343,0.50676 0.65482,0.2261 1.30961,0.50673 2.019,0.79515 0.70939,0.28842 1.47331,0.58464 2.1749,0.95887 0.70158,0.37423 1.34078,0.82635 1.87866,1.22392 0.53788,0.39758 0.97441,0.74056 1.55128,1.1927 0.57686,0.45214 1.29402,1.01339 1.99561,1.57467 0.70158,0.56127 1.38756,1.12253 2.03457,1.68381 0.64702,0.56128 1.25504,1.12254 1.89427,1.6994 0.63923,0.57686 1.30962,1.16929 1.88646,1.75397 0.57684,0.58467 1.06015,1.16152 1.4967,1.65262 0.43655,0.49111 0.82631,0.89646 1.1069,1.26287 0.28059,0.3664 0.45208,0.6938 0.90421,0.7248 0.45213,0.031 1.18489,-0.23405 2.019,-0.53027 0.83411,-0.29622 1.76954,-0.62363 2.74395,-1.03679 0.9744,-0.41316 1.98778,-0.91205 2.88424,-1.40316 0.89645,-0.49111 1.67597,-0.97441 2.6504,-1.59804 0.97443,-0.62364 2.14371,-1.38757 3.04017,-2.01899 0.89645,-0.63142 1.52007,-1.13031 2.26064,-1.70718 0.74058,-0.57686 1.59805,-1.23166 2.45553,-1.96442 0.85748,-0.73276 1.71496,-1.54346 2.54906,-2.34639 0.83411,-0.80292 1.64481,-1.59803 2.45553,-2.4789 0.81071,-0.88088 1.62141,-1.84749 2.32299,-2.83748 0.70157,-0.98999 1.29401,-2.00337 1.89426,-2.98561 0.60025,-0.98223 1.20827,-1.93324 1.76954,-2.9778 0.56127,-1.04457 1.07576,-2.18267 1.66042,-3.28965 0.58466,-1.10697 1.23945,-2.18271 1.97225,-3.14937 0.73279,-0.96667 1.54349,-1.82415 2.3776,-2.70503 0.83411,-0.88088 1.69158,-1.78513 2.62705,-2.66603 0.93547,-0.8809 1.94885,-1.73837 2.97006,-2.5569 1.02121,-0.81852 2.05017,-1.59804 3.05579,-2.3464 1.00562,-0.74836 1.98782,-1.46552 2.91548,-2.11255 0.92766,-0.64702 1.80073,-1.22387 2.51011,-1.69159 0.70938,-0.46772 1.25505,-0.82631 1.67602,-1.08356 0.42097,-0.25725 0.71718,-0.41315 0.46782,-0.7872 -0.24936,-0.37405 -1.04446,-0.96649 -1.90976,-1.63689 -0.8653,-0.67041 -1.80072,-1.41874 -2.76735,-2.12035 -0.96663,-0.7016 -1.96442,-1.3564 -2.81412,-1.89429 -0.8497,-0.53789 -1.55127,-0.95883 -2.38538,-1.44216 -0.83411,-0.48332 -1.80071,-1.02899 -2.65821,-1.49672 -0.8575,-0.46773 -1.60584,-0.85749 -2.47893,-1.26287 -0.87308,-0.40537 -1.87087,-0.82631 -2.82191,-1.23947 -0.95105,-0.41315 -1.85529,-0.8185 -2.89988,-1.23167 -1.04459,-0.41318 -2.22947,-0.83412 -3.27406,-1.0992 -1.0446,-0.26508 -1.94884,-0.37422 -2.74396,-0.55347 -0.79513,-0.17926 -1.48111,-0.4287 -2.14372,-0.68594 -0.66261,-0.25725 -1.30181,-0.52228 -1.97223,-0.84188 -0.67041,-0.3196 -1.37197,-0.69376 -1.97223,-1.06013 -0.60025,-0.36636 -1.09915,-0.72494 -1.53571,-1.09909 -0.43656,-0.37416 -0.81074,-0.76392 -1.20832,-1.22384 -0.39758,-0.45993 -0.81852,-0.99 -1.16156,-1.54346 -0.34304,-0.55345 -0.60808,-1.1303 -0.82637,-1.66819 -0.21829,-0.53789 -0.38978,-1.03678 -0.50675,-1.5357 -0.11697,-0.49892 -0.17933,-0.99781 -0.21832,-1.42657 -0.039,-0.42876 -0.0546,-0.78734 -0.0157,-1.06026 0.0389,-0.27292 0.13248,-0.46001 -0.10122,-0.5536 -0.23371,-0.0936 -0.79497,-0.0936 -1.4576,-0.0391 -0.66263,0.0546 -1.42657,0.16369 -2.12817,0.28841 -0.7016,0.12472 -1.34081,0.26503 -2.0892,0.49889 -0.74838,0.23386 -1.60586,0.56125 -2.40881,0.90425 -0.80294,0.343 -1.55128,0.70159 -2.15934,1.029 -0.60806,0.32741 -1.07578,0.62363 -1.58249,0.96664 -0.50672,0.343 -1.05239,0.73276 -1.5981,1.24729 -0.54571,0.51453 -1.09137,1.15373 -1.59808,1.76178 -0.50671,0.60805 -0.97442,1.18489 -1.44995,1.79295 -0.47553,0.60805 -0.95882,1.24725 -1.43436,1.99564 -0.47553,0.74839 -0.94324,1.60586 -1.3564,2.38541 -0.41316,0.77955 -0.77174,1.48112 -1.15371,2.27626 -0.38198,0.79514 -0.78733,1.68379 -1.19267,2.35415 -0.40535,0.67035 -0.8107,1.12247 -1.25505,1.71495 -0.44435,0.59248 -0.92766,1.32523 -1.42657,2.058 -0.4989,0.73277 -1.01338,1.46551 -1.60582,2.18267 -0.59245,0.71716 -1.26284,1.41873 -1.93323,2.06573 -0.67039,0.64701 -1.34078,1.23945 -2.01899,1.86309 -0.67821,0.62364 -1.36419,1.27844 -2.12032,1.92545 -0.75614,0.64701 -1.58244,1.28622 -2.36974,1.8007 -0.78731,0.51449 -1.53565,0.90425 -2.43215,1.45773 -0.89651,0.55349 -1.94106,1.27065 -2.96224,1.87868 -1.02118,0.60804 -2.01897,1.10693 -3.02455,1.52788 -1.00559,0.42096 -2.01897,0.76394 -3.009,1.13812 -0.99004,0.37419 -1.95664,0.77954 -3.00119,1.11474 -1.04456,0.33521 -2.16707,0.60025 -2.94664,0.81852 -0.77956,0.21826 -1.216093,0.38976 -1.434435,0.47553 -0.218341,0.0858 -0.218311,0.0858 -0.07792,0.41335 z"
       id="path14801" /><path
       style="fill:#d51f9e;fill-opacity:0.867704;stroke:#720d67;stroke-width:0;stroke-dasharray:none;stroke-opacity:1"
       d="m 141.28317,126.64356 c 0.3196,0.008 0.36637,0.42111 0.44824,0.86547 0.0819,0.44435 0.19881,0.91986 0.39372,1.49283 0.19491,0.57297 0.46775,1.24335 0.71332,1.78903 0.24557,0.54568 0.46384,0.96662 0.79518,1.43433 0.33135,0.46771 0.77568,0.9822 1.30968,1.54345 0.534,0.56126 1.15761,1.16929 1.70331,1.64089 0.5457,0.4716 1.01341,0.8068 1.61757,1.13027 0.60416,0.32347 1.3447,0.63527 2.15152,0.94318 0.80683,0.30791 1.6799,0.61192 2.40876,0.81067 0.72886,0.19875 1.31351,0.29229 1.90207,0.43264 0.58856,0.14034 1.181,0.32743 1.81243,0.51452 0.63143,0.18708 1.30182,0.37417 1.94494,0.56906 0.64312,0.19489 1.25894,0.39757 1.87868,0.60025 0.61974,0.20268 1.24335,0.40535 1.87479,0.63923 0.63143,0.23388 1.27064,0.49892 1.97613,0.77565 0.70549,0.27673 1.47721,0.56515 2.15151,0.8458 0.6743,0.28066 1.25115,0.55349 1.94884,0.91989 0.6977,0.3664 1.51619,0.82632 2.15541,1.20441 0.63922,0.37809 1.09914,0.67431 1.65262,1.0368 0.55347,0.36249 1.20047,0.79122 1.85918,1.24726 0.65872,0.45604 1.3291,0.93934 1.94494,1.41877 0.61583,0.47944 1.17708,0.95494 1.70717,1.41488 0.53009,0.45993 1.02898,0.90427 1.53957,1.40708 0.51059,0.50282 1.03287,1.06407 1.50838,1.59807 0.47552,0.53399 0.90426,1.04068 1.19266,1.41877 0.2884,0.37809 0.43651,0.62753 0.57298,0.80289 0.13647,0.17536 0.2612,0.2767 -0.19498,0.79108 -0.45618,0.51437 -1.49294,1.442 -2.07746,1.84749 -0.58452,0.40549 -0.71704,0.28856 -0.96262,0.0157 -0.24557,-0.27282 -0.60416,-0.70156 -1.00173,-1.19657 -0.39757,-0.49501 -0.8341,-1.05626 -1.26673,-1.5357 -0.43262,-0.47943 -0.86136,-0.87699 -1.3057,-1.29015 -0.44434,-0.41315 -0.90426,-0.84189 -1.43824,-1.29794 -0.53398,-0.45604 -1.142,-0.93935 -1.73836,-1.42656 -0.59635,-0.48721 -1.18099,-0.9783 -1.71887,-1.40706 -0.53788,-0.42876 -1.02898,-0.79514 -1.58245,-1.16544 -0.55346,-0.3703 -1.16929,-0.74446 -1.76953,-1.10306 -0.60025,-0.35859 -1.18489,-0.70158 -1.76565,-1.02899 -0.58076,-0.32742 -1.15761,-0.63923 -1.78514,-0.94326 -0.62752,-0.30404 -1.30571,-0.60026 -1.98392,-0.88479 -0.6782,-0.28454 -1.35639,-0.55738 -1.99171,-0.79125 -0.63533,-0.23388 -1.22777,-0.42876 -1.90207,-0.63924 -0.67431,-0.21048 -1.43045,-0.43654 -2.1866,-0.67819 -0.75616,-0.24165 -1.5123,-0.4989 -2.2061,-0.67822 -0.6938,-0.17932 -1.32521,-0.28066 -1.98392,-0.3898 -0.65871,-0.10913 -1.34469,-0.22606 -1.95663,-0.39362 -0.61193,-0.16756 -1.1498,-0.38583 -1.62142,-0.57682 -0.47163,-0.19099 -0.87697,-0.35469 -1.29404,-0.57293 -0.41706,-0.21824 -0.8458,-0.49107 -1.33691,-0.80289 -0.49112,-0.31182 -1.04457,-0.6626 -1.55908,-1.02507 -0.5145,-0.36247 -0.99001,-0.73664 -1.35643,-1.08741 -0.36641,-0.35076 -0.62365,-0.67816 -0.90428,-1.00948 -0.28062,-0.33131 -0.58463,-0.6665 -0.8692,-1.06794 -0.28458,-0.40145 -0.54962,-0.86917 -0.76009,-1.24725 -0.21048,-0.37807 -0.36639,-0.6665 -0.50284,-0.96662 -0.13644,-0.30012 -0.25337,-0.61192 -0.382,-0.98221 -0.12864,-0.37029 -0.26895,-0.79903 -0.38976,-1.11864 -0.1208,-0.31961 -0.22214,-0.53007 -0.30395,-0.67431 -0.0818,-0.14423 -0.14417,-0.22217 0.0974,-0.60818 0.24153,-0.38601 0.7872,-1.07978 1.35631,-1.6255 0.56911,-0.54571 1.16154,-0.94327 1.48114,-0.93531 z"
       id="path15799" /><path
       style="fill:#d4388c;fill-opacity:1;stroke:#720d67;stroke-width:0;stroke-dasharray:none;stroke-opacity:1"
       d="m 133.99448,135.14836 c -0.34293,0.7095 -0.27277,0.97455 -0.15973,1.32925 0.11305,0.3547 0.26895,0.79902 0.53015,1.30572 0.26119,0.5067 0.62756,1.07574 1.04854,1.62141 0.42098,0.54566 0.89649,1.06794 1.32913,1.55906 0.43265,0.49112 0.8224,0.95103 1.37981,1.46161 0.5574,0.51057 1.28236,1.07183 2.06581,1.54731 0.78345,0.47547 1.62533,0.86524 2.40488,1.19653 0.77955,0.33129 1.49671,0.60412 2.21778,0.83407 0.72108,0.22995 1.44603,0.41703 2.07746,0.57293 0.63142,0.15591 1.16929,0.28063 1.76954,0.40535 0.60025,0.12472 1.26284,0.24944 1.81242,0.36638 0.54958,0.11694 0.98612,0.22608 1.45775,0.37031 0.47162,0.14424 0.9783,0.32352 1.45772,0.50673 0.47942,0.1832 0.93155,0.37028 1.51231,0.62754 0.58076,0.25726 1.29012,0.58466 1.98392,0.87698 0.69379,0.29231 1.37197,0.54956 2.02289,0.82241 0.65092,0.27285 1.27454,0.56127 1.90986,0.90819 0.63533,0.34692 1.28233,0.75227 1.89037,1.10695 0.60805,0.35468 1.1771,0.6587 1.68379,0.98614 0.5067,0.32744 0.95102,0.67822 1.47331,1.08358 0.5223,0.40536 1.12253,0.86528 1.62534,1.22775 0.50281,0.36248 0.90817,0.62752 1.18096,0.85753 0.27279,0.23001 0.41311,0.4249 0.72496,0.72499 0.31186,0.3001 0.79516,0.70545 1.22389,1.10303 0.42873,0.39758 0.80291,0.78734 1.1498,1.16932 0.34689,0.38199 0.66649,0.75616 0.92376,1.03288 0.25726,0.27672 0.45214,0.45601 0.68209,0.70938 0.22994,0.25337 0.49498,0.58077 0.70153,0.87701 0.20655,0.29624 0.35466,0.56128 0.95482,0.15575 0.60016,-0.40553 1.65251,-1.48126 2.02292,-2.1944 0.3704,-0.71314 0.0586,-1.06393 -0.33897,-1.49658 -0.39757,-0.43265 -0.88087,-0.94713 -1.41875,-1.49282 -0.53788,-0.54569 -1.13032,-1.12253 -1.67599,-1.63314 -0.54567,-0.51061 -1.04457,-0.95493 -1.56296,-1.41097 -0.51839,-0.45603 -1.05627,-0.92374 -1.63702,-1.34862 -0.58074,-0.42488 -1.20436,-0.80685 -1.73834,-1.13815 -0.53399,-0.33131 -0.97831,-0.61193 -1.46943,-0.91596 -0.49111,-0.30403 -1.02898,-0.63143 -1.58635,-0.95105 -0.55737,-0.31962 -1.13422,-0.63143 -1.83971,-0.97834 -0.70548,-0.34691 -1.53957,-0.72887 -2.31911,-1.07188 -0.77955,-0.343 -1.5045,-0.64701 -2.30743,-0.95104 -0.80294,-0.30404 -1.6838,-0.60805 -2.51011,-0.90427 -0.82632,-0.29623 -1.59803,-0.58465 -2.3464,-0.81464 -0.74837,-0.22999 -1.47332,-0.40148 -2.16712,-0.57687 -0.69379,-0.17539 -1.35638,-0.35468 -2.06967,-0.5223 -0.71329,-0.16761 -1.47722,-0.32351 -2.13593,-0.4872 -0.65871,-0.16369 -1.21216,-0.33518 -1.80851,-0.56123 -0.59635,-0.22605 -1.23556,-0.50667 -1.82022,-0.80677 -0.58467,-0.3001 -1.11474,-0.6197 -1.64873,-0.98997 -0.534,-0.37026 -1.07187,-0.79121 -1.5435,-1.18876 -0.47163,-0.39755 -0.87699,-0.77173 -1.26287,-1.17317 -0.38589,-0.40145 -0.75227,-0.83019 -1.20832,-1.42654 -0.45605,-0.59635 -1.00171,-1.36027 -1.40322,-2.06185 -0.4015,-0.70158 -0.65874,-1.34079 -0.86533,-1.87477 -0.20658,-0.53399 -0.36249,-0.96273 -0.8186,-0.60036 -0.45612,0.36237 -1.21225,1.51606 -1.55519,2.22556 z"
       id="path15803" /><path
       style="fill:#dfdfdf;fill-opacity:0.634241;stroke:#f0f4a1;stroke-width:0;stroke-dasharray:none;stroke-opacity:1"
       d="m 156.04906,181.54841 c -0.0551,-0.35263 -0.16533,-1.05819 -0.35273,-1.88501 -0.18739,-0.82682 -0.45197,-1.77489 -1.05824,-2.77814 -0.60626,-1.00324 -1.55434,-2.06155 -2.57959,-3.03172 -1.02525,-0.97017 -2.12766,-1.85209 -3.31828,-2.60179 -1.19063,-0.7497 -2.46942,-1.36705 -3.62699,-1.75295 -1.15758,-0.38591 -2.19384,-0.54025 -3.46166,-0.66154 -1.26781,-0.12128 -2.76709,-0.20947 -4.057,-0.0882 -1.28992,0.12124 -2.37028,0.45196 -3.1089,0.66143 -0.73862,0.20946 -1.13548,0.29765 -1.49932,0.41892 -0.36385,0.12126 -0.69457,0.2756 -1.34505,0.69454 -0.65047,0.41894 -1.62059,1.10243 -2.35923,1.64263 -0.73865,0.5402 -1.24575,0.93707 -1.7529,1.46627 -0.50716,0.52921 -1.01427,1.19066 -1.64263,1.81901 -0.62836,0.62836 -1.378,1.22366 -2.01745,1.90722 -0.63945,0.68355 -1.16861,1.45524 -1.51936,2.11719 -0.35075,0.66194 -0.52306,1.214 -0.87019,1.35751 -0.34712,0.14351 -0.8694,-0.12153 -1.39559,-0.30477 -0.5262,-0.18324 -1.05628,-0.28458 -1.53962,-0.33918 -0.48333,-0.0546 -0.91985,-0.0624 -1.42265,-0.10136 -0.5028,-0.039 -1.07185,-0.10912 -1.63701,-0.26887 -0.56515,-0.15976 -1.1264,-0.4092 -1.74614,-0.68984 -0.61974,-0.28063 -1.29792,-0.59244 -1.84363,-0.94708 -0.54571,-0.35463 -0.95884,-0.75219 -1.50061,-1.18486 -0.54177,-0.43267 -1.21216,-0.90039 -1.74227,-1.32521 -0.5301,-0.42483 -0.91986,-0.8068 -1.29796,-1.24332 -0.3781,-0.43653 -0.74448,-0.92763 -1.14983,-1.44213 -0.40535,-0.5145 -0.84968,-1.05237 -1.23558,-1.58245 -0.38589,-0.53008 -0.71329,-1.05236 -0.99782,-1.5006 -0.28453,-0.44824 -0.52619,-0.82241 -0.66265,-1.06406 -0.13647,-0.24165 -0.16764,-0.35079 0.16378,-0.38211 0.33141,-0.0313 1.02519,0.0154 1.68388,0.008 0.65869,-0.008 1.2823,-0.0702 1.85526,-0.14034 0.57296,-0.0702 1.09524,-0.14812 1.57856,-0.20658 0.48333,-0.0585 0.92766,-0.0974 1.3291,-0.15591 0.40145,-0.0585 0.76002,-0.13643 1.22383,-0.26896 0.46381,-0.13252 1.03287,-0.31961 1.90595,-0.64702 0.87307,-0.3274 2.05015,-0.79512 3.0363,-1.12642 0.98614,-0.3313 1.78125,-0.52618 2.59586,-0.78733 0.8146,-0.26115 1.64869,-0.58855 2.77123,-1.03289 1.12255,-0.44434 2.53347,-1.0056 3.86648,-1.57856 1.33301,-0.57297 2.58804,-1.15761 3.6716,-1.6916 1.08355,-0.53399 1.99559,-1.01729 2.80245,-1.36808 0.80686,-0.3508 1.50843,-0.56906 2.33863,-0.86139 0.83021,-0.29233 1.78902,-0.6587 2.67385,-0.87306 0.88483,-0.21435 1.69554,-0.27672 2.46341,-0.27279 0.76787,0.004 1.49282,0.0741 2.30355,0.17932 0.81073,0.10525 1.70718,0.24556 2.43996,0.45609 0.73279,0.21054 1.30183,0.49116 1.97614,0.85366 0.6743,0.3625 1.45382,0.80683 2.24506,1.26676 0.79124,0.45994 1.59415,0.93545 2.3464,1.41878 0.75225,0.48333 1.45382,0.97442 2.10863,1.45385 0.65481,0.47943 1.26284,0.94714 1.94495,1.43435 0.68211,0.4872 1.43824,0.99389 2.09695,1.44213 0.65872,0.44824 1.21997,0.838 1.75395,1.21608 0.53399,0.37809 1.04068,0.74446 1.60975,1.16931 0.56906,0.42486 1.20047,0.90816 1.90985,1.45774 0.70939,0.54958 1.49671,1.16541 2.19441,1.6214 0.6977,0.45599 1.30572,0.75221 1.80074,0.97437 0.49501,0.22215 0.87697,0.37026 0.95084,0.67817 0.0739,0.30791 -0.15998,0.77562 -0.43672,1.3252 -0.27674,0.54958 -0.59634,1.18099 -0.93934,1.79682 -0.343,0.61583 -0.70937,1.21606 -1.07184,1.69544 -0.36247,0.47938 -0.72105,0.83796 -1.11863,1.3057 -0.39758,0.46775 -0.83411,1.0446 -1.40705,1.63702 -0.57294,0.59243 -1.28231,1.20045 -1.85136,1.66817 -0.56906,0.46772 -0.9978,0.79512 -1.27457,1.05241 -0.27678,0.25729 -0.4015,0.44438 -0.60021,0.59633 -0.1987,0.15196 -0.47153,0.26889 -0.77158,0.1638 -0.30006,-0.10508 -0.62745,-0.43247 -0.92369,-0.74039 -0.29623,-0.30792 -0.56127,-0.59634 -0.63123,-0.87247 -0.07,-0.27614 0.0554,-0.53982 0.11817,-0.67172 0.0627,-0.13189 0.0627,-0.13188 0.008,-0.48451 z"
       id="path16882" /><path
       style="fill:#d4388c;fill-opacity:1;stroke:#720d67;stroke-width:0;stroke-dasharray:none;stroke-opacity:1"
       d="m 114.24954,156.77043 c 0.003,0.003 0.0104,0.009 0.26388,0.60916 0.25353,0.60003 0.75392,1.79397 1.18736,2.6755 0.43344,0.88153 0.79982,1.45058 1.2208,1.99625 0.42098,0.54566 0.89649,1.06794 1.32913,1.55906 0.43264,0.49112 0.82239,0.95103 1.25892,1.56299 0.43652,0.61195 0.91982,1.37587 1.5396,2.11252 0.61979,0.73665 1.37591,1.446 2.10869,2.09302 0.73279,0.64702 1.44214,1.23164 2.13596,1.70324 0.69382,0.47159 1.37197,0.83016 2.12814,1.14195 0.75617,0.31179 1.59023,0.57681 2.41654,0.70929 0.82631,0.13247 1.64478,0.13248 2.30739,0.13248 0.66262,0 1.1693,-1e-5 1.64095,0.0351 0.47165,0.0351 0.90817,0.10526 1.36422,0.27293 0.45604,0.16767 0.93154,0.4327 1.50061,0.74062 0.56908,0.30792 1.23165,0.65869 1.80852,0.98612 0.57687,0.32742 1.06795,0.63142 1.57466,0.92765 0.50672,0.29622 1.02898,0.58463 1.64093,0.94323 0.61195,0.35861 1.3135,0.78733 1.97611,1.22 0.66262,0.43266 1.28623,0.86918 1.76175,1.21609 0.47552,0.34691 0.80291,0.60414 1.25114,1.00563 0.44823,0.40148 1.01727,0.94715 1.54736,1.46165 0.53009,0.5145 1.02119,0.99781 1.38759,1.32909 0.3664,0.33128 0.60805,0.51057 0.85358,0.76006 0.24552,0.2495 0.49497,0.5691 0.8341,0.90818 0.33913,0.33907 0.76786,0.69764 1.18103,1.02504 0.41317,0.3274 0.81072,0.62361 1.1069,0.91599 0.29618,0.29237 0.49106,0.58079 0.62359,0.76786 0.13253,0.18708 0.2027,0.27284 0.67425,0.0271 0.47154,-0.24572 1.34458,-0.82256 2.01887,-1.29028 0.6743,-0.46773 1.14981,-0.82631 1.36811,-1.07559 0.21829,-0.24928 0.17931,-0.38959 -0.37016,-0.77164 -0.54947,-0.38204 -1.60959,-1.00564 -2.40865,-1.5474 -0.79905,-0.54176 -1.33691,-1.00167 -1.88261,-1.51616 -0.5457,-0.51449 -1.09915,-1.08354 -1.73836,-1.66042 -0.63922,-0.57688 -1.36415,-1.16151 -2.01508,-1.67602 -0.65093,-0.51451 -1.22775,-0.95882 -1.8358,-1.36811 -0.60804,-0.40929 -1.24723,-0.78345 -1.98391,-1.16934 -0.73668,-0.3859 -1.57075,-0.78345 -2.38927,-1.20829 -0.81853,-0.42484 -1.62142,-0.87695 -2.41657,-1.29013 -0.79514,-0.41317 -1.58244,-0.78733 -2.31132,-1.11475 -0.72888,-0.32743 -1.39926,-0.60805 -2.07747,-0.86142 -0.67821,-0.25337 -1.36417,-0.47942 -2.01514,-0.54186 -0.65098,-0.0624 -1.26679,0.0389 -1.96055,0.0234 -0.69375,-0.0155 -1.46546,-0.14807 -2.19044,-0.33123 -0.72498,-0.18317 -1.40314,-0.41701 -2.07356,-0.74828 -0.67043,-0.33127 -1.33299,-0.75999 -1.85534,-1.21989 -0.52235,-0.45989 -0.9043,-0.95097 -1.33694,-1.41483 -0.43263,-0.46386 -0.91591,-0.90037 -1.31351,-1.3213 -0.3976,-0.42094 -0.7094,-0.82628 -1.07578,-1.25505 -0.36638,-0.42876 -0.78731,-0.88088 -1.1576,-1.30183 -0.37029,-0.42095 -0.6899,-0.81071 -1.00172,-1.20827 -0.31183,-0.39756 -0.61583,-0.80291 -1.02121,-1.39147 -0.40538,-0.58856 -0.91206,-1.36027 -1.37865,-2.27147 -0.46659,-0.91121 -0.89297,-1.96185 -1.13587,-2.48125 -0.24289,-0.51939 -0.30231,-0.50717 -0.78322,-0.22322 -0.48091,0.28394 -1.38311,0.83958 -1.83426,1.11743 -0.45114,0.27784 -0.45115,0.27784 -0.44769,0.28089 z"
       id="path15803-9" /><path
       style="fill:#d4388c;fill-opacity:1;stroke:#720d67;stroke-width:0;stroke-dasharray:none;stroke-opacity:1"
       d="m 108.73704,160.06743 c 0.0358,0.1272 0.0428,0.13328 0.29627,0.73331 0.25353,0.60003 0.75392,1.79397 1.18736,2.6755 0.43344,0.88153 0.79982,1.45058 1.2208,1.99625 0.42098,0.54566 0.89649,1.06794 1.32913,1.55906 0.43264,0.49112 0.82239,0.95103 1.25892,1.56299 0.43652,0.61195 0.91982,1.37587 1.5396,2.11252 0.61979,0.73665 1.37591,1.446 2.10869,2.09302 0.73279,0.64702 1.44214,1.23164 2.13596,1.70324 0.69382,0.47159 1.37197,0.83016 2.12814,1.14195 0.75617,0.31179 1.59023,0.57681 2.41654,0.70929 0.82631,0.13247 1.64478,0.13248 2.30739,0.13248 0.66262,0 1.1693,-1e-5 1.64095,0.0351 0.47165,0.0351 0.90817,0.10526 1.36422,0.27293 0.45604,0.16767 0.93154,0.4327 1.50061,0.74062 0.56908,0.30792 1.23165,0.65869 1.80852,0.98612 0.57687,0.32742 1.06795,0.63142 1.57466,0.92765 0.50672,0.29622 1.02898,0.58463 1.64093,0.94323 0.61195,0.35861 1.3135,0.78733 1.97611,1.22 0.66262,0.43266 1.28623,0.86918 1.76175,1.21609 0.47552,0.34691 0.80291,0.60414 1.25114,1.00563 0.44823,0.40148 1.01727,0.94715 1.54736,1.46165 0.53009,0.5145 1.02119,0.99781 1.38759,1.32909 0.3664,0.33128 0.60805,0.51057 0.85358,0.76006 0.24552,0.2495 0.49497,0.5691 0.8341,0.90818 0.33913,0.33907 0.76786,0.69764 1.18103,1.02504 0.41317,0.3274 0.81072,0.62361 1.1069,0.91599 0.29618,0.29237 0.49106,0.58079 0.62359,0.76786 0.13253,0.18708 0.2027,0.27284 0.67425,0.0271 0.47154,-0.24572 1.34458,-0.82256 2.01887,-1.29028 0.6743,-0.46773 1.14981,-0.82631 1.36811,-1.07559 0.21829,-0.24928 0.17931,-0.38959 -0.37016,-0.77164 -0.54947,-0.38204 -1.60959,-1.00564 -2.40865,-1.5474 -0.79905,-0.54176 -1.33691,-1.00167 -1.88261,-1.51616 -0.5457,-0.51449 -1.09915,-1.08354 -1.73836,-1.66042 -0.63922,-0.57688 -1.36415,-1.16151 -2.01508,-1.67602 -0.65093,-0.51451 -1.22775,-0.95882 -1.8358,-1.36811 -0.60804,-0.40929 -1.24723,-0.78345 -1.98391,-1.16934 -0.73668,-0.3859 -1.57075,-0.78345 -2.38927,-1.20829 -0.81853,-0.42484 -1.62142,-0.87695 -2.41657,-1.29013 -0.79514,-0.41317 -1.58244,-0.78733 -2.31132,-1.11475 -0.72888,-0.32743 -1.39926,-0.60805 -2.07747,-0.86142 -0.67821,-0.25337 -1.36417,-0.47942 -2.01514,-0.54186 -0.65098,-0.0624 -1.26679,0.0389 -1.96055,0.0234 -0.69375,-0.0156 -1.46546,-0.14807 -2.19044,-0.33123 -0.72498,-0.18317 -1.40314,-0.41701 -2.07356,-0.74828 -0.67043,-0.33127 -1.33299,-0.75999 -1.85534,-1.21989 -0.52235,-0.45989 -0.9043,-0.95097 -1.33694,-1.41483 -0.43263,-0.46386 -0.91591,-0.90037 -1.31351,-1.3213 -0.3976,-0.42094 -0.7094,-0.82628 -1.07578,-1.25505 -0.36638,-0.42876 -0.78731,-0.88088 -1.1576,-1.30183 -0.37029,-0.42095 -0.6899,-0.81071 -1.00172,-1.20827 -0.31183,-0.39756 -0.61583,-0.80291 -1.02121,-1.39147 -0.40538,-0.58856 -0.91206,-1.36027 -1.37865,-2.27147 -0.46659,-0.91121 -0.89297,-1.96185 -1.13587,-2.48125 -0.24289,-0.51939 -0.30231,-0.50717 -0.81624,-0.35001 -0.51394,0.15716 -1.48229,0.45924 -1.93344,0.73725 -0.45115,0.27801 -0.38372,0.53652 -0.34788,0.66371 z"
       id="path15803-9-9" /><path
       style="fill:#dfdfdf;fill-opacity:0.634241;stroke:#f0f4a1;stroke-width:0;stroke-dasharray:none;stroke-opacity:1"
       d="m 160.61585,135.21834 c -0.20275,0.15585 -0.91993,0.4053 -1.5592,0.70933 -0.63927,0.30402 -1.20052,0.6626 -1.86313,1.06796 -0.66261,0.40536 -1.42653,0.85749 -2.15155,1.41099 -0.72501,0.55349 -1.41099,1.20829 -2.08139,1.83972 -0.67041,0.63142 -1.32521,1.23945 -1.98003,1.86309 -0.65482,0.62364 -1.30962,1.26285 -2.12814,2.07358 -0.81852,0.81073 -1.80072,1.79292 -2.61146,2.69721 -0.81073,0.90429 -1.44994,1.73058 -2.08133,2.36197 -0.63139,0.63139 -1.25501,1.06793 -1.87089,1.63702 -0.61587,0.5691 -1.22389,1.27067 -1.74612,1.73056 -0.52224,0.45989 -0.95877,0.67816 -1.30166,0.72503 -0.34289,0.0469 -0.59234,-0.0778 -0.61591,-0.51438 -0.0236,-0.43654 0.17911,-1.18487 0.49872,-1.99564 0.31961,-0.81076 0.75615,-1.68383 1.24726,-2.6037 0.49112,-0.91987 1.03678,-1.88647 1.55909,-2.69722 0.5223,-0.81075 1.02119,-1.46555 1.48891,-2.09697 0.46773,-0.63143 0.90426,-1.23945 1.46554,-2.00341 0.56127,-0.76396 1.24725,-1.68379 1.72276,-2.64256 0.47551,-0.95877 0.74055,-1.95656 0.98221,-2.8998 0.24166,-0.94325 0.45992,-1.83191 0.68599,-2.64264 0.22606,-0.81074 0.45992,-1.54348 0.71717,-2.33862 0.25725,-0.79514 0.53788,-1.65261 0.78733,-2.36201 0.24945,-0.70939 0.46772,-1.27064 0.74836,-1.80857 0.28064,-0.53792 0.62363,-1.05241 0.86528,-1.46553 0.24165,-0.41313 0.38197,-0.72494 0.49893,-0.92769 0.11696,-0.20274 0.2105,-0.29627 0.33524,0.22617 0.12475,0.52245 0.28065,1.66055 0.52236,2.60381 0.24171,0.94326 0.56911,1.6916 0.93553,2.38538 0.36641,0.69379 0.77176,1.333 1.20834,1.88646 0.43658,0.55345 0.90429,1.02116 1.37203,1.4187 0.46775,0.39754 0.93546,0.72494 1.44997,1.00554 0.51451,0.28059 1.07576,0.51445 1.49671,0.68594 0.42096,0.1715 0.70158,0.28063 0.9978,0.36635 0.29622,0.0857 0.60803,0.14808 0.40528,0.30393 z"
       id="path17699" /></g></svg>
