<?xml version="1.0" encoding="UTF-8" standalone="no"?>
<!-- Created with Inkscape (http://www.inkscape.org/) -->

<svg
   width="229.53502mm"
   height="218.09923mm"
   viewBox="0 0 229.53502 218.09923"
   version="1.1"
   id="svg5"
   xml:space="preserve"
   xmlns="http://www.w3.org/2000/svg"
   xmlns:svg="http://www.w3.org/2000/svg"><defs
     id="defs2"><clipPath
       clipPathUnits="userSpaceOnUse"
       id="clipPath1342"><path
         id="path1344"
         style="fill:#ff0000;fill-opacity:1;fill-rule:nonzero;stroke:none;stroke-width:0.264583"
         d="m -284.40642,-194.81963 v 68.41856 c 4.40695,-1.16804 9.00679,-1.55174 13.55008,-1.91978 7.61914,-0.54557 15.26149,-0.60341 22.89628,-0.68781 4.91155,-0.0468 9.82321,-0.0728 14.73502,-0.0904 0.50854,-0.48515 1.00874,-0.97869 1.48828,-1.49396 0.8281,-0.91093 1.53698,-1.91839 2.23139,-2.93419 -2.65839,-0.47113 -5.64396,-3.79672 -3.89847,-5.95261 0.41129,-0.508 0.83404,-1.00626 1.25109,-1.50947 0.51496,-0.59792 1.08716,-1.14237 1.67069,-1.67225 0.92712,-0.7507 2.00754,-1.23973 3.09025,-1.7141 -0.0264,-0.0217 -0.10321,-0.0411 -0.0791,-0.0651 0.22259,-0.22034 0.49222,-0.38703 0.73536,-0.58446 0.26312,-0.21365 0.52381,-0.43063 0.78341,-0.64854 0.69057,-0.57967 1.36812,-1.17366 2.04484,-1.7694 0.71149,-0.61415 1.37419,-1.27982 2.04638,-1.93528 0.50472,-0.46895 1.02499,-0.91958 1.56218,-1.35082 0.70638,-0.65366 1.39305,-1.32847 2.07584,-2.0066 0.52092,-0.53889 1.00716,-1.11148 1.46813,-1.70222 0.49926,-0.62974 1.01463,-1.24636 1.54564,-1.8495 0.46592,-0.49663 0.89667,-1.02312 1.34204,-1.53789 0.45548,-0.52947 0.92184,-1.04947 1.41025,-1.54874 0.2585,-0.21914 0.46469,-0.47607 0.65991,-0.73742 0.13979,-0.22555 0.29918,-0.43949 0.45268,-0.65578 0.51332,-0.72327 1.27498,-1.01475 2.11254,-0.99735 0.47048,0.01 0.96409,0.12412 1.45159,0.30695 -0.0806,-0.11443 -0.16633,-0.22767 -0.24288,-0.34364 -0.72819,-1.03 -1.55214,-1.98278 -2.31304,-2.98897 -1.4002,-1.87428 -2.62815,-3.85738 -3.67574,-5.95106 -1.64353,-3.34215 -3.08466,-6.816 -3.56051,-10.54147 -0.15449,-2.51048 -0.417,-3.82882 0.30076,-6.41046 0.81953,-2.94773 2.13558,-5.13377 4.40025,-7.12618 z m 192.915879,0 c 0.341469,0.22022 0.683353,0.43766 1.025261,0.65525 0.12632,-0.2336 0.26648,-0.43433 0.398425,-0.65525 z m 19.470132,41.94937 c -0.100335,0.34318 -0.211188,0.68391 -0.314711,1.0263 0.02289,0.0261 0.04531,0.0525 0.06821,0.0786 0.04278,-0.15081 0.103947,-0.33497 0.125058,-0.43305 0.04788,-0.22245 0.08098,-0.44782 0.121441,-0.6718 z m -212.386011,94.355486 v 0.04082 c 0.20196,0.04389 0.40661,0.07422 0.61135,0.103354 -0.20331,-0.0506 -0.40738,-0.09704 -0.61135,-0.144177 z m 6.11024,36.120792 c -0.0327,-0.0095 -0.0352,0.08122 -0.008,0.101803 0.16243,0.124072 0.35621,0.200498 0.53433,0.300756 0.30009,0.170766 0.55187,0.289354 0.78912,0.386023 -0.13748,-0.09881 -0.26916,-0.193999 -0.77049,-0.526066 -0.16804,-0.111305 -0.35116,-0.206186 -0.54468,-0.262516 z m 1.8779,0.749825 c -0.0156,-0.03717 -0.0204,0.09139 -0.0579,0.105937 -0.0339,0.01312 -0.0937,-0.08147 -0.0987,-0.04547 -0.006,0.04088 0.0103,0.082 0.0145,0.122989 0.0599,0.01644 0.12063,0.03408 0.17934,0.04651 -0.009,-0.07819 -0.007,-0.158375 -0.0372,-0.22996 z" /></clipPath><clipPath
       clipPathUnits="userSpaceOnUse"
       id="clipPath1366"><path
         id="path1368"
         style="fill:#ff0000;fill-opacity:1;fill-rule:nonzero;stroke:none;stroke-width:0.264583"
         d="m -260.35258,-194.81963 c 0.88119,0.25353 1.75993,0.51606 2.63033,0.80667 2.5573,0.86387 5.13313,1.70627 7.59953,2.80861 0.78734,0.40479 0.82643,0.40967 1.56942,0.84853 0.7857,0.4641 1.54001,0.98375 2.36471,1.38027 0.86207,0.4359 1.74608,0.8216 2.61224,1.24902 0.64574,0.31865 0.93711,0.48842 1.5565,0.82683 0.25996,0.14203 0.52067,0.28363 0.78083,0.42529 1.65805,0.88725 3.30386,1.79638 4.9444,2.7156 0.41233,0.22178 0.82985,0.43439 1.24695,0.64802 0.0284,0.001 0.0569,5.3e-4 0.0853,0.002 0.32689,0.0164 0.64941,0.0828 0.9741,0.12401 0.64254,0.1284 1.49229,0.26012 2.08463,0.54727 0.52548,0.25473 1.18688,0.41362 1.49861,0.90743 0.46169,0.73133 0.87382,1.52431 1.15032,2.35231 1.00039,0.81668 2.031,1.59463 3.08663,2.33939 0.96246,0.68124 1.92091,1.36832 2.88561,2.0464 0.28595,0.0131 0.59122,0.0558 0.9214,0.13694 2.2229,0.54662 3.14459,1.63285 3.40651,2.9533 0.31128,0.24707 0.61909,0.49903 0.92087,0.75861 0.62068,0.51352 1.2348,1.03549 1.90479,1.48518 0.72879,0.50163 1.51024,0.91049 2.29805,1.31154 1.16015,0.5861 2.34659,1.13174 3.41478,1.88104 0.85431,0.64955 1.71679,1.34661 2.26291,2.2939 0.051,0.0885 0.10205,0.17763 0.15193,0.26769 0.29643,-0.17684 0.6432,-0.26865 1.0201,-0.27337 v -5.3e-4 c 0.0456,-5.2e-4 0.0917,-4e-5 0.13797,0.002 1.89117,0.0681 4.28571,1.9815 3.35845,3.66644 -0.10112,0.18374 -0.0381,0.0677 -0.18448,0.34985 -0.17185,0.30933 -0.31112,0.63498 -0.48318,0.94465 -0.28192,0.53582 -0.57707,1.06511 -0.9064,1.57354 -0.22818,0.35406 -0.45863,0.70681 -0.69298,1.05679 -0.24559,0.38716 -0.49102,0.77413 -0.73432,1.16272 -0.29491,0.4523 -0.5997,0.89835 -0.92191,1.3317 -0.30988,0.38985 -0.64242,0.75844 -0.99736,1.10794 -0.41867,0.42314 -0.85494,0.82893 -1.28416,1.24127 -0.51397,0.49077 -1.04239,0.9647 -1.60352,1.40146 -0.30013,0.25394 -0.60085,0.5058 -0.86609,0.79737 -0.26065,0.27126 -0.49514,0.56482 -0.73019,0.85835 -0.38409,0.50209 -0.71015,1.04448 -1.06454,1.56734 -0.38431,0.57077 -0.7678,1.14343 -1.23403,1.6521 -0.1421,0.15985 -0.27577,0.32158 -0.37982,0.51056 -0.28513,0.42208 -0.55073,0.85763 -0.85059,1.26969 -0.34613,0.44887 -0.71556,0.87795 -1.13327,1.26246 -0.31931,0.33001 -0.63911,0.65981 -0.94258,1.00459 -0.3779,0.4542 -0.76327,0.90392 -1.20612,1.29708 -0.47964,0.42798 -0.99221,0.81112 -1.55236,1.12861 -0.49769,0.29632 -1.00671,0.57414 -1.52808,0.82682 -0.0684,0.0329 -0.13634,0.0661 -0.20464,0.0992 -0.0499,0.0241 -0.0966,0.0575 -0.14986,0.0729 -0.003,8e-4 -0.004,8e-4 -0.005,5.3e-4 h -5.3e-4 c -0.23209,0.20426 -0.46306,0.40942 -0.6935,0.61547 -0.17717,0.1362 -0.31581,0.31674 -0.46715,0.47904 -0.39757,0.42175 -0.81329,0.82839 -1.31104,1.13274 -0.30176,0.17712 -0.61096,0.3374 -0.93637,0.46613 -0.21049,0.10329 -0.32494,0.15123 -0.53899,0.28835 -0.19028,0.11041 -0.36092,0.19484 -0.53537,0.33538 -0.0669,0.0512 -0.12712,0.11216 -0.19533,0.17518 l 5.3e-4,5.3e-4 c -1.08864,1.0056 -2.79114,0.23198 -3.78633,-0.98857 -0.32869,0.18778 -0.66694,0.36335 -1.01286,0.5302 -0.16428,0.07 -0.32387,0.15206 -0.49247,0.21084 -1.97155,1.90283 -6.73188,2.2204 -7.25279,-0.57981 -0.003,-0.012 -0.005,-0.0242 -0.007,-0.0362 -0.10929,-0.45215 -0.20525,-0.90689 -0.26665,-1.36839 -0.0111,-0.14713 -0.0797,-0.37673 -0.12505,-0.53124 0.0456,0.0937 -0.0378,-0.13914 -0.0388,-0.14314 -0.0288,-0.0838 -0.1601,-0.44468 -0.1726,-0.48008 -0.0192,-0.0544 -0.0369,-0.10921 -0.0553,-0.16381 -0.20681,-0.57384 -0.44429,-1.13807 -0.58291,-1.73426 -0.21087,-0.8416 -0.40441,-1.68955 -0.41341,-2.56264 -5.3e-4,-0.83658 0.044,-1.67054 0.13798,-2.50217 0.0221,-0.22653 0.0601,-0.46766 0.0729,-0.69711 0.005,-0.0931 -0.0142,-0.18959 0.008,-0.28009 0.003,-0.0136 0.007,0.0272 0.01,0.0408 -0.0384,-0.42756 -0.0985,-0.85269 -0.18242,-1.27382 -0.1805,-1.10006 -0.23227,-2.2101 -0.0925,-3.31969 0.16641,-1.22793 0.41069,-2.44223 0.65009,-3.65766 0.1254,-0.70665 0.23476,-1.41564 0.32246,-2.12752 0.0145,0.002 0.0374,0.0211 0.0434,0.008 0.05,-0.11252 -0.10677,-0.24325 -0.0362,-0.35243 0.0923,-0.0279 0.13392,-0.0182 -0.0315,-0.15451 -0.29715,-0.24474 -0.81186,-0.50796 -1.12344,-0.6656 -0.65314,-0.33044 -1.43183,-0.67644 -2.09083,-0.9772 -1.76741,-0.80121 -3.542,-1.59516 -5.38468,-2.21072 -1.41149,-0.45247 -2.84066,-0.85661 -4.21577,-1.41541 -1.29818,-0.51423 -2.56377,-1.09429 -3.7822,-1.77871 -0.83411,-0.45995 -1.64682,-0.97138 -2.55126,-1.28622 -1.33997,-0.39453 -2.67111,-0.61495 -4.0752,-0.51935 -2.03287,0.0791 -4.06989,0.18487 -6.10298,0.0465 -0.40084,-0.0346 -0.80248,-0.0606 -1.2025,-0.10335 -1.69778,-0.18184 -3.37524,-0.51815 -5.04312,-0.8754 -1.9318,-0.49149 -3.71107,-1.05581 -5.31286,-2.2996 -0.18669,-0.16213 -0.37708,-0.32003 -0.55965,-0.4868 -0.64822,-0.59215 -1.2374,-1.24484 -1.8402,-1.88309 V 23.240442 H -54.896398 V -194.81963 Z m 32.72926,60.34515 c 0.0157,-0.012 0.029,-0.0311 0.046,-0.0408 0.021,-0.012 -0.037,0.0316 -0.0553,0.0475 0.003,-0.003 0.006,-0.004 0.009,-0.007 z m -30.26275,-38.52736 c -0.0271,0.0866 -0.0509,0.17461 -0.0806,0.25941 -0.005,0.0132 0.0152,-0.028 0.0289,-0.03 0.0108,-0.002 0.0168,0.0142 0.0248,0.0212 z m 19.86804,6.87451 c -0.002,0.002 -0.0107,0.0104 -0.0108,0.0109 -0.002,0.003 0.007,-0.004 0.009,-0.005 5.3e-4,-0.002 0.001,-0.004 0.002,-0.006 z m -0.0326,0.11266 c -0.0128,0.0197 -0.0181,0.0221 -0.032,0.0465 -0.0239,0.0419 -0.0438,0.0862 -0.061,0.13125 -0.003,0.009 -0.005,0.0364 0,0.0284 0.0331,-0.0484 0.0452,-0.10902 0.0785,-0.15762 0.005,-0.016 0.01,-0.0324 0.0145,-0.0486 z m 15.05232,28.09647 c -0.0412,0.0336 -0.0791,0.0706 -0.11886,0.10594 -0.004,0.003 -0.008,0.007 -0.0114,0.01 0.0152,-0.0107 0.0412,-0.0272 0.0522,-0.0372 0.0274,-0.0249 0.10677,-0.10148 0.078,-0.078 z" /></clipPath><clipPath
       clipPathUnits="userSpaceOnUse"
       id="clipPath4314"><path
         id="path4316"
         style="fill:#ff0000;fill-opacity:1;fill-rule:nonzero;stroke:none;stroke-width:0.264583"
         d="m 21.104948,-51.930038 v 42.4087821 c 0.986764,0.08224 1.973554,0.16315 2.961587,0.2304759 1.349878,0.090742 2.696898,0.2168975 4.041087,0.369488 1.196102,0.13952 2.388394,0.3101684 3.583755,0.4552685 1.055926,0.095261 2.103094,0.2584953 3.153304,0.3999759 0.710354,0.1086908 1.422612,0.2055363 2.13786,0.2754366 0.73959,0.07861 1.473121,0.2021549 2.211732,0.2883535 0.797216,0.1100296 1.592342,0.2267241 2.393659,0.3028235 0.918765,0.069101 1.840679,0.080584 2.761588,0.095086 1.008089,0.014288 2.016469,0.019209 3.024638,0.022225 0.01773,2.593e-4 0.03548,-2.064e-4 0.05321,0 0.275035,-0.5861923 0.739537,-1.0374392 1.432984,-1.2433353 2.143812,-0.6365002 4.333927,-1.0945151 6.525207,-1.5327233 0.604652,-0.4992974 1.205918,-1.0024054 1.80504,-1.5084344 0.451723,-0.381511 0.962475,-0.550302 1.491906,-0.553456 0.312023,-0.0019 0.630582,0.05401 0.947235,0.157099 v -40.167065 z" /></clipPath></defs><g
     id="layer1"
     transform="translate(284.43144,194.85878)"><path
       id="path1295"
       style="display:inline;fill:#888888;fill-opacity:1;stroke:#fef2f0;stroke-width:0"
       d="m -280.75857,-194.80568 c -1.55263,0.0896 -2.08999,0.62719 -2.53783,2.59777 -0.44785,1.9706 -0.80635,5.37404 -0.98547,7.67292 -0.17912,2.29888 -0.17891,3.4931 0.0899,4.35891 0.26883,0.86581 0.80624,1.40323 1.76165,1.97042 0.95541,0.5672 2.32891,1.16441 4.00079,1.58233 1.6719,0.41793 3.64199,0.65667 5.04517,0.74621 1.40318,0.0895 2.2393,0.0299 2.77658,-0.11937 0.53729,-0.14927 0.77586,-0.3885 0.83561,-0.71675 0.0597,-0.32825 -0.0595,-0.74614 0.74672,-0.89556 0.80621,-0.14942 2.53787,-0.0301 4.92631,0.47749 2.38846,0.50759 5.43363,1.4032 9.22528,3.0453 3.79166,1.64208 8.3294,4.03051 12.59872,6.74739 4.2693,2.71686 8.27021,5.76242 10.86755,8.80773 2.59733,3.04532 3.79117,6.09039 4.20904,7.85172 0.4179,1.76131 0.0596,2.2389 -0.41806,2.836 -0.47768,0.59709 -1.07486,1.3136 -1.73167,2.23914 -0.65683,0.92555 -1.37304,2.05986 -1.76114,3.01532 -0.38811,0.95546 -0.44799,1.73203 0.38809,3.28455 0.83609,1.55252 2.56779,3.88111 3.46336,5.25446 0.89557,1.37335 0.95531,1.79102 0.89555,2.41794 -0.0598,0.62692 -0.23917,1.46301 -2.06034,3.16467 -1.82117,1.70164 -5.2842,4.26932 -8.38915,6.32933 -3.10494,2.06 -5.85137,3.61224 -7.46363,4.83639 -1.61226,1.22415 -2.08989,2.11969 -2.50786,3.16467 -0.41797,1.04499 -0.77626,2.2395 -0.77618,3.40392 8e-5,1.16443 0.35831,2.29861 0.80616,3.49281 0.44785,1.19422 0.98493,2.44831 1.22369,4.6576 0.23877,2.2093 0.17931,5.373817 0.17932,14.629082 0,9.255265 0.0598,24.600837 0.03,38.662757 -0.0299,14.06192 -0.14916,26.839442 -0.35811,33.317863 -0.20895,6.4784197 -0.50749,6.6576979 -0.65681,7.2848262 -0.14932,0.6271284 -0.14952,1.7019368 0.0894,2.9558919 0.2389,1.2539552 0.71657,2.6871766 1.6123,4.2695069 0.89573,1.58233001 2.20941,3.3136195 4.6576,5.8513224 2.44819,2.537703 6.03066,5.8815326 10.00146,8.8371866 3.97079,2.955654 8.32976,5.523373 13.88287,7.135482 5.55311,1.612107 12.3,2.268866 15.85278,2.597257 3.55277,0.328393 3.91129,0.32822 4.53822,0.208773 0.62691,-0.119442 1.5228,-0.35797 8.59793,-0.447518 7.07572,-0.08954 20.33171,-0.03021 33.43827,-0.08992 13.10655,-0.05972 26.06362,-0.238927 36.2443,-0.418062 10.18068,-0.179135 17.584677,-0.358134 23.70501,-0.895553 6.120333,-0.537416 10.956871,-1.432987 15.405261,-3.284037 4.448391,-1.851051 8.508397,-4.657298 12.031307,-7.612972 3.522913,-2.9556749 6.508324,-6.0605681 8.26978,-10.77763668 1.761453,-4.71706852 2.298813,-11.04621232 2.62723,-17.34571132 0.328415,-6.299498 0.44815,-12.569206 0.478007,-23.526213 0.02986,-10.957005 -0.03028,-26.601091 -0.239262,-37.050451 -0.208982,-10.449363 -0.566887,-15.703316 -1.223698,-21.614701 -0.656812,-5.911383 -1.612165,-12.479483 -3.284038,-18.719273 -1.671871,-6.23978 -4.060221,-12.15123 -6.568074,-17.97306 -2.507856,-5.8218 -5.135117,-11.55397 -8.956559,-16.36076 -3.821444,-4.80676 -8.8373,-8.68757 -13.882874,-12.44937 -5.045575,-3.76179 -10.120741,-7.40444 -15.64401,-9.46453 -5.52326,-2.06011 -11.49404,-2.53772 -18.53995,-2.77658 -7.04591,-0.23885 -15.16644,-0.23884 -22.54074,0 -7.37431,0.23883 -14.00214,0.71637 -19.91352,1.01493 -5.91136,0.29856 -11.106,0.41793 -14.47973,1.04489 -3.37376,0.62696 -4.92619,1.76186 -6.47868,2.86649 -1.55249,1.10466 -3.10492,2.17909 -5.28443,4.80643 -2.1795,2.62735 -4.98584,6.80716 -6.98614,9.52397 -2.00028,2.7168 -3.19486,3.97055 -4.00078,4.56768 -0.80594,0.59712 -1.22393,0.53762 -2.47789,-0.44752 -1.25396,-0.98514 -3.34354,-2.89608 -4.80642,-4.12016 -1.4629,-1.2241 -2.29888,-1.76149 -3.31401,-1.88103 -1.01515,-0.11954 -2.2095,0.17911 -2.9559,0.38809 -0.74641,0.20899 -1.04465,0.32871 -2.02985,-0.80563 -0.98521,-1.13435 -2.65733,-3.52299 -4.2695,-5.82187 -1.6122,-2.29887 -3.16481,-4.50812 -4.77697,-6.32933 -1.61216,-1.82121 -3.28386,-3.25442 -6.53811,-5.07566 -3.25423,-1.82123 -8.09054,-4.03004 -13.79295,-5.97069 -5.70242,-1.94064 -12.27073,-3.6127 -16.27136,-4.53823 -4.00063,-0.92554 -5.43328,-1.10442 -6.35878,-1.25367 -0.92551,-0.14925 -1.34365,-0.26882 -1.40354,-0.68678 -0.0599,-0.41796 0.23842,-1.13443 -0.0599,-1.82107 -0.29838,-0.68663 -1.19379,-1.34342 -2.9254,-1.85105 -1.73164,-0.50763 -4.29922,-0.86626 -5.85184,-0.7767 z m 157.12374,33.09255 c 0.67116,0.002 1.27287,0.29957 1.80454,0.84853 0.65437,0.67565 1.20285,1.73155 1.56166,3.54707 0.35882,1.81553 0.52787,4.39095 0.46457,7.2409 -0.0633,2.84997 -0.35894,5.97394 -1.28777,7.97936 -0.92883,2.00542 -2.49099,2.89203 -3.82096,3.52537 -1.32997,0.63333 -2.42747,1.01343 -6.33295,1.60455 -3.90546,0.59111 -10.61879,1.39353 -16.27652,1.49913 -5.65775,0.10559 -10.25979,-0.48559 -14.10198,-1.56218 -3.84222,-1.07658 -6.9243,-2.63862 -8.71885,-4.05298 -1.79454,-1.41435 -2.30148,-2.68095 -2.55488,-3.96875 -0.25338,-1.28781 -0.25304,-2.59668 -0.21084,-4.01112 0.0422,-1.41445 0.12669,-2.93471 0.14779,-4.07469 0.0211,-1.13997 -0.0212,-1.89996 0.10542,-2.72335 0.12663,-0.82339 0.42208,-1.70984 0.971,-2.55436 0.54891,-0.84453 1.35108,-1.64702 2.32234,-1.79473 0.97127,-0.14772 2.11115,0.35906 3.29334,1.20355 1.18218,0.8445 2.40656,2.0268 3.39876,2.57555 0.9922,0.54879 1.7524,0.46453 2.30115,0.0424 0.54874,-0.42214 0.88624,-1.18234 1.47743,-1.77354 0.59119,-0.5912 1.43562,-1.01346 2.61793,-1.03456 1.18232,-0.0211 2.70263,0.35889 3.82147,1.03456 1.11885,0.67567 1.83656,1.64668 2.55437,2.11098 0.71778,0.46429 1.43531,0.42218 2.63859,0.12661 1.20329,-0.29557 2.89216,-0.84425 3.82096,-1.62522 0.9288,-0.78098 1.09765,-1.79424 1.85777,-2.40657 0.76011,-0.61234 2.11128,-0.82361 3.2091,-0.61237 1.09782,0.21123 1.94218,0.84442 2.84996,1.41438 0.90778,0.56997 1.879,1.07691 2.74453,1.33015 0.86553,0.25325 1.6253,0.25319 2.61742,-0.19016 0.99209,-0.44334 2.21674,-1.33032 3.31452,-2.09032 1.09779,-0.76001 2.06902,-1.39284 2.93471,-1.56166 0.16231,-0.0317 0.32054,-0.047 0.47542,-0.0465 z m 48.541739,65.798571 c 0.214619,-0.0015 0.427143,0.0078 0.63562,0.02894 1.667821,0.169011 3.103109,1.098092 3.757394,2.238106 0.654284,1.140014 0.527614,2.491105 -0.19017,4.412134 -0.717783,1.921029 -2.026463,4.411954 -2.195214,6.248714 -0.168753,1.836759 0.802233,3.018866 1.709973,4.433321 0.907739,1.414456 1.752075,3.061231 1.794205,4.433321 0.04213,1.37209 -0.718099,2.469591 -1.372526,3.31401 -0.654426,0.84442 -1.203094,1.435752 -1.203027,2.385901 6.6e-5,0.950149 0.548794,2.258933 1.118795,3.588928 0.57,1.329995 1.161279,2.680886 1.308964,3.778581 0.147684,1.097696 -0.147772,1.942518 -0.569991,3.230294 -0.422219,1.287775 -0.971156,3.018862 -1.139982,4.306713 -0.168827,1.287851 0.04235,2.132298 0.633553,3.018938 0.591203,0.886639 1.562152,1.815467 1.942,2.828768 0.379848,1.013301 0.168935,2.110808 -0.274402,3.335197 -0.443336,1.224388 -1.118962,2.575573 -2.132169,3.419946 -1.013206,0.844373 -2.364225,1.181945 -4.07417,1.224214 -1.709947,0.04227 -3.778631,-0.210935 -5.087545,-0.633036 -1.308914,-0.422099 -1.857975,-1.013083 -2.364714,-2.068607 -0.506737,-1.055525 -0.971425,-2.575718 -1.245918,-5.911267 -0.274494,-3.33555 -0.358891,-8.486154 -0.569991,-12.877251 -0.211102,-4.391096 -0.548542,-8.022101 -0.485242,-11.990999 0.0633,-3.968899 0.527724,-8.275684 0.844393,-11.48457 0.316669,-3.208888 0.485147,-5.319754 1.18184,-6.839893 0.696691,-1.520139 1.921225,-2.449099 3.483508,-3.209106 1.366999,-0.665007 2.992482,-1.200989 4.494816,-1.211297 z"
       clip-path="url(#clipPath1342)" /><path
       id="path358"
       style="display:inline;fill:#ff0000;fill-opacity:1;stroke:#fef2f0;stroke-width:0"
       d="m -280.75857,-194.80568 c -1.55263,0.0896 -2.08999,0.62719 -2.53783,2.59777 -0.44785,1.9706 -0.80635,5.37404 -0.98547,7.67292 -0.17912,2.29888 -0.17891,3.4931 0.0899,4.35891 0.26883,0.86581 0.80624,1.40323 1.76165,1.97042 0.95541,0.5672 2.32891,1.16441 4.00079,1.58233 1.6719,0.41793 3.64199,0.65667 5.04517,0.74621 1.40318,0.0895 2.2393,0.0299 2.77658,-0.11937 0.53729,-0.14927 0.77586,-0.3885 0.83561,-0.71675 0.0597,-0.32825 -0.0595,-0.74614 0.74672,-0.89556 0.80621,-0.14942 2.53787,-0.0301 4.92631,0.47749 2.38846,0.50759 5.43363,1.4032 9.22528,3.0453 3.79166,1.64208 8.3294,4.03051 12.59872,6.74739 4.2693,2.71686 8.27021,5.76242 10.86755,8.80773 2.59733,3.04532 3.79117,6.09039 4.20904,7.85172 0.4179,1.76131 0.0596,2.2389 -0.41806,2.836 -0.47768,0.59709 -1.07486,1.3136 -1.73167,2.23914 -0.65683,0.92555 -1.37304,2.05986 -1.76114,3.01532 -0.38811,0.95546 -0.44799,1.73203 0.38809,3.28455 0.83609,1.55252 2.56779,3.88111 3.46336,5.25446 0.89557,1.37335 0.95531,1.79102 0.89555,2.41794 -0.0598,0.62692 -0.23917,1.46301 -2.06034,3.16467 -1.82117,1.70164 -5.2842,4.26932 -8.38915,6.32933 -3.10494,2.06 -5.85137,3.61224 -7.46363,4.83639 -1.61226,1.22415 -2.08989,2.11969 -2.50786,3.16467 -0.41797,1.04499 -0.77626,2.2395 -0.77618,3.40392 8e-5,1.16443 0.35831,2.29861 0.80616,3.49281 0.44785,1.19422 0.98493,2.44831 1.22369,4.6576 0.23877,2.2093 0.17931,5.373817 0.17932,14.629082 0,9.255265 0.0598,24.600837 0.03,38.662757 -0.0299,14.06192 -0.14916,26.839442 -0.35811,33.317863 -0.20895,6.4784197 -0.50749,6.6576979 -0.65681,7.2848262 -0.14932,0.6271284 -0.14952,1.7019368 0.0894,2.9558919 0.2389,1.2539552 0.71657,2.6871766 1.6123,4.2695069 0.89573,1.58233001 2.20941,3.3136195 4.6576,5.8513224 2.44819,2.537703 6.03066,5.8815326 10.00146,8.8371866 3.97079,2.955654 8.32976,5.523373 13.88287,7.135482 5.55311,1.612107 12.3,2.268866 15.85278,2.597257 3.55277,0.328393 3.91129,0.32822 4.53822,0.208773 0.62691,-0.119442 1.5228,-0.35797 8.59793,-0.447518 7.07572,-0.08954 20.33171,-0.03021 33.43827,-0.08992 13.10655,-0.05972 26.06362,-0.238927 36.2443,-0.418062 10.18068,-0.179135 17.584677,-0.358134 23.70501,-0.895553 6.120333,-0.537416 10.956871,-1.432987 15.405261,-3.284037 4.448391,-1.851051 8.508397,-4.657298 12.031307,-7.612972 3.522913,-2.9556749 6.508324,-6.0605681 8.26978,-10.77763668 1.761453,-4.71706852 2.298813,-11.04621232 2.62723,-17.34571132 0.328415,-6.299498 0.44815,-12.569206 0.478007,-23.526213 0.02986,-10.957005 -0.03028,-26.601091 -0.239262,-37.050451 -0.208982,-10.449363 -0.566887,-15.703316 -1.223698,-21.614701 -0.656812,-5.911383 -1.612165,-12.479483 -3.284038,-18.719273 -1.671871,-6.23978 -4.060221,-12.15123 -6.568074,-17.97306 -2.507856,-5.8218 -5.135117,-11.55397 -8.956559,-16.36076 -3.821444,-4.80676 -8.8373,-8.68757 -13.882874,-12.44937 -5.045575,-3.76179 -10.120741,-7.40444 -15.64401,-9.46453 -5.52326,-2.06011 -11.49404,-2.53772 -18.53995,-2.77658 -7.04591,-0.23885 -15.16644,-0.23884 -22.54074,0 -7.37431,0.23883 -14.00214,0.71637 -19.91352,1.01493 -5.91136,0.29856 -11.106,0.41793 -14.47973,1.04489 -3.37376,0.62696 -4.92619,1.76186 -6.47868,2.86649 -1.55249,1.10466 -3.10492,2.17909 -5.28443,4.80643 -2.1795,2.62735 -4.98584,6.80716 -6.98614,9.52397 -2.00028,2.7168 -3.19486,3.97055 -4.00078,4.56768 -0.80594,0.59712 -1.22393,0.53762 -2.47789,-0.44752 -1.25396,-0.98514 -3.34354,-2.89608 -4.80642,-4.12016 -1.4629,-1.2241 -2.29888,-1.76149 -3.31401,-1.88103 -1.01515,-0.11954 -2.2095,0.17911 -2.9559,0.38809 -0.74641,0.20899 -1.04465,0.32871 -2.02985,-0.80563 -0.98521,-1.13435 -2.65733,-3.52299 -4.2695,-5.82187 -1.6122,-2.29887 -3.16481,-4.50812 -4.77697,-6.32933 -1.61216,-1.82121 -3.28386,-3.25442 -6.53811,-5.07566 -3.25423,-1.82123 -8.09054,-4.03004 -13.79295,-5.97069 -5.70242,-1.94064 -12.27073,-3.6127 -16.27136,-4.53823 -4.00063,-0.92554 -5.43328,-1.10442 -6.35878,-1.25367 -0.92551,-0.14925 -1.34365,-0.26882 -1.40354,-0.68678 -0.0599,-0.41796 0.23842,-1.13443 -0.0599,-1.82107 -0.29838,-0.68663 -1.19379,-1.34342 -2.9254,-1.85105 -1.73164,-0.50763 -4.29922,-0.86626 -5.85184,-0.7767 z m 157.12374,33.09255 c 0.67116,0.002 1.27287,0.29957 1.80454,0.84853 0.65437,0.67565 1.20285,1.73155 1.56166,3.54707 0.35882,1.81553 0.52787,4.39095 0.46457,7.2409 -0.0633,2.84997 -0.35894,5.97394 -1.28777,7.97936 -0.92883,2.00542 -2.49099,2.89203 -3.82096,3.52537 -1.32997,0.63333 -2.42747,1.01343 -6.33295,1.60455 -3.90546,0.59111 -10.61879,1.39353 -16.27652,1.49913 -5.65775,0.10559 -10.25979,-0.48559 -14.10198,-1.56218 -3.84222,-1.07658 -6.9243,-2.63862 -8.71885,-4.05298 -1.79454,-1.41435 -2.30148,-2.68095 -2.55488,-3.96875 -0.25338,-1.28781 -0.25304,-2.59668 -0.21084,-4.01112 0.0422,-1.41445 0.12669,-2.93471 0.14779,-4.07469 0.0211,-1.13997 -0.0212,-1.89996 0.10542,-2.72335 0.12663,-0.82339 0.42208,-1.70984 0.971,-2.55436 0.54891,-0.84453 1.35108,-1.64702 2.32234,-1.79473 0.97127,-0.14772 2.11115,0.35906 3.29334,1.20355 1.18218,0.8445 2.40656,2.0268 3.39876,2.57555 0.9922,0.54879 1.7524,0.46453 2.30115,0.0424 0.54874,-0.42214 0.88624,-1.18234 1.47743,-1.77354 0.59119,-0.5912 1.43562,-1.01346 2.61793,-1.03456 1.18232,-0.0211 2.70263,0.35889 3.82147,1.03456 1.11885,0.67567 1.83656,1.64668 2.55437,2.11098 0.71778,0.46429 1.43531,0.42218 2.63859,0.12661 1.20329,-0.29557 2.89216,-0.84425 3.82096,-1.62522 0.9288,-0.78098 1.09765,-1.79424 1.85777,-2.40657 0.76011,-0.61234 2.11128,-0.82361 3.2091,-0.61237 1.09782,0.21123 1.94218,0.84442 2.84996,1.41438 0.90778,0.56997 1.879,1.07691 2.74453,1.33015 0.86553,0.25325 1.6253,0.25319 2.61742,-0.19016 0.99209,-0.44334 2.21674,-1.33032 3.31452,-2.09032 1.09779,-0.76001 2.06902,-1.39284 2.93471,-1.56166 0.16231,-0.0317 0.32054,-0.047 0.47542,-0.0465 z m 48.541739,65.798571 c 0.214619,-0.0015 0.427143,0.0078 0.63562,0.02894 1.667821,0.169011 3.103109,1.098092 3.757394,2.238106 0.654284,1.140014 0.527614,2.491105 -0.19017,4.412134 -0.717783,1.921029 -2.026463,4.411954 -2.195214,6.248714 -0.168753,1.836759 0.802233,3.018866 1.709973,4.433321 0.907739,1.414456 1.752075,3.061231 1.794205,4.433321 0.04213,1.37209 -0.718099,2.469591 -1.372526,3.31401 -0.654426,0.84442 -1.203094,1.435752 -1.203027,2.385901 6.6e-5,0.950149 0.548794,2.258933 1.118795,3.588928 0.57,1.329995 1.161279,2.680886 1.308964,3.778581 0.147684,1.097696 -0.147772,1.942518 -0.569991,3.230294 -0.422219,1.287775 -0.971156,3.018862 -1.139982,4.306713 -0.168827,1.287851 0.04235,2.132298 0.633553,3.018938 0.591203,0.886639 1.562152,1.815467 1.942,2.828768 0.379848,1.013301 0.168935,2.110808 -0.274402,3.335197 -0.443336,1.224388 -1.118962,2.575573 -2.132169,3.419946 -1.013206,0.844373 -2.364225,1.181945 -4.07417,1.224214 -1.709947,0.04227 -3.778631,-0.210935 -5.087545,-0.633036 -1.308914,-0.422099 -1.857975,-1.013083 -2.364714,-2.068607 -0.506737,-1.055525 -0.971425,-2.575718 -1.245918,-5.911267 -0.274494,-3.33555 -0.358891,-8.486154 -0.569991,-12.877251 -0.211102,-4.391096 -0.548542,-8.022101 -0.485242,-11.990999 0.0633,-3.968899 0.527724,-8.275684 0.844393,-11.48457 0.316669,-3.208888 0.485147,-5.319754 1.18184,-6.839893 0.696691,-1.520139 1.921225,-2.449099 3.483508,-3.209106 1.366999,-0.665007 2.992482,-1.200989 4.494816,-1.211297 z"
       clip-path="url(#clipPath1366)" /><path
       style="display:inline;fill:#ffff00;fill-opacity:0.909348;stroke:#fef2f0;stroke-width:0"
       d="m -245.96247,-8.3145874 c 0.0746,-0.3432363 0.22389,-1.0299075 1.25407,-1.4032015 1.03017,-0.3732941 2.94086,-0.4330031 7.70286,-0.3583551 4.762,0.07465 12.37494,0.2836304 21.31827,0.5498456 8.94333,0.2662152 19.2165,0.5896449 28.3221,0.7091348 9.1056,0.1194899 17.04312,0.035048 25.65643,-0.00717 8.61332,-0.04222 17.90191,-0.04222 24.44629,-0.3377947 6.54437,-0.2955744 10.34425,-0.8866667 13.29975,-1.6044547 2.9555,-0.717788 5.06654,-1.562204 6.54423,-2.533269 1.47768,-0.971065 2.3221,-2.068804 2.74433,-4.095362 0.42223,-2.026558 0.42223,-4.982018 0.67556,-11.484267 0.25333,-6.502249 0.75998,-16.550809 0.92887,-25.332988 0.1689,-8.782179 1e-5,-16.297488 -0.0422,-22.799689 -0.0422,-6.502202 0.0422,-11.990914 -0.21107,-15.748638 -0.25329,-3.757723 -0.84438,-5.784325 -1.94205,-7.17773 -1.09767,-1.393404 -2.70205,-2.153384 -6.96654,-2.575674 -4.26449,-0.42229 -11.18871,-0.50673 -22.50428,-0.50673 -11.31558,-10e-6 -27.02173,0.0844 -42.51725,0.2111 -15.49551,0.12667 -30.77946,0.29555 -39.98381,0.29556 -9.20436,1e-5 -12.3287,-0.16888 -14.36061,-0.43799 -2.0319,-0.26911 -2.97133,-0.63855 -3.50973,-0.96567 -0.53841,-0.32713 -0.67563,-0.61212 -0.72318,-0.60157 -0.0476,0.0105 -0.005,0.31665 0.12132,1.50415 0.12666,1.1875 0.33777,3.25633 0.3958,5.108802 0.058,1.852472 -0.037,3.488533 -0.0686,6.217157 -0.0317,2.728624 1e-5,6.549612 -0.005,11.859056 -0.005,5.309444 -0.0475,12.107001 -0.0792,20.361439 -0.0317,8.254438 -0.0528,17.965235 -0.095,25.807974 -0.0422,7.842739 -0.10554,13.816989 -0.17944,17.268611 -0.0739,3.451622 -0.15835,4.380479 -0.27447,5.119335 -0.11612,0.738856 -0.2639,1.2877269 -0.32875,1.7280483 -0.0649,0.4403213 -0.0469,0.7719741 0.0182,1.0161873 0.0651,0.2442132 0.17704,0.4009529 0.23291,0.4791722 0.0559,0.078219 0.0558,0.078219 0.13041,-0.2650171 z"
       id="path1028" /><path
       style="display:inline;fill:#280b0b;stroke:#fef2f0;stroke-width:0"
       d="m -270.74222,-177.0116 c -0.43279,-0.65667 -1.29858,-1.97028 -1.71575,-3.97283 -0.41718,-2.00254 -0.38551,-4.69378 -0.2248,-6.41567 0.16072,-1.72189 0.45052,-2.47411 0.62502,-3.02423 0.17451,-0.55011 0.23369,-0.89813 0.19991,-1.24749 -0.0338,-0.34935 -0.16065,-0.70015 -0.43859,-1.01555 -0.27793,-0.31541 -0.70709,-0.59529 -1.41615,-0.90882 -0.70907,-0.31352 -1.69803,-0.66059 -2.76723,-0.88268 -1.06921,-0.2221 -2.21861,-0.31912 -3.15161,-0.36019 -0.93301,-0.0411 -1.64952,-0.0261 -2.12362,0.12317 -0.47409,0.1493 -0.70546,0.43292 -0.95177,0.75761 -0.24632,0.32469 -0.50755,0.69041 -0.65308,1.19432 -0.14554,0.50392 -0.17541,1.1458 -0.32843,2.51541 -0.15302,1.36962 -0.42917,3.4669 -0.58963,5.17241 -0.16046,1.70551 -0.20524,3.01912 -0.0857,3.98199 0.1195,0.96287 0.40312,1.57489 0.85104,2.05997 0.44791,0.48508 1.05994,0.84334 1.76155,1.21279 0.70161,0.36945 1.49272,0.75008 2.52648,1.06725 1.03376,0.31718 2.31005,0.57094 3.70951,0.72019 1.39946,0.14925 2.92206,0.19404 3.82513,0.17908 0.90307,-0.015 1.1867,-0.0896 1.31353,-0.18271 0.12683,-0.0931 0.097,-0.20508 0.082,-0.26121 -0.015,-0.0561 -0.015,-0.0562 -0.44776,-0.71281 z"
       id="path1032" /><path
       style="display:inline;fill:#280b0b;stroke:#fef2f0;stroke-width:0"
       d="m -226.57218,-149.13757 c 0.91831,-1.12942 2.75495,-3.38828 4.25384,-5.16161 1.49888,-1.77333 2.65996,-3.06106 3.51499,-3.89497 0.85502,-0.83391 1.40389,-1.2139 2.15342,-1.4989 0.74952,-0.285 1.69948,-0.47499 2.33283,-0.58053 0.63335,-0.10554 0.95002,-0.12664 1.44615,0.0952 0.49614,0.22178 1.17168,0.68622 2.29056,1.57818 1.11888,0.89196 2.68105,2.21136 3.72077,3.08219 1.03971,0.87082 1.55692,1.29303 1.91581,1.56217 0.3589,0.26913 0.55945,0.38524 0.74416,0.45377 0.18472,0.0685 0.3536,0.0896 0.48737,0.0906 0.13377,9.9e-4 0.23239,-0.018 0.18086,0.0956 -0.0515,0.11368 -0.25305,0.35998 -2.35415,2.60288 -2.10109,2.24291 -6.10162,6.48228 -9.57231,9.96789 -3.47069,3.48562 -6.41137,6.21732 -8.22508,7.85189 -1.8137,1.63457 -2.50036,2.17196 -2.84812,2.43475 -0.34776,0.2628 -0.35654,0.25103 -0.32813,0.19878 0.0284,-0.0522 0.0944,-0.14462 0.18279,-0.31347 0.0884,-0.16885 0.19922,-0.41426 0.25731,-0.65697 0.0581,-0.24272 0.0634,-0.48283 0.0515,-0.71372 -0.0119,-0.23089 -0.0409,-0.45255 -0.11866,-0.67552 -0.0778,-0.22298 -0.20444,-0.44728 -0.5079,-0.92624 -0.30346,-0.47896 -0.78372,-1.21255 -1.30226,-1.98178 -0.51854,-0.76924 -1.07533,-1.57408 -1.50679,-2.23643 -0.43147,-0.66235 -0.73758,-1.1822 -0.9685,-1.61233 -0.23092,-0.43014 -0.38661,-0.77055 -0.47771,-1.09514 -0.0911,-0.3246 -0.11751,-0.63334 -0.11621,-0.92892 0.001,-0.29558 0.0303,-0.57793 0.13191,-0.89598 0.10159,-0.31805 0.27575,-0.67165 0.50666,-1.10312 0.2309,-0.43146 0.51853,-0.94076 0.79034,-1.36959 0.27181,-0.42884 0.52778,-0.77716 0.87216,-1.22842 0.34438,-0.45126 0.77714,-1.0054 1.05422,-1.35769 0.27708,-0.35229 0.39847,-0.50271 0.45917,-0.57793 0.0607,-0.0752 0.0606,-0.0752 0.97895,-1.20465 z"
       id="path1139" /><path
       style="display:inline;fill:#420000;fill-opacity:0.518414;stroke:#fef2f0;stroke-width:0"
       d="m -173.2356,-145.69637 c 0.0422,0.34848 0.12668,1.04514 0.69747,3.22509 0.57078,2.17995 1.62779,5.84296 3.03432,8.72725 1.40654,2.88428 3.16228,4.98953 5.09867,6.17994 1.9364,1.19042 4.05314,1.46609 7.80356,1.71778 3.75043,0.2517 9.1341,0.47941 14.22507,0.21112 5.09096,-0.26829 9.88869,-1.03249 12.99088,-2.07842 3.10218,-1.04593 4.50869,-2.37348 5.65061,-4.18783 1.14191,-1.81436 2.01919,-4.1155 2.58979,-6.54328 0.5706,-2.42778 0.83448,-4.98214 0.95063,-6.24893 0.11614,-1.26679 0.0844,-1.24568 0.0304,-0.93571 -0.054,0.30996 -0.13032,0.90851 -0.24499,1.43728 -0.11467,0.52876 -0.26768,0.98778 -0.42069,1.41041 -0.15301,0.42263 -0.30601,0.80889 -0.5038,1.16337 -0.19778,0.35449 -0.44035,0.67729 -0.77061,1.04393 -0.33026,0.36665 -0.74822,0.77714 -1.16615,1.08967 -0.41793,0.31253 -0.83589,0.5271 -1.29678,0.75662 -0.46089,0.22951 -0.96469,0.47395 -1.49179,0.66428 -0.5271,0.19033 -1.07755,0.32654 -1.78381,0.48048 -0.70626,0.15395 -1.56832,0.32561 -2.34829,0.4581 -0.77996,0.13249 -1.47781,0.22579 -3.13853,0.43012 -1.66073,0.20433 -4.28419,0.51966 -6.22666,0.72026 -1.94246,0.2006 -3.20382,0.28643 -4.61076,0.36107 -1.40694,0.0746 -2.95938,0.13808 -4.34952,0.15674 -1.39015,0.0187 -2.61791,-0.007 -3.64605,-0.0653 -1.02814,-0.0578 -1.8566,-0.1474 -2.86796,-0.26495 -1.01136,-0.11755 -2.20555,-0.26309 -3.14972,-0.42354 -0.94416,-0.16045 -1.63829,-0.33585 -2.64032,-0.61015 -1.00203,-0.27429 -2.3119,-0.64748 -3.35311,-1.01132 -1.0412,-0.36383 -1.81368,-0.71835 -2.62538,-1.1102 -0.81171,-0.39185 -1.66256,-0.82101 -2.41457,-1.31918 -0.752,-0.49817 -1.40507,-1.06541 -1.93503,-1.59719 -0.52996,-0.53178 -0.93673,-1.02812 -1.20737,-1.52445 -0.27064,-0.49633 -0.40498,-0.99267 -0.50576,-1.43305 -0.10078,-0.44037 -0.16796,-0.82475 -0.23155,-1.02026 -0.0636,-0.1955 -0.12391,-0.20187 -0.15419,-0.20507 -0.0303,-0.003 -0.0303,-0.003 0.012,0.34533 z"
       id="path1424" /><path
       style="display:inline;fill:#420000;fill-opacity:0.518414;stroke:#fef2f0;stroke-width:0"
       d="m -77.136874,-95.702973 c -0.236693,0.04155 -0.841196,0.179878 -2.889406,0.651769 -2.048209,0.471891 -5.537756,1.276798 -8.379766,1.98527 -2.842011,0.708472 -5.033793,1.319853 -6.110726,3.530887 -1.076933,2.211035 -1.038198,6.020657 -1.132869,10.344473 -0.09467,4.323816 -0.322721,9.161065 -0.177677,13.868551 0.145044,4.707486 0.66312,9.284628 1.348698,12.489145 0.685579,3.204516 1.538273,5.03552 2.907104,6.624947 1.368832,1.589427 3.252103,2.935731 5.497004,3.974201 2.2449,1.03847 4.828539,1.762319 6.113325,2.101195 1.284787,0.338875 1.229866,0.281836 0.902372,0.17838 -0.327493,-0.103455 -0.925358,-0.25215 -1.402165,-0.403707 -0.476806,-0.151557 -0.829582,-0.305076 -1.160311,-0.539407 -0.330728,-0.234331 -0.637056,-0.547974 -0.848825,-0.844147 -0.211769,-0.296172 -0.327506,-0.573107 -0.452981,-0.877098 -0.125475,-0.30399 -0.260166,-0.633779 -0.40177,-1.073006 -0.141603,-0.439226 -0.289629,-0.986524 -0.374074,-1.415815 -0.08445,-0.429291 -0.105023,-0.739473 -0.140568,-1.078368 -0.03555,-0.338896 -0.08604,-0.706033 -0.134061,-1.172388 -0.04803,-0.466355 -0.09353,-1.031525 -0.145434,-1.904141 -0.0519,-0.872616 -0.110167,-2.052149 -0.176281,-3.668141 -0.06611,-1.615993 -0.140055,-3.667965 -0.217731,-5.431981 -0.07768,-1.764017 -0.159074,-3.239684 -0.234129,-4.647984 -0.07505,-1.408299 -0.143752,-2.749023 -0.204108,-4.027474 -0.06036,-1.27845 -0.112366,-2.494537 -0.130546,-3.746255 -0.01818,-1.251718 -0.0025,-2.538842 0.03461,-3.690747 0.03713,-1.151905 0.09571,-2.168079 0.172275,-3.298166 0.07656,-1.130088 0.171065,-2.373475 0.286245,-3.659429 0.115179,-1.285955 0.250931,-2.613241 0.377255,-3.789008 0.126325,-1.175767 0.243104,-2.1989 0.382994,-3.209981 0.13989,-1.011081 0.302685,-2.008573 0.634709,-2.828856 0.332023,-0.820282 0.832653,-1.461745 1.373383,-1.969667 0.54073,-0.507923 1.120021,-0.880938 1.631771,-1.172636 0.51175,-0.291699 0.953847,-0.500919 1.335753,-0.663184 0.381907,-0.162266 0.701281,-0.276612 0.972889,-0.363463 0.271608,-0.08685 0.493349,-0.145554 0.670681,-0.202771 0.177332,-0.05722 0.309049,-0.112545 0.07236,-0.071 z"
       id="path1424-1" /><path
       style="display:inline;fill:#000000;fill-opacity:0.538244;stroke-width:0.264583"
       d="m 21.256071,7.6120758 c 0.131701,-0.10914 0.328315,-0.3175 0.436921,-0.46302 0.112688,-0.15099 0.199203,-0.0658 0.201515,0.19844 0.0022,0.25738 -0.191792,0.46302 -0.436921,0.46302 -0.242534,0 -0.333216,-0.0893 -0.201515,-0.19844 z m 1.247329,-0.99219 c 0.002,-0.7276 0.05337,-0.99385 0.114185,-0.59167 0.06082,0.40218 0.05919,0.99749 -0.0036,1.32292 -0.0628,0.32542 -0.11256,-0.004 -0.110574,-0.73125 z m 1.621879,0.83121 c -0.08514,-0.22188 -0.09902,-0.61873 -0.03083,-0.8819 0.08112,-0.31306 0.134587,-0.22694 0.154669,0.24913 0.01688,0.40018 0.141846,0.72761 0.277701,0.72761 0.135855,0 0.301916,-0.32743 0.369026,-0.72761 0.120787,-0.72027 0.12163,-0.71981 0.08372,0.0457 -0.04183,0.84461 -0.606537,1.23265 -0.854285,0.58703 z m 1.601434,-0.0375 c -0.06819,-0.21828 -0.172503,-0.5565 -0.2318,-0.75159 -0.0593,-0.1951 -0.0016,-0.52252 0.12824,-0.72761 0.167058,-0.26389 0.237237,-0.27621 0.240104,-0.0422 0.0022,0.1819 0.182645,0.33073 0.400927,0.33073 0.218281,0 0.396875,-0.12376 0.396875,-0.27502 0,-0.15855 0.15566,-0.13054 0.367594,0.0661 0.238228,0.2211 0.271433,0.40146 0.09435,0.51252 -0.150284,0.0942 -0.207743,0.42183 -0.127686,0.72796 0.08006,0.30614 0.0376,0.4899 -0.09435,0.40835 -0.131949,-0.0815 -0.239908,-0.37937 -0.239908,-0.66183 0,-0.29656 -0.180724,-0.51355 -0.42772,-0.51355 -0.313564,0 -0.393972,0.17654 -0.301273,0.66146 0.137656,0.7201 -0.0054,0.90448 -0.205353,0.26458 z m 2.14022,0.15697 c -0.08155,-0.13195 0.09002,-0.17759 0.38126,-0.10143 0.617799,0.16155 0.695893,0.34134 0.148272,0.34134 -0.209693,0 -0.447982,-0.10796 -0.529532,-0.23991 z m 1.47599,-0.48769 c -0.02756,-0.65766 0.07287,-0.85895 0.42699,-0.85585 0.297426,0.003 0.354278,0.0736 0.158965,0.19844 -0.16723,0.10691 -0.359375,0.49204 -0.426989,0.85584 -0.104087,0.56005 -0.128458,0.52963 -0.158966,-0.19843 z m 1.342599,0.35741 c 0.187639,-0.2036 0.382849,-0.33059 0.433802,-0.28219 0.156937,0.14909 -0.240808,0.65238 -0.515562,0.65238 -0.14267,0 -0.105878,-0.16659 0.08176,-0.37019 z m 1.126607,-0.0267 c -0.06819,-0.21828 -0.172503,-0.5565 -0.2318,-0.75159 -0.18151,-0.59721 0.19994,-0.95292 0.581265,-0.54204 0.23924,0.25777 0.249786,0.36759 0.0353,0.36759 -0.183579,0 -0.255307,0.26445 -0.179413,0.66146 0.137656,0.7201 -0.0054,0.90448 -0.205352,0.26458 z m 1.0851,0.16217 c -0.07978,-0.12909 0.06202,-0.21839 0.315114,-0.19844 0.253095,0.0199 0.460174,-0.14232 0.460174,-0.3606 0,-0.22516 -0.212548,-0.37894 -0.491244,-0.35542 -0.360958,0.0304 -0.413086,-0.0367 -0.196546,-0.25325 0.216538,-0.21654 0.410964,-0.17842 0.733097,0.14371 0.362082,0.36208 0.379145,0.5098 0.098,0.84855 -0.383143,0.46167 -0.703852,0.52292 -0.918599,0.17545 z m 1.570911,-0.0268 c -0.09269,-0.14999 0.01352,-0.19434 0.248967,-0.10399 0.45837,0.17589 0.542235,0.36554 0.16165,0.36554 -0.136932,0 -0.321712,-0.1177 -0.410617,-0.26155 z m 1.259086,-0.92908 c 0.0049,-0.7276 0.05927,-0.98807 0.120766,-0.57882 0.09818,0.6534 0.165912,0.70178 0.55567,0.39688 0.388437,-0.30387 0.402849,-0.29463 0.115422,0.074 -0.180639,0.23167 -0.24017,0.51865 -0.132292,0.63773 0.107876,0.11908 0.05633,0.13643 -0.114564,0.0386 -0.177086,-0.10142 -0.363009,0.0226 -0.432329,0.28831 -0.06689,0.25644 -0.117595,-0.12905 -0.112673,-0.85666 z m 2.44508,0.92908 c -0.09269,-0.14999 0.01352,-0.19434 0.248968,-0.10399 0.458369,0.17589 0.542234,0.36554 0.16165,0.36554 -0.136933,0 -0.321712,-0.1177 -0.410618,-0.26155 z m 1.339506,0.0268 c -0.07978,-0.12909 0.06202,-0.21839 0.315114,-0.19844 0.253095,0.0199 0.460174,-0.14232 0.460174,-0.3606 0,-0.22516 -0.212548,-0.37894 -0.491244,-0.35542 -0.360958,0.0304 -0.413086,-0.0367 -0.196546,-0.25325 0.216538,-0.21654 0.410964,-0.17842 0.733097,0.14371 0.362082,0.36208 0.379145,0.5098 0.098,0.84855 -0.383143,0.46167 -0.703852,0.52292 -0.918599,0.17545 z m 1.476388,-0.51229 c -0.03181,-0.7056 0.05182,-0.86196 0.423379,-0.79149 0.285192,0.0541 0.488426,0.36638 0.529166,0.81315 0.06168,0.67637 0.05603,0.68068 -0.08372,0.0639 -0.198694,-0.87696 -0.581425,-0.84175 -0.71896,0.0662 -0.100343,0.66239 -0.113774,0.6488 -0.149866,-0.15169 z m 1.49142,-0.0468 c -0.06408,-0.43656 -0.01805,-0.79375 0.102261,-0.79375 0.120319,0 0.21876,0.35719 0.21876,0.79375 0,0.43656 -0.04602,0.79375 -0.102261,0.79375 -0.05624,0 -0.154686,-0.35719 -0.21876,-0.79375 z m 6.523378,0.55401 c 0.0815,-0.13187 0.386175,-0.17751 0.677074,-0.10144 0.728013,0.19038 0.662523,0.34118 -0.148172,0.34118 -0.37239,0 -0.610396,-0.10788 -0.528902,-0.23974 z m 1.646947,0.0633 c -0.29859,-0.2986 -0.18041,-0.98821 0.2645,-1.5434 0.31325,-0.3909 0.38455,-0.41391 0.27287,-0.088 -0.0869,0.25357 0.0104,0.50316 0.22899,0.58701 0.20909,0.0802 0.37077,0.29845 0.35928,0.48492 -0.0164,0.26555 -0.0498,0.26735 -0.15434,0.008 -0.18362,-0.45506 -0.8831,-0.41804 -0.8831,0.0468 0,0.20761 0.20836,0.43192 0.46302,0.49847 0.37097,0.097 0.37974,0.1271 0.0441,0.15169 -0.2304,0.0169 -0.4983,-0.0487 -0.59531,-0.1457 z m 1.54528,-0.0852 c -0.0903,-0.14606 0.008,-0.19651 0.2222,-0.11426 0.4429,0.16996 0.83883,-0.30212 0.45325,-0.54042 -0.14154,-0.0875 -0.18234,-0.3545 -0.0907,-0.59339 0.12677,-0.33037 0.0574,-0.3924 -0.28988,-0.25914 -0.27168,0.10425 -0.39109,0.0693 -0.2949,-0.0864 0.3271,-0.52927 0.86739,-0.23919 0.9797,0.52601 0.14967,1.01981 -0.54284,1.77441 -0.9797,1.06755 z m 1.60087,0.0216 c -0.0816,-0.13195 0.09,-0.1776 0.38126,-0.10143 0.6178,0.16155 0.6959,0.34134 0.14828,0.34134 -0.2097,0 -0.44799,-0.10796 -0.52954,-0.23991 z m 1.58017,-0.0908 c -0.23548,-0.7227 0.008,-1.64954 0.4551,-1.73565 0.352,-0.0677 0.464,0.09 0.46708,0.65791 0.003,0.57953 0.0616,0.65803 0.26053,0.35013 0.34358,-0.53165 0.33621,-0.0991 -0.009,0.54656 -0.30821,0.5759 -1.00949,0.6841 -1.1734,0.18105 z m 0.69323,-0.33073 c 0,-0.13824 -0.12799,-0.29402 -0.28443,-0.34616 -0.15643,-0.0521 -0.28442,0.10363 -0.28442,0.34616 0,0.24254 0.12799,0.39831 0.28442,0.34616 0.15644,-0.0521 0.28443,-0.20791 0.28443,-0.34616 z m -0.0397,-0.92604 c 0,-0.14552 -0.11906,-0.26458 -0.26458,-0.26458 -0.14552,0 -0.26458,0.11906 -0.26458,0.26458 0,0.14552 0.11906,0.26458 0.26458,0.26458 0.14552,0 0.26458,-0.11906 0.26458,-0.26458 z m 0.94451,1.35279 c -0.0798,-0.12909 0.062,-0.21839 0.31511,-0.19844 0.32414,0.0256 0.46017,-0.15927 0.46017,-0.62518 0,-0.48293 -0.13258,-0.65028 -0.49124,-0.62001 -0.34728,0.0293 -0.40872,-0.0411 -0.20965,-0.24014 0.35899,-0.35899 1.09777,0.20606 1.09777,0.83962 0,0.76017 -0.84706,1.37018 -1.17216,0.84415 z m 1.86024,-0.69575 c 0.0355,-1.2411 0.37025,-1.53613 0.37025,-0.32631 0,0.52145 0.14883,1.00814 0.33073,1.08154 0.1819,0.0734 0.0926,0.14292 -0.19844,0.1545 -0.43761,0.0174 -0.52456,-0.13999 -0.50254,-0.90973 z m -12.709612,0.32374 c 0.09936,-0.26094 0.247303,-0.40779 0.328766,-0.32632 0.08146,0.0815 1.69e-4,0.29495 -0.180652,0.47443 -0.261308,0.25936 -0.291698,0.22897 -0.148114,-0.14811 z m 8.581952,-0.17379 c 0,-0.20928 -0.20302,-0.28645 -0.52917,-0.20116 -0.63232,0.16536 -0.65665,-0.0266 -0.0935,-0.73812 0.24862,-0.31412 0.37017,-0.36788 0.2991,-0.13229 -0.0659,0.21828 0.0691,0.53597 0.29995,0.70597 0.23082,0.17 0.33057,0.3982 0.22166,0.50712 -0.10892,0.10891 -0.19802,0.0452 -0.19802,-0.14152 z m -33.602086,-0.36602 c 0,-0.24513 0.205636,-0.43917 0.463021,-0.43692 0.264234,0.002 0.349428,0.0888 0.198437,0.20152 -0.145521,0.1086 -0.35388,0.30522 -0.463021,0.43692 -0.10914,0.1317 -0.198437,0.041 -0.198437,-0.20152 z m 2.020986,-0.0441 c -0.08376,-0.21828 -0.03697,-0.39687 0.103984,-0.39687 0.140954,0 0.25628,0.17859 0.25628,0.39687 0,0.21829 -0.04679,0.39688 -0.103985,0.39688 -0.05719,0 -0.172517,-0.17859 -0.256279,-0.39688 z m 4.659743,0.0661 c 0.06063,-0.1819 0.268993,-0.33073 0.46302,-0.33073 0.194028,0 0.402388,0.14883 0.463021,0.33073 0.06558,0.19674 -0.122002,0.33073 -0.463021,0.33073 -0.341018,0 -0.528601,-0.13399 -0.46302,-0.33073 z m 2.579687,-0.022 c 0,-0.24513 0.205636,-0.43917 0.463021,-0.43692 0.264235,0.002 0.349429,0.0888 0.198437,0.20152 -0.14552,0.1086 -0.35388,0.30521 -0.46302,0.43691 -0.109141,0.13171 -0.198438,0.041 -0.198438,-0.20151 z m 4.162777,-0.20922 c 0.179477,-0.18082 0.39297,-0.26212 0.474432,-0.18065 0.08146,0.0815 -0.06538,0.2294 -0.326318,0.32876 -0.377085,0.14359 -0.407475,0.1132 -0.148114,-0.14811 z m 3.704166,0 c 0.179478,-0.18082 0.39297,-0.26212 0.474433,-0.18065 0.08146,0.0815 -0.06538,0.2294 -0.326319,0.32876 -0.377084,0.14359 -0.407474,0.1132 -0.148114,-0.14811 z m 10.922254,-0.60595 c 0.171347,-0.17135 0.350258,-0.17135 0.521605,0 0.171348,0.17135 0.0819,0.2608 -0.260803,0.2608 -0.342699,0 -0.432152,-0.0894 -0.260802,-0.2608 z m -3.1076,-0.0737 c 0.257432,-0.0671 0.614619,-0.0627 0.79375,0.01 0.179131,0.0725 -0.03149,0.12736 -0.468056,0.12197 -0.436562,-0.005 -0.583126,-0.0647 -0.325694,-0.13178 z m 1.5875,0 c 0.257432,-0.0671 0.614619,-0.0627 0.79375,0.01 0.179131,0.0725 -0.03149,0.12736 -0.468056,0.12197 -0.436562,-0.005 -0.583126,-0.0647 -0.325694,-0.13178 z m -11.015914,-15.31765 c -4.707859,-1.1395198 -8.985756,-5.2409598 -10.260189,-9.8369598 -1.43734,-5.18349 0.196295,-10.64244 4.675844,-15.62478 0.997284,-1.10921 1.400309,-1.382 1.947949,-1.31844 1.239147,0.14382 1.01948,1.04159 -0.776099,3.17191 -3.248371,3.85394 -4.330772,6.60173 -4.181356,10.6148 0.08254,2.21692 0.190964,2.66384 1.084576,4.47073 0.715345,1.44643 1.444833,2.42603 2.609835,3.50461 0.889334,0.82337 1.653172,1.46083 1.697421,1.41658 0.04425,-0.0442 -0.08838,-0.73131 -0.294732,-1.52682 -1.044161,-4.02535 0.111426,-8.87543 3.452847,-14.49183 1.891794,-3.1798 2.627203,-3.20852 3.451428,-0.13478 0.637813,2.37856 1.189233,3.63239 2.53378,5.76133 0.867717,1.37393 1.06186,1.8764 0.853487,2.20896 -0.53621,0.85579 -1.331608,0.66033 -2.218187,-0.5451 -0.848966,-1.15428 -2.411558,-4.1788 -2.735982,-5.2957 l -0.17657,-0.60788 -0.450823,0.64322 c -0.736206,1.05039 -2.116857,4.26796 -2.55777,5.9608 -0.862295,3.31071 -0.338346,6.99152 1.282026,9.00639 0.636452,0.79141 0.646583,0.79375 3.428314,0.79375 1.860479,0 2.898791,-0.10881 3.116596,-0.32662 0.214238,-0.21423 0.346215,-1.384 0.383574,-3.39982 0.03133,-1.69026 0.174226,-3.19048 0.317553,-3.3338 0.143328,-0.14333 0.537369,-0.22075 0.875649,-0.17205 0.825156,0.11879 1.125953,1.5512 0.899679,4.28428 l -0.17213,2.07907 1.123135,-0.62386 c 1.968344,-1.09334 3.866642,-3.04499 4.794012,-4.92874 0.76651,-1.55701 0.8725,-2.04775 0.96149,-4.45197 0.10069,-2.72004 -0.37795,-6.08406 -1.12241,-7.88866 l -0.33704,-0.81699 -0.58371,1.1364 c -1.321628,2.573 -3.396829,4.07536 -4.860562,3.51885 -0.942999,-0.35853 -0.978249,-0.68481 -0.30353,-2.80951 1.895253,-5.96819 1.202769,-12.00208 -1.916808,-16.70192 -0.969233,-1.46021 -1.403459,-1.52707 -1.413346,-0.21761 -0.0074,0.97331 -1.771558,4.19494 -3.300778,6.02757 -1.25984,1.5098 -1.618239,1.78842 -2.212194,1.71979 -1.227688,-0.14187 -1.048808,-1.03486 0.610013,-3.04531 2.834261,-3.43503 3.63098,-6.11386 2.508167,-8.43329 -0.967811,-1.99923 0.0071,-2.86353 1.739498,-1.54216 2.681933,2.04561 5.482598,6.60281 6.473621,10.53378 0.632145,2.50745 0.704427,7.07214 0.153302,9.68112 -0.199813,0.94588 -0.331152,1.75464 -0.291869,1.79723 0.138856,0.15056 1.279279,-1.95198 1.979395,-3.64932 0.600441,-1.45568 0.819151,-1.73274 1.424191,-1.80412 0.6365,-0.0751 0.78769,0.0749 1.38003,1.36871 1.70123,3.71597 2.69307,10.60046 1.97166,13.68546 -1.69957,7.26786 -9.89251,11.9993198 -17.562987,10.1426998 z"
       id="path4232"
       clip-path="url(#clipPath4314)"
       transform="matrix(1.3798984,0,0,1.3798984,-236.23939,-15.137042)" /></g></svg>
