<?xml version="1.0" encoding="UTF-8" standalone="no"?>
<!-- Created with Inkscape (http://www.inkscape.org/) -->

<svg
   width="176.52614mm"
   height="75.135193mm"
   viewBox="0 0 176.52614 75.135193"
   version="1.1"
   id="svg15714"
   xmlns="http://www.w3.org/2000/svg"
   xmlns:svg="http://www.w3.org/2000/svg">
  <defs
     id="defs15711" />
  <g
     id="layer1"
     transform="translate(250.86044,-91.46523)">
    <g
       id="layer1-0"
       transform="matrix(1.0996377,0,0,0.9461078,164.10052,13.553238)"
       style="stroke-width:2.6667;stroke-dasharray:none">
      <path
         id="rect6154"
         style="fill:#415a7c;stroke:#9ae8f5;stroke-width:2.6667;stroke-dasharray:none"
         d="m -372.22019,83.683365 h 150.24346 c 2.10518,0 3.98496,1.705789 3.79996,3.799952 l -6.10876,69.148433 c -0.18501,2.09416 -1.69479,3.80421 -3.79996,3.79995 l -140.22509,-0.28401 c -2.10516,-0.004 -2.84227,-1.32269 -2.98545,-3.42128 l -4.72411,-69.243093 c -0.14318,-2.098585 1.69478,-3.799952 3.79995,-3.799952 z" />
    </g>
    <g
       id="g14094"
       transform="translate(-514.78982,67.96513)">
      <path
         id="rect13498-9-7-3"
         style="fill:#ffffff;fill-opacity:0.551559;stroke:#0600c5;stroke-width:0"
         d="m 276.7078,46.435523 h 12.3609 c 1.19293,0 2.15331,0.960375 2.15331,2.153307 0,1.192932 -0.96038,2.153307 -2.15331,2.153307 h -12.3609 c -1.19293,0 -2.1533,-0.960375 -2.1533,-2.153307 0,-1.192932 0.96037,-2.153307 2.1533,-2.153307 z" />
      <path
         id="rect13498-9-7-3-2"
         style="fill:#ffffff;fill-opacity:0.551559;stroke:#0600c5;stroke-width:0"
         d="m 364.97116,60.093272 h 12.3609 c 1.19293,0 2.15331,0.960375 2.15331,2.153307 0,1.192932 -0.96038,2.153307 -2.15331,2.153307 h -12.3609 c -1.19293,0 -2.1533,-0.960375 -2.1533,-2.153307 0,-1.192932 0.96037,-2.153307 2.1533,-2.153307 z" />
      <path
         id="rect13498-9-7-3-28"
         style="fill:#ffffff;fill-opacity:0.551559;stroke:#0600c5;stroke-width:0"
         d="m 387.77087,60.093272 h 12.3609 c 1.19293,0 2.15331,0.960375 2.15331,2.153307 0,1.192932 -0.96038,2.153307 -2.15331,2.153307 h -12.3609 c -1.19293,0 -2.1533,-0.960375 -2.1533,-2.153307 0,-1.192932 0.96037,-2.153307 2.1533,-2.153307 z" />
      <path
         id="rect13498-9-7-3-3"
         style="fill:#ffffff;fill-opacity:0.551559;stroke:#0600c5;stroke-width:0"
         d="m 404.23733,46.666773 h 12.3609 c 1.19293,0 2.15331,0.960375 2.15331,2.153307 0,1.192932 -0.96038,2.153307 -2.15331,2.153307 h -12.3609 c -1.19293,0 -2.1533,-0.960375 -2.1533,-2.153307 0,-1.192932 0.96037,-2.153307 2.1533,-2.153307 z" />
      <path
         id="rect13498-9-7-3-3-3"
         style="fill:#ffffff;fill-opacity:0.551559;stroke:#0600c5;stroke-width:0"
         d="m 408.79728,71.74646 h 12.3609 c 1.19293,0 2.15331,0.960375 2.15331,2.153307 0,1.192932 -0.96038,2.153307 -2.15331,2.153307 h -12.3609 c -1.19293,0 -2.1533,-0.960375 -2.1533,-2.153307 0,-1.192932 0.96037,-2.153307 2.1533,-2.153307 z" />
      <path
         id="rect13498-56-3-3-9"
         style="fill:#ffffff;fill-opacity:0.551559;stroke:#0600c5;stroke-width:0"
         d="m 333.37965,50.888671 h -33.94624 c -1.19293,0 -2.15331,-0.96037 -2.15331,-2.15331 0,-1.19293 0.96038,-2.1533 2.15331,-2.1533 h 33.94624 c 1.19294,0 2.15331,0.96037 2.15331,2.1533 0,1.19294 -0.96037,2.15331 -2.15331,2.15331 z" />
      <path
         id="rect13498-56-3-3-9-1"
         style="fill:#ffffff;fill-opacity:0.551559;stroke:#0600c5;stroke-width:0"
         d="M 310.09904,63.639894 H 276.1528 c -1.19293,0 -2.15331,-0.96037 -2.15331,-2.15331 0,-1.19293 0.96038,-2.1533 2.15331,-2.1533 h 33.94624 c 1.19294,0 2.15331,0.96037 2.15331,2.1533 0,1.19294 -0.96037,2.15331 -2.15331,2.15331 z" />
      <path
         id="rect13498-56-3-3-9-8"
         style="fill:#ffffff;fill-opacity:0.551559;stroke:#0600c5;stroke-width:0"
         d="m 354.43181,64.146554 h -33.94624 c -1.19293,0 -2.15331,-0.96037 -2.15331,-2.15331 0,-1.19293 0.96038,-2.1533 2.15331,-2.1533 h 33.94624 c 1.19294,0 2.15331,0.96037 2.15331,2.1533 0,1.19294 -0.96037,2.15331 -2.15331,2.15331 z" />
      <path
         id="rect13498-5-25"
         style="fill:#ffffff;fill-opacity:0.551559;stroke:#0600c5;stroke-width:0"
         d="m 276.06964,34.338311 h 62.42815 c 1.19293,0 2.15331,0.960375 2.15331,2.153307 0,1.192931 -0.96038,2.153306 -2.15331,2.153306 h -62.42815 c -1.19293,0 -2.15331,-0.960375 -2.15331,-2.153306 0,-1.192932 0.96038,-2.153307 2.15331,-2.153307 z" />
      <path
         id="rect13498-5-25-0"
         style="fill:#ffffff;fill-opacity:0.551559;stroke:#0600c5;stroke-width:0"
         d="m 336.39091,71.746461 h 62.42815 c 1.19293,0 2.15331,0.960375 2.15331,2.153307 0,1.192931 -0.96038,2.153306 -2.15331,2.153306 h -62.42815 c -1.19293,0 -2.15331,-0.960375 -2.15331,-2.153306 0,-1.192932 0.96038,-2.153307 2.15331,-2.153307 z" />
      <path
         id="rect13498-5-2-9"
         style="fill:#ffffff;fill-opacity:0.551559;stroke:#0600c5;stroke-width:0"
         d="m 348.02328,34.350403 h 50.52164 c 1.19293,0 2.1533,0.960375 2.1533,2.153307 0,1.192932 -0.96037,2.153306 -2.1533,2.153306 h -50.52164 c -1.19293,0 -2.1533,-0.960374 -2.1533,-2.153306 0,-1.192932 0.96037,-2.153307 2.1533,-2.153307 z" />
      <path
         id="rect13498-5-2-9-0"
         style="fill:#ffffff;fill-opacity:0.551559;stroke:#0600c5;stroke-width:0"
         d="m 343.61082,46.666774 h 50.52164 c 1.19293,0 2.1533,0.960375 2.1533,2.153307 0,1.192932 -0.96037,2.153306 -2.1533,2.153306 h -50.52164 c -1.19293,0 -2.1533,-0.960374 -2.1533,-2.153306 0,-1.192932 0.96037,-2.153307 2.1533,-2.153307 z" />
      <path
         id="rect13498-5-2-9-0-0"
         style="fill:#ffffff;fill-opacity:0.551559;stroke:#0600c5;stroke-width:0"
         d="m 276.225,71.746461 h 50.52164 c 1.19293,0 2.1533,0.960375 2.1533,2.153307 0,1.192932 -0.96037,2.153306 -2.1533,2.153306 H 276.225 c -1.19293,0 -2.1533,-0.960374 -2.1533,-2.153306 0,-1.192932 0.96037,-2.153307 2.1533,-2.153307 z" />
    </g>
  </g>
</svg>
