<?xml version="1.0" encoding="UTF-8" standalone="no"?>
<!-- Created with Inkscape (http://www.inkscape.org/) -->

<svg
   width="90.744965mm"
   height="175.38779mm"
   viewBox="0 0 90.744965 175.38779"
   version="1.1"
   id="svg12905"
   xml:space="preserve"
   xmlns="http://www.w3.org/2000/svg"
   xmlns:svg="http://www.w3.org/2000/svg"><defs
     id="defs12902" /><g
     id="layer1"
     transform="translate(-268.09615,-20.805783)"><g
       id="layer1-0"
       transform="matrix(0,1.0984298,-1.1507049,0,454.08423,434.84147)"><path
         id="rect6154"
         style="fill:#415a7c;stroke:#9ae8f5;stroke-width:1.82799"
         d="m -372.22019,83.683365 h 150.24346 c 2.10518,0 3.79996,1.694779 3.79996,3.799952 v 69.432433 c 0,2.10517 -1.69478,3.79995 -3.79996,3.79995 h -150.24346 c -2.10517,0 -3.79995,-1.69478 -3.79995,-3.79995 V 87.483317 c 0,-2.105173 1.69478,-3.799952 3.79995,-3.799952 z" /></g><g
       id="g14094"><path
         id="rect13498"
         style="fill:#ffffff;fill-opacity:0.551559;stroke:#0600c5;stroke-width:0"
         d="m 279.2965,33.946243 h 33.94624 c 1.19293,0 2.15331,0.960375 2.15331,2.153307 0,1.192932 -0.96038,2.153307 -2.15331,2.153307 H 279.2965 c -1.19294,0 -2.15331,-0.960375 -2.15331,-2.153307 0,-1.192932 0.96037,-2.153307 2.15331,-2.153307 z" /><path
         id="rect13498-9"
         style="fill:#ffffff;fill-opacity:0.551559;stroke:#0600c5;stroke-width:0"
         d="m 320.96932,33.967976 h 12.3609 c 1.19293,0 2.1533,0.960375 2.1533,2.153307 0,1.192932 -0.96037,2.153307 -2.1533,2.153307 h -12.3609 c -1.19294,0 -2.15331,-0.960375 -2.15331,-2.153307 0,-1.192932 0.96037,-2.153307 2.15331,-2.153307 z" /><path
         id="rect13498-56"
         style="fill:#ffffff;fill-opacity:0.551559;stroke:#0600c5;stroke-width:0"
         d="m 299.90575,80.041473 h 33.94624 c 1.19293,0 2.15331,0.960375 2.15331,2.153307 0,1.192932 -0.96038,2.153307 -2.15331,2.153307 h -33.94624 c -1.19293,0 -2.15331,-0.960375 -2.15331,-2.153307 0,-1.192932 0.96038,-2.153307 2.15331,-2.153307 z" /><path
         id="rect13498-9-7"
         style="fill:#ffffff;fill-opacity:0.551559;stroke:#0600c5;stroke-width:0"
         d="m 279.35527,80.023468 h 12.3609 c 1.19293,0 2.15331,0.960375 2.15331,2.153307 0,1.192932 -0.96038,2.153307 -2.15331,2.153307 h -12.3609 c -1.19293,0 -2.1533,-0.960375 -2.1533,-2.153307 0,-1.192932 0.96037,-2.153307 2.1533,-2.153307 z" /><path
         id="rect13498-56-3"
         style="fill:#ffffff;fill-opacity:0.551559;stroke:#0600c5;stroke-width:0"
         d="m 299.83165,104.25436 h 33.94625 c 1.19293,0 2.1533,0.96037 2.1533,2.1533 0,1.19294 -0.96037,2.15331 -2.1533,2.15331 h -33.94625 c -1.19293,0 -2.15331,-0.96037 -2.15331,-2.15331 0,-1.19293 0.96038,-2.1533 2.15331,-2.1533 z" /><path
         id="rect13498-9-7-0"
         style="fill:#ffffff;fill-opacity:0.551559;stroke:#0600c5;stroke-width:0"
         d="m 279.28118,104.23637 h 12.36089 c 1.19294,0 2.15331,0.96037 2.15331,2.1533 0,1.19294 -0.96037,2.15331 -2.15331,2.15331 h -12.36089 c -1.19294,0 -2.15331,-0.96037 -2.15331,-2.15331 0,-1.19293 0.96037,-2.1533 2.15331,-2.1533 z" /><path
         id="rect13498-56-3-3"
         style="fill:#ffffff;fill-opacity:0.551559;stroke:#0600c5;stroke-width:0"
         transform="scale(-1)"
         d="m -312.97407,-134.38266 h 33.94624 c 1.19293,0 2.15331,0.96037 2.15331,2.15331 0,1.19293 -0.96038,2.1533 -2.15331,2.1533 h -33.94624 c -1.19294,0 -2.15331,-0.96037 -2.15331,-2.1533 0,-1.19294 0.96037,-2.15331 2.15331,-2.15331 z" /><path
         id="rect13498-9-7-0-7"
         style="fill:#ffffff;fill-opacity:0.551559;stroke:#0600c5;stroke-width:0"
         transform="scale(-1)"
         d="m -333.52455,-134.40065 h 12.3609 c 1.19293,0 2.15331,0.96037 2.15331,2.15331 0,1.19293 -0.96038,2.1533 -2.15331,2.1533 h -12.3609 c -1.19293,0 -2.15331,-0.96037 -2.15331,-2.1533 0,-1.19294 0.96038,-2.15331 2.15331,-2.15331 z" /><path
         id="rect13498-5"
         style="fill:#ffffff;fill-opacity:0.551559;stroke:#0600c5;stroke-width:0"
         d="m 279.4771,45.126541 h 62.42815 c 1.19293,0 2.15331,0.960375 2.15331,2.153307 0,1.192931 -0.96038,2.153306 -2.15331,2.153306 H 279.4771 c -1.19293,0 -2.15331,-0.960375 -2.15331,-2.153306 0,-1.192932 0.96038,-2.153307 2.15331,-2.153307 z" /><path
         id="rect13498-5-1"
         style="fill:#ffffff;fill-opacity:0.551559;stroke:#0600c5;stroke-width:0"
         d="m 279.36873,68.019157 h 62.42815 c 1.19293,0 2.15331,0.960375 2.15331,2.153307 0,1.192932 -0.96038,2.153306 -2.15331,2.153306 h -62.42815 c -1.19293,0 -2.15331,-0.960374 -2.15331,-2.153306 0,-1.192932 0.96038,-2.153307 2.15331,-2.153307 z" /><path
         id="rect13498-5-1-6"
         style="fill:#ffffff;fill-opacity:0.551559;stroke:#0600c5;stroke-width:0"
         d="m 278.86205,116.65855 h 62.42815 c 1.19293,0 2.1533,0.96037 2.1533,2.1533 0,1.19293 -0.96037,2.15331 -2.1533,2.15331 h -62.42815 c -1.19294,0 -2.15331,-0.96038 -2.15331,-2.15331 0,-1.19293 0.96037,-2.1533 2.15331,-2.1533 z" /><path
         id="rect13498-5-2"
         style="fill:#ffffff;fill-opacity:0.551559;stroke:#0600c5;stroke-width:0"
         d="m 279.48497,56.53849 h 50.52164 c 1.19293,0 2.1533,0.960375 2.1533,2.153307 0,1.192932 -0.96037,2.153306 -2.1533,2.153306 h -50.52164 c -1.19293,0 -2.1533,-0.960374 -2.1533,-2.153306 0,-1.192932 0.96037,-2.153307 2.1533,-2.153307 z" /><path
         id="rect13498-5-2-2"
         style="fill:#ffffff;fill-opacity:0.551559;stroke:#0600c5;stroke-width:0"
         d="m 279.26271,91.711594 h 50.52164 c 1.19293,0 2.1533,0.960374 2.1533,2.153306 0,1.192932 -0.96037,2.153307 -2.1533,2.153307 h -50.52164 c -1.19293,0 -2.1533,-0.960375 -2.1533,-2.153307 0,-1.192932 0.96037,-2.153306 2.1533,-2.153306 z" /></g></g></svg>
