<?xml version="1.0" encoding="UTF-8" standalone="no"?>
<!-- Created with Inkscape (http://www.inkscape.org/) -->

<svg
   width="153.56874mm"
   height="157.61351mm"
   viewBox="0 0 153.56874 157.61351"
   version="1.1"
   id="svg5"
   xml:space="preserve"
   xmlns="http://www.w3.org/2000/svg"
   xmlns:svg="http://www.w3.org/2000/svg"><defs
     id="defs2" /><g
     id="layer1"
     transform="translate(440.87304,-18.052938)"><path
       style="display:inline;fill:#231b1b;fill-opacity:1;stroke:#fef2f0;stroke-width:0"
       d="m -383.86382,126.66093 c -1.83617,2.1049 -2.85125,4.762 -3.59763,6.91161 -0.74639,2.14962 -1.22406,3.79163 -1.23884,4.91127 -0.0148,1.11963 0.43303,1.71672 1.34368,2.37348 0.91064,0.65676 2.28396,1.37328 5.15009,2.07482 2.86613,0.70154 7.22493,1.3882 12.59893,2.04501 5.374,0.65681 11.76289,1.28376 16.44424,1.42832 4.68135,0.14456 7.65491,-0.1932 9.43658,-0.70028 1.78167,-0.50708 2.37151,-1.18348 2.90847,-2.5717 0.53696,-1.38823 1.02098,-3.48823 1.31867,-5.37787 0.2977,-1.88964 0.40899,-3.56871 0.82202,-5.72305 0.41303,-2.15434 1.12777,-4.78362 -0.38427,-6.80554 -1.51204,-2.02192 -5.25112,-3.43621 -11.89766,-3.9643 -6.64654,-0.52808 -16.20003,-0.16983 -22.30555,0.78554 -6.10551,0.95536 -8.76256,2.50779 -10.59873,4.61269 z"
       id="path2786" /><path
       style="fill:#00b8bf;fill-opacity:1;stroke:#fef2f0;stroke-width:0"
       d="m -362.25492,48.59473 c 0.19723,-2.514632 0.5917,-7.544042 1.26213,-11.083548 0.67042,-3.539506 1.61676,-5.588678 2.83069,-7.364332 1.21393,-1.775654 2.69525,-3.277471 4.45401,-4.709872 1.75875,-1.432401 3.79468,-2.795191 6.74356,-3.374533 2.94887,-0.579342 6.81014,-0.375228 10.12731,0.0043 3.31717,0.379534 6.08983,0.934395 8.16779,1.370181 2.07796,0.435786 3.46099,0.752437 4.56704,1.447409 1.10605,0.694972 1.93508,1.76796 2.6138,2.766694 0.67872,0.998734 1.20709,1.923074 1.79742,3.431341 0.59032,1.508266 1.24261,3.60028 1.56586,5.710629 0.32325,2.11035 0.31751,4.238838 0.39335,6.683381 0.0759,2.444542 0.23324,5.20483 0.0299,8.520549 -0.2033,3.315719 -0.76723,7.186606 -1.40747,11.122424 -0.64024,3.935818 -1.35675,7.936338 -5.80511,9.96639 -4.44836,2.030053 -12.62853,2.089762 -19.46541,1.641952 -6.83688,-0.447811 -12.33013,-1.403158 -15.40536,-3.761638 -3.07523,-2.358479 -3.73203,-6.120166 -3.84733,-9.28353 -0.11531,-3.163364 0.31096,-5.728147 0.59798,-7.390573 0.28702,-1.662426 0.43479,-2.422402 0.5087,-2.8025 0.0739,-0.380098 0.0739,-0.380098 0.2711,-2.894729 z"
       id="path1332" /><path
       style="display:inline;fill:#241c1c;fill-opacity:0.988669;stroke:#fef2f0;stroke-width:0"
       d="m -420.5911,147.14268 c -3.14551,-0.8233 -7.74767,-2.19551 -11.07266,-3.57822 -3.32498,-1.38271 -5.3727,-2.776 -6.53391,-3.95817 -1.16121,-1.18217 -1.43564,-2.15325 -1.2457,-3.7261 0.18993,-1.57286 0.84434,-3.74723 1.351,-5.38333 0.50667,-1.63611 0.86555,-2.73386 1.5517,-3.75782 0.68614,-1.02397 1.69944,-1.97394 5.7846,-1.8789 4.08516,0.095 11.24161,1.235 17.16323,1.6783 5.92161,0.44329 10.60813,0.18997 14.37641,-0.30616 3.76828,-0.49614 6.61819,-1.235 8.4549,-1.46714 1.83671,-0.23214 2.66004,0.0423 3.07153,1.15072 0.4115,1.10841 0.4115,3.05057 -0.0108,5.57331 -0.42225,2.52273 -1.26667,5.62596 -2.26945,8.15923 -1.00277,2.53326 -2.16385,4.49655 -4.38042,6.02702 -2.21656,1.53048 -5.48869,2.62823 -8.95083,3.02937 -3.46214,0.40115 -7.11426,0.1056 -9.78479,-0.17939 -2.67053,-0.28499 -4.35935,-0.55942 -7.50486,-1.38272 z"
       id="path498" /><path
       style="display:inline;fill:#00d4dc;fill-opacity:1;stroke:#fef2f0;stroke-width:0"
       d="m -440.65536,116.77701 c 0.35034,1.06196 1.15644,2.6443 2.0521,4.45056 0.89566,1.80627 1.88085,3.83638 2.9408,5.29925 1.05995,1.46288 2.19443,2.35852 3.88128,3.25413 1.68686,0.89561 3.92597,1.79125 6.70252,2.47788 2.77655,0.68663 6.09043,1.16431 9.76264,1.25384 3.6722,0.0895 7.70257,-0.20901 10.70303,-0.56729 3.00045,-0.35828 4.97087,-0.77625 7.12043,-1.41815 2.14957,-0.6419 4.47824,-1.50768 6.60102,-2.41871 2.12277,-0.91103 4.0396,-1.86725 5.52574,-3.02088 1.48614,-1.15363 2.54166,-2.5047 4.56834,-4.93249 2.02668,-2.42778 5.02435,-5.93212 7.40988,-10.4076 2.38553,-4.47549 4.1588,-9.92198 6.16436,-18.113078 2.00555,-8.191098 4.24326,-19.126299 5.38327,-26.198436 1.14,-7.072137 1.18223,-10.280921 1.30889,-14.840927 0.12667,-4.560005 0.33777,-10.470924 0.46116,-13.846685 0.12338,-3.375761 0.15906,-4.21621 -1.24111,-5.845606 -1.40016,-1.629396 -4.23635,-4.047629 -6.78899,-6.047964 -2.55263,-2.000334 -4.82159,-3.582634 -7.29959,-4.821687 -2.47801,-1.239052 -5.16493,-2.13469 -7.52354,-2.612424 -2.35861,-0.477733 -4.3887,-0.537442 -7.00115,0.10443 -2.61245,0.641871 -5.80689,1.985328 -8.92686,4.12003 -3.11996,2.134702 -6.16514,5.060453 -9.35971,9.091003 -3.19457,4.03055 -6.53829,9.165542 -9.01629,13.56926 -2.47801,4.403718 -4.09016,8.075845 -6.12158,13.280741 -2.03143,5.204896 -4.482,11.942202 -6.02398,16.450948 -1.54198,4.508746 -2.17529,6.788671 -3.12529,10.103115 -0.95,3.314445 -2.21663,7.663186 -3.37774,11.779845 -1.16111,4.116655 -2.21662,8.000985 -3.01884,10.914295 -0.80222,2.91331 -1.35109,4.85547 -1.67833,6.09733 -0.32723,1.24186 -0.43281,1.78332 -0.0825,2.84527 z"
       id="path440" /><path
       style="display:inline;fill:#392011;fill-opacity:1;stroke:#fef2f0;stroke-width:0"
       d="m -373.97327,52.692671 c 0.70206,-0.03167 2.10594,-0.09501 4.43344,-0.116111 2.32751,-0.0211 5.57853,5e-6 8.32822,-0.08445 2.7497,-0.08446 4.99797,-0.274451 7.83213,-0.570009 2.83416,-0.295559 6.25406,-0.696659 9.3521,-0.965815 3.09804,-0.269157 5.87408,-0.406375 8.59742,-0.379968 2.72335,0.02641 5.39381,0.216399 7.56298,0.490868 2.16917,0.274468 3.8369,0.633346 5.3041,1.293145 1.4672,0.659798 2.73384,1.62033 3.47797,2.222016 0.74414,0.601685 0.96581,0.844459 -0.41173,1.255968 -1.37754,0.411509 -4.3541,0.992043 -11.46987,1.760136 -7.11576,0.768094 -18.37021,1.723672 -25.43063,2.186555 -7.06042,0.462883 -9.92647,0.433026 -11.75123,0.274582 -1.82477,-0.158444 -2.60821,-0.445573 -3.50928,-1.079913 -0.90107,-0.63434 -1.91964,-1.615973 -2.48975,-2.555396 -0.57011,-0.939422 -0.6915,-1.836614 -0.76275,-2.42509 -0.0713,-0.588476 -0.0924,-0.868191 -0.0448,-1.029325 0.0476,-0.161134 0.16367,-0.203353 0.22165,-0.22444 0.058,-0.02109 0.058,-0.02108 0.76003,-0.05275 z"
       id="path510" /><path
       style="display:inline;fill:#4c2c15;fill-opacity:1;stroke:#fef2f0;stroke-width:0"
       d="m -392.86255,112.44411 c -0.36095,1.30457 -0.97298,3.63327 -1.10728,5.6859 -0.13429,2.05263 0.20903,3.82898 0.97795,5.03806 0.76892,1.20908 1.96309,1.85094 3.08655,2.43428 1.12346,0.58333 2.17613,1.10811 2.85024,1.39683 0.67411,0.28873 0.96966,0.34151 1.46559,-0.84066 0.49593,-1.18218 1.19258,-3.59932 3.18308,-9.72491 1.9905,-6.12558 5.27469,-15.95915 7.60352,-24.533354 2.32883,-8.574201 3.70214,-15.888589 4.67245,-20.919227 0.9703,-5.030638 1.53754,-7.777267 1.75265,-9.38905 0.21511,-1.611782 0.078,-2.088749 -0.44968,-2.723114 -0.52765,-0.634366 -1.44594,-1.426004 -2.17959,-2.249306 -0.73365,-0.823302 -1.28253,-1.678276 -1.7628,-2.401329 -0.48026,-0.723052 -0.89192,-1.314154 -1.41445,-1.499042 -0.52254,-0.184888 -1.15585,0.03677 -1.85261,0.659594 -0.69675,0.622825 -1.45673,1.646689 -2.35396,3.768418 -0.89724,2.121729 -1.93165,5.341068 -3.47803,10.618859 -1.54639,5.277792 -3.60465,12.613669 -5.26714,19.279491 -1.66248,6.665822 -2.92912,12.66118 -3.72078,16.47171 -0.79166,3.81053 -1.10832,5.43603 -1.3216,6.38896 -0.21328,0.95293 -0.32315,1.23331 -0.68411,2.53789 z"
       id="path506" /><path
       style="display:inline;fill:#28170b;fill-opacity:1;stroke:#fef2f0;stroke-width:0"
       d="m -380.73382,128.6918 c 3.35662,0.67553 9.01431,1.73107 14.05984,2.44883 5.04553,0.71776 9.47873,1.09774 13.95427,1.43551 4.47555,0.33778 8.99318,0.63333 13.02538,0.82332 4.03221,0.18999 7.57876,0.27443 10.00648,0.23219 2.42773,-0.0422 3.7366,-0.21112 4.51758,-1.66767 0.78097,-1.45654 1.0343,-4.2009 1.79429,-8.29647 0.75999,-4.09558 2.02661,-9.54207 3.54661,-15.34763 1.51999,-5.80555 3.29326,-11.969804 4.39104,-16.29753 1.09778,-4.327727 1.51999,-6.818756 2.08999,-10.048756 0.57001,-3.230001 1.28776,-7.198757 1.58334,-10.449822 0.29557,-3.251064 0.16891,-5.784317 -0.0422,-7.747624 -0.21109,-1.963307 -0.50664,-3.356593 -1.51986,-4.707741 -1.01322,-1.351148 -2.74428,-2.659997 -4.24315,-3.525604 -1.49887,-0.865608 -2.76551,-1.287822 -5.1089,-1.140111 -2.34339,0.147712 -5.76326,0.865462 -9.98547,1.498802 -4.2222,0.633341 -9.24648,1.182212 -14.58757,1.477777 -5.34109,0.295564 -10.9987,0.337785 -14.94646,0.48555 -3.94775,0.147766 -6.18547,0.401092 -7.43115,0.802277 -1.24568,0.401185 -1.49901,0.950058 -2.25901,3.293428 -0.76,2.34337 -2.02663,6.481008 -3.33552,11.083231 -1.30889,4.602223 -2.65996,9.668724 -4.09551,15.009824 -1.43556,5.341101 -2.9555,10.956475 -4.07438,15.410909 -1.11888,4.45443 -1.83663,7.74765 -2.5333,10.59763 -0.69667,2.84998 -1.37219,5.25656 -1.7944,7.13547 -0.42221,1.8789 -0.5911,3.22997 -0.29538,4.17996 0.29572,0.94999 1.05571,1.49887 1.96349,1.92102 0.90778,0.42215 1.96331,0.7177 5.31993,1.39323 z"
       id="path502" /><path
       style="fill:#0b0808;fill-opacity:1;stroke:#fef2f0;stroke-width:0"
       d="m -314.2769,68.040369 c 1.75221,1.034541 4.62329,3.103402 7.34657,5.869 2.72329,2.765598 5.29876,6.227701 7.81095,10.365487 2.51219,4.137786 4.961,8.950954 6.88206,13.743165 1.92107,4.792209 3.31436,9.563169 4.11653,14.883139 0.80217,5.31998 1.01328,11.18868 0.63325,16.19195 -0.38003,5.00327 -1.35112,9.14092 -2.68112,12.91975 -1.33001,3.77884 -3.01884,7.19872 -5.00327,10.25978 -1.98443,3.06106 -4.26435,5.76319 -6.14318,7.53648 -1.87883,1.77328 -3.35656,2.6177 -6.24868,2.89217 -2.89213,0.27447 -7.19867,-0.0211 -10.49197,-0.88655 -3.2933,-0.86547 -5.57322,-2.30097 -7.59996,-4.81314 -2.02674,-2.51217 -3.80001,-6.10094 -4.96116,-9.37316 -1.16115,-3.27222 -1.71002,-6.22768 -2.19558,-9.24657 -0.48556,-3.01888 -0.90778,-6.101 -1.01337,-8.29658 -0.10559,-2.19559 0.10551,-3.50443 0.86561,-4.41234 0.76009,-0.90791 2.06893,-1.41455 3.35677,-1.66786 1.28784,-0.2533 2.55446,-0.2533 3.61004,-0.0844 1.05558,0.16896 1.9,0.50672 2.59655,1.56238 0.69656,1.05565 1.24543,2.82893 1.83652,5.15115 0.59109,2.32221 1.2244,5.19323 2.32223,8.1699 1.09783,2.97666 2.66,6.05878 4.18007,8.10649 1.52007,2.0477 2.99779,3.061 4.20106,3.44087 1.20327,0.37987 2.13213,0.12654 2.97649,-0.31678 0.84436,-0.44333 1.60433,-1.07664 2.65984,-3.06101 1.05552,-1.98437 2.40659,-5.31982 3.1666,-8.8242 0.76002,-3.50437 0.92891,-7.17759 0.84448,-11.67424 -0.0844,-4.49664 -0.4222,-9.81647 -1.39327,-15.052 -0.97108,-5.23552 -2.57547,-10.38647 -4.11655,-14.376441 -1.54107,-3.989976 -3.01881,-6.818782 -5.10876,-9.753236 -2.08996,-2.934454 -4.7921,-5.974359 -6.50205,-7.599991 -1.70996,-1.625631 -2.42769,-1.836727 -3.04006,-1.731234 -0.61237,0.105493 -1.11902,0.527703 -1.83666,0.654408 -0.71765,0.126705 -1.64649,-0.04218 -2.89204,-0.337717 -1.24555,-0.295542 -2.80773,-0.717751 -3.77886,-1.139873 -0.97114,-0.422123 -1.35113,-0.844334 -1.45682,-1.667697 -0.10569,-0.823363 0.0632,-2.047768 0.71765,-3.208987 0.65447,-1.161219 1.79445,-2.25897 3.1245,-3.124542 1.33006,-0.865572 2.85002,-1.49889 4.58118,-1.815526 1.73117,-0.316635 3.67335,-0.316635 4.96111,-0.316635 1.28777,0 1.92108,0 3.6733,1.03454 z"
       id="path3013" /><path
       style="fill:#0b0808;fill-opacity:1;stroke:#fef2f0;stroke-width:0"
       d="m -350.39599,70.66752 c 0.79127,1.074939 2.37359,3.224508 3.88127,5.657747 1.50769,2.43324 2.94071,5.150012 4.38867,8.732691 1.44796,3.582679 2.91083,8.031017 3.98561,11.792807 1.07478,3.761795 1.76144,6.836815 2.25403,10.091065 0.4926,3.25424 0.79115,6.68753 1.02999,10.19555 0.23884,3.50802 0.41796,7.09058 0.52246,10.34483 0.10449,3.25424 0.13436,6.17999 0.0746,8.97148 -0.0597,2.79148 -0.20899,5.44854 -0.64191,8.01608 -0.43293,2.56754 -1.14944,5.04547 -1.89583,7.40405 -0.7464,2.35858 -1.52262,4.59768 -2.73176,6.82186 -1.20914,2.22418 -2.85115,4.43344 -4.62751,6.25458 -1.77637,1.82115 -3.68706,3.25417 -5.98591,4.62751 -2.29886,1.37335 -4.98577,2.68695 -7.95636,3.74682 -2.97058,1.05988 -6.22475,1.86595 -8.88184,2.17947 -2.6571,0.31351 -4.71706,0.13439 -6.29938,-0.20889 -1.58233,-0.34328 -2.68694,-0.85081 -3.76175,-1.44789 -1.07481,-0.59709 -2.11973,-1.28376 -3.01544,-2.22415 -0.89572,-0.9404 -1.64209,-2.1346 -2.26912,-4.09014 -0.62703,-1.95554 -1.13456,-4.67231 -1.14841,-8.06392 -0.0138,-3.39161 0.46608,-7.45777 1.2127,-11.05316 0.74662,-3.59539 1.75992,-6.71974 2.20328,-9.54856 0.44336,-2.82882 0.3167,-5.36208 0.14781,-7.66317 -0.16888,-2.3011 -0.37999,-4.36992 -0.31669,-6.05885 0.0633,-1.68893 0.40107,-2.99778 0.84446,-3.82122 0.44338,-0.82344 0.99226,-1.16121 1.87901,-1.37231 0.88676,-0.21109 2.11115,-0.29553 3.2723,-0.16881 1.16114,0.12673 2.2589,0.4645 2.91326,0.84461 0.65435,0.3801 0.86546,0.80231 1.09763,1.77342 0.23217,0.97111 0.48549,2.49106 0.73881,4.4755 0.25333,1.98444 0.50665,4.43324 0.6333,6.75545 0.12665,2.3222 0.12665,4.51768 0.29556,7.36769 0.1689,2.85001 0.50667,6.35434 1.22451,9.3099 0.71784,2.95557 1.81557,5.36215 2.85009,6.92432 1.03451,1.56216 2.00559,2.2799 2.78669,2.6598 0.78111,0.37989 1.37219,0.42212 2.17426,-0.169 0.80208,-0.59111 1.81538,-1.81553 2.91314,-4.13768 1.09775,-2.32216 2.27994,-5.74205 3.54661,-10.02759 1.26667,-4.28554 2.61774,-9.43648 3.46219,-13.95421 0.84445,-4.51773 1.18222,-8.40205 1.22446,-11.73757 0.0422,-3.33552 -0.21109,-6.1221 -0.86552,-9.85875 -0.65443,-3.73666 -1.70995,-8.42318 -2.8288,-12.265375 -1.11886,-3.842197 -2.30104,-6.839877 -3.35658,-9.288757 -1.05554,-2.44888 -1.98439,-4.348817 -2.59662,-5.235655 -0.61224,-0.886839 -0.90778,-0.76018 -1.58327,-0.696818 -0.67549,0.06336 -1.73102,0.06336 -2.97657,0.04225 -1.24555,-0.02111 -2.68105,-0.06333 -3.65213,-0.18993 -0.97108,-0.126602 -1.47773,-0.337707 -1.69956,-1.308765 -0.22183,-0.971059 -0.1585,-2.702115 -0.0846,-4.274889 0.0739,-1.572775 0.15833,-2.987174 0.22166,-4.359389 0.0633,-1.372214 0.10556,-2.702171 0.25337,-3.451758 0.14781,-0.749587 0.40115,-0.918478 0.95014,-1.013454 0.54899,-0.09498 1.39338,-0.116085 2.42786,-0.04217 1.03447,0.07391 2.25885,0.242793 3.81052,0.369446 1.55167,0.126653 3.43047,0.211093 4.81325,0.284986 1.38279,0.07389 2.26943,0.137224 2.91193,0.304559 0.6425,0.167334 1.04083,0.438477 1.23984,0.573948 0.19902,0.13547 0.19898,0.135469 0.99026,1.210408 z"
       id="path3827" /><path
       style="fill:#d5d5d5;fill-opacity:1;stroke:#fef2f0;stroke-width:0"
       d="m -416.07437,97.053282 c 0.85092,-2.691188 2.55279,-8.073713 4.11661,-13.275571 1.56381,-5.201859 2.98951,-10.222863 4.0188,-13.550925 1.02928,-3.328062 1.66209,-4.962996 2.23568,-5.99612 0.5736,-1.033124 1.08788,-1.464256 1.85152,-1.544833 0.76363,-0.08058 1.77633,0.189328 2.8055,0.496012 1.02917,0.306684 2.07468,0.650092 3.05199,1.029114 0.97731,0.379022 1.88632,0.793586 2.33558,1.366162 0.44925,0.572575 0.43898,1.303009 0.15026,2.559216 -0.28872,1.256206 -0.85583,3.038162 -2.57671,8.566638 -1.72089,5.528475 -4.59542,14.803039 -6.17386,19.840266 -1.57845,5.037229 -1.86072,5.836909 -2.39236,6.304259 -0.53164,0.46735 -1.31284,0.60251 -2.42895,0.45906 -1.11611,-0.14345 -2.56715,-0.56562 -3.84909,-0.96716 -1.28193,-0.40154 -2.39472,-0.78244 -3.03256,-1.21139 -0.63784,-0.42894 -0.80057,-0.9061 -0.88197,-1.144822 -0.0814,-0.238717 -0.0813,-0.238717 0.76956,-2.929906 z"
       id="path3831-9-7" /><path
       style="display:none;fill:#ff1313;fill-opacity:0.708215;stroke:#fef2f0;stroke-width:0"
       d="m -415.48254,94.156993 c 0.15311,-0.066 0.45924,-0.197947 0.96862,-0.274448 0.50937,-0.0765 1.22184,-0.09761 2.20354,0.03702 0.98169,0.134625 2.23248,0.424893 3.26956,0.715189 1.03708,0.290297 1.86038,0.580563 2.58871,0.907819 0.72833,0.327255 1.36164,0.691409 1.74948,1.018703 0.38784,0.327293 0.53033,0.617556 0.52231,1.100413 -0.008,0.482856 -0.16634,1.15839 -0.40648,1.907804 -0.24015,0.749417 -0.56209,1.572717 -0.92889,2.388117 -0.36681,0.81539 -0.77846,1.62286 -1.31135,2.04238 -0.5329,0.41952 -1.18735,0.45119 -2.27982,0.33511 -1.09246,-0.11608 -2.62297,-0.37996 -4.0163,-0.75729 -1.39332,-0.37732 -2.64938,-0.86813 -3.43055,-1.35096 -0.78117,-0.48282 -1.08727,-0.95781 -1.20349,-1.45397 -0.11622,-0.49615 -0.0423,-1.013337 0.1846,-1.878923 0.22693,-0.865585 0.60692,-2.079437 0.95526,-2.916016 0.34834,-0.836579 0.66499,-1.295728 0.82334,-1.525335 0.15835,-0.229608 0.15835,-0.229611 0.31146,-0.295608 z"
       id="path5539" /><path
       style="fill:#00bf23;fill-opacity:0.730878;stroke:#fef2f0;stroke-width:0"
       d="m -406.72604,65.119786 c 0.33598,-0.209087 0.91816,-0.373292 1.94824,-0.380715 1.03007,-0.0074 2.50788,0.141851 3.79915,0.485254 1.29126,0.343404 2.39588,0.880787 3.2169,1.351045 0.82101,0.470258 1.3584,0.873297 1.71657,1.328641 0.35818,0.455344 0.5373,0.962874 0.43273,2.074937 -0.10458,1.112064 -0.49269,2.828706 -1.54511,6.463624 -1.05242,3.634918 -2.76906,9.187883 -4.20959,13.748305 -1.44053,4.560423 -2.60486,8.128054 -3.43335,10.382103 -0.82849,2.25405 -1.32109,3.19448 -1.96284,3.72434 -0.64176,0.52986 -1.43291,0.64928 -2.79877,0.54483 -1.36585,-0.10445 -3.3064,-0.43286 -4.69468,-0.903 -1.38829,-0.47015 -2.22421,-1.08217 -2.70948,-1.70909 -0.48527,-0.62692 -0.61962,-1.2688 -0.54503,-2.276476 0.0746,-1.00768 0.35821,-2.380995 1.14938,-5.023243 0.79118,-2.642248 2.08985,-6.553209 3.2169,-10.143328 1.12705,-3.59012 2.08239,-6.859206 3.00791,-9.7552 0.92552,-2.895994 1.82116,-5.418712 2.29886,-6.889053 0.47769,-1.470341 0.5374,-1.888303 0.61203,-2.224208 0.0746,-0.335904 0.16419,-0.589678 0.50018,-0.798766 z"
       id="path10613"
       transform="translate(-1.2500001e-6)" /><path
       id="path3831"
       style="fill:#5f5f5f;fill-opacity:1;stroke:#fef2f0;stroke-width:0"
       d="m -403.24732,59.23958 c -0.12808,0.0014 -0.25176,0.0085 -0.37052,0.0217 -0.95014,0.105503 -1.58378,0.611992 -2.28048,1.815394 -0.6967,1.203402 -1.45655,3.103184 -2.68098,6.966499 -1.22444,3.863316 -2.91351,9.689974 -4.77128,15.727723 -1.85777,6.037749 -3.88429,12.286424 -4.79196,15.685347 -0.90768,3.398927 -0.69637,3.947877 0.10594,4.433327 0.80231,0.48544 2.19534,0.9075 3.79977,1.35082 1.60442,0.44332 3.41987,0.90803 4.81314,1.05575 1.39328,0.14772 2.36464,-0.0212 3.01894,-0.56999 0.6543,-0.54879 0.99226,-1.47744 2.87114,-7.32514 1.87887,-5.847697 5.29854,-16.614388 7.34632,-23.032186 2.04779,-6.417798 2.7235,-8.486443 3.06131,-9.943062 0.3378,-1.456617 0.3378,-2.300863 -0.23202,-2.955375 -0.56984,-0.654511 -1.70976,-1.119269 -2.93419,-1.541508 -1.22444,-0.422239 -2.5337,-0.802194 -3.82147,-1.139982 -1.12682,-0.295564 -2.2371,-0.558811 -3.13366,-0.549321 z m -0.31006,3.428732 c 0.71948,0.0019 1.60733,0.242215 2.50785,0.510563 1.02917,0.306683 2.07471,0.650373 3.05202,1.029394 0.9773,0.379022 1.88651,0.793233 2.33577,1.365808 0.44925,0.572575 0.43858,1.303328 0.14986,2.559534 -0.28872,1.256205 -0.85571,3.037932 -2.57659,8.566402 -1.72088,5.52847 -4.59534,14.80291 -6.17378,19.840133 -1.57845,5.037224 -1.86098,5.837174 -2.39262,6.304524 -0.53164,0.46735 -1.31268,0.60234 -2.42879,0.45889 -1.11611,-0.14345 -2.56692,-0.56533 -3.84886,-0.96687 -1.28193,-0.40154 -2.39505,-0.78286 -3.03289,-1.21181 -0.63784,-0.42895 -0.80019,-0.90592 -0.8816,-1.144634 -0.0814,-0.238718 -0.0814,-0.238867 0.76946,-2.930054 0.85092,-2.691185 2.55273,-8.073306 4.11655,-13.275158 1.5638,-5.201854 2.98958,-10.223053 4.01887,-13.551111 1.02928,-3.328059 1.66194,-4.962894 2.23552,-5.996017 0.5736,-1.033123 1.08793,-1.464548 1.85157,-1.545125 0.0955,-0.01007 0.19487,-0.01474 0.29766,-0.01447 z" /><path
       style="fill:#0c0c0c;fill-opacity:1;stroke:#fef2f0;stroke-width:0"
       d="m -411.80356,97.941324 c 0.30626,-0.0052 0.78127,0.121427 1.17182,0.274532 0.39055,0.153105 0.69665,0.332541 0.82841,0.464453 0.13175,0.131913 0.0895,0.216346 -0.0634,0.247968 -0.15289,0.03162 -0.41676,0.01051 -0.78091,-0.07389 -0.36416,-0.08441 -0.82859,-0.232182 -1.1347,-0.348256 -0.30611,-0.116074 -0.45388,-0.200513 -0.45931,-0.31143 -0.005,-0.110918 0.13179,-0.248131 0.43805,-0.253374 z"
       id="path4995" /><path
       style="fill:#0c0c0c;fill-opacity:1;stroke:#fef2f0;stroke-width:0"
       d="m -409.15057,89.871461 c 0.30626,-0.0052 0.78127,0.121427 1.17182,0.274532 0.39055,0.153105 0.69665,0.332541 0.82841,0.464453 0.13175,0.131913 0.0895,0.216346 -0.0634,0.247968 -0.15289,0.03162 -0.41676,0.01051 -0.78091,-0.07389 -0.36416,-0.08441 -0.82859,-0.232182 -1.1347,-0.348256 -0.30611,-0.116074 -0.45388,-0.200513 -0.45931,-0.31143 -0.005,-0.110918 0.13179,-0.248131 0.43805,-0.253374 z"
       id="path4995-5" /><path
       style="fill:#0c0c0c;fill-opacity:1;stroke:#fef2f0;stroke-width:0"
       d="m -406.37403,80.825321 c 0.30626,-0.0052 0.78127,0.121427 1.17182,0.274532 0.39055,0.153105 0.69665,0.332541 0.82841,0.464453 0.13175,0.131913 0.0895,0.216346 -0.0634,0.247968 -0.15289,0.03162 -0.41676,0.01051 -0.78091,-0.07389 -0.36416,-0.08441 -0.82859,-0.232182 -1.1347,-0.348256 -0.30611,-0.116074 -0.45388,-0.200513 -0.45931,-0.31143 -0.005,-0.110918 0.13179,-0.248131 0.43805,-0.253374 z"
       id="path4995-5-4" /><path
       style="fill:#0c0c0c;fill-opacity:1;stroke:#fef2f0;stroke-width:0"
       d="m -403.55271,71.823964 c 0.30626,-0.0052 0.78127,0.121427 1.17182,0.274532 0.39055,0.153105 0.69665,0.332541 0.82841,0.464453 0.13175,0.131913 0.0895,0.216346 -0.0634,0.247968 -0.15289,0.03162 -0.41676,0.01051 -0.78091,-0.07389 -0.36416,-0.08441 -0.82859,-0.232182 -1.1347,-0.348256 -0.30611,-0.116074 -0.45388,-0.200513 -0.45931,-0.31143 -0.005,-0.110918 0.13179,-0.248131 0.43805,-0.253374 z"
       id="path4995-5-4-6" /><path
       style="fill:#0c0c0c;fill-opacity:1;stroke:#fef2f0;stroke-width:0"
       d="m -411.8679,94.290393 c 0.53755,0.201582 1.61234,0.604628 2.46321,0.858363 0.85087,0.253736 1.47782,0.358228 1.96294,0.395511 0.48512,0.03728 0.82844,0.0074 0.9702,-0.09689 0.14175,-0.10432 0.082,-0.283464 -0.14924,-0.447767 -0.23127,-0.164303 -0.63431,-0.313578 -1.25382,-0.515117 -0.61951,-0.201538 -1.45544,-0.455302 -2.14959,-0.619535 -0.69416,-0.164233 -1.24645,-0.238867 -1.6794,-0.25383 -0.43295,-0.01496 -0.74642,0.02982 -0.84344,0.119542 -0.097,0.08972 0.0224,0.224063 0.082,0.2911 0.0596,0.06704 0.0596,0.06704 0.59714,0.268623 z"
       id="path5377" /><path
       style="fill:#0c0c0c;fill-opacity:1;stroke:#fef2f0;stroke-width:0"
       d="m -409.27551,85.555193 c 0.53755,0.201582 1.61234,0.604628 2.46321,0.858363 0.85087,0.253736 1.47782,0.358228 1.96294,0.395511 0.48512,0.03728 0.82844,0.0074 0.9702,-0.09689 0.14175,-0.10432 0.082,-0.283464 -0.14924,-0.447767 -0.23127,-0.164303 -0.63431,-0.313578 -1.25382,-0.515117 -0.61951,-0.201538 -1.45544,-0.455302 -2.14959,-0.619535 -0.69416,-0.164233 -1.24645,-0.238867 -1.6794,-0.25383 -0.43295,-0.01496 -0.74642,0.02982 -0.84344,0.119542 -0.097,0.08972 0.0224,0.224063 0.082,0.2911 0.0596,0.06704 0.0596,0.06704 0.59714,0.268623 z"
       id="path5377-3" /><path
       style="fill:#0c0c0c;fill-opacity:1;stroke:#fef2f0;stroke-width:0"
       d="m -406.40941,76.598619 c 0.53755,0.201582 1.61234,0.604628 2.46321,0.858363 0.85087,0.253736 1.47782,0.358228 1.96294,0.395511 0.48512,0.03728 0.82844,0.0074 0.9702,-0.09689 0.14175,-0.10432 0.082,-0.283464 -0.14924,-0.447767 -0.23127,-0.164303 -0.63431,-0.313578 -1.25382,-0.515117 -0.61951,-0.201538 -1.45544,-0.455302 -2.14959,-0.619535 -0.69416,-0.164233 -1.24645,-0.238867 -1.6794,-0.25383 -0.43295,-0.01496 -0.74642,0.02982 -0.84344,0.119542 -0.097,0.08972 0.0224,0.224063 0.082,0.2911 0.0596,0.06704 0.0596,0.06704 0.59714,0.268623 z"
       id="path5377-3-6" /></g></svg>
