<?xml version="1.0" encoding="UTF-8" standalone="no"?>
<!-- Created with Inkscape (http://www.inkscape.org/) -->

<svg
   width="104.82382mm"
   height="224.98833mm"
   viewBox="0 0 104.82382 224.98833"
   version="1.1"
   id="svg5"
   xmlns="http://www.w3.org/2000/svg"
   xmlns:svg="http://www.w3.org/2000/svg">
  <defs
     id="defs2" />
  <g
     id="layer1"
     transform="translate(367.71097,-58.8558)">
    <path
       style="fill:#6d748f;fill-opacity:1;stroke:#fef2f0;stroke-width:0"
       d="m -326.20583,243.89495 c 0.44042,-0.21647 1.32114,-0.64937 2.15713,-0.97779 0.836,-0.32841 1.62713,-0.55231 2.11218,-1.08959 0.48505,-0.53728 0.66417,-1.38813 0.94034,-3.03019 0.27617,-1.64206 0.64935,-4.0752 1.24646,-8.28485 0.59712,-4.20965 1.41812,-10.19551 1.79879,-15.6068 0.38067,-5.4113 0.32096,-10.24775 0.0971,-20.71217 -0.22392,-10.46442 -0.61203,-26.55607 -0.98522,-39.43871 -0.37319,-12.88264 -0.73145,-22.55554 -0.61203,-34.61722 0.11941,-12.06167 0.71651,-26.511321 1.07477,-36.124757 0.35827,-9.613437 0.47769,-14.390178 0.65697,-16.763781 0.17929,-2.373602 0.41813,-2.343745 1.01523,-2.313904 0.5971,0.02984 1.55246,0.05969 2.3287,0.104486 0.77624,0.04479 1.37335,0.104505 1.65681,0.328529 0.28345,0.224024 0.25359,0.612128 0.0507,9.969205 -0.20291,9.357078 -0.57886,27.682352 -0.38683,46.218592 0.19204,18.53623 0.95201,37.28229 1.41645,52.86222 0.46443,15.57992 0.63331,27.99285 0.83688,37.99851 0.20357,10.00566 0.44181,17.60348 0.62066,22.00706 0.17885,4.40357 0.29827,5.61268 0.48493,6.47851 0.18666,0.86582 0.44042,1.38828 0.91819,1.80616 0.47777,0.41789 1.17937,0.73136 1.79886,1.05233 0.6195,0.32097 1.15688,0.64938 0.8209,1.10456 -0.33599,0.45518 -1.54511,1.03735 -5.02321,1.08216 -3.4781,0.0448 -9.22514,-0.44779 -12.18085,-0.84323 -2.95572,-0.39544 -3.11992,-0.69399 -3.2021,-0.84342 -0.0822,-0.14943 -0.0821,-0.14943 0.35826,-0.36591 z"
       id="path1172" />
    <path
       style="fill:#6d748f;fill-opacity:1;stroke:#fef2f0;stroke-width:0"
       d="m -323.58695,112.43637 c -5.02426,0.21111 -15.073,0.63332 -21.70182,0.46447 -6.62881,-0.16885 -9.83761,-0.92883 -12.41319,-2.51206 -2.57558,-1.58324 -4.51773,-3.98982 -5.74223,-5.07719 -1.22449,-1.08738 -1.73114,-0.85517 -2.38553,-0.66516 -0.65439,0.19 -1.45661,0.33778 -1.75218,0.65462 -0.29558,0.31685 -0.0845,0.80238 0.6439,1.80515 0.72838,1.00277 1.9739,2.52272 3.7895,3.88431 1.8156,1.3616 4.20107,2.5649 6.67106,3.44096 2.46999,0.87606 5.02435,1.42492 7.906,1.68878 2.88165,0.26386 6.09041,0.24276 10.25986,0.18998 4.16945,-0.0528 9.29927,-0.13721 12.40381,-0.0992 3.10455,0.038 4.18363,0.19844 4.94707,0.51761 0.76345,0.31917 1.21126,0.79684 1.4948,1.25216 0.28354,0.45532 0.40295,0.88821 0.68653,0.79104 0.28357,-0.0972 0.73139,-0.72411 0.84339,-1.78387 0.11199,-1.05975 -0.11192,-2.55248 -0.27231,-3.41838 -0.16039,-0.8659 -0.25733,-1.10493 -0.30586,-1.22461 -0.0485,-0.11968 -0.0485,-0.11971 -5.0728,0.0914 z"
       id="path1176" />
    <path
       style="fill:#6d748f;fill-opacity:1;stroke:#fef2f0;stroke-width:0"
       d="m -312.39024,112.36769 c 1.4481,0.007 4.34407,0.0224 7.8,-10e-5 3.45594,-0.0225 7.47168,-0.0824 10.64072,-0.0279 3.16905,0.0545 5.49119,0.22338 8.13006,0.26559 2.63888,0.0422 5.59432,-0.0422 7.9376,-0.38004 2.34327,-0.3378 4.07433,-0.9289 5.72093,-1.85777 1.6466,-0.92888 3.20876,-2.1955 4.26442,-2.84993 1.05566,-0.65444 1.60453,-0.69666 2.33288,-0.70721 0.72835,-0.0105 1.63609,0.0106 2.17443,0.0846 0.53834,0.074 0.70723,0.20065 0.18984,0.90777 -0.51738,0.70712 -1.72068,1.99486 -3.26174,3.16649 -1.54106,1.17164 -3.41989,2.22716 -5.22482,2.92382 -1.80493,0.69667 -3.536,1.03444 -4.97155,1.31944 -1.43554,0.28499 -2.5755,0.51721 -4.92937,0.63334 -2.35386,0.11613 -5.92152,0.11613 -10.23874,0.17946 -4.31723,0.0633 -9.38374,0.18999 -12.87759,0.25332 -3.49386,0.0633 -5.41492,0.0633 -6.54475,0.14982 -1.12983,0.0865 -1.46823,0.25948 -1.68603,0.48791 -0.21779,0.22843 -0.31482,0.51204 -0.42678,0.75831 -0.11195,0.24626 -0.23883,0.45524 -0.46633,0.37324 -0.22751,-0.082 -0.55591,-0.45518 -0.65681,-0.9665 -0.10091,-0.51132 0.026,-1.16066 0.11928,-1.94062 0.0933,-0.77995 0.15303,-1.69052 0.23517,-2.17581 0.0821,-0.48528 0.18665,-0.545 0.23886,-0.57484 0.0522,-0.0298 0.0522,-0.0298 1.50032,-0.0223 z"
       id="path1253" />
    <path
       style="fill:#343434;fill-opacity:1;stroke:#fef2f0;stroke-width:0"
       d="m -326.95952,281.59805 c -0.0317,-1.95263 -0.095,-5.85815 0.10554,-9.82703 0.20055,-3.96889 0.66498,-8.00099 1.32997,-11.37879 0.66498,-3.37779 1.53051,-6.10104 2.68106,-8.90884 1.15056,-2.8078 2.58606,-5.69992 3.69445,-7.38887 1.10839,-1.68895 1.88949,-2.1745 2.72348,-2.36445 0.834,-0.18996 1.72062,-0.0844 2.88174,0.28509 1.16113,0.3695 2.59665,1.00282 3.5254,2.5229 0.92874,1.52008 1.35095,3.92668 1.81539,7.63168 0.46443,3.70499 0.97108,8.70816 1.23495,12.74035 0.26386,4.03219 0.28496,7.09321 0.19004,8.6447 -0.0949,1.55149 -0.30599,1.59371 -1.1293,1.59373 -0.82331,3e-5 -2.25881,-0.0422 -3.05051,-0.17926 -0.7917,-0.13708 -0.93947,-0.36929 -1.0029,-2.681 -0.0634,-2.3117 -0.0423,-6.70267 -0.11622,-10.67153 -0.0739,-3.96887 -0.24276,-7.51543 -0.50662,-9.97484 -0.26386,-2.4594 -0.62274,-3.83158 -1.39321,-4.45452 -0.77047,-0.62294 -1.95266,-0.49627 -2.93447,0.52771 -0.98181,1.02398 -1.76289,2.94502 -2.49121,6.53396 -0.72832,3.58894 -1.40385,8.84544 -1.67827,13.321 -0.27442,4.47555 -0.14775,8.16987 -0.095,10.70318 0.0528,2.53332 0.0317,3.9055 -0.15822,4.62312 -0.18989,0.71763 -0.54875,0.78095 -1.3404,0.8443 -0.79165,0.0633 -2.01606,0.12667 -2.79714,0.0951 -0.78107,-0.0316 -1.11884,-0.15826 -1.28788,-0.22165 -0.16904,-0.0634 -0.16903,-0.0634 -0.20069,-2.01601 z"
       id="path244" />
    <path
       id="path1518"
       style="fill:#404040;stroke:#fef2f0;stroke-width:0"
       d="m -309.36718,63.775871 a 5.5855522,4.9200706 0 0 1 -5.58555,4.920071 5.5855522,4.9200706 0 0 1 -5.58555,-4.920071 5.5855522,4.9200706 0 0 1 5.58555,-4.92007 5.5855522,4.9200706 0 0 1 5.58555,4.92007 z"
       transform="translate(-1.1875e-5)" />
    <path
       style="fill:#303030;fill-opacity:1;stroke:#fef2f0;stroke-width:0"
       d="m -344.08655,276.30519 c 0.0641,-3.04614 0.57081,-8.95718 1.87969,-13.98167 1.30888,-5.02449 3.41992,-9.16214 6.67111,-12.45553 3.25119,-3.29339 7.64216,-5.7422 10.93555,-7.05106 3.29339,-1.30886 5.48887,-1.47774 7.09331,-1.56218 1.60445,-0.0844 2.61775,-0.0844 4.43333,0.21116 1.81557,0.29559 4.43329,0.88669 7.1777,2.40678 2.74442,1.52009 5.61544,3.9689 7.85313,7.13561 2.23769,3.16671 3.84209,7.05103 4.85536,11.18877 1.01327,4.13774 1.43549,8.52871 1.56212,11.56867 0.12664,3.03996 -0.0423,4.7288 -0.37515,5.61429 -0.33291,0.88549 -0.83003,0.96788 -1.46671,1.00909 -0.63668,0.0412 -1.41289,0.0412 -2.32349,0.0114 -0.9106,-0.0299 -1.95552,-0.0896 -2.43334,-0.49251 -0.47783,-0.40295 -0.38827,-1.14931 -0.46289,-3.11976 -0.0746,-1.97044 -0.31345,-5.16489 -0.68663,-8.1355 -0.37317,-2.97061 -0.88071,-5.71725 -1.68676,-8.21018 -0.80606,-2.49293 -1.91068,-4.73203 -3.20933,-6.50846 -1.29866,-1.77644 -2.79138,-3.09004 -4.23936,-3.98577 -1.44798,-0.89574 -2.85114,-1.37341 -5.17991,-1.58246 -2.32878,-0.20904 -5.58294,-0.14933 -8.44916,0.67168 -2.86622,0.82102 -5.34415,2.40331 -7.26989,4.553 -1.92574,2.14968 -3.29906,4.86645 -4.28428,7.53856 -0.98523,2.67212 -1.58231,5.29932 -2.04507,7.8072 -0.46275,2.50788 -0.79115,4.89625 -1.04493,6.65772 -0.25377,1.76147 -0.4329,2.89596 -0.80599,3.52278 -0.37308,0.62682 -0.94032,0.74625 -1.94044,0.76121 -1.00012,0.015 -2.43313,-0.0746 -3.33864,-0.20998 -0.90551,-0.13537 -1.28348,-0.31669 -1.21933,-3.36283 z"
       id="path236" />
  </g>
</svg>
