<?xml version="1.0" encoding="UTF-8" standalone="no"?>
<!-- Created with Inkscape (http://www.inkscape.org/) -->

<svg
   width="234.69058mm"
   height="234.47569mm"
   viewBox="0 0 234.69058 234.47569"
   version="1.1"
   id="svg5"
   xml:space="preserve"
   xmlns="http://www.w3.org/2000/svg"
   xmlns:svg="http://www.w3.org/2000/svg"><defs
     id="defs2" /><g
     id="layer1"
     transform="translate(349.86729,221.8812)"><path
       id="path354"
       style="fill:#c44f43;stroke-width:0"
       d="m -115.39159,-104.64336 a 117.23785,117.23785 0 0 1 -117.23785,117.23785 117.23785,117.23785 0 0 1 -117.23785,-117.23785 117.23785,117.23785 0 0 1 117.23785,-117.23784 117.23785,117.23785 0 0 1 117.23785,117.23784 z" /><g
       id="g8506"
       style="display:inline"
       transform="translate(1.0133207,0.75999053)"><path
         style="fill:#ea3037;fill-opacity:1;stroke-width:0"
         d="m -168.75677,-201.06017 c -0.46274,0.37317 -1.38825,1.11956 -2.62722,1.89579 -1.23897,0.77623 -2.79142,1.58231 -5.49334,2.77653 -2.70192,1.19422 -6.55317,2.77652 -10.35974,4.19466 -3.80658,1.41813 -7.56826,2.67203 -11.95699,3.61249 -4.38874,0.94045 -9.40433,1.5674 -14.16626,1.8809 -4.76194,0.31349 -9.26999,0.31349 -14.01702,0.14929 -4.74702,-0.16419 -9.73275,-0.49259 -14.52456,-0.88071 -4.79181,-0.38812 -9.38943,-0.83594 -13.8379,-1.41811 -4.44846,-0.58218 -8.74753,-1.29869 -12.53919,-1.8958 -3.79165,-0.59711 -7.07566,-1.07479 -10.03137,-1.38829 -2.95571,-0.31349 -5.58291,-0.46276 -7.55338,-0.52247 -1.97047,-0.0597 -3.28407,-0.0299 -5.23962,0.0597 -1.95556,0.0896 -4.55289,0.23884 -7.41904,0.5971 -2.86616,0.35825 -6.00089,0.92549 -8.44905,1.4181 -2.44817,0.49261 -4.2096,0.91058 -5.3889,1.20913 -1.1793,0.29855 -1.77639,0.47768 -2.14952,0.50767 -0.37314,0.03 -0.52241,-0.0894 0.23878,-0.89565 0.76118,-0.80623 2.43305,-2.29897 4.14976,-3.74697 1.7167,-1.448 3.47812,-2.85116 5.62773,-4.49322 2.14962,-1.64206 4.68726,-3.5229 7.43398,-5.38887 2.74672,-1.86598 5.70233,-3.71696 8.43413,-5.2396 2.73181,-1.52264 5.23961,-2.71683 7.62805,-3.76177 2.38845,-1.04493 4.65741,-1.94057 7.5982,-2.95566 2.94079,-1.01509 6.5532,-2.14957 9.58356,-2.97059 3.03035,-0.82102 5.47843,-1.32855 8.26994,-1.80624 2.79151,-0.47768 5.92625,-0.9255 9.3895,-1.28376 3.46326,-0.35826 7.2548,-0.62695 10.24036,-0.74635 2.98555,-0.11941 5.16494,-0.0895 7.80717,0.0299 2.64223,0.11944 5.74712,0.32842 8.50876,0.56727 2.76164,0.23885 5.17986,0.50755 7.79223,0.9554 2.61237,0.44785 5.4187,1.0748 8.06092,1.79135 2.64222,0.71655 5.12016,1.52262 7.8818,2.49294 2.76165,0.97031 5.80682,2.10479 8.26989,3.16469 2.46308,1.05989 4.34392,2.04509 6.18004,3.0154 1.83611,0.97031 3.62739,1.92566 5.41872,2.89597 1.79134,0.97031 3.58261,1.95551 4.85146,2.68698 1.26885,0.73147 2.01522,1.20914 2.4032,1.68687 0.38798,0.47773 0.41785,0.95541 0.43278,1.19411 0.0149,0.2387 0.0149,0.23863 -0.44786,0.61181 z"
         id="path2924" /><path
         style="fill:#de7d43;fill-opacity:1;stroke-width:0"
         d="m -164.29332,-197.49251 c -0.53736,0.26869 -1.19418,0.53739 -2.58247,1.08972 -1.38829,0.55233 -3.50797,1.38826 -5.64264,2.25407 -2.13467,0.86581 -4.28421,1.76145 -7.53846,2.85119 -3.25424,1.08973 -7.61302,2.37348 -12.61381,3.52292 -5.0008,1.14944 -10.64333,2.1645 -15.89787,2.65713 -5.25454,0.49262 -10.12085,0.46276 -15.24107,0.34333 -5.12023,-0.11942 -10.49406,-0.3284 -15.79341,-0.7613 -5.29935,-0.43289 -10.52391,-1.08969 -15.3605,-1.79129 -4.8366,-0.7016 -9.28494,-1.44797 -12.94224,-2.03015 -3.6573,-0.58219 -6.52334,-1.00015 -9.25513,-1.31365 -2.73179,-0.31349 -5.32915,-0.52247 -7.44889,-0.64191 -2.11975,-0.11943 -3.76175,-0.1493 -5.83673,-0.11946 -2.07497,0.0298 -4.58275,0.11941 -6.68758,0.2836 -2.10482,0.16419 -3.80654,0.40303 -5.86659,0.7613 -2.06004,0.35826 -4.47828,0.83594 -6.58311,1.32855 -2.10483,0.49261 -3.89611,1.00014 -5.40387,1.6719 -1.50776,0.67176 -2.7318,1.50768 -3.5827,2.14959 -0.8509,0.6419 -1.32858,1.08973 -1.74658,1.59731 -0.418,0.50759 -0.77625,1.07482 -1.23901,1.7167 -0.46275,0.64188 -1.02999,1.35839 -1.55247,2.06001 -0.52248,0.70161 -1.00016,1.38827 -1.28379,1.89587 -0.28362,0.5076 -0.37318,0.836 0.0747,0.70154 0.4479,-0.13446 1.4331,-0.73156 2.29892,-1.2391 0.86582,-0.50755 1.61218,-0.92551 2.7318,-1.44799 1.11961,-0.52248 2.61233,-1.14943 4.01555,-1.70175 1.40321,-0.55233 2.71681,-1.03 4.06033,-1.4629 1.34352,-0.4329 2.71684,-0.82101 3.91111,-1.01505 1.19426,-0.19403 2.20931,-0.19403 3.71702,-0.20897 1.50772,-0.0149 3.50796,-0.0448 5.2993,-0.0597 1.79134,-0.0149 3.37363,-0.0149 5.29932,1e-5 1.92569,0.0149 4.19465,0.0448 6.0457,0.11945 1.85105,0.0747 3.28406,0.19407 4.50815,0.34337 1.22409,0.14929 2.23914,0.32841 3.62743,0.56726 1.3883,0.23884 3.14971,0.53739 4.88133,0.88074 1.73162,0.34335 3.43334,0.73146 5.49337,1.23901 2.06004,0.50755 4.47828,1.1345 7.32948,1.70174 2.85119,0.56723 6.13521,1.07476 8.77742,1.49274 2.64221,0.41798 4.64247,0.74638 6.98613,1.05985 2.34366,0.31348 5.03058,0.61202 7.8967,0.77622 2.86612,0.16419 5.91129,0.19406 9.15062,0.22392 3.23933,0.0299 6.67262,0.0597 10.18064,0.0299 3.50802,-0.0299 7.09058,-0.11941 10.30004,-0.25377 3.20946,-0.13435 6.04566,-0.31348 9.91195,-0.73147 3.86629,-0.41799 8.76246,-1.07479 12.95714,-1.80626 4.19468,-0.73146 7.68767,-1.53754 11.0464,-2.46307 3.35874,-0.92553 6.58304,-1.97044 9.2551,-2.8661 2.67206,-0.89567 4.79174,-1.64203 6.62783,-2.38842 1.8361,-0.74639 3.38854,-1.49276 4.25427,-1.98533 0.86573,-0.49256 1.04486,-0.7314 0.91062,-1.20896 -0.13424,-0.47755 -0.58206,-1.19407 -1.40305,-2.07484 -0.82098,-0.88077 -2.01517,-1.92568 -3.14968,-2.94077 -1.13452,-1.01508 -2.20929,-2.00029 -3.11986,-2.59747 -0.91057,-0.59719 -1.65694,-0.80618 -2.23924,-0.77638 -0.58231,0.0298 -1.00027,0.29848 -1.53763,0.56717 z"
         id="path5574" /><path
         style="fill:#ea3037;fill-opacity:1;stroke-width:0"
         d="m -326.00432,-175.68322 c 0.55237,-0.31351 1.657,-0.94046 2.94081,-1.59729 1.28381,-0.65683 2.74669,-1.34349 4.70224,-2.14958 1.95555,-0.8061 4.40363,-1.7316 6.47861,-2.37348 2.07499,-0.64189 3.77671,-1.00015 5.76212,-1.26884 1.98542,-0.26869 4.25438,-0.44782 6.44877,-0.59709 2.19439,-0.14928 4.31404,-0.26869 6.18004,-0.22388 1.866,0.0448 3.47816,0.25379 5.65762,0.55235 2.17945,0.29856 4.92609,0.68667 7.18019,1.07481 2.25409,0.38813 4.0155,0.77624 6.3741,1.29871 2.3586,0.52248 5.31421,1.17928 7.94149,1.71667 2.62728,0.5374 4.92609,0.95536 8.3147,1.49276 3.38861,0.53739 7.86681,1.19419 11.33004,1.65694 3.46324,0.46276 5.91131,0.73145 8.55353,0.95536 2.64221,0.22391 5.47841,0.40304 8.13554,0.53738 2.65714,0.13435 5.13508,0.22391 8.55354,0.19405 3.41845,-0.0299 7.77723,-0.17914 11.62858,-0.38814 3.85136,-0.20899 7.19508,-0.47768 10.91209,-0.8061 3.71702,-0.32841 7.80711,-0.71652 11.61368,-1.25393 3.80656,-0.53741 7.32941,-1.22407 10.73292,-2.06003 3.40352,-0.83596 6.68752,-1.82117 9.77756,-2.83626 3.09004,-1.01509 5.98593,-2.06 8.62816,-2.94073 2.64222,-0.88074 5.0306,-1.59725 6.56821,-1.91069 1.53762,-0.31343 2.22427,-0.22387 2.70193,-0.0147 0.47766,0.20911 0.74635,0.53751 1.37333,1.23912 0.62698,0.7016 1.61218,1.77637 2.71683,3.04523 1.10465,1.26887 2.32869,2.73175 3.68712,4.40366 1.35842,1.67192 2.85116,3.55277 4.03041,5.29933 1.17926,1.74655 2.04505,3.3587 2.67201,4.55292 0.62696,1.19422 1.01507,1.97044 0.62693,2.56737 -0.38813,0.59692 -1.55246,1.01488 -3.85134,1.68664 -2.29888,0.67175 -5.73215,1.59725 -9.28496,2.49292 -3.5528,0.89566 -7.22492,1.76145 -11.86747,2.74669 -4.64254,0.98523 -10.25521,2.08986 -14.67381,2.83625 -4.4186,0.74639 -7.6429,1.1345 -10.77772,1.38828 -3.13482,0.25378 -6.17999,0.3732 -10.55384,0.44785 -4.37384,0.0747 -10.07608,0.10451 -15.61428,0.13438 -5.5382,0.0299 -10.91204,0.0597 -17.45041,0.0448 -6.53838,-0.0149 -14.24088,-0.0746 -22.31681,-0.17912 -8.07593,-0.10449 -16.5248,-0.25377 -23.48112,-0.35826 -6.95632,-0.1045 -12.41973,-0.16421 -18.46548,-0.28363 -6.04575,-0.11942 -12.67348,-0.29855 -16.21139,-0.31351 -3.53791,-0.0149 -3.98574,0.13433 -5.06055,0.50752 -1.0748,0.3732 -2.77652,0.97029 -5.56802,1.92567 -2.7915,0.95538 -6.6726,2.26898 -9.34468,3.25421 -2.67208,0.98523 -4.13496,1.64204 -5.74718,2.49293 -1.61222,0.85088 -3.37364,1.89579 -4.88135,2.83624 -1.50771,0.94045 -2.76162,1.77639 -3.7767,2.44814 -1.01509,0.67175 -1.7913,1.17927 -2.0302,1.07486 -0.2389,-0.10441 0.0596,-0.82093 0.65675,-2.37342 0.59712,-1.55249 1.49276,-3.94086 2.6422,-6.70252 1.14945,-2.76165 2.55262,-5.89639 3.6722,-8.2102 1.11958,-2.31381 1.95551,-3.80655 2.83625,-5.35903 0.88074,-1.55249 1.80624,-3.16464 2.9109,-4.97091 1.10466,-1.80627 2.3884,-3.80654 3.32888,-5.07544 0.94048,-1.26889 1.53757,-1.80627 1.83612,-2.07496 0.29855,-0.26869 0.29855,-0.26876 0.85091,-0.58226 z"
         id="path6660" /><path
         style="fill:#de7d43;fill-opacity:1;stroke-width:0"
         d="m -131.94513,-161.3079 c -0.91045,0 -2.73162,0 -5.23953,0.32093 -2.5079,0.32093 -5.70235,0.9628 -9.88214,1.85101 -4.17979,0.8882 -9.34465,2.02268 -13.92,2.94074 -4.57534,0.91806 -8.56093,1.61964 -13.55427,2.22422 -4.99333,0.60459 -10.99412,1.11211 -16.37702,1.44587 -5.3829,0.33376 -10.14761,0.49372 -15.63336,0.5737 -5.48576,0.08 -11.69223,0.08 -16.92776,0.0589 -5.23553,-0.0211 -9.49984,-0.0633 -14.79872,-0.2111 -5.29888,-0.14777 -11.63201,-0.4011 -18.15811,-0.6391 -6.52609,-0.23801 -13.24477,-0.46068 -18.5448,-0.6168 -5.30002,-0.15612 -9.18112,-0.24569 -13.27135,-0.29047 -4.09022,-0.0448 -8.38927,-0.0448 -11.92716,0.0149 -3.53788,0.0597 -6.31436,0.17912 -8.56848,0.41795 -2.25411,0.23883 -3.98568,0.59709 -7.18025,1.53754 -3.19457,0.94044 -7.85191,2.46303 -11.37486,3.73188 -3.52296,1.26886 -5.91136,2.28393 -8.0311,3.25423 -2.11975,0.9703 -3.97075,1.8958 -5.5979,2.89597 -1.62716,1.00018 -3.03032,2.07494 -3.79166,2.68701 -0.76135,0.61207 -0.88076,0.76133 -1.03005,1.1346 -0.1493,0.37326 -0.32843,0.97037 -0.52249,1.67198 -0.19406,0.70161 -0.40303,1.50768 -0.59709,2.25407 -0.19407,0.74639 -0.3732,1.43305 -0.49261,1.97047 -0.11941,0.53741 -0.17912,0.92553 0.16424,0.73135 0.34336,-0.19417 1.08972,-0.9704 2.20934,-1.8213 1.11962,-0.85091 2.61235,-1.7764 4.37384,-2.8736 1.76149,-1.0972 3.79159,-2.36601 5.89643,-3.59756 2.10483,-1.23154 4.2842,-2.42572 6.35919,-3.43335 2.07499,-1.00763 4.04539,-1.82864 6.1129,-2.57502 2.06751,-0.74639 4.23196,-1.41811 6.35919,-2.00029 2.12722,-0.58218 4.21706,-1.07479 6.2771,-1.49276 2.06005,-0.41797 4.09017,-0.7613 7.15784,-1.08224 3.06767,-0.32094 7.17268,-0.61948 10.84492,-0.79115 3.67225,-0.17166 6.91149,-0.21644 10.84496,-0.19404 3.93346,0.0224 8.56096,0.11196 12.47203,0.26124 3.91107,0.14929 7.10552,0.35827 10.36724,0.64937 3.26172,0.2911 6.59052,0.66428 9.98659,1.04494 3.39607,0.38066 6.8592,0.76877 10.32243,1.02253 3.46324,0.25376 6.92638,0.37318 10.60608,0.4926 3.6797,0.11942 7.57573,0.23884 13.58417,0.29854 6.00845,0.0597 14.12891,0.0597 19.54766,0.0522 5.41876,-0.007 8.13554,-0.0224 11.42711,-0.0672 3.29158,-0.0448 7.15775,-0.11942 10.51649,-0.30603 3.35873,-0.1866 6.20985,-0.48515 9.13568,-0.95539 2.92583,-0.47023 5.92621,-1.11211 9.12822,-1.85103 3.202,-0.73893 6.60543,-1.57486 9.40438,-2.32125 2.79894,-0.74639 4.99326,-1.4032 7.11299,-2.08988 2.11973,-0.68667 4.16478,-1.40319 5.39629,-1.85848 1.23151,-0.4553 1.64948,-0.64935 1.94797,-0.85084 0.29848,-0.20149 0.47761,-0.41047 0.46274,-0.8283 -0.0149,-0.41783 -0.22385,-1.04478 -0.53724,-1.54489 -0.3134,-0.50011 -0.73136,-0.8733 -0.94049,-1.06002 -0.20913,-0.18672 -0.20913,-0.1867 -1.11958,-0.1867 z"
         id="path6803" /><path
         style="fill:#ea3037;fill-opacity:1;stroke-width:0"
         d="m -127.06388,-154.67988 c 0.11946,0.40321 0.35831,1.2093 0.71658,2.3065 0.35828,1.09719 0.83595,2.48543 1.07474,3.24672 0.23879,0.76128 0.23879,0.89562 0.11945,0.9925 -0.11933,0.0969 -0.35816,0.15658 -1.27619,0.21631 -0.91803,0.0597 -2.51526,0.11944 -3.97819,0.22393 -1.46293,0.10448 -2.79146,0.25376 -3.92599,0.41796 -1.13452,0.1642 -2.07494,0.34332 -3.19453,0.58963 -1.11959,0.2463 -2.41828,0.55978 -3.82895,0.91058 -1.41068,0.3508 -2.93326,0.73891 -4.97093,1.37334 -2.03766,0.63443 -4.59023,1.51515 -6.79955,2.33617 -2.20931,0.82103 -4.07523,1.58232 -6.01584,2.39588 -1.94062,0.81357 -3.95581,1.67935 -5.96359,2.51531 -2.00778,0.83595 -4.00804,1.64203 -6.0125,2.42484 -2.00446,0.7828 -4.01301,1.5423 -5.91454,2.25983 -1.90152,0.71753 -3.69591,1.39307 -6.37701,2.26918 -2.6811,0.87612 -6.24877,1.95275 -10.39708,2.99775 -4.14831,1.04501 -8.87705,2.05831 -12.82479,2.73387 -3.94774,0.67555 -7.11431,1.01332 -10.16485,1.26666 -3.05054,0.25334 -5.98489,0.42222 -9.8271,0.52778 -3.84221,0.10556 -8.59206,0.14778 -12.20204,0.14778 -3.60998,0 -6.0799,-0.0422 -9.72155,-0.39053 -3.64166,-0.34832 -8.45483,-1.00274 -12.3287,-1.64662 -3.87387,-0.64387 -6.80821,-1.27719 -9.60542,-1.93162 -2.79721,-0.65444 -5.45712,-1.32998 -8.10656,-2.08997 -2.64945,-0.75999 -5.28824,-1.6044 -7.84267,-2.42773 -2.55444,-0.82333 -5.02438,-1.62553 -7.61048,-2.32221 -2.58611,-0.69668 -5.28825,-1.28777 -8.10659,-1.74167 -2.81833,-0.45391 -5.75266,-0.77056 -8.60268,-0.93946 -2.85001,-0.1689 -5.61546,-0.19 -8.11714,-0.095 -2.50168,0.095 -4.73939,0.3061 -7.26216,0.64387 -2.52277,0.33777 -5.33048,0.8022 -7.6316,1.34052 -2.30113,0.53832 -4.09553,1.15053 -5.82552,1.79778 -1.72999,0.64726 -3.39546,1.32953 -4.5641,1.79757 -1.16863,0.46803 -1.84035,0.72179 -2.31803,0.89346 -0.47768,0.17167 -0.76132,0.26124 -0.88828,0.0972 -0.12696,-0.16406 -0.0971,-0.58203 0.17911,-0.97776 0.2762,-0.39572 0.79867,-0.76892 1.85854,-1.52277 1.05987,-0.75385 2.6571,-1.88833 4.36634,-3.03777 1.70923,-1.14944 3.53038,-2.31378 5.06048,-3.24676 1.53009,-0.93298 2.76906,-1.63456 4.17229,-2.38842 1.40322,-0.75385 2.97059,-1.55993 4.65744,-2.32871 1.68686,-0.76878 3.49306,-1.50022 5.15007,-2.08986 1.65701,-0.58965 3.16466,-1.03747 5.01572,-1.52262 1.85106,-0.48515 4.04536,-1.0076 6.07556,-1.40318 2.0302,-0.39558 3.8961,-0.66427 5.77701,-0.90312 1.88092,-0.23884 3.77668,-0.44782 5.77701,-0.60455 2.00033,-0.15674 4.10509,-0.26123 6.88167,-0.35079 2.77657,-0.0896 6.22478,-0.1642 9.00134,-0.20898 2.77655,-0.0448 4.88131,-0.0597 6.63532,-0.0746 1.75402,-0.0149 3.15719,-0.0299 4.91867,-1e-5 1.76148,0.0299 3.88116,0.10449 5.87402,0.21646 1.99287,0.11196 3.85878,0.26124 5.72475,0.42545 1.86597,0.1642 3.73189,0.34333 5.59786,0.52247 1.86597,0.17913 3.73189,0.35826 6.05317,0.63443 2.32127,0.27617 5.09776,0.64935 7.64294,0.95536 2.54518,0.30602 4.85891,0.54486 7.15777,0.64187 2.29886,0.097 4.58274,0.0522 7.23244,0.1642 2.6497,0.11198 5.66502,0.38067 8.18033,0.49261 2.51531,0.11194 4.5305,0.0672 7.51607,0.0672 2.98557,10e-6 6.94131,0.0448 11.29276,0.0821 4.35145,0.0373 9.09834,0.0672 13.39753,0.0373 4.29919,-0.0299 8.15043,-0.11942 11.45692,-0.32842 3.30649,-0.209 6.06804,-0.5374 8.95655,-0.94792 2.88852,-0.41052 5.90384,-0.90312 8.52366,-1.36588 2.61981,-0.46277 4.84398,-0.89566 8.00121,-1.53009 3.15724,-0.63443 7.24733,-1.47037 10.2627,-2.22422 3.01538,-0.75386 4.95593,-1.42559 6.49349,-1.9406 1.53756,-0.515 2.67204,-0.87326 3.48567,-0.97768 0.81364,-0.10441 1.30624,0.0449 1.55239,0.11945 0.24615,0.0746 0.24611,0.0746 0.36558,0.47776 z"
         id="path7018" /><path
         style="fill:#de7d43;fill-opacity:1;stroke-width:0"
         d="m -347.99273,-126.84004 c 0.41801,-0.28364 1.25396,-0.85089 2.32878,-1.46294 1.07483,-0.61204 2.38843,-1.26884 4.13501,-1.97045 1.74658,-0.70161 3.92595,-1.44797 6.12036,-2.07493 2.19441,-0.62696 4.40365,-1.13449 6.89661,-1.56739 2.49296,-0.4329 5.26944,-0.79116 7.97138,-1.01506 2.70194,-0.2239 5.32915,-0.31347 7.68776,-0.26866 2.3586,0.0448 4.44841,0.22392 6.58309,0.47771 2.13467,0.25378 4.31407,0.58218 6.23976,0.97032 1.92569,0.38815 3.59753,0.83596 5.76207,1.44801 2.16455,0.61205 4.8216,1.38826 7.34439,2.11972 2.52279,0.73146 4.91118,1.41812 7.10555,2.01522 2.19438,0.59711 4.19463,1.10464 6.88164,1.74653 2.68701,0.6419 6.06058,1.41812 9.70296,2.10478 3.64237,0.68666 7.55333,1.28375 11.01657,1.71665 3.46323,0.43289 6.47855,0.70158 9.61337,0.85085 3.13482,0.14927 6.38898,0.17914 9.35961,0.19407 2.97062,0.0149 5.65754,0.0149 8.67294,-0.13436 3.01539,-0.14929 6.35911,-0.44784 9.91192,-0.86582 3.55281,-0.41799 7.31449,-0.95537 10.68815,-1.52263 3.37367,-0.56726 6.35914,-1.16435 9.55367,-1.9406 3.19453,-0.77626 6.59796,-1.7316 9.83727,-2.77655 3.23931,-1.04495 6.31433,-2.17942 9.59844,-3.44829 3.28411,-1.26886 6.7771,-2.67203 10.2702,-4.09017 3.4931,-1.41813 6.9861,-2.85116 10.21051,-4.07523 3.2244,-1.22408 6.18001,-2.23913 8.58338,-3.0303 2.40337,-0.79117 4.25436,-1.35841 6.41892,-1.82116 2.16456,-0.46275 4.6425,-0.82101 7.03095,-1.0897 2.38845,-0.26869 4.68726,-0.44782 6.07554,-0.53737 1.38828,-0.0896 1.86596,-0.0896 2.38835,0.89584 0.52238,0.9854 1.08962,2.95581 1.5076,4.40379 0.41797,1.44799 0.68666,2.37349 0.7314,2.92566 0.0447,0.55216 -0.13439,0.73129 -0.91051,0.80592 -0.77611,0.0746 -2.14942,0.0448 -3.91092,0.13432 -1.7615,0.0896 -3.91104,0.29854 -6.01586,0.55231 -2.10482,0.25376 -4.16479,0.55231 -6.00093,0.94042 -1.83614,0.38811 -3.4483,0.86579 -4.97853,1.36647 -1.53024,0.50068 -2.97843,1.02433 -5.09591,1.86673 -2.11747,0.8424 -4.90404,2.00347 -7.35293,3.05902 -2.44888,1.05555 -4.55992,2.00552 -7.31492,3.24052 -2.755,1.235 -6.15378,2.75495 -9.55265,4.20106 -3.39888,1.44611 -6.79766,2.81828 -10.15431,4.05328 -3.35664,1.23499 -6.67097,2.33273 -9.86929,3.28273 -3.19831,0.95 -6.28043,1.7522 -9.15152,2.39609 -2.87109,0.64389 -5.531,1.12943 -8.72931,1.425 -3.19831,0.29557 -6.93486,0.40112 -10.88262,0.36946 -3.94776,-0.0317 -8.10651,-0.20054 -12.84594,-0.55942 -4.73944,-0.35888 -10.05927,-0.90775 -14.81979,-1.58329 -4.76053,-0.67554 -8.96151,-1.47774 -13.07816,-2.27996 -4.11665,-0.80222 -8.14875,-1.60442 -12.28653,-2.10055 -4.13778,-0.49613 -8.38098,-0.68612 -12.38153,-0.77058 -4.00054,-0.0845 -7.7582,-0.0633 -11.61098,0.095 -3.85278,0.15832 -7.80042,0.45387 -11.50545,0.99219 -3.70502,0.53832 -7.16712,1.31941 -10.61878,2.14274 -3.45167,0.82333 -6.89266,1.68885 -10.02769,2.77607 -3.13503,1.08722 -5.96382,2.39607 -8.50772,3.77884 -2.5439,1.38278 -4.80272,2.83941 -6.58661,4.06385 -1.78389,1.22444 -3.09274,2.21663 -3.75774,2.59678 -0.665,0.38016 -0.6861,0.14794 -0.69667,-1.2243 -0.0106,-1.37224 -0.0106,-3.88438 0.12665,-6.88217 0.13721,-2.99778 0.41164,-6.481 0.66496,-9.00377 0.25333,-2.52277 0.48555,-4.08494 0.68303,-5.19629 0.19748,-1.11134 0.36022,-1.77175 0.44162,-2.10205 0.0814,-0.33031 0.0814,-0.33028 0.49939,-0.61393 z"
         id="path7024" /><path
         style="fill:#ea3037;fill-opacity:1;stroke-width:0"
         d="m -349.92284,-101.02598 c 0.36947,-0.2639 1.10835,-0.79167 2.58616,-1.6889 1.4778,-0.89723 3.6944,-2.16386 5.82661,-3.35664 2.13222,-1.19277 4.17994,-2.31163 6.30161,-3.3144 2.12168,-1.00277 4.31716,-1.88941 6.69219,-2.67051 2.37503,-0.78111 4.92938,-1.45664 7.81105,-2.14275 2.88167,-0.68611 6.09046,-1.38275 9.18325,-1.89997 3.09279,-0.51721 6.06935,-0.85497 8.70823,-1.06607 2.63889,-0.2111 4.93994,-0.29555 7.18827,-0.33776 2.24833,-0.0422 4.44382,-0.0422 6.69214,-0.0106 2.24833,0.0317 4.54939,0.095 7.47328,0.34835 2.9239,0.25335 6.47045,0.69667 9.3521,1.07667 2.88166,0.38 5.09824,0.69666 8.01158,1.21389 2.91334,0.51724 6.52322,1.23499 9.7321,1.79442 3.20887,0.55944 6.01655,0.96054 9.33099,1.35108 3.31444,0.39055 7.13542,0.77054 10.23874,1.04497 3.10332,0.27444 5.4888,0.44332 8.25434,0.52776 2.76554,0.0844 5.911,0.0844 9.14098,-0.0422 3.22998,-0.12667 6.54432,-0.38 10.04874,-0.85501 3.50441,-0.47501 7.19874,-1.17165 10.17537,-1.85777 2.97664,-0.68611 5.23546,-1.36165 7.5471,-2.14276 2.31165,-0.78111 4.67602,-1.66775 7.32546,-2.70219 2.64943,-1.03445 5.58378,-2.21663 8.98266,-3.62052 3.39889,-1.40389 7.2621,-3.02939 10.61874,-4.47549 3.35665,-1.44611 6.20656,-2.71273 8.52877,-3.73662 2.32221,-1.02388 4.1166,-1.80497 5.97439,-2.5333 1.85779,-0.72833 3.77884,-1.40387 6.13275,-2.02664 2.35391,-0.62277 5.14049,-1.19275 8.40217,-1.57273 3.26169,-0.37998 6.99824,-0.56998 9.22545,-0.63329 2.22722,-0.0633 2.94498,2e-5 3.35656,0.16906 0.41158,0.16903 0.51713,0.44346 0.72822,1.1718 0.2111,0.72834 0.52775,1.91052 0.8233,3.03996 0.29556,1.12944 0.57,2.20608 0.7283,2.97661 0.15831,0.77054 0.20053,1.23496 -0.0738,1.50925 -0.27435,0.27428 -0.86544,0.35872 -2.12155,0.51706 -1.25612,0.15834 -3.17716,0.39055 -4.93486,0.57277 -1.75769,0.18221 -3.35194,0.31441 -4.71637,0.50365 -1.36443,0.18925 -2.4989,0.43555 -3.7118,0.76769 -1.2129,0.33214 -2.50411,0.7501 -3.79165,1.24271 -1.28754,0.49262 -2.57129,1.05986 -3.90361,1.69056 -1.33231,0.6307 -2.71309,1.32482 -3.9372,2.07868 -1.2241,0.75387 -2.2914,1.5674 -3.65684,2.57568 -1.36543,1.00828 -3.02891,2.21123 -4.85288,3.43549 -1.82397,1.22427 -3.80835,2.46978 -5.88779,3.747 -2.07944,1.27722 -4.25381,2.58607 -5.96379,3.56773 -1.70998,0.98166 -2.95549,1.63608 -4.50715,2.35385 -1.55165,0.71778 -3.40936,1.49886 -4.92933,2.04775 -1.51997,0.54889 -2.70215,0.86555 -4.96102,1.22445 -2.25888,0.3589 -5.59432,0.76 -9.17264,1.08722 -3.57832,0.327226 -7.39931,0.58055 -11.39984,0.686112 -4.00054,0.105563 -8.18041,0.06334 -12.32872,-0.126648 -4.14831,-0.18999 -8.26485,-0.527754 -11.77982,-0.907744 -3.51498,-0.37999 -6.42822,-0.8022 -10.0171,-1.46719 -3.58889,-0.66499 -7.85319,-1.57274 -11.41039,-2.42772 -3.55721,-0.85499 -6.40711,-1.65719 -9.10933,-2.34331 -2.70222,-0.68612 -5.25658,-1.2561 -7.97992,-1.68889 -2.72335,-0.4328 -5.61546,-0.72834 -8.58158,-0.89724 -2.96612,-0.1689 -6.00602,-0.21112 -9.34157,-0.15835 -3.33556,0.0528 -6.96655,0.20054 -9.94321,0.32721 -2.97665,0.12666 -5.29879,0.23222 -7.51548,0.46443 -2.21668,0.23221 -4.32771,0.59109 -6.3016,0.93942 -1.97388,0.34833 -3.81049,0.6861 -5.98495,1.25609 -2.17446,0.56999 -4.68663,1.37219 -7.35718,2.23775 -2.67054,0.86555 -5.49933,1.79441 -8.3599,2.84997 -2.86057,1.05555 -5.75268,2.237728 -7.96934,3.177165 -2.21666,0.939437 -3.75772,1.636085 -5.34109,2.533316 -1.58336,0.897231 -3.20886,1.994967 -4.55996,2.860516 -1.35109,0.865549 -2.42773,1.498865 -3.061,1.836639 -0.63326,0.337774 -0.82326,0.379995 -1.02388,-0.137056 -0.20062,-0.517052 -0.41173,-1.593685 -0.59119,-2.976472 -0.17947,-1.382787 -0.32724,-3.071619 -0.3906,-4.243295 -0.0634,-1.171676 -0.0423,-1.826103 -0.0317,-2.153443 0.0105,-0.32735 0.0106,-0.32735 0.38005,-0.59125 z"
         id="path7097" /><path
         style="fill:#de7d43;fill-opacity:1;stroke-width:0"
         d="m -118.37905,-123.94163 c 0.11614,0.57014 0.34836,1.71013 0.57001,3.21957 0.22166,1.50944 0.43276,3.38826 0.64387,5.35158 0.21111,1.96333 0.42221,4.01104 0.55942,6.09048 0.13721,2.07943 0.20054,4.19047 0.26388,6.00602 0.0633,1.81555 0.12667,3.335503 0.14777,4.190471 0.0211,0.854967 -10e-6,1.044973 -1.07663,1.804834 -1.07661,0.759861 -3.20876,2.089818 -6.03697,3.81368 -2.82821,1.723863 -6.35229,3.841519 -9.35336,5.467627 -3.00108,1.626108 -5.47901,2.760583 -8.166,3.895094 -2.68699,1.13451 -5.58289,2.268989 -8.88191,3.313935 -3.29902,1.044946 -7.001,2.000296 -10.25523,2.701905 -3.25424,0.701609 -6.06057,1.149427 -9.04611,1.492773 -2.98555,0.343346 -6.15014,0.582183 -9.43424,0.71654 -3.2841,0.134358 -6.68753,0.164214 -10.64338,-0.134322 -3.95585,-0.298537 -8.46391,-0.925485 -11.539,-1.522561 -3.0751,-0.597076 -4.71711,-1.164316 -6.92642,-1.851003 -2.20932,-0.686688 -4.9858,-1.492764 -7.38916,-2.41825 -2.40337,-0.925487 -4.43349,-1.970401 -6.38902,-2.925784 -1.95554,-0.955384 -3.83639,-1.821172 -6.10541,-2.866118 -2.26902,-1.044946 -4.92609,-2.268986 -8.25498,-3.746842 -3.3289,-1.477856 -7.32943,-3.209424 -10.55382,-4.627557 -3.2244,-1.418134 -5.67248,-2.522756 -8.04599,-3.463222 -2.37352,-0.94047 -4.67233,-1.71669 -6.62787,-2.20933 -1.95555,-0.49265 -3.5677,-0.70163 -5.31425,-0.98525 -1.74654,-0.28362 -3.62739,-0.64188 -6.22486,-0.70163 -2.59747,-0.0597 -5.91132,0.17909 -9.28501,0.55228 -3.37368,0.37319 -6.80697,0.88072 -10.22545,1.47783 -3.41848,0.59711 -6.82189,1.28376 -9.61341,2.045076 -2.79152,0.761312 -4.97092,1.597244 -7.89677,2.82132 -2.92585,1.224076 -6.59798,2.836229 -9.55372,4.448443 -2.95573,1.612213 -5.19482,3.224363 -7.70269,5.000767 -2.50786,1.776405 -5.28434,3.716956 -7.74746,5.851656 -2.46311,2.1347 -4.61265,4.463356 -6.19499,6.180045 -1.58233,1.716689 -2.59739,2.82131 -3.22434,3.478117 -0.62695,0.656807 -0.86579,0.865788 -1.14934,0.671887 -0.28355,-0.193901 -0.61194,-0.790993 -1.01504,-2.01508 -0.4031,-1.224087 -0.88077,-3.075076 -1.35848,-5.224681 -0.4777,-2.149606 -0.95537,-4.597681 -1.25393,-6.165091 -0.29856,-1.56741 -0.41797,-2.254071 -0.46278,-2.881061 -0.0448,-0.62699 -0.0149,-1.194229 0.22396,-1.612354 0.23889,-0.418126 0.68673,-0.686828 1.50774,-1.269003 0.821,-0.582176 2.01518,-1.477806 3.89612,-2.627257 1.88093,-1.149451 4.44842,-2.552614 6.92646,-3.776698 2.47804,-1.224083 4.8664,-2.268992 7.62805,-3.388578 2.76166,-1.119588 5.89639,-2.313768 8.98645,-3.328858 3.09006,-1.01508 6.13525,-1.85102 9.1656,-2.58247 3.03035,-0.73146 6.04565,-1.3584 8.62817,-1.80622 2.58251,-0.44783 4.73204,-0.71652 6.94137,-0.88071 2.20932,-0.1642 4.47828,-0.22391 6.71745,-0.29855 2.23917,-0.0746 4.44841,-0.1642 6.58309,-0.19405 2.13468,-0.0298 4.19464,3e-5 6.4786,0.11946 2.28396,0.11944 4.79176,0.32842 6.97122,0.53742 2.17946,0.20899 4.03044,0.41797 5.568,0.65684 1.53756,0.23886 2.7616,0.50755 4.17975,0.86583 1.41814,0.35827 3.0303,0.80609 4.71713,1.29871 1.68684,0.49262 3.44827,1.03001 5.40381,1.55247 1.95553,0.52246 4.10507,1.02999 6.91149,1.61216 2.80643,0.58218 6.26957,1.23898 9.32976,1.74652 3.06018,0.507532 5.71724,0.865788 8.79236,1.179263 3.07512,0.313474 6.56811,0.582166 10.40454,0.716504 3.83644,0.134338 8.01609,0.134338 11.35989,0.05969 3.3438,-0.07465 5.85159,-0.22392 8.56845,-0.432914 2.71685,-0.208993 5.6426,-0.477685 7.97133,-0.716533 2.32872,-0.238848 4.06029,-0.44783 6.09044,-0.92553 2.03015,-0.47771 4.35881,-1.22407 7.20999,-2.46308 2.85118,-1.23902 6.22475,-2.97059 9.03114,-4.5977 2.80639,-1.62712 5.04549,-3.14971 7.15031,-4.61263 2.10481,-1.46292 4.07522,-2.86609 6.15018,-4.28423 2.07497,-1.41814 4.25436,-2.85116 6.46371,-4.0006 2.20935,-1.14944 4.44845,-2.01523 6.70256,-2.73176 2.25412,-0.71653 4.52307,-1.28377 7.1504,-1.65694 2.62732,-0.37318 5.61278,-0.5523 7.47883,-0.45029 1.86604,0.10202 2.6125,0.485 2.98558,0.67641 0.37308,0.19141 0.373,0.19138 0.48914,0.76153 z"
         id="path7101" /><path
         style="fill:#f7a76a;fill-opacity:1;stroke-width:0"
         d="m -261.922,-99.854217 c 0.35891,0.464533 1.87889,1.393411 4.09556,2.765638 2.21666,1.372226 5.1299,3.187724 7.57878,4.749942 2.44887,1.562219 4.43326,2.871071 6.37548,4.095502 1.94222,1.224432 3.84216,2.364395 6.29104,3.863287 2.44889,1.498892 5.44657,3.356605 8.31767,4.961026 2.87111,1.604421 5.61546,2.955487 8.65546,4.243243 3.04,1.287756 6.37544,2.512158 9.66877,3.546581 3.29332,1.034422 6.54433,1.87884 11.04097,2.427689 4.49665,0.54885 10.23869,0.802175 15.36865,0.717711 5.12996,-0.08446 9.64759,-0.506673 14.0809,-1.118904 4.43331,-0.612231 8.78205,-1.414426 12.22314,-2.111094 3.44109,-0.696667 5.97434,-1.287759 9.11988,-2.216653 3.14553,-0.928895 6.90319,-2.195522 10.32315,-3.652186 3.41995,-1.456663 6.50207,-3.103275 8.8032,-4.201047 2.30112,-1.097771 3.82107,-1.646642 5.59443,-2.153302 1.77335,-0.50666 3.79995,-0.971088 4.93982,-1.414359 1.13987,-0.443271 1.39319,-0.865482 1.60431,-1.625413 0.21112,-0.759932 0.38,-1.857671 0.52778,-2.870998 0.14778,-1.013328 0.27444,-1.942188 0.35889,-2.596625 0.0845,-0.654437 0.12666,-1.034421 0.0635,-1.266679 -0.0632,-0.232258 -0.23205,-0.316698 -1.77329,0.506539 -1.54124,0.823238 -4.45447,2.554293 -7.47334,4.137616 -3.01886,1.583323 -6.14321,3.018834 -9.37318,4.36994 -3.22998,1.351105 -6.56543,2.617733 -10.89319,4.032177 -4.32776,1.414444 -9.64759,2.976616 -14.48199,4.011064 -4.83439,1.034448 -9.18314,1.541099 -13.63756,1.731112 -4.45441,0.190014 -9.01426,0.06335 -12.68757,-0.08442 -3.67331,-0.147773 -6.45989,-0.316657 -9.81654,-0.86552 -3.35665,-0.548863 -7.28319,-1.477722 -11.39985,-2.765475 -4.11665,-1.287752 -8.42318,-2.934366 -12.56094,-4.707681 -4.13777,-1.773314 -8.10653,-3.673252 -12.26541,-5.615474 -4.15888,-1.942221 -8.50763,-3.926603 -12.49761,-5.699933 -3.98999,-1.77333 -7.62098,-3.335504 -10.04875,-4.24331 -2.42777,-0.907806 -3.65217,-1.161127 -4.66552,-1.287827 -1.01335,-0.1267 -1.81554,-0.1267 -1.45664,0.337834 z"
         id="path7105" /><path
         style="fill:#ea3037;fill-opacity:1;stroke-width:0"
         d="m -118.9324,-81.518743 c -0.11169,0.938875 -0.21725,1.994416 -0.72393,4.274397 -0.50668,2.279981 -1.41443,5.784311 -1.98443,7.874278 -0.57,2.089966 -0.80221,2.765498 -0.9711,3.229927 -0.16889,0.46443 -0.27444,0.717754 -0.53819,0.876005 -0.26375,0.15825 -0.68596,0.221582 -1.75209,0.443244 -1.06613,0.221663 -2.77607,0.60165 -4.54941,1.066091 -1.77334,0.46444 -3.60995,1.013311 -5.58386,1.709975 -1.9739,0.696664 -4.08494,1.541081 -5.88992,2.2483 -1.80499,0.707219 -3.30384,1.277204 -5.05606,1.910537 -1.75221,0.633332 -3.7577,1.329976 -5.73158,1.984417 -1.97387,0.654442 -3.91603,1.266645 -5.94268,1.836646 -2.02666,0.570002 -4.1377,1.097763 -6.95602,1.646657 -2.81832,0.548895 -6.34376,1.118876 -9.4154,1.488326 -3.07164,0.369451 -5.68933,0.538333 -8.29653,0.570012 -2.6072,0.03168 -5.20378,-0.07387 -7.70543,-0.348296 -2.50164,-0.274423 -4.90823,-0.717742 -7.86378,-1.393286 -2.95555,-0.675544 -6.45988,-1.583292 -9.60542,-2.554383 -3.14555,-0.971091 -5.93212,-2.005503 -8.53934,-2.786634 -2.60722,-0.781131 -5.03492,-1.308892 -7.4838,-1.815561 -2.44889,-0.506669 -4.91881,-0.992209 -7.51549,-1.203349 -2.59669,-0.21114 -5.31993,-0.147809 -8.84549,-0.02114 -3.52556,0.126664 -7.85319,0.316657 -11.51599,0.77053 -3.66279,0.453874 -6.66047,1.171629 -9.64766,1.636083 -2.98719,0.464455 -5.96376,0.675559 -8.81374,0.812786 -2.84999,0.137227 -5.57324,0.200559 -8.14876,0.08447 -2.57553,-0.116091 -5.00324,-0.411639 -7.69489,-0.876069 -2.69166,-0.46443 -5.64711,-1.097741 -8.56043,-1.826061 -2.91332,-0.72832 -5.78434,-1.551628 -8.41266,-2.237744 -2.62833,-0.686117 -5.01381,-1.234989 -7.48381,-1.741664 -2.47001,-0.506675 -5.02435,-0.971101 -7.3466,-1.140021 -2.32225,-0.168921 -4.41217,-0.04226 -6.37552,0.200505 -1.96335,0.242765 -3.79995,0.601642 -5.45721,1.097746 -1.65726,0.496105 -3.135,1.129424 -4.38058,1.804981 -1.24558,0.675557 -2.25889,1.393317 -3.12447,2.142785 -0.86559,0.749469 -1.58334,1.530556 -2.12164,2.058308 -0.53831,0.527751 -0.89718,0.80219 -1.15043,0.834016 -0.25325,0.03183 -0.40102,-0.179274 -0.78106,-1.013157 -0.38004,-0.833882 -0.99224,-2.290508 -1.50948,-3.810508 -0.51725,-1.519999 -0.93946,-3.103277 -1.27724,-4.317158 -0.33777,-1.213881 -0.59109,-2.058295 -0.51727,-2.807858 0.0738,-0.749564 0.47493,-1.403991 1.95274,-2.881819 1.47782,-1.477828 4.03217,-3.778855 6.02093,-5.611196 1.98876,-1.832341 3.4118,-3.195884 4.64583,-4.325514 1.23402,-1.12963 2.27894,-2.02527 3.83145,-3.189649 1.55251,-1.164379 3.61248,-2.597403 6.25472,-4.239466 2.64223,-1.642064 5.86652,-3.493048 8.89689,-4.95597 3.03037,-1.462923 5.86657,-2.537692 9.07606,-3.537849 3.2095,-1.000157 6.79207,-1.925656 9.97168,-2.672037 3.17961,-0.74638 5.9561,-1.31362 8.25499,-1.67187 2.29889,-0.35826 4.12002,-0.50753 6.53833,-0.58215 2.41832,-0.0746 5.43364,-0.0746 8.06094,0.11946 2.62731,0.19409 4.8664,0.58219 6.43379,1.25406 1.56739,0.67186 2.46304,1.627209 3.717,2.597472 1.25397,0.970263 2.86612,1.955466 4.46338,3.000421 1.59727,1.044955 3.17957,2.149578 5.22468,3.508002 2.04511,1.358424 4.5529,2.970576 6.94134,4.463346 2.38845,1.492769 4.6574,2.866086 7.53847,4.58278 2.88107,1.716695 6.37406,3.776664 9.83731,5.672479 3.46324,1.895814 6.89652,3.627382 10.65833,5.060409 3.7618,1.433028 7.85188,2.567502 12.12121,3.358642 4.26933,0.79114 8.71768,1.238961 12.34511,1.418073 3.62742,0.179112 6.43375,0.08955 8.74754,-0.07467 2.31378,-0.164217 4.13492,-0.403055 7.00107,-0.731465 2.86614,-0.328409 6.7771,-0.746374 10.92701,-1.403206 4.14991,-0.656833 8.53854,-1.552471 12.49437,-2.597422 3.95583,-1.044951 7.47868,-2.239138 10.92699,-3.493072 3.44831,-1.253934 6.82189,-2.56754 9.47902,-3.612481 2.65713,-1.044941 4.59768,-1.821161 6.23973,-2.477981 1.64205,-0.656821 2.98552,-1.194209 4.10514,-1.552466 1.11961,-0.358257 2.01525,-0.537385 2.40405,-0.215713 0.38879,0.321671 0.27097,1.14385 0.15929,2.082725 z"
         id="path7167" /><path
         style="fill:#b51217;fill-opacity:1;stroke-width:0"
         d="m -308.52432,-71.692126 c 0.36948,0.612205 0.96059,1.477751 2.02674,2.543826 1.06616,1.066075 2.60722,2.332702 4.16945,3.324875 1.56223,0.992173 3.1455,1.709924 4.84495,2.332674 1.69944,0.62275 3.51493,1.150508 5.27767,1.37212 1.76275,0.221613 3.4727,0.137171 5.20376,-0.200632 1.73107,-0.337802 3.48322,-0.928889 4.6759,-1.657173 1.19267,-0.728284 1.82598,-1.593805 2.07934,-2.596462 0.25337,-1.002658 0.12671,-2.142622 -0.44317,-3.177079 -0.56988,-1.034457 -1.58318,-1.963317 -3.19816,-2.807831 -1.61499,-0.844515 -3.83159,-1.60449 -6.63937,-2.258961 -2.80778,-0.654471 -6.20656,-1.203342 -8.80323,-1.509471 -2.59667,-0.306129 -4.39105,-0.36946 -5.73168,-0.190046 -1.34063,0.179413 -2.22726,0.601615 -2.83957,1.224488 -0.61231,0.622873 -0.95008,1.44618 -1.04498,2.037386 -0.0949,0.591205 0.0529,0.950081 0.42235,1.562286 z"
         id="path7310" /><path
         style="fill:#ee5b60;fill-opacity:1;stroke-width:0"
         d="m -285.44506,-69.549557 c -0.005,0.211237 -0.0159,0.633454 -0.14783,1.177008 -0.13197,0.543555 -0.38529,1.20853 -0.90769,1.688705 -0.5224,0.480176 -1.31406,0.775729 -2.3062,0.849657 -0.99214,0.07393 -2.18488,-0.07384 -3.49903,-0.34826 -1.31414,-0.274416 -2.74967,-0.675521 -3.8105,-1.10296 -1.06082,-0.42744 -1.74691,-0.881314 -2.31693,-1.319344 -0.57002,-0.438031 -1.02389,-0.860238 -1.4461,-1.224414 -0.42221,-0.364177 -0.81276,-0.67028 -1.09775,-0.870864 -0.28498,-0.200584 -0.46442,-0.295582 -0.57016,-0.306159 -0.10574,-0.01058 -0.13741,0.06332 -0.0581,0.179483 0.0793,0.11616 0.26933,0.274488 0.77599,0.712548 0.50666,0.43806 1.32997,1.155817 1.98442,1.694138 0.65445,0.538321 1.13999,0.897199 1.81027,1.314115 0.67027,0.416915 1.52525,0.891901 2.70747,1.250726 1.18221,0.358826 2.6916,0.601596 3.8791,0.754637 1.1875,0.153042 2.053,0.216371 2.89736,0.05272 0.84436,-0.163647 1.66767,-0.554192 2.30092,-1.066084 0.63326,-0.511892 1.07658,-1.145215 1.28244,-1.625368 0.20586,-0.480153 0.1742,-0.807356 -0.0263,-1.208471 -0.20046,-0.401114 -0.56989,-0.876085 -0.84957,-1.161153 -0.27968,-0.285068 -0.46968,-0.380068 -0.60703,-0.401276 -0.13735,-0.02121 -0.22177,0.03156 -0.21117,0.168963 0.0106,0.137401 0.11615,0.359068 0.16885,0.46974 0.0527,0.110672 0.0528,0.110672 0.0475,0.32191 z"
         id="path7384" /><path
         style="fill:#f7a76a;fill-opacity:1;stroke-width:0"
         d="m -125.21293,-60.42693 c 0.0895,-0.328318 0.26867,-0.985133 0.4478,-1.612104 0.17914,-0.626971 0.35827,-1.224064 0.40314,-1.627037 0.0449,-0.402972 -0.0447,-0.611958 -0.67168,-0.388221 -0.627,0.223736 -1.79134,0.880544 -3.73192,1.701569 -1.94059,0.821024 -4.65736,1.806226 -7.22495,2.821316 -2.56759,1.015089 -4.98581,2.06 -8.19526,3.149732 -3.20946,1.089731 -7.20998,2.224208 -11.80773,3.313939 -4.59774,1.089732 -9.79245,2.134644 -13.94234,2.776545 -4.14989,0.641901 -7.25478,0.880738 -11.04642,0.850899 -3.79164,-0.02984 -8.26984,-0.328386 -12.3451,-0.940398 -4.07526,-0.612011 -7.74738,-1.537505 -11.65846,-2.597373 -3.91108,-1.059868 -8.06088,-2.254055 -11.27034,-3.179573 -3.20946,-0.925518 -5.47842,-1.582322 -7.70266,-2.119736 -2.22424,-0.537415 -4.40363,-0.955379 -6.97123,-1.209175 -2.56759,-0.253795 -5.5232,-0.343359 -8.40428,-0.223953 -2.88108,0.119407 -5.68742,0.447808 -8.88197,0.83593 -3.19455,0.388122 -6.77711,0.835942 -10.07614,1.224065 -3.29903,0.388123 -6.31436,0.716525 -9.10584,0.955373 -2.79148,0.238848 -5.35897,0.388121 -8.21016,0.343355 -2.8512,-0.04477 -5.98593,-0.283603 -8.43407,-0.567214 -2.44814,-0.283611 -4.20955,-0.612011 -5.76206,-0.821019 -1.55251,-0.209009 -2.89595,-0.298571 -3.34376,-0.238791 -0.44781,0.05978 0,0.268757 0.94047,0.671804 0.94046,0.403047 2.37347,1.000131 3.79161,1.522588 1.41814,0.522458 2.8213,0.970276 4.50814,1.433024 1.68684,0.462749 3.65724,0.940421 5.25449,1.194159 1.59726,0.253737 2.82131,0.283593 4.26929,0.223868 1.44797,-0.05973 3.11982,-0.208997 4.80665,-0.417993 1.68683,-0.208997 3.38855,-0.47769 5.16496,-0.71653 1.77641,-0.238839 3.6274,-0.447822 5.43366,-0.641881 1.80626,-0.19406 3.56769,-0.373189 5.09032,-0.522465 1.52263,-0.149276 2.80638,-0.268695 4.52311,-0.134304 1.71673,0.134391 3.86627,0.522503 5.59789,0.850917 1.73162,0.328415 3.04522,0.597106 4.83656,1.074812 1.79134,0.477707 4.0603,1.164365 5.89641,1.836141 1.83611,0.671775 3.23928,1.328578 5.50831,2.194371 2.26903,0.865793 5.40377,1.940561 8.28483,2.851143 2.88105,0.910582 5.50826,1.656948 7.89669,2.209254 2.38844,0.552306 4.53798,0.910563 7.23988,0.985166 2.7019,0.0746 5.95606,-0.134379 8.91175,-0.373228 2.95569,-0.238848 5.61276,-0.507541 8.58338,-0.89567 2.97062,-0.388128 6.25463,-0.895656 9.56859,-1.522629 3.31395,-0.626973 6.65767,-1.373339 9.58351,-2.060018 2.92583,-0.686679 5.43362,-1.313626 8.67295,-2.164512 3.23933,-0.850887 7.21,-1.925654 10.7628,-2.985528 3.55279,-1.059874 6.68753,-2.104788 9.21032,-2.910884 2.5228,-0.806095 4.4335,-1.373333 6.32933,-1.895802 1.89583,-0.522469 3.77667,-1.000143 4.97088,-1.313626 1.19421,-0.313483 1.70174,-0.462756 1.95542,-0.53737 0.25369,-0.07461 0.25369,-0.07462 0.34323,-0.402936 z"
         id="path7389" /><path
         style="fill:#de7d43;fill-opacity:1;stroke-width:0"
         d="m -126.42953,-57.359341 c -0.36576,0.724042 -1.09721,2.172021 -2.25411,4.2843 -1.15691,2.112279 -2.7392,4.888759 -3.94835,6.918917 -1.20914,2.030158 -2.04507,3.313907 -2.92581,4.732054 -0.88074,1.418148 -1.80624,2.970594 -2.33616,3.836379 -0.52993,0.865785 -0.66427,1.044913 -1.3359,1.209083 -0.67163,0.16417 -1.88074,0.313443 -4.20949,0.73888 -2.32876,0.425438 -5.77697,1.127021 -9.06107,1.716671 -3.28411,0.58965 -6.40392,1.067324 -10.54637,1.462919 -4.14245,0.395594 -9.30731,0.709069 -13.99461,0.798645 -4.6873,0.08958 -8.8968,-0.04477 -13.47217,-0.253757 -4.57537,-0.208986 -9.51631,-0.492605 -14.7261,-0.835942 -5.20979,-0.343337 -10.68812,-0.746375 -16.76373,-1.298699 -6.07561,-0.552324 -12.74812,-1.253908 -18.01013,-2.022671 -5.26202,-0.768762 -9.11327,-1.604692 -13.8006,-2.694417 -4.68732,-1.089725 -10.21043,-2.433185 -15.59937,-3.433363 -5.38893,-1.000177 -10.64335,-1.65698 -15.33814,-2.082431 -4.69479,-0.425451 -8.82967,-0.619506 -12.79299,-0.619517 -3.96332,-1.1e-5 -7.75488,0.194045 -10.88971,0.365713 -3.13483,0.171667 -5.61276,0.32094 -7.81467,0.8434 -2.20191,0.52246 -4.12753,1.418093 -6.08307,2.3884 -1.95555,0.970306 -3.94089,2.015227 -5.09779,2.634726 -1.1569,0.619499 -1.4853,0.813552 -1.7912,0.850959 -0.3059,0.03741 -0.58953,-0.08202 -1.55245,-1.626964 -0.96291,-1.544948 -2.60492,-4.515487 -4.00813,-7.060664 -1.4032,-2.545177 -2.56753,-4.664857 -3.32139,-6.045668 -0.75385,-1.380811 -1.09718,-2.022685 -1.24656,-2.433268 -0.14939,-0.410583 -0.10461,-0.589692 0.55972,-1.283941 0.66432,-0.694249 1.94806,-1.903354 3.51552,-2.993103 1.56747,-1.089749 3.41846,-2.06003 5.33672,-2.798949 1.91826,-0.73892 3.90359,-1.246449 5.94127,-1.574845 2.03768,-0.328395 4.12749,-0.477667 6.22487,-0.358207 2.09738,0.119461 4.20214,0.507574 7.50119,1.37341 3.29906,0.865836 7.79219,2.209296 10.8673,3.23933 3.07511,1.030034 4.73204,1.746542 6.33677,2.410822 1.60474,0.664279 3.15718,1.276303 4.98583,1.918184 1.82865,0.641881 3.93342,1.313615 5.74713,1.783812 1.81371,0.470198 3.33631,0.738892 5.47842,0.858283 2.14212,0.119392 4.90368,0.08954 7.44138,-0.119467 2.5377,-0.209007 4.85142,-0.597115 7.29959,-0.932985 2.44817,-0.33587 5.03059,-0.619489 7.11302,-0.791149 2.08243,-0.171661 3.66473,-0.23137 5.50833,-0.08953 1.84361,0.141845 3.94836,0.485173 6.2771,0.992736 2.32875,0.507564 4.88132,1.179292 7.29215,1.925697 2.41083,0.746405 4.67979,1.567411 6.69504,2.306337 2.01524,0.738925 3.77667,1.395729 5.5904,2.1272 1.81372,0.731471 3.67963,1.537544 5.9188,2.164465 2.23916,0.626922 4.85144,1.074742 7.7922,1.403135 2.94077,0.328393 6.20986,0.537377 9.78505,0.544823 3.57519,0.0074 7.45629,-0.186609 10.76277,-0.49264 3.30647,-0.306031 6.03817,-0.723997 8.87445,-1.209153 2.83627,-0.485157 5.77695,-1.037467 8.08329,-1.462906 2.30634,-0.42544 3.9782,-0.723986 6.44127,-1.336034 2.46307,-0.612047 5.71723,-1.537542 9.591,-2.642199 3.87376,-1.104658 8.36688,-2.388407 12.05402,-3.522918 3.68714,-1.134511 6.56812,-2.119716 9.32231,-2.948202 2.75418,-0.828485 5.38139,-1.500214 6.88911,-1.858468 1.50772,-0.358253 1.89583,-0.403036 2.05242,-0.305903 0.1566,0.09713 0.082,0.335961 0.0447,0.455299 -0.0373,0.119338 -0.0373,0.119334 -0.40304,0.843376 z"
         id="path7531" /><path
         style="fill:#ea3037;fill-opacity:1;stroke-width:0"
         d="m -141.35714,-32.370534 c -0.47024,0.589658 -1.41068,1.768941 -2.06749,2.567563 -0.65681,0.798622 -1.03,1.216591 -1.70162,1.470341 -0.67163,0.253751 -1.64191,0.343315 -3.73926,0.455279 -2.09736,0.111965 -5.32166,0.24631 -8.69534,0.388124 -3.37367,0.141813 -6.89652,0.291086 -10.84492,0.395583 -3.94839,0.104498 -8.3221,0.164207 -12.48694,0.149283 -4.16484,-0.01492 -8.12058,-0.104488 -12.59146,-0.179128 -4.47088,-0.07464 -9.45661,-0.134349 -13.60652,-0.149278 -4.14991,-0.01493 -7.46378,0.01493 -9.7776,0.119409 -2.31381,0.104482 -3.62741,0.283609 -5.66505,0.46275 -2.03764,0.179141 -4.79919,0.358268 -8.03106,0.597112 -3.23187,0.238843 -6.93385,0.53739 -9.88953,0.671748 -2.95568,0.134359 -5.16492,0.104503 -7.01596,0.07465 -1.85103,-0.02986 -3.34376,-0.05971 -5.28436,-0.537348 -1.94059,-0.477636 -4.32896,-1.403129 -7.40409,-2.65706 -3.07512,-1.253931 -6.83682,-2.836234 -10.46426,-4.403642 -3.62744,-1.567408 -7.12044,-3.119855 -10.10588,-4.360867 -2.98544,-1.241013 -5.46316,-2.170511 -8.23262,-2.962524 -2.76947,-0.792013 -5.83046,-1.446432 -9.08159,-1.763129 -3.25113,-0.316697 -6.69214,-0.295588 -9.58438,-0.02116 -2.89223,0.274423 -5.23549,0.802186 -7.4416,1.361627 -2.20612,0.559441 -4.27495,1.150535 -5.92164,1.7522 -1.6467,0.601665 -2.87109,1.21386 -3.92663,1.709969 -1.05555,0.496108 -1.9422,0.876101 -2.50154,0.981786 -0.55935,0.105685 -0.79157,-0.0632 -0.96051,-0.242598 -0.16895,-0.179394 -0.2745,-0.369381 0.27433,-0.855119 0.54884,-0.485738 1.75214,-1.266829 3.01883,-1.942387 1.2667,-0.675558 2.59666,-1.245538 4.41223,-1.847196 1.81557,-0.601658 4.11662,-1.234975 6.56553,-1.709961 2.4489,-0.474987 5.04549,-0.791644 7.56827,-0.992188 2.52278,-0.200544 4.9716,-0.284986 7.99049,-0.284977 3.01889,8e-6 6.60768,0.08445 9.98544,0.285017 3.37777,0.200567 6.54433,0.517222 9.53156,0.918345 2.98722,0.401122 5.79492,0.886665 8.60269,1.446119 2.80778,0.559454 5.61545,1.192762 9.47879,2.047761 3.86333,0.854999 8.78206,1.931631 13.10982,2.765506 4.32775,0.833874 8.0643,1.424966 11.61095,1.899956 3.54665,0.474989 6.90322,0.833866 10.60821,1.234977 3.705,0.401111 7.7582,0.84443 12.14929,1.203309 4.39109,0.358879 9.11983,0.633314 14.85149,0.865531 5.73166,0.232218 12.46589,0.422212 17.69085,0.496095 5.22497,0.07388 8.94041,0.03166 13.54261,-0.295576 4.60221,-0.327235 10.09092,-0.939437 14.22867,-1.456661 4.13775,-0.517223 6.92432,-0.939432 8.9932,-1.245541 2.06888,-0.306109 3.41994,-0.496102 4.02146,-0.464376 0.60153,0.03173 0.45375,0.28505 0.20512,0.565457 -0.24864,0.280406 -0.59818,0.587969 -0.77296,0.741764 -0.17479,0.153795 -0.17479,0.153803 -0.64502,0.743462 z"
         id="path7608" /><path
         style="fill:#ee9a45;fill-opacity:0.617564;stroke-width:0"
         d="m -148.88426,-24.31969 c -0.68611,0.759997 -2.05831,2.279975 -3.28274,3.525512 -1.22442,1.245536 -2.30106,2.216622 -3.28262,2.765494 -0.98155,0.548873 -1.86819,0.675536 -3.51487,0.992199 -1.64668,0.316662 -4.05327,0.823312 -7.64216,1.456648 -3.58888,0.633337 -8.35984,1.393312 -12.75093,2.026646 -4.39109,0.633333 -8.40207,1.139983 -12.17038,1.509432 -3.76832,0.369449 -7.29376,0.601664 -11.80097,0.643896 -4.5072,0.04223 -9.99591,-0.105542 -14.91477,-0.5383 -4.91885,-0.432758 -9.2676,-1.150512 -12.83536,-1.762729 -3.56776,-0.612217 -6.35434,-1.118867 -9.27822,-1.593872 -2.92389,-0.475004 -5.98491,-0.918325 -9.13047,-1.161119 -3.14556,-0.242795 -6.37546,-0.285016 -10.37601,-0.316683 -4.00055,-0.03167 -8.7715,-0.05278 -12.88817,0.126657 -4.11667,0.179433 -7.57877,0.55942 -11.03045,1.139966 -3.45168,0.580547 -6.89269,1.361634 -9.77439,2.332742 -2.88171,0.971108 -5.20385,2.132177 -6.69207,2.628347 -1.48821,0.496169 -2.14263,0.327285 -4.10599,-1.277084 -1.96336,-1.60437 -5.23546,-4.644264 -7.93768,-7.177589 -2.70222,-2.533326 -4.83436,-4.55992 -6.97715,-6.744909 -2.14279,-2.18499 -4.29605,-4.528241 -5.67884,-6.122105 -1.38278,-1.593865 -1.99498,-2.438279 -1.93166,-2.987345 0.0633,-0.549066 0.80216,-0.802387 1.83658,-1.256274 1.03442,-0.453887 2.36439,-1.108317 4.13775,-1.783869 1.77336,-0.675552 3.98996,-1.3722 6.3333,-1.942189 2.34335,-0.569988 4.81327,-1.013307 7.50496,-1.245509 2.6917,-0.232202 5.60492,-0.253312 8.21215,-0.126625 2.60724,0.126687 4.90827,0.401122 6.74493,0.760044 1.83667,0.358922 3.20885,0.80224 4.7183,1.372259 1.50945,0.570018 3.15606,1.266662 5.83718,2.396109 2.68111,1.129446 6.39655,2.691621 9.60542,4.063836 3.20886,1.372216 5.911,2.5544 8.33877,3.631065 2.42777,1.076664 4.58104,2.047746 6.58658,2.691583 2.00554,0.643836 3.86326,0.960493 5.59435,1.182144 1.7311,0.221651 3.3355,0.348314 5.98493,0.33774 2.64943,-0.01057 6.34375,-0.158346 9.17262,-0.306128 2.82887,-0.147781 4.79214,-0.295554 8.25437,-0.453883 3.46224,-0.158328 8.42319,-0.327211 13.51096,-0.443319 5.08777,-0.116107 10.30205,-0.179439 15.25259,-0.179434 4.95054,4e-6 9.63705,0.06333 14.29204,0.03166 4.65498,-0.03167 9.27816,-0.158335 13.08871,-0.189994 3.81055,-0.03166 6.80823,0.03167 10.27043,-3e-6 3.46221,-0.03167 7.38875,-0.158337 9.93264,-0.147758 2.54389,0.01058 3.70496,0.158352 4.05316,0.411655 0.3482,0.253302 -0.11624,0.612179 -0.34847,0.791634 -0.23224,0.179456 -0.23224,0.179453 -0.91835,0.93945 z"
         id="path8476" /><path
         style="fill:#ea3037;fill-opacity:1;stroke-width:0"
         d="m -162.90513,-12.367555 c -0.65678,0.440345 -1.97041,1.321075 -3.76921,2.537692 -1.79881,1.2166168 -4.08269,2.7690581 -6.41141,4.2469035 -2.32872,1.4778454 -4.70217,2.8810113 -7.30704,4.2021154 -2.60488,1.32110413 -5.44107,2.5600721 -8.64306,3.7916137 -3.202,1.2315416 -6.76963,2.4555817 -10.41946,3.5751653 -3.64983,1.1195837 -7.38167,2.1346438 -11.7928,2.9929978 -4.41114,0.858354 -9.50136,1.5599393 -13.9722,1.9256813 -4.47084,0.365742 -8.3221,0.395598 -12.42723,0.231404 -4.10513,-0.164194 -8.4639,-0.522449 -12.32272,-0.99266 -3.85881,-0.4702116 -7.21746,-1.0523778 -10.88969,-1.9032459 -3.67223,-0.850868 -7.65782,-1.9704165 -11.33005,-3.2616449 -3.67223,-1.2912284 -7.03088,-2.7541053 -10.0239,-4.11252647 -2.99302,-1.35842121 -5.62022,-2.61231353 -8.01613,-3.83638253 -2.39591,-1.2240689 -4.56036,-2.4182508 -5.99344,-3.3288042 -1.43308,-0.9105534 -2.13466,-1.5374915 -2.50052,-1.992772 -0.36587,-0.4552805 -0.39573,-0.7388929 0.21634,-1.2018274 0.61207,-0.4629346 1.86599,-1.1048186 3.57525,-1.7616396 1.70927,-0.656822 3.87372,-1.328548 6.49358,-1.970438 2.61985,-0.641889 5.69487,-1.253907 8.62073,-1.694265 2.92585,-0.440359 5.70233,-0.709051 9.03871,-0.865782 3.33639,-0.156731 7.23241,-0.201513 10.53891,-0.179115 3.3065,0.0224 6.02328,0.111963 9.23276,0.380678 3.20949,0.268715 6.91146,0.716534 10.03136,1.194236 3.11991,0.477702 5.65756,0.985231 8.59833,1.43305 2.94077,0.447819 6.28449,0.83593 9.67309,1.209122 3.3886,0.373193 6.82188,0.731448 10.15077,0.970281 3.32889,0.238834 6.55319,0.358252 10.32991,0.313456 3.77673,-0.0448 8.10565,-0.253779 12.34512,-0.626983 4.23947,-0.373205 8.38927,-0.910589 12.50933,-1.492775 4.12006,-0.582186 8.21015,-1.209133 10.94195,-1.477803 2.7318,-0.26867 4.10512,-0.179106 4.57519,0.08959 0.47007,0.268693 0.0372,0.716512 -0.17927,0.940426 -0.21645,0.223913 -0.21641,0.223908 -0.8732,0.664254 z"
         id="path8480" /></g></g></svg>
