<?xml version="1.0" encoding="UTF-8" standalone="no"?>
<!-- Created with Inkscape (http://www.inkscape.org/) -->

<svg
   width="218.58429mm"
   height="218.54041mm"
   viewBox="0 0 218.58429 218.54041"
   version="1.1"
   id="svg11471"
   xml:space="preserve"
   xmlns="http://www.w3.org/2000/svg"
   xmlns:svg="http://www.w3.org/2000/svg"><defs
     id="defs11468" /><g
     id="layer1"
     transform="translate(303.13433,-22.212311)"><path
       id="path11644"
       style="fill:#f05253;stroke-width:0"
       d="M -84.550049,131.48251 A 109.2702,109.2702 0 0 1 -193.82025,240.75272 109.2702,109.2702 0 0 1 -303.09045,131.48251 109.2702,109.2702 0 0 1 -193.82025,22.212311 109.2702,109.2702 0 0 1 -84.550049,131.48251 Z" /><path
       style="fill:#f26959;fill-opacity:1;stroke-width:0"
       d="m -114.14622,57.062754 c 0.48568,0.506795 1.45678,1.520116 2.86065,3.145683 1.40388,1.625567 3.24049,3.863276 4.81325,5.900498 1.57276,2.037221 2.8816,3.873825 4.40159,6.259386 1.51998,2.38556 3.251035,5.319909 4.58101,7.800457 1.329975,2.480549 2.258833,4.507149 -0.189371,5.460167 -2.448199,0.953017 -8.273379,0.832728 -14.709059,1.489099 -6.43567,0.65637 -13.48137,2.089393 -20.4078,1.67147 -6.92643,-0.417924 -13.73329,-2.686877 -21.07777,-4.478233 -7.34447,-1.791356 -15.22609,-3.10496 -20.54049,-2.746716 -5.31439,0.358243 -8.06102,2.38836 -9.43438,4.65753 -1.37336,2.26917 -1.37336,4.776962 -4.17973,6.9264 -2.80637,2.149438 -8.41904,3.940716 -13.85269,4.478148 -5.43364,0.537433 -10.68805,-0.179077 -16.12176,-2.62716 -5.43372,-2.448083 -11.04639,-6.627732 -17.31614,-7.284656 -6.26975,-0.656925 -13.19603,2.209122 -19.52531,2.865992 -6.32928,0.656869 -12.06136,-0.895569 -17.97278,-1.791267 -5.91142,-0.895698 -12.00179,-1.134536 -15.43513,-1.447949 -3.43334,-0.313414 -4.20955,-0.701517 -4.59038,-0.929135 -0.38083,-0.227618 -0.3659,-0.294805 -0.24648,-0.571015 0.11942,-0.27621 0.34332,-0.761343 0.75383,-1.615967 0.41051,-0.854624 1.00761,-2.078671 1.53381,-3.112426 0.52621,-1.033754 0.98149,-1.877141 1.55995,-2.925823 0.57845,-1.048683 1.28003,-2.302574 2.10479,-3.646087 0.82476,-1.343514 1.77266,-2.776543 2.57502,-3.978223 0.80237,-1.201681 1.45918,-2.171955 2.19811,-3.190787 0.73893,-1.018831 1.55994,-2.086134 2.52826,-2.640841 0.96833,-0.554707 2.08363,-0.596741 5.72356,0.480091 3.63993,1.076832 9.80417,3.272314 15.03969,4.496697 5.23551,1.224383 9.54204,1.477708 14.35539,2.279965 4.81334,0.802257 10.13317,2.153325 17.22643,1.562132 7.09326,-0.591194 15.95964,-3.124446 23.64407,-4.939983 7.68444,-1.815538 14.18645,-2.913279 21.11085,-4.644399 6.92441,-1.731121 14.27084,-4.09549 21.23751,-5.742135 6.96668,-1.646645 13.55313,-2.575503 18.7887,-1.604252 5.23556,0.971251 9.11988,3.842272 13.29989,6.164437 4.18,2.322166 8.65541,4.095441 11.69531,4.728672 3.0399,0.63323 4.6443,0.126579 4.91869,-1.88936 0.2744,-2.015939 -0.78112,-5.541379 -1.30894,-7.304292 -0.52782,-1.762913 -0.52783,-1.762913 -0.0422,-1.256118 z"
       id="path13515" /><path
       id="path15617"
       style="fill:#f05253;stroke-width:0"
       d="m -196.03133,85.893539 a 8.1197481,6.3591676 0 0 1 -8.11975,6.359168 8.1197481,6.3591676 0 0 1 -8.11975,-6.359168 8.1197481,6.3591676 0 0 1 8.11975,-6.359167 8.1197481,6.3591676 0 0 1 8.11975,6.359167 z" /><path
       style="fill:#f26959;fill-opacity:1;stroke-width:0"
       d="m -302.79289,122.44304 c -0.0634,0.65455 -0.19002,1.96342 -0.26389,4.02177 -0.0739,2.05835 -0.095,4.86604 -0.0633,6.82937 0.0317,1.96333 0.11613,3.08218 0.19002,4.33828 0.0739,1.25611 0.13722,2.6494 0.23223,3.85273 0.095,1.20334 0.22167,2.21665 0.40112,2.6387 0.17945,0.42204 0.41168,0.25315 3.17731,-0.55963 2.76564,-0.81279 8.06434,-2.26941 13.23652,-4.16941 5.17218,-1.9 10.21757,-4.24326 14.65095,-5.67879 4.43337,-1.43553 8.25436,-1.96329 11.75883,-1.08705 3.50447,0.87625 6.69215,3.15618 9.90103,4.68665 3.20889,1.53047 6.43878,2.31156 8.54978,2.48038 2.111,0.16882 3.10319,-0.2745 3.63089,-0.84435 0.5277,-0.56986 0.59103,-1.26651 0.2112,-1.77323 -0.37984,-0.50672 -1.20314,-0.82338 -2.64929,-0.89733 -1.44615,-0.074 -3.51497,0.0949 -5.96383,-0.77053 -2.44886,-0.86545 -5.27766,-2.76539 -7.63155,-4.55981 -2.35388,-1.79441 -4.23272,-3.48324 -6.59715,-4.56 -2.36443,-1.07676 -5.21434,-1.54119 -8.37048,-1.61511 -3.15614,-0.0739 -6.61824,0.24273 -10.3338,0.83384 -3.71557,0.5911 -7.68435,1.45663 -11.6215,0.93949 -3.93714,-0.51713 -7.84258,-2.41708 -9.90089,-3.44092 -2.05831,-1.02385 -2.26942,-1.17162 -2.37513,-1.24562 -0.1057,-0.074 -0.10574,-0.074 -0.16908,0.58057 z"
       id="path15740" /><path
       style="fill:#f26959;fill-opacity:1;stroke-width:0"
       d="m -86.09001,113.43929 c 0.168913,0.9607 0.506685,2.88178 0.781113,5.21455 0.274428,2.33277 0.485532,5.07712 0.559482,6.45971 0.07395,1.38259 0.01062,1.40369 -2.659928,1.97369 -2.67055,0.57001 -7.948153,1.68886 -12.856517,3.35663 -4.90836,1.66778 -9.44711,3.88437 -12.60327,8.28616 -3.15617,4.4018 -4.92945,10.98825 -8.4761,16.9837 -3.54665,5.99545 -8.86647,11.39971 -15.66418,15.62188 -6.7977,4.22218 -15.07299,7.26207 -20.60402,6.84 -5.53104,-0.42208 -8.31762,-4.30641 -11.6109,-6.88204 -3.29328,-2.57563 -7.09315,-3.84225 -11.31552,-2.28006 -4.22238,1.56219 -8.86667,5.95316 -11.94889,11.18881 -3.08223,5.23564 -4.60218,11.31544 -8.31767,15.95974 -3.7155,4.6443 -9.62642,7.85309 -16.67745,9.54198 -7.05102,1.68889 -15.24187,1.85778 -21.57515,1.1e-4 -6.33329,-1.85767 -10.8087,-5.74199 -15.53759,-7.72653 -4.72889,-1.98454 -9.71095,-2.06898 -13.86105,-1.55702 -4.1501,0.51196 -7.46792,1.62034 -9.18279,2.18202 -1.71488,0.56168 -1.82683,0.57661 -2.06941,0.34913 -0.24258,-0.22749 -0.61576,-0.69771 -1.07853,-1.29855 -0.46276,-0.60084 -1.01508,-1.33228 -1.66071,-2.23167 -0.64563,-0.89939 -1.38454,-1.9667 -2.10107,-3.01537 -0.71654,-1.04867 -1.41066,-2.07867 -1.96673,-2.96313 -0.55607,-0.88446 -0.97404,-1.62337 -1.19801,-2.05627 -0.22397,-0.4329 -0.25384,-0.55977 0.18658,-0.73536 0.44042,-0.17559 1.35101,-0.3995 4.50829,-0.70551 3.15727,-0.306 8.56096,-0.69411 13.65135,-0.50001 5.09039,0.1941 9.86714,0.97032 15.30084,1.65699 5.43371,0.68666 11.52406,1.28376 16.53966,0.0596 5.01559,-1.22413 8.9564,-4.26929 10.77756,-8.3295 1.82116,-4.06022 1.52261,-9.13551 3.4035,-14.59919 1.8809,-5.46368 5.94114,-11.31519 12.30046,-16.48024 6.35932,-5.16505 15.01717,-9.64325 22.86923,-12.24065 7.85207,-2.5974 14.89777,-3.31392 21.94365,-4.68729 7.04588,-1.37338 14.09158,-3.40349 19.31626,-5.07541 5.22469,-1.67191 8.62812,-2.98551 13.1364,-2.29871 4.50829,0.6868 10.12096,3.37372 14.39025,4.56784 4.26929,1.19412 7.19505,0.89557 11.01654,0.17902 3.82149,-0.71655 8.538534,-1.85103 12.373662,-4.54065 3.835128,-2.68962 6.78837,-6.93431 8.265038,-9.05672 1.476667,-2.12241 1.476707,-2.1224 1.64562,-1.16171 z"
       id="path16593" /><g
       id="g25249"
       transform="matrix(0.84817587,0,0,0.84817587,-31.005643,20.917557)"><path
         id="path21083"
         style="fill:#d85755;stroke:#f15643;stroke-width:2.1"
         d="m -141.86488,169.47787 a 30.652954,30.652954 0 0 1 -30.65296,30.65296 30.652954,30.652954 0 0 1 -30.65295,-30.65296 30.652954,30.652954 0 0 1 30.65295,-30.65295 30.652954,30.652954 0 0 1 30.65296,30.65295 z" /><path
         style="fill:#000000;fill-opacity:0.260623;stroke:#f26959;stroke-width:0;stroke-dasharray:none;stroke-opacity:1"
         d="m -196.31084,186.48613 c 0.52046,0.1093 1.6848,0.58698 3.47614,1.16914 1.79134,0.58216 4.20956,1.26882 8.1057,1.68675 3.89615,0.41794 9.26999,0.56721 14.36025,-0.89575 5.09027,-1.46296 9.89686,-4.53799 13.19585,-7.0309 3.29899,-2.49291 5.09027,-4.40361 6.35911,-7.79212 1.26884,-3.38851 2.01521,-8.25482 2.2093,-12.18077 0.19408,-3.92596 -0.16417,-6.91143 -0.28348,-8.40434 -0.1193,-1.49291 1.2e-4,-1.49291 0.52392,-0.63161 0.52381,0.86129 1.45365,2.58645 2.25066,4.33498 0.797,1.74854 1.46198,3.52181 1.91584,4.97846 0.45386,1.45665 0.69663,2.59662 0.86022,3.58883 0.16359,0.9922 0.24804,1.83662 0.30608,2.60189 0.0581,0.76527 0.0897,1.45136 0.0633,2.3644 -0.0264,0.91304 -0.11084,2.053 -0.23752,3.07159 -0.12668,1.01859 -0.29556,1.91578 -0.51724,2.85521 -0.22167,0.93943 -0.49611,1.92106 -0.88666,3.02937 -0.39056,1.10831 -0.89721,2.34328 -1.31943,3.27214 -0.42222,0.92886 -0.75999,1.55162 -1.26137,2.36438 -0.50138,0.81276 -1.16636,1.81551 -1.99496,2.84465 -0.82859,1.02914 -1.82078,2.08466 -2.86576,3.08742 -1.04498,1.00276 -2.14273,1.95273 -3.11909,2.67577 -0.97635,0.72303 -1.83132,1.21913 -2.69687,1.71524 -0.86556,0.49611 -1.74164,0.9922 -2.98715,1.49886 -1.24552,0.50667 -2.86047,1.02387 -4.47017,1.44082 -1.6097,0.41695 -3.21409,0.73361 -4.87655,0.85502 -1.66246,0.12141 -3.38296,0.0475 -5.17211,-0.12135 -1.78916,-0.16888 -3.64687,-0.43275 -5.45185,-0.96048 -1.80499,-0.52773 -3.55716,-1.31937 -5.14048,-2.12157 -1.58333,-0.80221 -2.99773,-1.61496 -4.36469,-2.63881 -1.36696,-1.02385 -2.68636,-2.25881 -3.72082,-3.33546 -1.03446,-1.07664 -1.78388,-1.99495 -2.22045,-2.58355 -0.43657,-0.58861 -0.56018,-0.84751 -0.0397,-0.73821 z"
         id="path22003" /></g><g
       id="g25255"
       transform="matrix(0.50842312,0,0,0.50842312,-168.10192,36.199824)"><path
         id="circle25251"
         style="fill:#d85755;stroke:#f15643;stroke-width:2.1"
         d="m -141.86488,169.47787 a 30.652954,30.652954 0 0 1 -30.65296,30.65296 30.652954,30.652954 0 0 1 -30.65295,-30.65296 30.652954,30.652954 0 0 1 30.65295,-30.65295 30.652954,30.652954 0 0 1 30.65296,30.65295 z" /><path
         style="fill:#000000;fill-opacity:0.260623;stroke:#f26959;stroke-width:0;stroke-dasharray:none;stroke-opacity:1"
         d="m -196.31084,186.48613 c 0.52046,0.1093 1.6848,0.58698 3.47614,1.16914 1.79134,0.58216 4.20956,1.26882 8.1057,1.68675 3.89615,0.41794 9.26999,0.56721 14.36025,-0.89575 5.09027,-1.46296 9.89686,-4.53799 13.19585,-7.0309 3.29899,-2.49291 5.09027,-4.40361 6.35911,-7.79212 1.26884,-3.38851 2.01521,-8.25482 2.2093,-12.18077 0.19408,-3.92596 -0.16417,-6.91143 -0.28348,-8.40434 -0.1193,-1.49291 1.2e-4,-1.49291 0.52392,-0.63161 0.52381,0.86129 1.45365,2.58645 2.25066,4.33498 0.797,1.74854 1.46198,3.52181 1.91584,4.97846 0.45386,1.45665 0.69663,2.59662 0.86022,3.58883 0.16359,0.9922 0.24804,1.83662 0.30608,2.60189 0.0581,0.76527 0.0897,1.45136 0.0633,2.3644 -0.0264,0.91304 -0.11084,2.053 -0.23752,3.07159 -0.12668,1.01859 -0.29556,1.91578 -0.51724,2.85521 -0.22167,0.93943 -0.49611,1.92106 -0.88666,3.02937 -0.39056,1.10831 -0.89721,2.34328 -1.31943,3.27214 -0.42222,0.92886 -0.75999,1.55162 -1.26137,2.36438 -0.50138,0.81276 -1.16636,1.81551 -1.99496,2.84465 -0.82859,1.02914 -1.82078,2.08466 -2.86576,3.08742 -1.04498,1.00276 -2.14273,1.95273 -3.11909,2.67577 -0.97635,0.72303 -1.83132,1.21913 -2.69687,1.71524 -0.86556,0.49611 -1.74164,0.9922 -2.98715,1.49886 -1.24552,0.50667 -2.86047,1.02387 -4.47017,1.44082 -1.6097,0.41695 -3.21409,0.73361 -4.87655,0.85502 -1.66246,0.12141 -3.38296,0.0475 -5.17211,-0.12135 -1.78916,-0.16888 -3.64687,-0.43275 -5.45185,-0.96048 -1.80499,-0.52773 -3.55716,-1.31937 -5.14048,-2.12157 -1.58333,-0.80221 -2.99773,-1.61496 -4.36469,-2.63881 -1.36696,-1.02385 -2.68636,-2.25881 -3.72082,-3.33546 -1.03446,-1.07664 -1.78388,-1.99495 -2.22045,-2.58355 -0.43657,-0.58861 -0.56018,-0.84751 -0.0397,-0.73821 z"
         id="path25253" /></g><g
       id="g25265"
       transform="matrix(0.64403053,0,0,0.64403053,-48.692747,-21.892403)"><path
         id="circle25261"
         style="fill:#d85755;stroke:#f15643;stroke-width:2.1"
         d="m -141.86488,169.47787 a 30.652954,30.652954 0 0 1 -30.65296,30.65296 30.652954,30.652954 0 0 1 -30.65295,-30.65296 30.652954,30.652954 0 0 1 30.65295,-30.65295 30.652954,30.652954 0 0 1 30.65296,30.65295 z" /><path
         style="fill:#000000;fill-opacity:0.260623;stroke:#f26959;stroke-width:0;stroke-dasharray:none;stroke-opacity:1"
         d="m -196.31084,186.48613 c 0.52046,0.1093 1.6848,0.58698 3.47614,1.16914 1.79134,0.58216 4.20956,1.26882 8.1057,1.68675 3.89615,0.41794 9.26999,0.56721 14.36025,-0.89575 5.09027,-1.46296 9.89686,-4.53799 13.19585,-7.0309 3.29899,-2.49291 5.09027,-4.40361 6.35911,-7.79212 1.26884,-3.38851 2.01521,-8.25482 2.2093,-12.18077 0.19408,-3.92596 -0.16417,-6.91143 -0.28348,-8.40434 -0.1193,-1.49291 1.2e-4,-1.49291 0.52392,-0.63161 0.52381,0.86129 1.45365,2.58645 2.25066,4.33498 0.797,1.74854 1.46198,3.52181 1.91584,4.97846 0.45386,1.45665 0.69663,2.59662 0.86022,3.58883 0.16359,0.9922 0.24804,1.83662 0.30608,2.60189 0.0581,0.76527 0.0897,1.45136 0.0633,2.3644 -0.0264,0.91304 -0.11084,2.053 -0.23752,3.07159 -0.12668,1.01859 -0.29556,1.91578 -0.51724,2.85521 -0.22167,0.93943 -0.49611,1.92106 -0.88666,3.02937 -0.39056,1.10831 -0.89721,2.34328 -1.31943,3.27214 -0.42222,0.92886 -0.75999,1.55162 -1.26137,2.36438 -0.50138,0.81276 -1.16636,1.81551 -1.99496,2.84465 -0.82859,1.02914 -1.82078,2.08466 -2.86576,3.08742 -1.04498,1.00276 -2.14273,1.95273 -3.11909,2.67577 -0.97635,0.72303 -1.83132,1.21913 -2.69687,1.71524 -0.86556,0.49611 -1.74164,0.9922 -2.98715,1.49886 -1.24552,0.50667 -2.86047,1.02387 -4.47017,1.44082 -1.6097,0.41695 -3.21409,0.73361 -4.87655,0.85502 -1.66246,0.12141 -3.38296,0.0475 -5.17211,-0.12135 -1.78916,-0.16888 -3.64687,-0.43275 -5.45185,-0.96048 -1.80499,-0.52773 -3.55716,-1.31937 -5.14048,-2.12157 -1.58333,-0.80221 -2.99773,-1.61496 -4.36469,-2.63881 -1.36696,-1.02385 -2.68636,-2.25881 -3.72082,-3.33546 -1.03446,-1.07664 -1.78388,-1.99495 -2.22045,-2.58355 -0.43657,-0.58861 -0.56018,-0.84751 -0.0397,-0.73821 z"
         id="path25263" /></g><g
       id="g25275"
       transform="matrix(0.27111014,0,0,0.27111014,-73.260977,81.793067)"><path
         id="circle25271"
         style="fill:#d85755;stroke:#f15643;stroke-width:2.1"
         d="m -141.86488,169.47787 a 30.652954,30.652954 0 0 1 -30.65296,30.65296 30.652954,30.652954 0 0 1 -30.65295,-30.65296 30.652954,30.652954 0 0 1 30.65295,-30.65295 30.652954,30.652954 0 0 1 30.65296,30.65295 z" /><path
         style="fill:#000000;fill-opacity:0.260623;stroke:#f26959;stroke-width:0;stroke-dasharray:none;stroke-opacity:1"
         d="m -196.31084,186.48613 c 0.52046,0.1093 1.6848,0.58698 3.47614,1.16914 1.79134,0.58216 4.20956,1.26882 8.1057,1.68675 3.89615,0.41794 9.26999,0.56721 14.36025,-0.89575 5.09027,-1.46296 9.89686,-4.53799 13.19585,-7.0309 3.29899,-2.49291 5.09027,-4.40361 6.35911,-7.79212 1.26884,-3.38851 2.01521,-8.25482 2.2093,-12.18077 0.19408,-3.92596 -0.16417,-6.91143 -0.28348,-8.40434 -0.1193,-1.49291 1.2e-4,-1.49291 0.52392,-0.63161 0.52381,0.86129 1.45365,2.58645 2.25066,4.33498 0.797,1.74854 1.46198,3.52181 1.91584,4.97846 0.45386,1.45665 0.69663,2.59662 0.86022,3.58883 0.16359,0.9922 0.24804,1.83662 0.30608,2.60189 0.0581,0.76527 0.0897,1.45136 0.0633,2.3644 -0.0264,0.91304 -0.11084,2.053 -0.23752,3.07159 -0.12668,1.01859 -0.29556,1.91578 -0.51724,2.85521 -0.22167,0.93943 -0.49611,1.92106 -0.88666,3.02937 -0.39056,1.10831 -0.89721,2.34328 -1.31943,3.27214 -0.42222,0.92886 -0.75999,1.55162 -1.26137,2.36438 -0.50138,0.81276 -1.16636,1.81551 -1.99496,2.84465 -0.82859,1.02914 -1.82078,2.08466 -2.86576,3.08742 -1.04498,1.00276 -2.14273,1.95273 -3.11909,2.67577 -0.97635,0.72303 -1.83132,1.21913 -2.69687,1.71524 -0.86556,0.49611 -1.74164,0.9922 -2.98715,1.49886 -1.24552,0.50667 -2.86047,1.02387 -4.47017,1.44082 -1.6097,0.41695 -3.21409,0.73361 -4.87655,0.85502 -1.66246,0.12141 -3.38296,0.0475 -5.17211,-0.12135 -1.78916,-0.16888 -3.64687,-0.43275 -5.45185,-0.96048 -1.80499,-0.52773 -3.55716,-1.31937 -5.14048,-2.12157 -1.58333,-0.80221 -2.99773,-1.61496 -4.36469,-2.63881 -1.36696,-1.02385 -2.68636,-2.25881 -3.72082,-3.33546 -1.03446,-1.07664 -1.78388,-1.99495 -2.22045,-2.58355 -0.43657,-0.58861 -0.56018,-0.84751 -0.0397,-0.73821 z"
         id="path25273" /></g></g></svg>
