<?xml version="1.0" encoding="UTF-8" standalone="no"?>
<!-- Created with Inkscape (http://www.inkscape.org/) -->

<svg
   width="206.35947mm"
   height="206.35947mm"
   viewBox="0 0 206.35947 206.35947"
   version="1.1"
   id="svg19216"
   xml:space="preserve"
   xmlns="http://www.w3.org/2000/svg"
   xmlns:svg="http://www.w3.org/2000/svg"><defs
     id="defs19213" /><g
     id="layer1"
     transform="translate(323.86971,-37.259353)"><path
       id="path19389"
       style="fill:#e9aa4d;stroke:#fef2f0;stroke-width:0"
       d="M -117.51024,140.43909 A 103.17973,103.17973 0 0 1 -220.68997,243.61882 103.17973,103.17973 0 0 1 -323.86971,140.43909 103.17973,103.17973 0 0 1 -220.68997,37.259354 103.17973,103.17973 0 0 1 -117.51024,140.43909 Z" /><path
       style="fill:#965632;fill-opacity:1;stroke:#fef2f0;stroke-width:0"
       d="m -320.28703,161.66614 c 1.07486,-0.44786 3.22445,-1.34352 6.45659,-2.01617 3.23215,-0.67265 7.54658,-1.1223 10.88611,-0.67147 3.33953,0.45082 5.7039,1.80189 6.97041,4.16639 1.26651,2.3645 1.43539,5.74217 2.78658,10.30219 1.35118,4.56001 3.88443,10.30205 7.43117,14.94643 3.54675,4.64438 8.10661,8.19093 14.01769,9.54189 5.91108,1.35095 13.17305,0.50654 19.84401,-3.29346 6.67097,-3.8 12.75078,-10.55534 18.74634,-16.12867 5.99557,-5.57333 11.90649,-9.9643 18.66212,-12.91983 6.75563,-2.95554 14.35538,-4.47549 19.3375,-1.01305 4.98213,3.46244 7.3465,11.90661 9.6265,19.50658 2.28,7.59997 4.47548,14.35531 7.51541,14.43957 3.03993,0.0843 6.92425,-6.50219 9.7109,-13.51101 2.78665,-7.00882 4.47548,-14.43969 9.71119,-18.83087 5.2357,-4.39118 14.01764,-5.74225 21.00676,-5.67511 6.98911,0.0671 12.18493,1.55235 14.5386,3.2624 2.35367,1.71004 1.86548,3.64473 1.30471,5.68876 -0.56077,2.04403 -1.19408,4.1973 -2.00686,6.45616 -0.81277,2.25886 -1.80497,4.62323 -3.72222,8.43087 -1.91725,3.80765 -4.75943,9.05836 -7.46434,13.29595 -2.70491,4.23759 -5.27241,7.46189 -8.1236,10.65642 -2.8512,3.19452 -5.98593,6.35912 -8.76248,8.95653 -2.77655,2.59742 -5.19478,4.62753 -8.9715,7.1951 -3.77671,2.56757 -8.91171,5.67246 -14.49466,8.32959 -5.58296,2.65714 -11.6136,4.86638 -14.8379,5.79204 -3.2243,0.92566 -3.64227,0.5674 -4.20963,-1.19406 -0.56737,-1.76146 -1.28388,-4.92605 -3.01547,-9.43425 -1.73159,-4.5082 -4.47822,-10.3597 -9.37447,-14.83811 -4.89624,-4.47841 -11.94193,-7.58329 -20.00301,-8.06105 -8.06107,-0.47775 -17.13688,1.67178 -23.52602,4.11995 -6.38913,2.44816 -10.09111,5.19479 -15.46499,5.6128 -5.37388,0.41801 -12.41957,-1.49268 -18.21875,-3.04491 -5.79918,-1.55223 -10.35152,-2.7459 -12.64362,-3.36901 -2.2921,-0.62312 -2.32379,-0.67592 -2.95181,-1.41481 -0.62802,-0.73889 -1.85243,-2.16385 -3.5994,-4.54941 -1.74697,-2.38555 -4.01632,-5.73155 -5.84772,-8.69764 -1.8314,-2.9661 -3.22469,-5.55213 -4.50192,-8.12239 -1.27724,-2.57027 -2.43832,-5.12464 -3.47278,-7.83741 -1.03446,-2.71278 -1.94219,-5.58379 -2.60719,-7.75823 -0.665,-2.17444 -1.08722,-3.65216 -1.37223,-4.75521 -0.28502,-1.10306 -0.4328,-1.83137 -0.48244,-2.2882 -0.0496,-0.45684 -0.001,-0.64205 0.0233,-0.73475 0.0243,-0.0927 0.0243,-0.0927 1.09915,-0.54054 z"
       id="path19457" /><path
       style="fill:#965632;fill-opacity:1;stroke:#fef2f0;stroke-width:0"
       d="m -277.26979,54.972806 c 0.31675,0.570153 0.95008,1.710143 2.79734,4.127355 1.84726,2.417212 4.90828,6.111537 7.11431,10.069876 2.20603,3.958339 3.55709,8.180424 4.06369,12.402598 0.50659,4.222175 0.16882,8.444261 -2.19551,10.724106 -2.36433,2.279844 -6.75527,2.617609 -10.13303,1.604411 -3.37776,-1.013197 -5.74213,-3.377567 -6.24893,-6.079861 -0.50681,-2.702293 0.84426,-5.742195 1.01323,-8.528751 0.16897,-2.786557 -0.84433,-5.31981 -3.03988,-5.995532 -2.19555,-0.675721 -5.57322,0.506464 -7.8533,2.617675 -2.28009,2.111211 -3.46227,5.15111 -3.12436,8.19119 0.33791,3.040079 2.19563,6.079982 3.71566,8.191053 1.52003,2.111072 2.70222,3.293256 2.70205,5.910995 -1.7e-4,2.617739 -1.18236,6.670949 -3.12443,8.697499 -1.94207,2.02655 -4.6442,2.02655 -7.51531,2.11099 -2.87111,0.0844 -5.91102,0.25332 -8.36,1.09777 -2.44898,0.84444 -4.3067,2.3644 -4.64442,4.81345 -0.33772,2.44906 0.84446,5.82673 3.80012,8.1066 2.95567,2.27986 7.6844,3.46205 10.38647,5.57328 2.70207,2.11122 3.37761,5.15112 1.77314,8.1065 -1.60448,2.95538 -5.4888,5.8264 -9.87978,5.31983 -4.39098,-0.50656 -9.2886,-4.39089 -12.23361,-6.97695 -2.945,-2.58606 -3.93719,-3.87379 -4.46528,-4.46593 -0.52809,-0.59214 -0.59182,-0.48841 -0.67218,0.03 -0.0804,0.51843 -0.17739,1.4514 -0.26323,2.54487 -0.0858,1.09346 -0.16046,2.34736 -0.19403,4.42607 -0.0336,2.07871 -0.0261,4.98208 0.0897,7.61684 0.11572,2.63475 0.33963,5.00074 0.50014,6.16119 0.16051,1.16045 0.25755,1.11567 1.15699,0.88429 0.89943,-0.23138 2.60115,-0.64934 8.28638,-0.46977 5.68523,0.17957 15.35345,0.9566 21.87646,0.33174 6.52302,-0.62486 9.90066,-2.65145 12.85631,-2.39794 2.95565,0.25351 5.4889,2.78677 6.50206,6.16452 1.01316,3.37775 0.50651,7.59984 3.29327,8.19077 2.78676,0.59094 8.86657,-2.44896 12.41314,-7.5155 3.54656,-5.06654 4.55986,-12.15964 2.78665,-17.81738 -1.7732,-5.65773 -6.33305,-9.87982 -10.97753,-11.23105 -4.64449,-1.35123 -9.37323,0.16873 -11.39996,-2.11116 -2.02673,-2.27989 -1.3512,-8.3597 1.35114,-12.07536 2.70233,-3.71566 7.43107,-5.06673 13.00447,-4.64442 5.57339,0.42232 11.99096,2.61781 17.31082,2.53326 5.31987,-0.0845 9.54195,-2.44891 10.72417,-5.74206 1.18221,-3.29315 -0.67551,-7.515238 1.2668,-9.879828 1.9423,-2.36459 7.68434,-2.87124 14.18655,-3.546799 6.50221,-0.675558 13.7642,-1.519976 17.14182,-4.982061 3.37763,-3.462084 2.87098,-9.541886 0.42223,-13.764136 -2.44876,-4.22225 -6.83973,-6.586618 -11.48418,-9.964357 -4.64446,-3.37774 -9.54208,-7.76871 -9.28869,-9.711014 0.25339,-1.942304 5.65765,-1.435654 9.45748,-2.364562 3.79983,-0.928908 5.99531,-3.293278 4.22209,-4.728813 -1.77322,-1.435534 -7.51525,-1.942184 -12.75087,-1.182213 -5.23562,0.75997 -9.96435,2.786569 -13.76439,5.235485 -3.80005,2.448916 -6.67107,5.319931 -9.62646,5.826668 -2.95539,0.506737 -5.9953,-1.350979 -7.64209,-4.005657 -1.64679,-2.654677 -1.90012,-6.10623 -2.06893,-7.82165 -0.16882,-1.715419 -0.25324,-1.694315 -1.10826,-1.414594 -0.85502,0.279722 -2.48052,0.818036 -4.58638,1.68887 -2.10586,0.870834 -4.69188,2.074125 -6.79772,3.124404 -2.10584,1.050279 -3.73133,1.947469 -5.35161,2.871079 -1.62027,0.923609 -3.23523,1.873584 -4.12193,2.42777 -0.8867,0.554186 -1.04503,0.712513 -1.19277,0.833874 -0.14773,0.121361 -0.28495,0.205798 -0.3536,0.248046 -0.0686,0.04225 -0.0687,0.04225 0.24801,0.612404 z"
       id="path21941" /><path
       style="fill:#965632;fill-opacity:1;stroke:#fef2f0;stroke-width:0"
       d="m -169.02403,51.732176 c -0.2428,0.432816 -0.72835,1.29836 -0.96055,2.829009 -0.2322,1.530648 -0.2111,3.726134 0.80234,6.312259 1.01343,2.586125 3.01892,5.562696 4.95062,7.979888 1.93169,2.417193 3.7894,4.274907 2.10038,6.892533 -1.68902,2.617626 -6.9244,5.995291 -12.66661,9.710842 -5.74222,3.715551 -11.99091,7.768756 -16.2976,11.737691 -4.30669,3.968932 -6.67105,7.853252 -5.1509,9.204272 1.52016,1.35103 6.92442,0.16885 10.21769,1.09793 3.29327,0.92909 4.47546,3.969 3.54646,8.27555 -0.929,4.30656 -3.9689,9.87971 -4.89771,15.45314 -0.9288,5.57342 0.25338,11.14657 1.7734,16.63545 1.52002,5.48888 3.37774,10.89315 5.31988,10.80857 1.94214,-0.0846 3.96874,-5.65774 6.07984,-11.06218 2.11111,-5.40443 4.3066,-10.63982 8.61345,-11.06195 4.30686,-0.42214 10.72443,3.96883 16.46655,5.15089 5.74211,1.18205 10.80861,-0.84455 14.18627,-3.96891 3.37766,-3.12435 5.06649,-7.34643 6.92427,-11.062 1.85778,-3.71558 3.88438,-6.92436 3.12453,-9.62651 -0.75985,-2.70215 -4.30639,-4.89764 -9.45755,-5.48884 -5.15117,-0.59121 -11.90651,0.42209 -16.21312,-0.16888 -4.30662,-0.59096 -6.16434,-2.78644 -3.63099,-4.55993 2.53335,-1.77349 9.45757,-3.12456 15.29953,-3.22434 5.84196,-0.0998 10.60121,1.05156 12.97703,1.59754 2.37581,0.54598 2.36833,0.4862 2.14072,-0.14822 -0.22761,-0.63443 -0.67543,-1.84354 -1.39569,-3.60129 -0.72026,-1.757745 -1.71293,-4.064019 -2.65709,-6.030752 -0.94416,-1.966733 -1.8398,-3.593813 -3.01163,-5.63146 -1.17183,-2.037647 -2.61978,-4.485728 -4.00804,-6.59801 -1.38826,-2.112282 -2.7168,-3.888633 -4.20957,-5.825516 -1.49278,-1.936883 -3.14971,-4.03417 -5.10896,-6.180054 -1.95926,-2.145885 -4.22075,-4.340202 -6.32556,-6.310673 -2.10481,-1.970471 -4.05282,-3.71697 -6.10538,-5.336652 -2.05256,-1.619683 -4.20955,-3.11241 -6.09418,-4.385005 -1.88463,-1.272595 -3.49678,-2.324971 -4.40363,-2.895982 -0.90684,-0.571011 -1.10837,-0.660576 -1.27167,-0.738838 -0.16331,-0.07826 -0.28839,-0.14524 -0.35108,-0.178813 -0.0627,-0.03357 -0.0626,-0.03357 -0.30545,0.399241 z"
       id="path21945" /><path
       style="fill:#965632;fill-opacity:1;stroke:#fef2f0;stroke-width:0"
       d="m -222.06318,125.45185 c -1.13465,-0.77634 -1.13465,-0.77634 -2.62746,1.37331 -1.49281,2.14965 -4.47827,6.44872 -4.53782,10.35991 -0.0596,3.91119 2.8065,7.43404 6.47877,9.49393 3.67227,2.05989 8.15047,2.65699 11.91227,3.70199 3.7618,1.04501 6.80698,2.53774 8.71754,1.91076 1.91056,-0.62698 2.68678,-3.3736 3.07493,-7.40407 0.38814,-4.03047 0.38814,-9.3446 -1.13444,-11.40476 -1.52258,-2.06015 -4.56775,-0.86596 -7.31447,0.2984 -2.74672,1.16436 -5.1948,2.29884 -6.62789,1.55261 -1.43309,-0.74623 -1.85106,-3.37344 -3.19444,-5.46337 -1.34338,-2.08993 -3.61233,-3.64237 -4.74699,-4.41871 z"
       id="path21949" /><path
       style="fill:#965632;fill-opacity:1;stroke:#fef2f0;stroke-width:0"
       d="m -235.43842,164.44271 c 1.07469,0.47774 -0.41807,2.74674 -2.41839,5.5233 -2.00032,2.77656 -4.50811,6.06057 -7.61303,8.65795 -3.10492,2.59738 -6.80689,4.50807 -9.76248,4.80673 -2.95558,0.29866 -5.16483,-1.01495 -6.12036,-3.49294 -0.95553,-2.47799 -0.65699,-6.12026 0.20887,-8.38941 0.86587,-2.26915 2.29889,-3.16479 3.85149,-3.07509 1.55261,0.0897 3.22447,1.16446 5.4934,1.01504 2.26894,-0.14941 5.13498,-1.52272 8.38926,-2.86622 3.25427,-1.3435 6.89655,-2.65711 7.97124,-2.17936 z"
       id="path21953" /></g></svg>
