<?xml version="1.0" encoding="UTF-8" standalone="no"?>
<!-- Created with Inkscape (http://www.inkscape.org/) -->

<svg
   width="212.1003mm"
   height="212.09167mm"
   viewBox="0 0 212.1003 212.09167"
   version="1.1"
   id="svg462"
   xml:space="preserve"
   xmlns="http://www.w3.org/2000/svg"
   xmlns:svg="http://www.w3.org/2000/svg"><defs
     id="defs459" /><g
     id="layer1"
     transform="translate(321.72014,-34.393249)"><path
       id="path635"
       style="fill:#7dc4d8;stroke:#fef2f0;stroke-width:0"
       d="M -109.62846,140.43909 A 106.04584,106.04584 0 0 1 -215.6743,246.48492 106.04584,106.04584 0 0 1 -321.72014,140.43909 106.04584,106.04584 0 0 1 -215.6743,34.39325 106.04584,106.04584 0 0 1 -109.62846,140.43909 Z" /><path
       style="fill:#3b718d;fill-opacity:0.546742;stroke:#fef2f0;stroke-width:0"
       d="m -112.729,144.57603 c -2.78706,-2.67004 -8.36144,-8.01039 -15.96199,-14.6495 -7.60055,-6.6391 -17.2269,-14.57662 -31.6669,-21.83888 -14.44,-7.26227 -33.69271,-13.84872 -52.60823,-18.155391 -18.91551,-4.30667 -37.49268,-6.33327 -52.61023,-7.311206 -15.11754,-0.977937 -26.7746,-0.907137 -32.60339,-0.882796 -5.82878,0.02434 -5.82878,0.0019 -5.69258,-0.209016 0.1362,-0.210956 0.40862,-0.610259 1.3155,-1.88473 0.90687,-1.274471 2.44812,-3.424011 4.05473,-5.469128 1.60661,-2.045117 3.27846,-3.985666 4.77871,-5.620265 1.50025,-1.634598 2.82878,-2.963128 3.57388,-3.677027 0.7451,-0.7139 0.90663,-0.813077 2.41445,-0.805586 1.50781,0.0075 4.3616,0.121601 12.09357,0.184928 7.73197,0.06333 20.34157,0.07588 32.30434,1.0533 11.96278,0.97742 23.27797,2.91958 35.73351,5.579593 12.45554,2.660012 26.05066,6.037681 38.80173,10.513273 12.75107,4.475591 24.65735,10.048744 33.78933,15.533083 9.13198,5.484338 15.4892,10.879448 18.69016,13.659188 3.20097,2.77974 3.24575,2.94394 3.49952,3.89186 0.25378,0.94793 0.71652,2.6795 1.08223,4.44843 0.36571,1.76893 0.6344,3.57514 0.93295,5.59039 0.29856,2.01525 0.62696,4.23942 0.82101,6.34423 0.19404,2.1048 0.25375,4.09014 0.29853,6.32931 0.0448,2.23916 0.0747,4.73202 0.0672,6.38899 -0.007,1.65696 -0.0523,2.47796 -0.11198,2.9481 -0.0597,0.47014 -0.13437,0.58955 -0.17166,0.64922 -0.0373,0.0597 -0.0373,0.0597 -2.82438,-2.61037 z"
       id="path2675" /><path
       style="fill:#3b718d;fill-opacity:0.572238;stroke:#fef2f0;stroke-width:0"
       d="m -306.86296,188.47218 c 3.74868,0.9188 11.24641,2.75648 21.14823,4.70584 9.90181,1.94936 22.20724,4.01028 38.34378,3.07958 16.13653,-0.93069 36.1031,-4.85301 54.63776,-10.58108 18.53465,-5.72807 35.63626,-13.26157 48.66518,-16.62218 13.02893,-3.3606 21.98422,-2.54808 26.44105,-2.027 4.45682,0.52107 4.41624,0.74384 4.19557,1.53622 -0.22067,0.79238 -0.59636,2.06444 -1.00056,3.35889 -0.4042,1.29446 -0.8246,2.56986 -1.47609,4.35989 -0.65148,1.79003 -1.5334,4.09287 -2.5803,6.52861 -1.0469,2.43575 -2.25815,5.00297 -3.74897,7.73103 -1.49083,2.72805 -3.26034,5.61535 -4.29615,7.27967 -1.03581,1.66432 -1.33743,2.10491 -1.62666,2.31695 -0.28923,0.21204 -0.56616,0.19541 -6.26993,1.33653 -5.70378,1.14112 -16.8325,3.43969 -26.4174,4.20355 -9.5849,0.76385 -17.62351,-0.007 -28.37458,1.54329 -10.75107,1.55069 -24.21363,5.42311 -37.49417,7.92267 -13.28055,2.49956 -26.37827,3.62621 -37.02896,3.44262 -10.65069,-0.18359 -18.85376,-1.67728 -23.01575,-2.48412 -4.16199,-0.80685 -4.28287,-0.92665 -4.97661,-1.62069 -0.69373,-0.69404 -1.96027,-1.96225 -3.16144,-3.31134 -1.20118,-1.34908 -2.33698,-2.77896 -3.60317,-4.37495 -1.26618,-1.59598 -2.66267,-3.35796 -3.88311,-5.08375 -1.22045,-1.72579 -2.26484,-3.4153 -3.42321,-5.33208 -1.15837,-1.91678 -2.43065,-4.06072 -3.25267,-5.49943 -0.82201,-1.4387 -1.19374,-2.17211 -1.37707,-2.60913 -0.18334,-0.43702 -0.17841,-0.57776 -0.17594,-0.64808 0.002,-0.0703 0.002,-0.0703 3.75117,0.84849 z"
       id="path2675-4" /><path
       style="fill:#3b718d;fill-opacity:0.569405;stroke:#fef2f0;stroke-width:0"
       d="m -310.98706,173.57839 c 5.09042,-0.80611 15.27106,-2.41829 27.24908,-3.57383 11.97803,-1.15554 25.75285,-1.85443 36.94706,-3.34391 11.19422,-1.48947 19.80727,-3.7694 25.33822,-7.5271 5.53094,-3.7577 7.97976,-8.99309 11.77988,-12.28647 3.80012,-3.29339 8.95107,-4.64446 12.62434,-5.82668 3.67327,-1.18222 5.86876,-2.19552 5.65773,-3.20876 -0.21103,-1.01325 -2.82872,-2.02655 -6.75545,-2.02662 -3.92673,-7e-5 -9.16212,1.01323 -13.51106,2.6599 -4.34894,1.64667 -7.81105,3.9266 -12.75103,6.67103 -4.93998,2.74444 -11.35755,5.95322 -20.1397,7.72656 -8.78215,1.77333 -19.92845,2.1111 -29.09066,2.99775 -9.1622,0.88666 -16.33974,2.32217 -23.82481,2.39571 -7.48506,0.0735 -15.27725,-1.21496 -19.18855,-1.82187 -3.9113,-0.6069 -3.94117,-0.53225 -3.90007,-0.15524 0.0411,0.377 0.15305,1.05621 0.30979,1.98173 0.15674,0.92552 0.35826,2.09731 0.58218,3.2281 0.22393,1.13078 0.47022,2.22048 0.79864,3.56025 0.32841,1.33977 0.73891,2.92953 1.17556,4.44843 0.43665,1.51891 0.89939,2.96685 1.17186,3.77295 0.27246,0.8061 0.35457,0.9703 0.39554,1.05224 0.041,0.0819 0.041,0.0819 5.13145,-0.72417 z"
       id="path3200" /><path
       style="fill:#3b718d;fill-opacity:0.572238;stroke:#fef2f0;stroke-width:0"
       d="m -113.19622,151.32257 c -2.74426,-0.29553 -8.23308,-0.88664 -16.23422,-0.86554 -8.00114,0.0211 -18.51414,0.6544 -29.21747,2.25884 -10.70333,1.60443 -21.59631,4.1799 -30.29409,7.05101 -8.69778,2.8711 -15.19978,6.03766 -18.38755,7.95894 -3.18776,1.92127 -3.0611,2.5968 -2.55435,2.84996 0.50674,0.25315 1.39337,0.0843 2.97668,-0.44351 1.58331,-0.52779 3.86323,-1.41443 6.24879,-2.21664 2.38557,-0.80222 4.87661,-1.51998 9.68998,-2.32219 4.81336,-0.80221 11.94869,-1.68885 21.25869,-2.68106 9.31,-0.99222 20.79407,-2.08997 30.71629,-1.92103 9.92222,0.16894 18.28195,1.60445 22.4716,2.31609 4.18966,0.71165 4.20926,0.69954 4.23023,0.64321 0.021,-0.0563 0.0434,-0.15708 0.11241,-0.44632 0.069,-0.28923 0.18473,-0.76692 0.36386,-1.59353 0.17914,-0.82662 0.42171,-2.00215 0.67735,-3.51545 0.25565,-1.51329 0.52434,-3.36428 0.66617,-4.49504 0.14182,-1.13076 0.15676,-1.54126 0.13901,-1.80151 -0.0177,-0.26025 -0.0683,-0.37031 -0.0937,-0.42549 -0.0254,-0.0552 -0.0254,-0.0552 -2.76969,-0.35074 z"
       id="path3984" /><path
       style="fill:#3b718d;fill-opacity:0.572238;stroke:#fef2f0;stroke-width:0"
       d="m -310.91984,97.634151 c 1.6198,0.320975 4.85909,0.962862 10.16593,2.06006 5.30684,1.097199 12.68094,2.649639 17.77123,5.814469 5.09029,3.16482 7.89662,7.94156 11.9272,11.40471 4.03057,3.46314 9.285,5.61267 12.06142,7.22496 2.77642,1.61229 3.07497,2.68705 2.74661,3.31384 -0.32836,0.62678 -1.2837,0.80591 -2.89585,0.35817 -1.61215,-0.44775 -3.88111,-1.52251 -6.68753,-2.59734 -2.80642,-1.07482 -6.15015,-2.14959 -8.74758,-3.28405 -2.59743,-1.13446 -4.44843,-2.32865 -6.26965,-4.11994 -1.82123,-1.79128 -3.6125,-4.17966 -6.50845,-6.03079 -2.89596,-1.85114 -6.89648,-3.16475 -11.82641,-4.0959 -4.92993,-0.93116 -10.78889,-1.47973 -13.71858,-1.76324 -2.92969,-0.28351 -2.92969,-0.30221 -2.88866,-0.44034 0.041,-0.13812 0.12312,-0.39561 0.29292,-0.87705 0.16981,-0.48143 0.4273,-1.18674 0.69227,-1.89021 0.26497,-0.70347 0.5374,-1.40506 0.83222,-2.12533 0.29482,-0.720275 0.61203,-1.459182 0.83594,-1.98538 0.22392,-0.526199 0.35453,-0.83967 0.43852,-1.018858 0.084,-0.179189 0.1213,-0.223959 0.13997,-0.246367 0.0187,-0.02241 0.0187,-0.02239 1.63848,0.298586 z"
       id="path3988" /></g></svg>
