<?xml version="1.0" encoding="UTF-8" standalone="no"?>
<!-- Created with Inkscape (http://www.inkscape.org/) -->

<svg
   width="175.63773mm"
   height="195.81606mm"
   viewBox="0 0 175.63773 195.81605"
   version="1.1"
   id="svg5"
   xml:space="preserve"
   sodipodi:docname="satelitgreen.svg"
   inkscape:export-filename="satelitgreen.svg"
   inkscape:export-xdpi="96"
   inkscape:export-ydpi="96"
   inkscape:version="1.2.2 (732a01da63, 2022-12-09)"
   xmlns:inkscape="http://www.inkscape.org/namespaces/inkscape"
   xmlns:sodipodi="http://sodipodi.sourceforge.net/DTD/sodipodi-0.dtd"
   xmlns="http://www.w3.org/2000/svg"
   xmlns:svg="http://www.w3.org/2000/svg"><sodipodi:namedview
     id="namedview13161"
     pagecolor="#ffffff"
     bordercolor="#000000"
     borderopacity="0.25"
     inkscape:showpageshadow="2"
     inkscape:pageopacity="0.0"
     inkscape:pagecheckerboard="0"
     inkscape:deskcolor="#d1d1d1"
     inkscape:document-units="mm"
     showgrid="false"
     inkscape:zoom="0.71914324"
     inkscape:cx="21.553425"
     inkscape:cy="450.53611"
     inkscape:window-width="1920"
     inkscape:window-height="986"
     inkscape:window-x="-11"
     inkscape:window-y="-11"
     inkscape:window-maximized="1"
     inkscape:current-layer="layer1" /><defs
     id="defs2" /><g
     id="layer1"
     transform="translate(-28.442528,-31.481899)"><g
       id="g2089"><path
         id="rect13695"
         style="fill:#25f200;fill-opacity:1;stroke:#25f200;stroke-width:1.654;stroke-dasharray:none;stroke-opacity:1"
         d="m 109.30507,158.06017 1.72799,0.77595 -5.42582,12.08022 -1.728,-0.7761 z" /><path
         id="rect13695-3"
         style="fill:#25f200;fill-opacity:1;stroke:#25f200;stroke-width:1.654;stroke-dasharray:none;stroke-opacity:1"
         d="m 102.04034,174.51345 1.72795,0.77614 -5.425749,12.07999 -1.728008,-0.7762 z" /><path
         id="rect13695-30"
         style="fill:#25f200;fill-opacity:1;stroke:#25f200;stroke-width:1.654;stroke-dasharray:none;stroke-opacity:1"
         d="m 94.979414,190.96043 1.759381,0.70204 -4.908239,12.29936 -1.759382,-0.70209 z" /><path
         id="rect13695-4"
         style="fill:#25f200;fill-opacity:1;stroke:#25f200;stroke-width:1.654;stroke-dasharray:none;stroke-opacity:1"
         d="m 87.966282,207.69168 1.744894,0.73737 -5.154729,12.19811 -1.744894,-0.73739 z" /><path
         id="rect13695-1"
         style="fill:#25f200;fill-opacity:1;stroke:#25f200;stroke-width:1.654;stroke-dasharray:none;stroke-opacity:1"
         d="m 71.063063,218.35236 1.114364,-1.53187 10.70873,7.79034 -1.114355,1.53185 z" /><path
         id="rect13695-1-9"
         style="fill:#25f200;fill-opacity:1;stroke:#25f200;stroke-width:1.654;stroke-dasharray:none;stroke-opacity:1"
         d="m 57.222279,208.61924 1.114367,-1.53189 10.708733,7.79042 -1.114379,1.53168 z" /><path
         id="rect13695-1-2"
         style="fill:#25f200;fill-opacity:1;stroke:#25f200;stroke-width:1.654;stroke-dasharray:none;stroke-opacity:1"
         d="m 43.470776,199.15386 1.114369,-1.53196 10.708739,7.7904 -1.11438,1.53187 z" /><path
         id="rect13695-1-28"
         style="fill:#25f200;fill-opacity:1;stroke:#25f200;stroke-width:1.654;stroke-dasharray:none;stroke-opacity:1"
         d="m 29.5978,189.49929 1.11436,-1.53183 10.708731,7.79025 -1.114365,1.53165 z" /><path
         id="rect13695-1-20"
         style="fill:#25f200;fill-opacity:1;stroke:#25f200;stroke-width:1.654;stroke-dasharray:none;stroke-opacity:1"
         d="m 44.7,175.86372 1.278313,1.39784 -9.772754,8.9363 -1.278301,-1.39793 z" /><path
         id="rect13695-1-20-7"
         style="fill:#25f200;fill-opacity:1;stroke:#25f200;stroke-width:1.654;stroke-dasharray:none;stroke-opacity:1"
         d="m 58.362211,163.27287 1.278315,1.39792 -9.772749,8.93647 -1.27832,-1.39796 z" /><path
         id="rect13695-1-20-4"
         style="fill:#25f200;fill-opacity:1;stroke:#25f200;stroke-width:1.654;stroke-dasharray:none;stroke-opacity:1"
         d="m 72.292294,150.41441 1.278313,1.39793 -9.772746,8.93627 -1.278308,-1.39796 z" /><path
         id="rect13695-1-20-9"
         style="fill:#25f200;fill-opacity:1;stroke:#25f200;stroke-width:1.654;stroke-dasharray:none;stroke-opacity:1"
         d="m 85.329434,137.82368 1.278305,1.39798 -9.772752,8.93629 -1.278302,-1.39796 z" /><path
         id="rect13695-1-20-97"
         style="fill:#25f200;fill-opacity:1;stroke:#25f200;stroke-width:1.654;stroke-dasharray:none;stroke-opacity:1"
         d="m 77.559405,124.59204 1.723106,-0.78697 5.501127,12.04604 -1.723108,0.78697 z" /><path
         id="rect13695-1-20-1"
         style="fill:#25f200;fill-opacity:1;stroke:#25f200;stroke-width:1.654;stroke-dasharray:none;stroke-opacity:1"
         d="m 69.081146,112.07943 1.615846,-0.98872 6.911195,11.29615 -1.615852,0.98855 z" /><path
         id="rect13695-1-20-99"
         style="fill:#25f200;fill-opacity:1;stroke:#25f200;stroke-width:1.654;stroke-dasharray:none;stroke-opacity:1"
         d="m 65.855521,111.01337 0.111002,1.89105 -13.219813,0.77605 -0.111007,-1.89103 z" /><path
         id="rect13695-1-20-8"
         style="fill:#25f200;fill-opacity:1;stroke:#25f200;stroke-width:1.654;stroke-dasharray:none;stroke-opacity:1"
         d="m 48.43988,97.560221 1.888034,0.153742 -1.074704,13.198917 -1.888042,-0.15373 z" /><path
         id="rect13695-1-20-2"
         style="fill:#25f200;fill-opacity:1;stroke:#25f200;stroke-width:1.654;stroke-dasharray:none;stroke-opacity:1"
         d="m 46.369761,81.879552 1.868152,-0.313628 2.192479,13.059834 -1.86815,0.313617 z" /><path
         id="rect13695-1-20-994"
         style="fill:#25f200;fill-opacity:1;stroke:#25f200;stroke-width:1.654;stroke-dasharray:none;stroke-opacity:1"
         d="m 66.755874,70.341142 0.205456,1.883109 -13.164438,1.436317 -0.205462,-1.88312 z" /><path
         id="rect13695-1-20-3"
         style="fill:#25f200;fill-opacity:1;stroke:#25f200;stroke-width:1.654;stroke-dasharray:none;stroke-opacity:1"
         d="m 82.944757,67.046367 0.491538,1.829404 -12.788986,3.436186 -0.491528,-1.829412 z" /><path
         id="rect13695-1-20-95"
         style="fill:#25f200;fill-opacity:1;stroke:#25f200;stroke-width:1.654;stroke-dasharray:none;stroke-opacity:1"
         d="m 85.752844,73.048335 1.879752,-0.234244 1.637566,13.140942 -1.87974,0.234251 z" /><path
         id="rect13695-1-20-89"
         style="fill:#25f200;fill-opacity:1;stroke:#25f200;stroke-width:1.654;stroke-dasharray:none;stroke-opacity:1"
         d="m 102.49582,89.962314 -0.17143,1.886524 -13.188252,-1.198247 0.171408,-1.886525 z" /><path
         id="rect13695-1-20-47"
         style="fill:#25f200;fill-opacity:1;stroke:#25f200;stroke-width:1.654;stroke-dasharray:none;stroke-opacity:1"
         d="m 118.70904,94.494746 -0.48923,1.830017 -12.79332,-3.420132 0.48929,-1.830022 z" /><path
         id="rect13695-1-20-15"
         style="fill:#25f200;fill-opacity:1;stroke:#25f200;stroke-width:1.654;stroke-dasharray:none;stroke-opacity:1"
         d="m 126.27594,79.574145 1.56328,1.069591 -7.47707,10.929659 -1.56336,-1.069572 z" /><path
         id="rect13695-1-20-15-7"
         style="fill:#25f200;fill-opacity:1;stroke:#25f200;stroke-width:1.654;stroke-dasharray:none;stroke-opacity:1"
         d="m 135.91973,65.376167 1.56354,1.069565 -7.47734,10.929689 -1.56338,-1.069593 z" /><path
         id="rect13695-1-20-15-1"
         style="fill:#25f200;fill-opacity:1;stroke:#25f200;stroke-width:1.654;stroke-dasharray:none;stroke-opacity:1"
         d="m 145.20654,51.08886 1.56337,1.069588 -7.47712,10.929666 -1.56341,-1.069563 z" /><path
         id="rect13695-1-20-15-71"
         style="fill:#25f200;fill-opacity:1;stroke:#25f200;stroke-width:1.654;stroke-dasharray:none;stroke-opacity:1"
         d="m 155.02896,36.980167 1.56349,1.069574 -7.47718,10.929672 -1.56353,-1.069589 z" /><path
         id="rect13695-1-20-15-10"
         style="fill:#25f200;fill-opacity:1;stroke:#25f200;stroke-width:1.654;stroke-dasharray:none;stroke-opacity:1"
         d="m 167.85745,40.502949 -1.12492,1.52405 -10.65435,-7.864561 1.12502,-1.52404 z" /><path
         id="rect13695-1-20-15-10-6"
         style="fill:#25f200;fill-opacity:1;stroke:#25f200;stroke-width:1.42262;stroke-dasharray:none;stroke-opacity:1"
         d="m 178.70243,49.298965 -0.92745,1.367539 -8.78387,-7.056932 0.92743,-1.36755 z" /><path
         id="rect13695-1-20-15-10-2"
         style="fill:#25f200;fill-opacity:1;stroke:#25f200;stroke-width:1.39443;stroke-dasharray:none;stroke-opacity:1"
         d="m 190.2252,57.322331 -0.94882,1.284365 -8.98592,-6.627654 0.94887,-1.284364 z" /><path
         id="rect13695-1-20-15-10-64"
         style="fill:#25f200;fill-opacity:1;stroke:#25f200;stroke-width:1.654;stroke-dasharray:none;stroke-opacity:1"
         d="m 202.92374,67.113042 -1.12503,1.524043 -10.65429,-7.864547 1.12501,-1.524053 z" /><path
         id="rect13695-1-20-15-10-0"
         style="fill:#25f200;fill-opacity:1;stroke:#25f200;stroke-width:1.654;stroke-dasharray:none;stroke-opacity:1"
         d="m 198.95152,70.245158 1.24309,1.429418 -9.99267,8.689845 -1.24308,-1.429401 z" /><path
         id="rect13695-1-20-15-10-0-3"
         style="fill:#25f200;fill-opacity:1;stroke:#25f200;stroke-width:1.654;stroke-dasharray:none;stroke-opacity:1"
         d="m 185.8251,81.585687 1.24299,1.42942 -9.99244,8.68984 -1.24316,-1.429401 z" /><path
         id="rect13695-1-20-15-10-0-39"
         style="fill:#25f200;fill-opacity:1;stroke:#25f200;stroke-width:1.654;stroke-dasharray:none;stroke-opacity:1"
         d="m 172.52011,93.015542 1.24291,1.429404 -9.99248,8.689744 -1.24295,-1.42942 z" /><path
         id="rect13695-1-20-15-10-0-5"
         style="fill:#25f200;fill-opacity:1;stroke:#25f200;stroke-width:1.654;stroke-dasharray:none;stroke-opacity:1"
         d="m 158.85796,103.82023 1.24295,1.42949 -9.99255,8.68982 -1.24312,-1.42937 z" /><path
         id="rect13695-1-20-15-10-0-8"
         style="fill:#25f200;fill-opacity:1;stroke:#25f200;stroke-width:1.654;stroke-dasharray:none;stroke-opacity:1"
         d="m 140.71949,119.66972 1.11729,-1.5297 10.69399,7.81037 -1.1173,1.52973 z" /><path
         id="rect13695-1-20-15-10-0-7"
         style="fill:#25f200;fill-opacity:1;stroke:#25f200;stroke-width:1.654;stroke-dasharray:none;stroke-opacity:1"
         d="m 153.15003,130.08871 1.39629,-1.28014 8.94929,9.76107 -1.39625,1.27996 z" /><path
         id="rect13695-1-20-15-10-0-396"
         style="fill:#25f200;fill-opacity:1;stroke:#25f200;stroke-width:1.654;stroke-dasharray:none;stroke-opacity:1"
         d="m 164.50297,140.89645 1.83432,0.47216 -3.30049,12.82468 -1.83455,-0.47207 z" /><path
         id="rect13695-1-20-15-10-0-4"
         style="fill:#25f200;fill-opacity:1;stroke:#25f200;stroke-width:1.654;stroke-dasharray:none;stroke-opacity:1"
         d="m 160.47187,155.16686 1.4212,1.25246 -8.75538,9.93517 -1.42124,-1.25242 z" /><path
         id="rect13695-1-20-15-10-0-47"
         style="fill:#25f200;fill-opacity:1;stroke:#25f200;stroke-width:1.654;stroke-dasharray:none;stroke-opacity:1"
         d="m 150.18778,166.94916 0.60407,1.79544 -12.55139,4.2224 -0.60401,-1.79536 z" /><path
         id="rect13695-1-20-15-10-0-9"
         style="fill:#25f200;fill-opacity:1;stroke:#25f200;stroke-width:1.654;stroke-dasharray:none;stroke-opacity:1"
         d="m 135.37929,170.19819 -0.84748,1.69404 -11.84339,-5.92452 0.84744,-1.69413 z" /><path
         id="rect13695-1-20-15-10-0-6"
         style="fill:#25f200;fill-opacity:1;stroke:#25f200;stroke-width:1.654;stroke-dasharray:none;stroke-opacity:1"
         d="m 111.15805,154.83344 1.416,-1.25842 8.79718,9.89816 -1.41597,1.2585 z" /></g></g></svg>
