<?xml version="1.0" encoding="UTF-8" standalone="no"?>
<!-- Created with Inkscape (http://www.inkscape.org/) -->

<svg
   width="231.31007mm"
   height="146.52956mm"
   viewBox="0 0 231.31007 146.52956"
   version="1.1"
   id="svg5"
   xml:space="preserve"
   xmlns="http://www.w3.org/2000/svg"
   xmlns:svg="http://www.w3.org/2000/svg"><defs
     id="defs2" /><g
     id="layer1"
     transform="translate(163.22672,-343.0526)"><g
       id="g172"
       transform="translate(161.48574,253.92152)"><path
         id="path111"
         style="fill:#d8a878;stroke-width:0.264583"
         d="m -136.33277,162.39586 a 73.264778,73.264778 0 0 1 -73.26478,73.26478 73.264778,73.264778 0 0 1 -73.26478,-73.26478 73.264778,73.264778 0 0 1 73.26478,-73.264779 73.264778,73.264778 0 0 1 73.26478,73.264779 z" /><path
         style="fill:#c58c57;fill-opacity:1;stroke-width:0.264583"
         d="m -170.48552,103.18156 c -0.33078,2.33917 -0.99396,7.02899 -3.30953,11.05973 -2.31557,4.03074 -6.28439,7.40846 -10.3799,10.22677 -4.09552,2.81831 -8.31753,5.07708 -12.88805,6.53377 -4.57052,1.45669 -9.48916,2.11109 -9.89024,2.60723 -0.40109,0.49614 3.71545,0.8339 7.29375,0.8761 3.5783,0.0422 6.6182,-0.21113 9.95369,-1.07671 3.33549,-0.86557 6.96648,-2.3433 10.82981,-4.01108 3.86333,-1.66778 7.95874,-3.52549 11.20976,-6.05878 3.25103,-2.53329 5.6576,-5.74206 7.0153,-8.11301 1.35769,-2.37094 1.66608,-3.90234 1.69219,-4.80497 0.0261,-0.90264 -0.23035,-1.17228 -0.62413,-1.5546 -0.39378,-0.38231 -0.92352,-0.8759 -1.41597,-1.31407 -0.49244,-0.43816 -0.9466,-0.81998 -1.67445,-1.42319 -0.72786,-0.60322 -1.73001,-1.42833 -2.61225,-2.10515 -0.88223,-0.67682 -1.64343,-1.20449 -2.32831,-1.6959 -0.68489,-0.4914 -1.29134,-0.94501 -1.70242,-1.18676 -0.41108,-0.24175 -0.62476,-0.27012 -0.73161,-0.2843 -0.10686,-0.0142 -0.10686,-0.0142 -0.43764,2.32492 z"
         id="path709" /><path
         style="fill:#c58c57;fill-opacity:1;stroke-width:0.264583"
         d="m -203.28506,158.77455 c -1.18227,1.62536 -4.51779,3.52534 -7.97994,4.81311 -3.46216,1.28778 -7.05093,1.96332 -11.12534,2.30111 -4.07441,0.3378 -8.63426,0.3378 -12.79313,0.3378 -4.15888,0 -7.91654,0 -11.67433,0.2111 -3.75778,0.2111 -7.51543,0.6333 -10.17537,0.4856 -2.65995,-0.1477 -4.22211,-0.86545 -3.71549,-1.51999 0.50662,-0.65453 3.0821,-1.24562 5.21434,-1.58337 2.13224,-0.33776 3.82107,-0.42221 5.53109,-0.35885 1.71002,0.0634 3.44107,0.27447 6.01659,0.0844 2.57552,-0.19004 5.99541,-0.78113 8.61311,-1.58336 2.6177,-0.80223 4.4332,-1.81553 7.02993,-2.68107 2.59672,-0.86555 5.97438,-1.5833 9.37326,-2.25885 3.39888,-0.67556 6.81879,-1.30887 9.30989,-1.73109 2.4911,-0.42221 4.05327,-0.63332 5.31993,-0.0632 1.26665,0.57017 2.23773,1.92124 1.05546,3.54659 z"
         id="path939"
         transform="translate(-1.25e-6)" /><path
         style="fill:#c58c57;fill-opacity:1;stroke-width:0.264583"
         d="m -142.92455,133.66567 c -0.47753,1.38527 -1.06298,5.29565 -2.54987,9.22077 -1.48689,3.92513 -3.87527,7.86597 -7.1593,10.73202 -3.28402,2.86605 -7.46368,4.65733 -12.24051,5.67243 -4.77683,1.0151 -10.15067,1.25394 -15.22612,1.5525 -5.07544,0.29855 -9.85218,0.65681 -14.56944,2.26901 -4.71727,1.61219 -9.37459,4.47824 -14.86796,6.68754 -5.49337,2.20931 -11.82255,3.76175 -18.15188,4.12005 -6.32932,0.3583 -12.65851,-0.47764 -18.5699,-1.43301 -5.91139,-0.95537 -11.40464,-2.03014 -16.30103,-1.67192 -4.8964,0.35823 -9.19524,2.14942 -12.4233,2.22934 -3.22805,0.0799 -5.38499,-1.55197 -6.4395,-2.17765 -1.0545,-0.62567 -1.00673,-0.2455 -0.93942,0.23509 0.0673,0.48058 0.15411,1.06117 0.24984,1.69747 0.0957,0.6363 0.20031,1.32783 0.34812,2.15692 0.1478,0.82909 0.339,1.79671 0.59551,2.94634 0.25652,1.14964 0.57863,2.48261 0.85599,3.54703 0.27735,1.06442 0.51014,1.86108 0.74386,2.62155 0.23373,0.76047 0.46853,1.48518 0.7262,2.23073 0.25766,0.74554 0.53912,1.51464 0.74922,2.08083 0.21009,0.5662 0.34904,0.93009 0.4538,1.19421 0.10475,0.26412 0.17529,0.42846 0.35936,0.8575 0.18407,0.42904 0.48159,1.12255 0.76233,1.7555 0.28075,0.63295 0.54427,1.20439 0.76543,1.67773 0.22116,0.47334 0.39937,0.84738 0.71383,1.46193 0.31445,0.61456 0.76409,1.4676 1.1648,2.20165 0.40071,0.73404 0.75149,1.34725 1.19579,2.09765 0.44431,0.75041 0.98073,1.63566 1.28597,2.14637 0.30524,0.5107 0.37783,0.64435 1.05757,0.37634 0.67975,-0.268 1.95549,-0.933 5.52196,-1.32657 3.56646,-0.39356 9.41797,-0.51299 15.86676,-1.11012 6.44879,-0.59713 13.49448,-1.6719 20.60012,-2.269 7.10565,-0.59709 14.27076,-0.71651 22.51087,-1.85105 8.24011,-1.13454 17.55476,-3.28407 24.2423,-5.79194 6.68755,-2.50786 10.74779,-5.37392 15.04704,-7.52352 4.29925,-2.14959 8.83717,-3.58262 12.83786,-4.2394 4.00069,-0.65678 7.46376,-0.53737 9.91397,-0.70398 2.45022,-0.16661 3.88721,-0.61912 4.83288,-0.93324 0.94567,-0.31413 1.39916,-0.48956 1.67327,-1.31309 0.27411,-0.82354 0.36829,-2.29392 0.43869,-3.39371 0.0704,-1.0998 0.117,-1.82884 0.2193,-3.30063 0.1023,-1.4718 0.26034,-3.68708 0.22069,-6.58816 -0.0396,-2.90108 -0.27698,-6.48859 -0.61273,-9.27889 -0.33575,-2.7903 -0.76965,-4.78118 -1.2224,-6.65805 -0.45275,-1.87688 -0.92408,-3.63852 -1.50428,-5.50488 -0.58019,-1.86637 -1.26926,-3.83734 -1.79875,-5.39198 -0.52949,-1.55464 -0.89941,-2.69298 -1.37694,-1.30771 z"
         id="path933" /><path
         style="fill:#c58c57;fill-opacity:1;stroke-width:0.264583"
         d="m -247.12742,225.31611 c -0.17382,-0.10365 -0.27214,-0.16198 -0.34945,-0.20896 -0.0773,-0.047 -0.1314,-0.0812 -0.17653,-0.10508 -0.0451,-0.0238 -0.0789,-0.0358 -0.0439,-0.0715 0.035,-0.0357 0.14165,-0.0971 0.9674,-0.61419 0.82576,-0.51713 2.37215,-1.49091 5.1757,-1.85836 2.80355,-0.36746 6.86372,-0.12862 10.92397,-1.3826 4.06025,-1.25398 8.12047,-4.0006 11.5837,-6.44875 3.46323,-2.44814 6.32928,-4.59767 10.27034,-5.55301 3.94106,-0.95535 8.95664,-0.71651 14.03209,-0.29853 5.07545,0.41799 10.21045,1.01508 14.62898,0.53734 4.41853,-0.47774 8.12052,-2.03018 11.94206,-3.22439 3.82155,-1.19421 7.76235,-2.03015 10.92698,-3.10496 3.16463,-1.07481 5.55337,-2.38861 7.28925,-3.10241 1.73589,-0.7138 2.82117,-0.82817 3.33925,-0.85901 0.51808,-0.0309 0.47206,0.0215 0.38754,0.15379 -0.0845,0.13225 -0.20725,0.34388 -0.36963,0.61155 -0.16238,0.26767 -0.36489,0.59215 -0.58463,0.94758 -0.21975,0.35542 -0.45701,0.74223 -0.68926,1.11161 -0.23225,0.36937 -0.46012,0.72231 -0.69038,1.07022 -0.23026,0.34792 -0.46335,0.69148 -0.70906,1.04625 -0.2457,0.35477 -0.50373,0.72032 -0.76666,1.08757 -0.26294,0.36725 -0.53085,0.73632 -0.78566,1.08272 -0.25481,0.34641 -0.49664,0.67032 -0.73601,0.9752 -0.23936,0.30488 -0.47627,0.59075 -0.69688,0.88085 -0.22061,0.29011 -0.4244,0.58375 -0.62054,0.83244 -0.19614,0.24869 -0.38351,0.45103 -1.16032,0.7643 -0.77682,0.31327 -2.1406,0.73631 -4.25622,1.42572 -2.11562,0.68942 -4.98156,1.64473 -8.08658,3.0778 -3.10501,1.43307 -6.44874,3.34377 -10.21047,4.71712 -3.76174,1.37336 -7.9414,2.20929 -11.82259,2.62729 -3.88118,0.41799 -7.46374,0.41799 -9.6133,0.23893 -2.14955,-0.17905 -2.86606,-0.53731 -4.53805,-0.35827 -1.672,0.17904 -4.29921,0.89555 -7.10568,2.08978 -2.80647,1.19422 -5.79192,2.86608 -9.73655,4.36072 -3.94463,1.49464 -8.82733,2.80635 -11.37502,3.4143 -2.54769,0.60794 -2.71699,0.50158 -3.15237,0.32391 -0.43539,-0.17768 -1.13501,-0.42569 -1.81161,-0.67999 -0.6766,-0.25429 -1.32851,-0.51425 -1.84178,-0.72442 -0.51328,-0.21017 -0.88628,-0.36989 -1.3383,-0.56923 -0.45202,-0.19933 -0.98267,-0.43812 -1.41946,-0.6388 -0.43678,-0.20067 -0.77924,-0.36302 -1.12076,-0.52796 -0.34153,-0.16495 -0.68119,-0.33205 -1.10306,-0.54534 -0.42188,-0.2133 -0.92773,-0.47369 -1.3536,-0.69871 -0.42588,-0.22502 -0.77369,-0.41568 -1.18228,-0.64338 -0.40858,-0.2277 -0.87994,-0.49356 -1.23923,-0.70035 -0.35928,-0.2068 -0.60757,-0.35514 -0.78139,-0.45878 z"
         id="path2588"
         transform="translate(-1.25e-6)" /><path
         style="fill:#c58c57;fill-opacity:1;stroke-width:0.264583"
         d="m -171.50589,198.21656 c 0.99787,-0.28083 2.9934,-0.84242 4.92995,-1.17397 1.93655,-0.33156 3.81397,-0.43312 5.08365,-0.28263 1.26968,0.15048 1.93152,0.55279 2.2141,1.15583 0.28258,0.60305 0.18623,1.40679 -0.3642,2.02837 -0.55044,0.62159 -1.55513,1.06122 -2.8786,1.58181 -1.32348,0.52058 -2.9657,1.12209 -4.73121,1.74271 -1.76552,0.62062 -3.65424,1.26032 -5.54558,1.67959 -1.89134,0.41927 -3.78527,0.61804 -5.52775,0.57252 -1.74249,-0.0455 -3.3335,-0.33542 -4.5522,-0.46218 -1.21869,-0.12677 -2.06496,-0.0903 -1.96562,-0.26351 0.0993,-0.1732 1.14439,-0.55598 2.03434,-0.82005 0.88995,-0.26408 1.62469,-0.40945 2.4742,-0.73041 0.84951,-0.32095 1.81383,-0.81744 2.70459,-1.38143 0.89075,-0.56398 1.70796,-1.19544 2.55016,-1.76767 0.8422,-0.57224 1.7093,-1.08521 2.14281,-1.34166 0.4335,-0.25646 0.43349,-0.25649 1.43136,-0.53732 z"
         id="path4132" /><path
         style="fill:#f5c499;fill-opacity:1;stroke-width:0.264583"
         d="m -280.2054,165.45666 c -0.0185,-0.96834 -0.0555,-2.90527 0.0368,-5.16595 0.0923,-2.26069 0.31398,-4.84503 0.87721,-8.02131 0.56324,-3.17628 1.46804,-6.94427 2.56838,-10.52764 1.10033,-3.58338 2.39605,-6.98168 3.63542,-9.76038 1.23936,-2.7787 2.42204,-4.93703 3.55149,-6.72544 1.12945,-1.7884 2.20551,-3.20659 3.74754,-5.1226 1.54202,-1.91601 3.54999,-4.32982 5.43903,-6.44801 1.88903,-2.11818 3.65894,-3.94053 5.45627,-5.60003 1.79734,-1.6595 3.62203,-3.15609 6.39099,-4.99085 2.76896,-1.83475 6.4815,-4.007245 10.30087,-5.622921 3.81938,-1.615677 7.74453,-2.674093 7.01207,-1.678455 -0.73245,0.995638 -6.12236,4.045284 -10.49711,7.000316 -4.37476,2.95504 -7.73323,5.81469 -10.32494,8.49446 -2.59171,2.67978 -4.41627,5.1793 -6.22324,7.51052 -1.80697,2.33121 -3.59626,4.494 -5.14563,6.69427 -1.54937,2.20028 -2.85871,4.43785 -3.9324,6.51752 -1.07369,2.07966 -1.91167,4.00124 -2.6975,6.42425 -0.78583,2.42301 -1.51944,5.34712 -2.21331,8.13521 -0.69387,2.78809 -1.34794,5.43991 -2.0021,7.90409 -0.65417,2.46417 -1.30838,4.74052 -1.93943,6.73338 -0.63104,1.99286 -1.23888,3.70213 -1.77703,4.74842 -0.53816,1.04628 -1.00668,1.4297 -1.36916,1.39764 -0.36249,-0.032 -0.61903,-0.47993 -0.74738,-0.70402 -0.12835,-0.22408 -0.12834,-0.22414 -0.14684,-1.19247 z"
         id="path4136" /><path
         style="fill:#000000;fill-opacity:0.326425;stroke-width:0.264583"
         d="m -183.11527,94.088307 c 0.36396,0.148894 1.09156,0.446549 1.84156,0.762363 0.75,0.315815 1.5226,0.649872 2.21877,0.965733 0.69617,0.315861 1.31658,0.613806 1.86214,0.880313 0.54555,0.266507 1.01543,0.501167 1.93334,1.002587 0.91791,0.50142 2.28156,1.26834 3.32112,1.879353 1.03955,0.611014 1.75416,1.065614 2.65168,1.662254 0.89753,0.59664 1.97786,1.33523 3.13769,2.18706 1.15983,0.85182 2.39903,1.81676 3.48718,2.71819 1.08815,0.90142 2.0252,1.73925 3.02841,2.69287 1.00322,0.95361 2.07256,2.02296 3.03718,3.03169 0.96463,1.00874 1.82452,1.95682 2.73402,3.0262 0.90951,1.06937 1.8686,2.25997 2.87732,3.62149 1.00872,1.36153 2.06703,2.89387 2.80014,3.99631 0.73312,1.10245 1.141,1.77491 1.75837,2.85531 0.61736,1.0804 1.44417,2.56866 2.20713,4.04298 0.76296,1.47432 1.46202,2.93458 2.03984,4.29478 0.57783,1.36019 1.03437,2.62013 1.46338,3.81145 0.42902,1.19132 0.83045,2.31388 1.21723,3.62161 0.38678,1.30773 0.75893,2.80057 1.08804,4.14459 0.32912,1.34403 0.61518,2.53917 0.8331,3.62508 0.21791,1.08591 0.36767,2.06243 0.44511,2.65548 0.0774,0.59305 0.0826,0.80252 0.10767,1.17665 0.0251,0.37413 0.0703,0.91513 0.11635,1.40593 0.046,0.4908 0.0938,0.94086 0.1466,1.41579 0.0528,0.47493 0.11183,0.98467 0.16238,1.49819 0.0506,0.51353 0.0938,1.0424 0.12652,1.61846 0.0327,0.57606 0.0558,1.21412 0.0725,1.87793 0.0167,0.66381 0.0274,1.36501 0.0278,2.05725 3.6e-4,0.69224 -0.01,1.38501 -0.0309,2.10339 -0.0213,0.71838 -0.0543,1.4716 -0.10411,2.25924 -0.0498,0.78765 -0.11709,1.61927 -0.17229,2.31343 -0.0552,0.69417 -0.099,1.25917 -0.13708,1.78864 -0.0381,0.52947 -0.071,1.03106 -0.10987,1.50168 -0.0389,0.47061 -0.0846,0.92215 -0.12692,1.26342 -0.0423,0.34128 -0.0817,0.57817 -0.13064,0.79071 -0.0489,0.21253 -0.10724,0.39984 -0.16521,0.55432 -0.058,0.15448 -0.1174,0.28055 -0.14973,0.35216 -0.0323,0.0716 -0.0393,0.0929 -0.0511,0.14916 -0.0118,0.0562 -0.0302,0.15645 -0.0492,0.24797 -0.0189,0.0915 -0.0403,0.18414 -0.0589,0.27038 -0.0185,0.0862 -0.0358,0.17374 -0.0593,0.29226 -0.0235,0.11853 -0.0555,0.27953 -0.0857,0.42803 -0.0302,0.14849 -0.0616,0.29892 -0.0921,0.44683 -0.0304,0.14791 -0.0623,0.30469 -0.17768,0.84106 -0.11541,0.53637 -0.3192,1.47469 -0.54231,2.37235 -0.22312,0.89765 -0.46992,1.77306 -0.7637,2.72657 -0.29378,0.95352 -0.63759,1.99513 -0.98621,3.01121 -0.34862,1.01608 -0.70459,2.01401 -1.16172,3.13699 -0.45713,1.12299 -1.01856,2.37872 -1.63307,3.68966 -0.61451,1.31094 -1.28595,2.68535 -1.99748,4.03305 -0.71152,1.34771 -1.46623,2.67468 -2.34628,4.06922 -0.88005,1.39454 -1.88818,2.86105 -2.9604,4.32698 -1.07223,1.46594 -2.21092,2.93456 -3.55766,4.50212 -1.34675,1.56757 -2.90355,3.23646 -4.55093,4.82663 -1.64739,1.59018 -3.38611,3.10242 -4.94,4.36728 -1.55389,1.26485 -2.92211,2.28167 -3.66517,2.81471 -0.74307,0.53304 -0.85989,0.58149 -0.60057,0.0214 0.25931,-0.56014 0.89487,-1.72873 1.47215,-2.74066 0.57728,-1.01192 1.09583,-1.8664 1.69205,-2.86268 0.59622,-0.99628 1.26976,-2.13378 2.10458,-3.53108 0.83481,-1.39729 1.83054,-3.05377 3.09633,-5.33241 1.2658,-2.27865 2.80132,-5.17887 4.31564,-8.96884 1.51432,-3.78996 3.00734,-8.46949 4.04823,-13.07457 1.04089,-4.60508 1.62948,-9.13519 1.93698,-12.95707 0.3075,-3.82188 0.33393,-6.93596 0.30028,-9.43249 -0.0337,-2.49653 -0.12738,-4.37417 -0.25968,-6.16035 -0.1323,-1.78619 -0.30314,-3.47991 -0.69165,-5.67693 -0.38851,-2.19701 -0.99493,-4.89834 -1.45246,-7.26308 -0.45752,-2.36474 -0.76619,-4.39317 -1.11896,-6.22322 -0.35277,-1.83005 -0.74963,-3.4616 -1.26225,-5.23653 -0.51262,-1.77493 -1.141,-3.69313 -1.8245,-5.4846 -0.68349,-1.79147 -1.4221,-3.45609 -2.36467,-5.22 -0.94257,-1.76392 -2.08907,-3.62699 -3.21354,-5.25861 -1.12448,-1.63163 -2.22688,-3.03168 -3.51671,-4.42077 -1.28984,-1.3891 -2.76707,-2.76712 -4.1837,-4.07902 -1.41664,-1.3119 -2.77261,-2.55763 -4.079,-3.7648 -1.30639,-1.20718 -2.56313,-2.37572 -3.97425,-3.51126 -1.41112,-1.135537 -2.97653,-2.237938 -4.16717,-3.103351 -1.19065,-0.865412 -2.00642,-1.49378 -2.53008,-1.912694 -0.52367,-0.418914 -0.75517,-0.628369 -0.8325,-0.887473 -0.0773,-0.259104 -1.7e-4,-0.567774 0.1598,-0.75531 0.15996,-0.187536 0.40249,-0.253682 0.52367,-0.28673 0.12118,-0.03305 0.12097,-0.03307 0.48493,0.115825 z"
         id="path4884" /><path
         id="path234"
         style="display:inline;fill:#f5d1b1;fill-opacity:1;stroke-width:0.329269"
         d="m -133.475,110.63371 a 39.486082,121.34648 71.336772 0 0 -22.96398,1.33325 73.264778,73.264778 0 0 1 9.28626,11.97188 28.532662,89.31942 71.825045 0 1 18.17511,9.57513 28.532662,89.31942 71.825045 0 1 -73.6172,54.93411 28.532662,89.31942 71.825045 0 1 -95.61588,2.11305 28.532662,89.31942 71.825045 0 1 15.53291,-25.88731 73.264778,73.264778 0 0 1 -0.091,-2.28926 73.264778,73.264778 0 0 1 0.49919,-8.04912 39.486082,121.34648 71.336772 0 0 -41.48326,49.77473 39.486082,121.34648 71.336772 0 0 129.60243,-2.93108 39.486082,121.34648 71.336772 0 0 99.783047,-76.19794 39.486082,121.34648 71.336772 0 0 -39.107677,-14.34744 z"
         transform="translate(-1.25e-6)" /><path
         style="fill:#000000;fill-opacity:0.326425;stroke-width:0.264583"
         d="m -140.04878,124.6944 c 0.0621,-0.65957 0.18735,-1.9906 0.21076,-3.3236 0.0234,-1.33301 -0.0546,-2.67379 -0.28059,-4.19388 -0.22605,-1.5201 -0.60022,-3.21946 -0.96653,-4.30302 -0.36631,-1.08357 -0.72488,-1.55128 -1.00549,-1.79308 -0.2806,-0.2418 -0.48328,-0.2574 -0.99,-0.23404 -0.50673,0.0234 -1.31743,0.0857 -2.25288,0.14809 -0.93545,0.0624 -1.99541,0.12472 -3.04374,0.20346 -1.04833,0.0787 -2.08404,0.1738 -3.10154,0.27099 -1.01751,0.0972 -2.01593,0.19639 -2.78694,0.27241 -0.77101,0.076 -1.31369,0.12875 -1.62703,0.16148 -0.31333,0.0327 -0.39448,0.0451 -0.4507,0.0508 -0.0562,0.006 -0.0854,0.004 -0.0871,0.017 -0.002,0.0127 0.0238,0.0393 0.0988,0.11448 0.075,0.0752 0.19691,0.19652 0.48441,0.50636 0.2875,0.30985 0.73895,0.80659 1.38378,1.53449 0.64482,0.7279 1.4828,1.68671 2.31495,2.73326 0.83214,1.04654 1.65875,2.18118 2.27407,3.04277 0.61531,0.8616 1.02008,1.45118 1.41194,2.0419 0.39186,0.59072 0.77177,1.18408 0.98332,1.51105 0.21155,0.32698 0.25757,0.39201 0.2842,0.42963 0.0266,0.0376 0.0345,0.0487 0.0431,0.0539 0.009,0.005 0.0185,0.005 0.0516,0.009 0.0332,0.003 0.0874,0.01 0.17432,0.0222 0.087,0.0126 0.20218,0.0309 0.39043,0.0602 0.18825,0.0294 0.44865,0.0696 0.69929,0.11034 0.25065,0.0407 0.4909,0.0818 0.81846,0.14242 0.32757,0.0606 0.7425,0.14083 1.08776,0.21054 0.34526,0.0697 0.62147,0.12904 0.90718,0.19328 0.28571,0.0642 0.58006,0.1332 0.90194,0.21276 0.32187,0.0796 0.73857,0.18712 0.94485,0.24202 0.20629,0.0549 0.39072,0.10713 0.56404,0.15655 0.17332,0.0494 0.32368,0.0926 0.48513,0.13895 0.005,-0.0278 0.0107,-0.0555 0.0134,-0.0694 0.003,-0.0139 0.003,-0.0138 0.0648,-0.67332 z"
         id="path6449" /><path
         style="fill:#fbe1ca;fill-opacity:1;stroke-width:0.264583"
         d="m -322.1793,199.8467 c 0.0156,1.26291 0.32746,2.69725 1.15386,4.33429 0.82639,1.63704 2.16718,3.47671 3.49244,4.84866 1.32527,1.37194 2.63486,2.27619 4.36545,3.02449 1.7306,0.7483 3.88208,1.34074 7.04703,2.02672 3.16496,0.68599 7.34319,1.4655 11.33443,1.85524 3.99124,0.38974 7.7953,0.38974 12.53494,0.31178 4.73963,-0.078 10.41453,-0.23387 15.16972,-0.59247 4.7552,-0.3586 8.59044,-0.91985 13.09621,-1.57467 4.50577,-0.65481 9.68179,-1.40316 14.79558,-2.35421 5.11379,-0.95105 10.16509,-2.10475 15.15416,-3.33643 4.98907,-1.23168 9.91565,-2.54127 13.93807,-3.71059 4.02243,-1.16931 7.14052,-2.19828 10.50815,-3.32083 3.36762,-1.12255 6.98459,-2.3386 10.80435,-3.74178 3.81976,-1.40318 7.8421,-2.99341 9.8221,-3.88189 1.98,-0.88848 1.91764,-1.07557 1.12253,-0.95102 -0.79511,0.12455 -2.32297,0.56107 -6.09599,1.76158 -3.77302,1.2005 -9.79093,3.1649 -14.70203,4.64603 -4.9111,1.48113 -8.71516,2.47892 -14.45261,3.78856 -5.73745,1.30964 -13.40793,2.93104 -20.87595,4.27186 -7.46802,1.34082 -14.73316,2.40096 -21.26571,3.14932 -6.53256,0.74837 -12.3322,1.1849 -17.36803,1.24727 -5.03582,0.0624 -9.30759,-0.24943 -13.14294,-0.71714 -3.83534,-0.46771 -7.23404,-1.09132 -10.60167,-1.82408 -3.36762,-0.73276 -6.70397,-1.57464 -9.15174,-2.52562 -2.44776,-0.95098 -4.00681,-2.01113 -5.30087,-3.10245 -1.29406,-1.09132 -2.32303,-2.21384 -3.04026,-3.22723 -0.71724,-1.01338 -1.12258,-1.91763 -1.54349,-2.65041 -0.42091,-0.73278 -0.85745,-1.29403 -1.51224,-1.62156 -0.65479,-0.32754 -1.52785,-0.42109 -2.35424,-0.312 -0.82639,0.10909 -1.60591,0.4209 -2.13609,1.12261 -0.53018,0.70172 -0.81081,1.79305 -0.79516,3.05597 z"
         id="path6479" /></g></g></svg>
