<?xml version="1.0" encoding="UTF-8" standalone="no"?>
<!-- Created with Inkscape (http://www.inkscape.org/) -->

<svg
   width="122.52596mm"
   height="122.52596mm"
   viewBox="0 0 122.52596 122.52593"
   version="1.1"
   id="svg23544"
   xml:space="preserve"
   xmlns:xlink="http://www.w3.org/1999/xlink"
   xmlns="http://www.w3.org/2000/svg"
   xmlns:svg="http://www.w3.org/2000/svg"><defs
     id="defs23541"><linearGradient
       id="linearGradient986"><stop
         style="stop-color:#dd2b00;stop-opacity:1;"
         offset="0.34032634"
         id="stop982" /><stop
         style="stop-color:#ef3800;stop-opacity:0;"
         offset="1"
         id="stop984" /></linearGradient><radialGradient
       xlink:href="#linearGradient986"
       id="radialGradient988"
       cx="-301.13336"
       cy="156.89629"
       fx="-301.13336"
       fy="156.89629"
       r="117.86852"
       gradientUnits="userSpaceOnUse"
       gradientTransform="matrix(0.51975689,0,0,0.51975689,-225.58465,-5.6190699)" /></defs><g
     id="layer1"
     transform="translate(443.36377,-14.665878)"><path
       id="path955"
       style="opacity:1;fill:url(#radialGradient988);stroke:#fef2f0;stroke-width:0"
       d="m -320.83781,75.928858 a 61.26298,61.26298 0 0 1 -61.26298,61.262972 61.26298,61.26298 0 0 1 -61.26298,-61.262972 61.26298,61.26298 0 0 1 61.26298,-61.26298 61.26298,61.26298 0 0 1 61.26298,61.26298 z" /><path
       id="path23717"
       style="fill:#de4300;stroke:#fef2f0;stroke-width:0"
       d="m -337.91395,75.723792 a 44.083284,44.083284 0 0 1 -44.08329,44.083288 44.083284,44.083284 0 0 1 -44.08328,-44.083288 44.083284,44.083284 0 0 1 44.08328,-44.083286 44.083284,44.083284 0 0 1 44.08329,44.083286 z" /><path
       style="fill:#ee9a04;fill-opacity:0.466463;stroke:#fef2f0;stroke-width:0"
       d="m -400.81075,109.64584 c 1.4004,0.36374 4.20107,1.09118 6.21968,0.78199 2.01861,-0.30919 3.25524,-1.65494 2.49146,-3.16437 -0.76378,-1.50943 -3.52801,-3.18253 -4.11003,-5.43766 -0.58203,-2.255138 1.01833,-5.092123 2.61873,-7.419989 1.60041,-2.327862 3.20076,-4.146445 2.60066,-5.728626 -0.6001,-1.582181 -3.40071,-2.927929 -5.9468,-4.037302 -2.54609,-1.109372 -4.8375,-1.98229 -5.29221,-3.382664 -0.45472,-1.40037 0.9274,-3.328061 2.36417,-4.510188 1.43677,-1.182127 2.928,-1.618591 4.12825,-2.837046 1.20024,-1.218454 2.10954,-3.218896 4.07373,-4.491968 1.96419,-1.273071 4.98304,-1.818647 7.01985,-3.00074 2.0368,-1.182092 3.09158,-3.000671 1.34573,-4.055487 -1.74584,-1.054816 -6.2923,-1.345792 -9.83868,-0.400097 -3.54639,0.945695 -6.0924,3.127991 -8.83849,4.091867 -2.74608,0.963875 -5.69218,0.709275 -8.38378,0.9275 -2.69161,0.218226 -5.12851,0.909285 -6.98355,2.564286 -1.85506,1.655 -3.12806,4.27376 -4.48289,5.701347 -1.35483,1.427583 -2.79151,1.663998 -3.5099,1.809555 -0.71841,0.145552 -0.71841,0.200113 -0.67294,0.973042 0.0455,0.772933 0.1364,2.264165 0.32737,3.773638 0.19097,1.509474 0.48194,3.037086 0.78657,4.328312 0.30463,1.291232 0.62288,2.346009 1.09119,3.659978 0.4683,1.313969 1.08662,2.88704 1.75498,4.36013 0.66835,1.473094 1.3867,2.846125 2.30057,4.332861 0.91388,1.486731 2.02321,3.087081 3.26444,4.637461 1.24123,1.55038 2.61426,3.05071 4.08736,4.4465 1.4731,1.39579 3.04617,2.68699 4.36469,3.68723 1.31851,1.00024 2.38238,1.70949 3.00072,2.09137 0.61833,0.38189 0.79109,0.43645 0.87287,0.41375 0.0818,-0.0227 0.0727,-0.12271 0.009,-0.52281 -0.0636,-0.4001 -0.18186,-1.10025 -0.1455,-1.72317 0.0364,-0.62291 0.2273,-1.16849 0.60017,-1.52771 0.37287,-0.35922 0.92754,-0.53199 1.20484,-0.61836 0.2773,-0.0864 0.27729,-0.0864 1.67769,0.27737 z"
       id="path25264" /><path
       style="fill:#ee9a04;fill-opacity:0.466463;stroke:#fef2f0;stroke-width:0"
       d="m -363.57181,115.47847 c -0.42431,-0.0579 -1.27304,-0.1736 -2.05751,-0.86154 -0.78446,-0.68794 -1.50458,-1.94815 -3.25993,-2.43688 -1.75535,-0.48874 -4.54582,-0.20584 -6.3783,-0.30224 -1.83248,-0.0964 -2.70691,-0.57221 -2.68767,-1.22166 0.0192,-0.64946 0.93224,-1.47245 2.53976,-1.91611 1.60752,-0.44365 3.90934,-0.50795 5.45893,-0.31501 1.5496,0.19294 2.34688,0.64301 3.54921,0.36004 1.20233,-0.28297 2.80975,-1.29885 2.46257,-2.14756 -0.34718,-0.84871 -2.649,-1.53025 -4.3465,-2.76474 -1.6975,-1.23449 -2.79054,-3.02193 -2.36618,-4.565168 0.42436,-1.543239 2.36611,-2.842029 3.23413,-4.307965 0.86801,-1.465935 0.66226,-3.099067 1.20238,-4.372246 0.54012,-1.273175 1.82605,-2.186186 1.96112,-3.009152 0.13507,-0.822963 -0.88082,-1.555946 -2.15398,-1.395244 -1.27317,0.160701 -2.80343,1.215164 -4.53301,1.588107 -1.72958,0.372944 -3.65847,0.06432 -4.71944,-0.90011 -1.06097,-0.964432 -1.25387,-2.584706 -2.10898,-3.600662 -0.85512,-1.015955 -2.37252,-1.427454 -2.77124,-2.263334 -0.39872,-0.835884 0.32141,-2.096098 1.15737,-2.404695 0.83595,-0.308597 1.78754,0.334368 2.88705,1.009495 1.09951,0.675131 2.34686,1.38239 3.54922,1.652394 1.20237,0.270003 2.3597,0.102833 3.48488,-0.360117 1.12519,-0.462953 2.21824,-1.221655 3.3178,-1.478818 1.09955,-0.257168 2.20545,-0.01284 2.98985,0.803808 0.78439,0.816647 1.24733,2.205456 2.31471,2.713326 1.06738,0.507875 2.73909,0.134952 3.66494,-1.086664 0.92584,-1.221616 1.10587,-3.291966 0.49509,-4.854419 -0.61078,-1.562454 -2.01244,-2.616916 -3.15052,-3.555663 -1.13809,-0.938752 -2.01252,-1.761749 -1.90325,-2.475525 0.10928,-0.713777 1.20233,-1.318165 2.19256,-1.292381 0.99025,0.0258 1.87754,0.681605 2.91269,0.591526 1.03516,-0.09008 2.21821,-0.925932 2.46257,-1.787462 0.24437,-0.86153 -0.45004,-1.748822 -0.23142,-2.359732 0.2186,-0.610905 1.35022,-0.945247 2.469,1.633227 1.11877,2.578474 2.22467,8.069401 2.46897,11.901545 0.2443,3.832145 -0.37295,6.005366 -1.15739,8.069332 -0.78444,2.06397 -1.73603,4.018582 -1.54306,5.002319 0.19298,0.983737 1.53035,0.996603 2.84201,0.777973 1.31167,-0.218626 2.5976,-0.668705 3.44633,-0.450002 0.84874,0.218699 1.26023,1.105991 1.48928,2.065189 0.22906,0.959194 0.27571,1.990251 0.29505,2.511418 0.0193,0.521167 0.0114,0.532542 -0.0221,0.588253 -0.0335,0.05571 -0.0926,0.15573 -0.16652,0.280194 -0.0739,0.124464 -0.16254,0.273359 -0.32849,0.536492 -0.16595,0.263134 -0.40918,0.640488 -0.79053,1.209951 -0.38134,0.56946 -0.90077,1.33099 -1.41056,2.01411 -0.50978,0.68312 -1.00989,1.28779 -1.51911,1.89703 -0.50921,0.60925 -1.02751,1.22302 -1.53218,1.76178 -0.50466,0.53876 -0.99568,1.0025 -1.72768,1.67085 -0.732,0.66835 -1.70494,1.54127 -2.70519,2.34374 -1.00024,0.80246 -2.02774,1.53444 -3.05072,2.23007 -1.02298,0.69562 -2.04138,1.35486 -2.8734,1.84816 -0.83201,0.4933 -1.47761,0.82065 -1.90498,1.02979 -0.42737,0.20914 -0.63651,0.30007 -0.77067,0.35584 -0.13416,0.0558 -0.19336,0.0764 -0.22299,0.0867 -0.0296,0.0103 -0.0296,0.0103 -0.45393,-0.0476 z"
       id="path28526" /><path
       style="fill:#ee9a04;fill-opacity:0.466463;stroke:#fef2f0;stroke-width:0"
       d="m -338.96504,81.416701 c -0.6622,-0.151087 -1.98673,-0.453288 -3.18591,-1.218399 -1.19918,-0.765111 -2.27293,-1.993175 -3.21814,-3.365939 -0.9452,-1.372769 -1.76177,-2.890168 -2.27617,-4.439764 -0.51442,-1.5496 -0.7266,-3.131294 -0.81341,-4.285458 -0.0868,-1.15416 -0.0482,-1.880712 0.0771,-2.809837 0.12538,-0.929124 0.33756,-2.060744 0.57548,-2.729491 0.23792,-0.668753 0.50154,-0.874504 0.688,-0.524001 0.18646,0.350502 0.29577,1.257082 0.50475,2.366239 0.20897,1.109157 0.5176,2.420805 1.00308,3.661765 0.48548,1.240961 1.14773,2.411157 1.94506,3.275939 0.79733,0.864782 1.72963,1.424163 2.70375,2.057509 0.97413,0.633346 1.99001,1.34061 2.50436,1.710345 0.51434,0.36973 0.52721,0.401889 0.53523,0.505557 0.008,0.103672 0.0112,0.278876 0.01,0.568224 -0.002,0.289343 -0.008,0.692804 -0.0289,1.21603 -0.0209,0.523225 -0.0563,1.16619 -0.0948,1.695041 -0.0386,0.52885 -0.0804,0.943562 -0.12056,1.308455 -0.0402,0.364894 -0.0788,0.679943 -0.10288,0.864795 -0.0241,0.184853 -0.0338,0.239508 -0.0386,0.266791 -0.005,0.02726 -0.005,0.02726 -0.66702,-0.123801 z"
       id="path28530" /><path
       style="fill:#ee9a04;fill-opacity:0.466463;stroke:#fef2f0;stroke-width:0"
       d="m -401.26547,36.596566 c -0.009,0.504722 -0.0273,1.514054 0.39104,2.818941 0.41833,1.304885 1.27307,2.905236 2.62488,4.228433 1.35182,1.323196 3.20057,2.369225 5.05087,3.072262 1.8503,0.703036 3.70204,1.063096 4.13918,2.246208 0.43714,1.183111 -0.54017,3.189162 -0.28289,4.732345 0.25729,1.543183 1.74897,2.623364 3.98654,2.906216 2.23758,0.282848 5.22094,-0.231526 7.53568,0.540141 2.31474,0.771662 3.96074,2.829154 3.65203,4.93808 -0.3087,2.10893 -2.57193,4.269293 -3.00909,6.146865 -0.43717,1.877571 0.95164,3.472131 1.95463,3.343489 1.00299,-0.128637 1.62023,-1.980382 2.49471,-3.472136 0.87447,-1.491757 2.00609,-2.623377 3.52361,-2.726209 1.51751,-0.102833 3.42069,0.823035 4.16649,0.385826 0.74579,-0.437208 0.3343,-2.237511 1.56889,-3.189189 1.23458,-0.951677 4.11507,-1.054553 6.37836,-1.260313 2.26328,-0.205764 3.90928,-0.514387 4.06357,-1.826013 0.1543,-1.311622 -1.18307,-3.626294 -1.5689,-5.709596 -0.38583,-2.083301 0.17998,-3.935039 -0.64298,-4.93812 -0.82297,-1.00308 -3.03477,-1.157391 -5.32385,-0.282931 -2.28908,0.874459 -4.65519,2.777637 -6.867,3.266327 -2.21181,0.48869 -4.26929,-0.43718 -6.48119,-0.59153 -2.2119,-0.154349 -4.57801,0.462897 -5.52967,0.10286 -0.95165,-0.360037 -0.48871,-1.697404 -1.05448,-2.95764 -0.56576,-1.260235 -2.16031,-2.443292 -3.0091,-3.960727 -0.84879,-1.517435 -0.95167,-3.369175 -0.61733,-5.272441 0.33434,-1.903265 1.1059,-3.85788 1.51581,-5.057019 0.4099,-1.199138 0.45813,-1.642784 0.43247,-1.906404 -0.0257,-0.263621 -0.12531,-0.347208 -0.20729,-0.405895 -0.082,-0.05869 -0.14627,-0.09244 -0.20174,-0.107754 -0.0555,-0.01531 -0.10209,-0.01209 -0.41228,-0.0059 -0.3102,0.0062 -0.88397,0.01544 -1.43798,0.04391 -0.554,0.02848 -1.08821,0.07621 -1.54514,0.117132 -0.45694,0.04092 -0.83656,0.07502 -1.26849,0.131848 -0.43193,0.05683 -0.91613,0.136392 -1.46854,0.226188 -0.55242,0.0898 -1.17301,0.189817 -1.71746,0.292113 -0.54446,0.102296 -1.01275,0.206865 -1.52424,0.32394 -0.51149,0.117075 -1.06616,0.246648 -1.54128,0.372814 -0.47512,0.126166 -0.87067,0.248921 -1.21453,0.354182 -0.34385,0.105262 -0.63602,0.193026 -1.06181,0.333357 -0.42579,0.140331 -0.98517,0.333221 -1.54939,0.537369 -0.56423,0.204148 -1.13325,0.41954 -1.61549,0.617258 -0.48224,0.197717 -0.87767,0.377749 -1.22327,0.540102 -0.34561,0.162354 -0.64138,0.307022 -0.81544,0.395216 -0.17408,0.08819 -0.22643,0.11991 -0.25262,0.135778 -0.0262,0.01587 -0.0262,0.01587 -0.0353,0.520592 z"
       id="path28534" /><path
       style="fill:#ee9a04;fill-opacity:0.466463;stroke:#fef2f0;stroke-width:0"
       d="m -423.67747,62.693142 c 0.52083,-0.279703 1.56246,-0.839097 3.79686,-1.552809 2.2344,-0.713716 5.66141,-1.58172 8.54199,-2.035008 2.88058,-0.453292 5.21455,-0.491869 6.82523,-0.269999 1.61068,0.221869 2.49797,0.704093 3.3017,1.122031 0.80373,0.417934 1.52385,0.771568 2.69728,0.755446 1.17343,-0.01611 2.80013,-0.401902 3.58132,-0.700812 0.7812,-0.29891 0.7169,-0.511088 0.31506,-0.581887 -0.40183,-0.0708 -1.14125,-7.7e-5 -1.93854,0.01279 -0.79729,0.01288 -1.65244,-0.03213 -2.56226,-0.482181 -0.90982,-0.450045 -1.87427,-1.305191 -3.28883,-1.912849 -1.41457,-0.607657 -3.27917,-0.967722 -4.72911,-1.154198 -1.44993,-0.186476 -2.4851,-0.199342 -3.76785,-0.273286 -1.28276,-0.07394 -2.81302,-0.20896 -4.22115,-0.392206 -1.40813,-0.183245 -2.69406,-0.414711 -3.52994,-0.6558 -0.83587,-0.241088 -1.22165,-0.491842 -1.42143,-0.604095 -0.19977,-0.112249 -0.21339,-0.08593 -0.25429,-0.01482 -0.0409,0.07111 -0.1091,0.187044 -0.22106,0.38369 -0.11196,0.196642 -0.26768,0.473976 -0.41487,0.753029 -0.1472,0.279049 -0.28586,0.559795 -0.42283,0.832585 -0.13696,0.272795 -0.27222,0.537629 -0.39896,0.801904 -0.12673,0.264275 -0.24494,0.527968 -0.3694,0.806448 -0.12447,0.278476 -0.25518,0.571722 -0.366,0.833154 -0.11083,0.261431 -0.20176,0.491028 -0.30008,0.729153 -0.0983,0.238125 -0.20402,0.48477 -0.29098,0.705855 -0.087,0.221082 -0.15515,0.416581 -0.24437,0.662094 -0.0892,0.245516 -0.19948,0.541032 -0.29155,0.804738 -0.0921,0.26371 -0.16595,0.495577 -0.23528,0.706992 -0.0693,0.211411 -0.13412,0.402363 -0.18186,0.552408 -0.0477,0.15004 -0.0784,0.259153 -0.0955,0.319425 -0.0171,0.06027 -0.0205,0.07155 -0.0239,0.08478 -0.003,0.01322 -0.007,0.02821 -0.009,0.03566 -0.002,0.0075 -0.002,0.0075 0.51914,-0.272252 z"
       id="path28538" /><path
       style="fill:#ee9a04;fill-opacity:0.466463;stroke:#fef2f0;stroke-width:0"
       d="m -384.47045,103.40809 c -0.39103,-0.60014 -0.71838,-1.23665 -0.67295,-1.86414 0.0454,-0.62748 0.4637,-1.2458 0.24554,-1.764087 -0.21817,-0.518289 -1.07291,-0.936563 -1.80952,-0.800189 -0.73662,0.136373 -1.35494,0.827433 -1.80048,0.672904 -0.44554,-0.154529 -0.71833,-1.154745 -0.29095,-2.018674 0.42738,-0.863925 1.5549,-1.59136 2.16412,-2.482434 0.60922,-0.89107 0.70015,-1.945851 0.091,-2.427834 -0.60919,-0.481988 -1.91857,-0.39106 -2.41875,-1.109381 -0.50018,-0.718321 -0.19102,-2.245928 0.57287,-3.055262 0.76389,-0.809334 1.98235,-0.900266 2.82799,-0.418248 0.84564,0.482017 1.31847,1.53679 2.27328,1.991375 0.9548,0.45458 2.39148,0.309092 3.64634,0.25454 1.25487,-0.05455 2.32784,-0.01818 2.69149,0.809351 0.36365,0.827528 0.0181,2.446063 -0.80021,3.318951 -0.81833,0.872889 -2.10953,1.000191 -3.04612,0.754735 -0.93658,-0.245456 -1.51853,-0.863774 -1.95507,-0.79105 -0.43654,0.07273 -0.72751,0.836531 -0.52738,1.436689 0.20013,0.600158 0.8912,1.036618 1.90054,1.345753 1.00935,0.309135 2.33691,0.49099 2.85514,1.136642 0.51823,0.645652 0.22726,1.754989 -0.29105,2.700639 -0.5183,0.94565 -1.26392,1.72764 -2.02773,2.37324 -0.76382,0.64561 -1.54581,1.15481 -2.1641,1.12759 -0.6183,-0.0272 -1.07295,-0.59097 -1.46396,-1.19111 z"
       id="path28611" /><path
       style="fill:#ee9a04;fill-opacity:0.466463;stroke:#fef2f0;stroke-width:0"
       d="m -387.77357,75.58175 c 0.12856,-0.951648 0.66866,-2.237607 1.28599,-2.456177 0.61732,-0.218569 1.31173,0.630146 1.18307,1.581708 -0.12866,0.951556 -1.08025,2.006024 -1.69748,2.224693 -0.61722,0.218673 -0.90013,-0.398577 -0.77158,-1.350224 z"
       id="path28615" /></g></svg>
