<?xml version="1.0" encoding="UTF-8" standalone="no"?>
<!-- Created with Inkscape (http://www.inkscape.org/) -->

<svg
   width="492.14102mm"
   height="258.66586mm"
   viewBox="0 0 492.14102 258.66586"
   version="1.1"
   id="svg5"
   xml:space="preserve"
   xmlns="http://www.w3.org/2000/svg"
   xmlns:svg="http://www.w3.org/2000/svg"><defs
     id="defs2"><clipPath
       clipPathUnits="userSpaceOnUse"
       id="clipPath3597"><path
         id="path3599"
         style="fill:#ff0000;fill-opacity:1;fill-rule:nonzero;stroke:none;stroke-width:0.235307"
         d="M -525.34686,-98.476982 V 88.146657 H -87.661778 V -98.476982 Z m 70.411,40.19428 v 0 c 0.69566,0.01781 1.34918,0.323238 1.42335,0.962367 0.26467,2.281185 0.6102,4.552756 0.97064,6.821142 0.46346,-0.210882 0.92497,-0.426839 1.39942,-0.611247 2.04999,-0.79678 4.48977,-1.469891 6.69937,-0.997755 0.23345,0.04989 0.45848,0.129247 0.68202,0.214626 0.098,-0.980548 0.22537,-1.9571 0.43706,-2.920197 h 0.002 c 0.18862,-0.858166 1.00563,-1.245018 1.92749,-1.272128 1.53644,-0.04519 3.36379,0.908226 3.05716,2.340203 -0.40965,1.913101 -0.47375,3.884147 -0.62274,5.82982 -0.017,0.224252 -0.0254,0.448975 -0.0414,0.673288 0.13278,0.231008 0.25928,0.466162 0.37411,0.708681 0.1527,0.483749 0.36689,0.952372 0.45819,1.451364 0.0749,0.409455 0.0686,0.833259 0.0359,1.24823 -0.0926,1.174635 -0.53369,2.271751 -1.22065,3.215706 -0.0236,0.594583 -0.0526,1.188982 -0.074,1.783645 0.17059,1.048697 0.34891,2.117294 0.51795,3.137119 0.0697,0.425496 0.14488,0.850079 0.21602,1.275347 0.19234,0.171313 0.35646,0.374992 0.53953,0.557014 0.1229,0.265435 0.27552,0.519152 0.36861,0.796459 0.0645,0.192145 0.0809,0.397963 0.0997,0.599758 0.0764,0.820981 -0.10869,1.633477 -0.25552,2.434873 -0.002,0.0072 -0.004,0.0144 -0.005,0.0216 0.0158,0.09219 0.0315,0.184483 0.0473,0.276669 0.0879,0.512353 -0.10521,0.944548 -0.4412,1.295567 -0.14309,0.495347 -0.30762,0.98319 -0.50415,1.45734 0.18441,0.106063 0.3708,0.2086 0.55149,0.321251 0.65211,0.424209 1.25965,0.944999 1.67242,1.614057 0.11613,0.188203 0.21248,0.388209 0.31849,0.582293 0.32691,0.815823 0.59149,1.693993 0.61079,2.581481 0.006,0.261763 -0.0158,0.523732 -0.0239,0.785429 -0.13993,1.10145 -0.56127,2.118715 -1.21559,3.013952 -0.38868,0.531767 -0.70729,0.829405 -1.16047,1.296943 -0.067,0.06345 -0.13678,0.123602 -0.20497,0.185674 -0.35108,2.675855 -2.34022,3.49478 -3.71343,2.473939 -0.0274,0.01304 -0.0543,0.0271 -0.0818,0.03998 -0.33821,0.158491 -0.6867,0.294809 -1.02992,0.44212 -1.30223,0.514993 -2.68151,0.945226 -4.0733,0.748662 -0.82779,0.586978 -1.67654,1.14494 -2.55713,1.655881 -0.53857,0.312499 -1.09345,0.595613 -1.64025,0.893429 -2.29655,1.1750878 -4.6712,2.192423 -7.08173,3.1081669 -2.19038,0.8320993 -3.99734,-3.9397689 -1.80522,-4.7672639 2.19844,-0.829875 4.36009,-1.761994 6.45759,-2.822762 1.02996,-0.555151 1.45862,-0.769181 2.24645,-1.261558 -0.024,-0.03466 -0.0493,-0.0683 -0.0726,-0.103406 -0.93986,-1.413656 -1.7497,-3.261085 -1.99736,-4.948339 -0.0325,-0.221156 -0.0359,-0.445389 -0.0478,-0.668695 -1.25451,0.158924 -2.42559,0.150572 -3.67436,-0.437982 -0.93177,-0.439153 -1.22461,-0.818409 -1.95921,-1.505138 -1.13371,-1.309464 -1.86211,-2.609438 -2.04012,-4.368343 -0.13464,-1.330882 0.0243,-1.678383 0.26014,-2.99373 0.18038,-0.485012 0.2995,-0.997581 0.54139,-1.455041 0.44654,-0.844568 1.02817,-1.593249 1.69908,-2.255638 -0.16864,-0.594917 -0.30834,-1.1967 -0.3571,-1.819492 -0.10123,-1.028246 -0.18834,-2.059439 -0.20495,-3.092998 v -2.944094 -2.611356 c 0,-2.523333 1.2744,-3.785133 2.54884,-3.785133 0.41311,0 0.82155,0.146655 1.19124,0.411787 0.0636,-0.0451 0.12657,-0.09083 0.19072,-0.135115 -0.43967,-2.739994 -0.87435,-5.48311 -1.18894,-8.24034 -0.0882,-0.772973 0.76579,-1.212978 1.61084,-1.237657 0.0464,-0.0014 0.093,-0.0016 0.13926,-4.71e-4 z m 8.97152,9.196271 c -0.44889,0.0016 -0.904,0.0521 -1.35668,0.135577 v 4.463019 c 0.17387,0.226064 0.34463,0.470792 0.50645,0.756015 0.62514,1.10158 1.22936,2.214936 1.83605,3.326926 0.0471,-0.01638 0.0942,-0.03259 0.14109,-0.04964 -0.19874,-1.253911 -0.39741,-2.507826 -0.60389,-3.760315 -0.14118,-0.856409 0.44574,-1.542251 1.26247,-1.950014 0.0448,-0.713552 0.0807,-1.427744 0.13467,-2.14074 0.003,-0.04403 0.007,-0.08832 0.0101,-0.13236 -0.0994,-0.08754 -0.19831,-0.167948 -0.29368,-0.235307 -0.15415,-0.108865 -0.33026,-0.182636 -0.49544,-0.273914 -0.18072,-0.0371 -0.35875,-0.09281 -0.54229,-0.111218 -0.19789,-0.01988 -0.39774,-0.02879 -0.59886,-0.02803 z m -4.5425,1.15815 c -0.36489,0.160907 -0.72404,0.335037 -1.08785,0.498189 -0.13885,0.07182 -0.27686,0.145521 -0.41454,0.220142 0.14636,0.84946 0.30541,1.696513 0.47384,2.541498 0.22531,-0.505472 0.58488,-0.884067 1.02855,-1.085537 z m -3.82376,5.47778 v 2.710166 c 0.016,0.656522 0.0661,1.311527 0.12502,1.965638 0.29625,-0.11647 0.59509,-0.226116 0.89435,-0.335496 -0.36574,-1.440805 -0.70686,-2.88742 -1.01937,-4.340308 z m 1.86224,7.413087 c -0.2999,0.108072 -0.5981,0.219995 -0.88974,0.348362 -0.0169,0.0074 -0.0361,0.01711 -0.0533,0.02482 0.0922,0.225137 0.1878,0.448926 0.27392,0.676508 0.13829,0.363824 0.29985,0.718608 0.48532,1.060721 2.40493,4.436749 -2.12167,6.862871 -4.49335,2.408218 -0.15834,-0.297407 -0.3055,-0.600426 -0.44398,-0.907678 -0.003,0.0042 -0.005,0.0082 -0.008,0.0124 -0.16966,0.284387 -0.25573,0.611002 -0.38374,0.916409 -0.0707,0.308742 -0.17123,0.612015 -0.21234,0.926063 -0.0545,0.416046 -0.0512,1.248277 0.0538,1.684373 0.16831,0.699243 0.60982,1.295134 1.03866,1.852124 0.30689,0.32535 0.85057,0.918641 1.30662,1.04785 0.74905,0.212252 1.62987,0.01132 2.37558,-0.07767 0.0448,-0.01038 0.0894,-0.02165 0.13418,-0.03217 0.29436,-0.840704 0.74027,-1.62425 1.37692,-2.359961 0.56563,-0.653588 0.95363,-0.915014 1.52674,-1.308436 -0.0243,-0.385289 -0.0308,-0.771453 -0.0464,-1.157232 -0.10584,-0.191474 -0.22154,-0.412959 -0.37456,-0.721086 -0.69877,-1.406959 -1.20522,-2.894628 -1.66647,-4.39362 z m 5.14734,0.97202 v 0.36353 c 0.008,0.952221 0.0321,1.904845 0.0565,2.857233 0.0986,0.150293 0.20954,0.317528 0.36675,0.557934 0.19848,0.274095 0.41,0.536307 0.63102,0.789565 0.1522,0.03401 0.30348,0.09225 0.45499,0.138335 0.0592,-0.25528 0.117,-0.50351 0.18429,-0.718331 0.0151,-0.05701 0.0305,-0.108978 0.0455,-0.16499 -0.51295,-1.30397 -1.08627,-2.58223 -1.73906,-3.823276 z m 1.10347,10.296514 c -0.13589,0.868429 -1.56239,1.503378 -2.43441,1.218356 -0.005,0.12287 -0.0148,0.245903 -0.003,0.368128 0.098,1.07596 0.6246,2.134622 1.19997,3.070939 0.24764,-0.18277 0.49907,-0.361458 0.74774,-0.542771 1.82059,-1.067234 0.0235,-0.03727 1.05982,-0.589185 0.1029,-0.05479 0.20385,-0.112846 0.30239,-0.175101 0.13535,-0.08543 0.29367,-0.28967 0.45683,-0.163611 0.199,-0.10306 0.11424,-0.02651 0.108,-0.438443 -0.0111,-0.761025 -0.31197,-1.422602 -0.77256,-2.02171 -0.32686,-0.375858 -0.46195,-0.529433 -0.6641,-0.726602 z" /></clipPath><clipPath
       clipPathUnits="userSpaceOnUse"
       id="clipPath4873"><path
         id="path4875"
         style="fill:#ff0000;fill-opacity:1;fill-rule:nonzero;stroke:none;stroke-width:0.23531"
         d="m -453.02521,-280.34027 -68.20817,174.21389 407.41746,156.972405 68.208166,-174.213905 z m 278.93025,124.44528 -0.001,-6e-5 c 0.0414,0.0172 0.0728,0.0478 0.0847,0.0943 0.0247,0.0968 0.0589,0.19083 0.0947,0.28384 0.0293,0.0727 0.0548,0.14718 0.0984,0.2127 0.0377,0.0623 0.0808,0.12073 0.12097,0.1814 0.0479,0.0691 0.0912,0.14133 0.13205,0.2148 0.0598,0.0876 0.11733,0.17685 0.17639,0.26496 0.0638,0.0924 0.12383,0.18733 0.18529,0.28123 0.0452,0.0728 0.0914,0.14483 0.12996,0.2214 0.0399,0.0816 0.0695,0.1666 0.0864,0.25596 0.0115,0.0533 0.015,0.1078 0.0234,0.16156 0.01,0.041 0.0244,0.0813 0.0417,0.11978 0.0269,0.0664 0.0482,0.1347 0.0703,0.20284 0.0227,0.078 0.0408,0.15735 0.059,0.23653 0.0193,0.0799 0.036,0.16047 0.055,0.24043 0.019,0.0801 0.0378,0.16026 0.0581,0.24013 0.0208,0.0715 0.0411,0.14318 0.0622,0.21456 0.017,0.0646 0.0395,0.12745 0.0607,0.19076 0.025,0.0745 0.0557,0.14691 0.083,0.22059 0.0396,0.0907 0.0719,0.18438 0.10385,0.27799 0.0315,0.0948 0.0618,0.1899 0.0939,0.28453 0.028,0.079 0.0542,0.15836 0.0858,0.236 0.0221,0.0628 0.0528,0.12132 0.0811,0.18135 0.0469,0.0913 0.075,0.19064 0.10298,0.28902 0.036,0.12672 0.0587,0.25674 0.0832,0.38607 0.0217,0.11367 0.0465,0.22682 0.0686,0.34043 0.0173,0.103 0.0463,0.20297 0.0731,0.30368 0.0214,0.0805 0.0393,0.16212 0.0568,0.24356 0.0131,0.0688 0.032,0.13653 0.0495,0.20424 0.055,0.21266 -0.40922,0.33552 -0.46414,0.12285 -0.0191,-0.0741 -0.0385,-0.14811 -0.0529,-0.2233 -0.0159,-0.0741 -0.0326,-0.14837 -0.0521,-0.22152 -0.0293,-0.11115 -0.0613,-0.22154 -0.0805,-0.33516 -0.022,-0.11422 -0.0463,-0.22787 -0.0679,-0.34215 -0.0196,-0.10317 -0.0401,-0.20637 -0.0665,-0.30805 -0.10891,0.18085 -0.42905,0.17598 -0.65061,0.056 0.0238,0.0856 0.0481,0.17113 0.074,0.25613 0.0713,0.24247 0.13646,0.48685 0.20777,0.72931 0.0827,0.28242 0.17178,0.56307 0.25937,0.84401 0.12068,-0.0477 0.24679,-0.0747 0.34953,-0.0401 l 4.3e-4,1.7e-4 c 0.0678,0.023 0.12326,0.0679 0.15563,0.13945 0.046,0.1018 0.0929,0.20321 0.1391,0.30491 0.003,0.006 0.005,0.0123 0.008,0.0184 0.0887,0.0991 0.16225,0.20988 0.22715,0.32648 0.0576,0.10367 0.0969,0.21546 0.13991,0.32547 -0.002,-0.0219 -0.002,-0.044 -0.004,-0.0658 -0.0162,-0.15723 0.2264,-0.22554 0.3719,-0.17024 0.0569,0.0217 0.0993,0.0624 0.10509,0.12393 0.007,0.0707 0.009,0.142 0.0146,0.21299 0.005,0.0517 0.0141,0.10206 0.0281,0.15204 0.0129,0.0566 0.0339,0.11089 0.0523,0.16579 0.0247,0.0703 0.0351,0.14439 0.0472,0.21767 0.0127,0.0666 0.0228,0.13344 0.0375,0.19961 0.0126,0.0552 0.0319,0.10842 0.0551,0.15995 0.028,0.0565 0.059,0.11109 0.0828,0.16964 0.0276,0.0686 0.0453,0.13946 0.0561,0.21268 0.01,0.0643 0.0194,0.12872 0.0346,0.19206 0.0183,0.0788 0.0399,0.15675 0.0563,0.23598 0.0147,0.0659 0.0273,0.13251 0.042,0.19836 0.0103,0.0648 0.0234,0.12876 0.0361,0.19315 0.0143,0.0781 0.0276,0.15635 0.0486,0.23301 0.025,0.10331 0.0489,0.20729 0.0695,0.31166 0.0191,0.0928 0.0382,0.18572 0.0611,0.27781 0.0163,0.0694 0.0301,0.13959 0.0472,0.20879 0.0374,0.15242 -0.18747,0.24985 -0.33907,0.21843 0.007,0.021 0.0146,0.0418 0.0222,0.0628 0.0751,0.22165 0.15771,0.44066 0.23193,0.6626 0.0635,0.17251 0.12223,0.34657 0.184,0.5197 0.0307,0.0793 0.061,0.15872 0.0908,0.2384 0.0208,-0.0389 0.0425,-0.10826 0.0644,-0.1016 l 0.001,-1e-4 c 0.0109,0.003 0.022,0.0142 0.0339,0.0353 0.0209,0.0365 0.0439,0.0717 0.0625,0.10949 0.014,0.0285 0.0234,0.0592 0.0346,0.0889 0.045,0.11882 0.0829,0.23918 0.11914,0.36091 0.0436,0.13586 0.0714,0.27628 0.0916,0.41745 0.013,0.0978 0.0229,0.19604 0.044,0.29246 0.0154,0.0658 0.0288,0.1343 0.0626,0.19348 0.0445,0.0844 0.083,0.17175 0.11458,0.26188 0.0325,0.0863 0.0509,0.1758 0.0618,0.26722 -4.3e-4,0.0553 0.0151,0.10663 0.0292,0.15937 0.0196,0.0714 0.0298,0.1452 0.0421,0.21816 0.0109,0.0662 0.0188,0.13344 0.0297,0.19955 0.008,0.0667 0.0118,0.13422 0.024,0.20032 0.008,0.0542 0.0234,0.10704 0.0401,0.15913 0.0176,0.0672 0.0415,0.13195 0.06,0.19888 0.0168,0.0658 0.0297,0.13308 0.0429,0.19972 0.0107,0.0735 0.0196,0.14691 0.0252,0.22103 0.005,0.0678 0.0182,0.13498 0.0313,0.20167 0.0128,0.0731 0.0231,0.14656 0.0356,0.21962 0.016,0.0605 0.0257,0.12202 0.0359,0.18368 0.009,0.0588 0.0249,0.11548 0.0397,0.17279 0.0171,0.0732 0.03,0.14783 0.0394,0.22255 0.0124,0.0811 0.015,0.16325 0.0228,0.24479 9.7e-4,0.059 0.0101,0.11661 0.0178,0.17472 0.0111,0.0673 0.0204,0.13494 0.0279,0.20282 0.008,0.0779 0.008,0.1559 0.009,0.23414 0.004,0.21993 -0.47496,0.23248 -0.47857,0.0126 -0.001,-0.0638 -7.1e-4,-0.12762 -0.007,-0.19125 -0.003,-0.0264 -0.007,-0.0525 -0.011,-0.0788 -0.21472,0.17976 -0.61611,0.22662 -0.7293,-0.0109 -0.001,0.041 -0.002,0.0818 -0.004,0.12279 -0.019,0.42072 -0.93528,0.40456 -0.91583,-0.0161 10e-4,-0.0253 -7.4e-4,-0.0506 2e-4,-0.076 -0.0254,0.006 -0.052,0.012 -0.0815,0.017 -0.15722,0.0263 -0.31999,-0.0357 -0.46857,-0.0921 -0.12022,-0.0456 -0.22523,-0.19938 -0.30168,-0.30336 -0.0719,-0.10942 -0.14412,-0.21835 -0.21844,-0.3261 -0.11007,-0.16667 -0.2002,-0.34476 -0.28704,-0.52434 -0.0334,-0.0617 -0.0665,-0.12373 -0.0997,-0.18554 -0.15703,0.18571 -0.37328,0.28145 -0.63891,0.3794 -0.0641,0.019 -0.12728,0.0404 -0.1921,0.0568 -0.37136,0.0939 -0.75748,0.10729 -1.13627,0.0678 -0.18583,-0.0358 -0.41726,-0.0592 -0.57158,-0.18615 -0.11615,-0.0955 -0.24473,-0.20193 -0.29255,-0.34428 -1.84225,1.48848 -4.1004,1.22525 -6.1489,0.77998 -1.52317,-0.33443 -3.04054,-0.69467 -4.56376,-1.0291 -1.78405,-0.38419 -3.57537,-0.76212 -5.39479,-0.94491 -1.93326,-0.19646 -3.87231,-0.31337 -5.81424,-0.40047 -2.44233,-0.13769 -4.88628,-0.29007 -7.33465,-0.27577 -2.77171,0.003 -5.54312,0.0687 -8.31463,0.0631 -2.86846,-0.11491 -5.7407,-0.26781 -8.58466,-0.66061 -3.19843,-0.43383 -6.39603,-0.87137 -9.58431,-1.37311 -2.65176,-0.3321 -5.31086,-0.60341 -7.99141,-0.4355 -0.34528,0.009 -0.69044,0.008 -1.03573,0.0147 -0.20324,0.0425 -0.40613,0.0883 -0.6111,0.12103 -1.56215,0.2494 -3.15191,0.26911 -4.72505,0.14113 -0.98669,0.48933 -1.37624,0.32106 -2.77194,-0.38959 -0.96058,-0.0231 -1.92113,-0.0448 -2.88129,-0.0851 -1.4284,1.7e-4 -2.85425,0.12561 -4.28221,0.16066 -1.35939,0.0135 -2.71717,0.0645 -4.07496,0.12055 -1.2264,1.86823 -3.40079,5.14116 -5.31562,4.60461 -3.00012,-0.84059 -4.86267,-1.75217 -5.97602,-2.77893 -1.83868,0.0482 -3.19886,-0.0561 -4.24582,-0.36102 -0.47758,0.80164 -0.95993,1.59614 -1.4279,2.32539 -0.52553,0.81917 -0.97286,1.70412 -1.62842,2.4239 -1.05418,1.15742 -1.90639,3.12162 -3.46582,3.16956 -8.97631,0.27605 -8.32129,-1.168 -9.67113,-6.24917 0.0205,-1.03518 -0.005,-2.07204 0.0614,-3.10567 0.008,-0.12693 0.0209,-0.2534 0.0307,-0.38021 -1.27179,0.25979 -2.56871,0.44134 -3.84563,0.68536 -0.90671,1.65028 -1.84962,3.28016 -2.87763,4.86012 -4.60432,4.2685 -4.50991,6.20802 -12.25912,1.28257 -0.061,-0.0387 -0.11671,-0.0821 -0.171,-0.12661 -0.45766,0.64234 -0.85261,1.12214 -1.0713,1.20967 -2.77478,1.11136 -6.01301,2.23232 -8.85254,1.34396 -3.3006,-1.03258 -3.10837,-5.87365 -2.80035,-9.10567 -0.7554,0.0736 -1.50954,0.16453 -2.25994,0.28956 -0.65222,0.10952 -1.30466,0.22385 -1.95742,0.33552 -0.95097,2.10416 -2.30317,5.04919 -2.81672,5.79848 -0.59508,0.86829 -1.2834,1.66583 -1.98733,2.45152 -0.16437,0.99028 -0.67162,1.81522 -1.64622,2.17513 -1.44817,0.53475 -2.9204,0.9957 -4.42772,1.32956 -2.64678,0.68406 -5.29599,1.36151 -7.95452,1.99656 -4.38402,0.96944 -8.80395,1.79657 -13.26914,2.26407 -3.01322,0.23794 -6.03088,0.40648 -9.04835,0.57529 -2.02412,0.0483 -4.05067,0.10951 -6.07237,-0.0165 -1.12022,-0.0835 -1.37042,-0.0841 -2.48523,-0.23914 -1.37657,-0.19145 -2.73685,-0.49023 -4.10671,-0.72019 -1.9599,-0.38407 -3.91372,-0.81007 -5.79847,-1.47816 -1.24088,-0.45067 -2.47824,-0.93064 -3.64149,-1.55755 -0.80935,-0.47996 -1.5808,-1.01899 -2.20582,-1.7312 -0.15109,-0.20321 -0.31179,-0.39938 -0.45307,-0.60955 -0.34563,-0.51407 -0.57078,-1.09964 -0.7854,-1.67717 -0.16567,-0.53102 -0.3214,-1.0689 -0.3921,-1.62292 -0.0882,-0.50224 -0.18448,-1.00463 -0.2266,-1.51371 -0.27836,-0.0127 -0.57795,-0.16968 -0.51821,-0.42431 0.0204,-0.0868 0.0385,-0.17404 0.0529,-0.26206 0.0302,-0.16489 0.065,-0.32888 0.0894,-0.49486 0.0332,-0.16013 0.0734,-0.31828 0.1057,-0.47869 0.0308,-0.12504 0.0531,-0.25213 0.0662,-0.38034 0.0239,-0.14455 0.032,-0.29092 0.0586,-0.43513 0.0315,-0.14974 0.0463,-0.30183 0.075,-0.45199 0.0298,-0.14623 0.0627,-0.29186 0.0937,-0.43789 0.0296,-0.13421 0.0507,-0.27028 0.086,-0.40332 0.0314,-0.13363 0.0718,-0.26437 0.10938,-0.3963 0.0425,-0.15362 0.0913,-0.30485 0.15238,-0.45231 0.0549,-0.1403 0.10766,-0.28142 0.15931,-0.42299 0.0513,-0.14194 0.10378,-0.28375 0.14125,-0.42993 0.0367,-0.14911 0.0579,-0.30106 0.0959,-0.44989 0.003,-0.0144 0.008,-0.0276 0.0116,-0.0424 -0.0369,-0.0555 -0.0541,-0.12056 -0.0422,-0.19401 0.016,-0.0988 0.007,-0.0456 0.0283,-0.15896 0.0333,-0.13527 0.0504,-0.27372 0.0883,-0.40787 0.0397,-0.15484 0.0829,-0.30838 0.13252,-0.46046 0.0413,-0.14538 0.0773,-0.29255 0.13757,-0.43185 0.0547,-0.13973 0.10723,-0.28034 0.15775,-0.42161 0.0591,-0.16702 0.11531,-0.33506 0.16612,-0.50478 0.062,-0.20213 0.12754,-0.40254 0.203,-0.60018 0.05,-0.14636 0.0975,-0.29409 0.13672,-0.44353 0.0455,-0.16002 0.10175,-0.31589 0.15489,-0.47357 0.0294,-0.0996 0.0553,-0.2005 0.0658,-0.30397 0.0145,-0.15495 0.0391,-0.3081 0.0851,-0.4575 0.0371,-0.13661 0.0841,-0.2701 0.13228,-0.40327 0.0314,-0.095 0.0622,-0.19042 0.0783,-0.28927 0.0217,-0.14202 0.0223,-0.28562 0.0415,-0.42789 0.0208,-0.12383 0.0363,-0.24822 0.0589,-0.37181 0.0293,-0.14925 0.0678,-0.29714 0.1284,-0.43735 0.0402,-0.0931 0.11802,-0.14665 0.21154,-0.16932 0.0128,-0.0577 0.0197,-0.11684 0.0392,-0.17301 0.0372,-0.10211 0.0742,-0.20423 0.10539,-0.30847 0.0389,-0.13603 0.0691,-0.274 0.10604,-0.41043 0.045,-0.14068 0.0852,-0.28249 0.12626,-0.42435 0.043,-0.13301 0.0949,-0.26292 0.14256,-0.39438 0.0366,-0.10188 0.0737,-0.20379 0.10073,-0.30878 0.0267,-0.11006 0.0439,-0.22155 0.0536,-0.33434 0.0297,-0.19389 0.0907,-0.37934 0.15155,-0.5657 0.0746,-0.21304 0.16439,-0.4202 0.25091,-0.62863 0.0751,-0.17378 0.15227,-0.34643 0.23897,-0.51473 0.0718,-0.14476 0.12838,-0.29637 0.18902,-0.44611 0.063,-0.15386 0.1269,-0.30738 0.19708,-0.45829 0.0596,-0.1265 0.12241,-0.25149 0.18573,-0.37626 0.0573,-0.14634 0.1147,-0.29297 0.172,-0.43932 0.0577,-0.14726 0.11513,-0.29426 0.17503,-0.44062 0.0628,-0.15397 0.12625,-0.30765 0.19336,-0.45973 0.0849,-0.18981 0.17398,-0.37794 0.28016,-0.55712 0.10853,-0.18605 0.21914,-0.37089 0.32136,-0.56051 0.10398,-0.19728 0.21832,-0.38867 0.32325,-0.58547 0.079,-0.1438 0.15118,-0.29074 0.20934,-0.44418 0.0861,-0.20508 0.17342,-0.41011 0.27173,-0.60975 0.0581,-0.1149 0.12075,-0.22685 0.18219,-0.33961 0.0756,-0.3858 0.15439,-0.77077 0.2701,-1.14756 0.14217,-0.45848 0.25483,-0.92498 0.36881,-1.39097 0.22182,-0.81109 0.48045,-1.61125 0.7655,-2.40285 0.1399,-0.41979 0.28941,-0.8386 0.34582,-1.27936 0.0344,-0.22835 0.0658,-0.4571 0.0797,-0.68769 0.0117,-0.19413 -0.002,-0.39055 0.0274,-0.58294 0.004,-0.0275 0.006,0.0553 0.009,0.0835 0.36043,3.31317 6.20547,-2.09403 8.04523,-1.49009 0.3407,0.11185 0.54411,0.43002 0.54984,1.04775 0.002,0.18005 -0.0131,0.35944 -0.0176,0.53928 0.92157,-0.35008 1.90946,-0.50926 2.89203,-0.39757 0.80881,0.092 1.68947,0.16666 2.35764,0.62792 1.19132,0.82241 2.02714,2.06614 3.04087,3.09916 0.18495,0.73215 0.4176,1.45388 0.56745,2.1936 0.66307,-1.3117 1.31443,-2.62944 1.96022,-3.94912 2.39116,-5.00777 4.31367,-9.72757 12.54557,-5.38431 1.23029,0.64909 1.62114,2.08264 1.66973,3.65119 0.62549,-0.23711 1.24994,-0.47684 1.87953,-0.70374 1.95586,-0.67188 3.94152,-1.25838 5.98527,-1.58809 2.42305,-0.41316 4.85454,-0.78495 7.30225,-1.0071 2.06323,-0.18186 4.12782,-0.3146 6.19318,-0.46174 1.95563,-0.12718 3.91271,-0.20481 5.8719,-0.16685 2.13494,0.0194 4.27049,0.0453 6.40581,0.0112 3.19171,-0.0874 6.38519,-0.21588 9.57631,-0.084 3.50645,0.15033 7.00552,0.39863 10.50808,0.61071 2.21959,0.10031 4.44002,0.0397 6.66054,0.1 0.46834,0.0458 0.93819,0.0785 1.40497,0.13743 1.99223,0.25174 3.94459,0.76381 5.89638,1.21174 2.63799,0.66953 5.26163,1.39272 7.9056,2.03918 1.99634,0.47947 4.00092,0.93305 5.98669,1.45391 0.98424,0.25816 3.04115,0.85435 4.02695,1.11753 0.0145,0.004 0.03,0.007 0.0448,0.0113 0.0199,-0.0193 0.0589,-0.0742 0.0759,-0.0883 0.95158,-0.78631 2.05163,-1.37206 3.07746,-2.05816 1.72721,1.31988 3.61622,2.46282 5.35863,3.76603 0.31538,-0.0485 0.54097,-0.0898 0.81558,-0.13655 0.0323,-0.0483 0.0595,-0.0971 0.0933,-0.14526 0.98661,-1.43573 2.10852,-2.76687 3.61547,-3.68759 0.31179,-0.18312 0.61537,-0.38148 0.93544,-0.54956 2.07056,-1.08734 4.36739,-1.62031 6.69772,-1.5807 0.47669,0.0325 0.95564,0.042 1.43007,0.0972 2.3272,0.27088 4.62554,0.99885 6.69201,2.08065 1.99561,1.12069 3.93574,2.36823 5.51091,4.04986 0.29182,0.33337 0.52697,0.59721 0.75851,0.87189 0.5806,0.0698 1.16065,0.14378 1.74253,0.20331 2.17688,0.16389 4.36289,0.19542 6.54375,0.29643 2.40515,0.11389 4.81088,0.22827 7.21212,0.40137 2.5743,0.26177 5.13919,0.61313 7.69998,0.97741 2.00419,0.31973 4.0076,0.64083 6.02017,0.9069 1.66096,0.21258 3.3279,0.49713 5.00588,0.50722 0.84944,0.008 1.68859,-0.14757 2.53153,-0.23627 1.19516,-0.11575 2.39889,-0.2032 3.59812,-0.12108 1.13539,0.0568 2.26985,0.14651 3.39523,0.30535 1.06712,0.18304 2.13328,0.40551 3.13502,0.80647 0.33391,0.13363 0.66041,0.28701 0.97767,0.46555 0.45071,0.24207 0.88446,0.51177 1.30667,0.79722 0.042,0.0152 0.0841,0.0299 0.12561,0.0464 0.18594,0.0742 0.36617,0.16242 0.54445,0.25421 0.39549,0.22038 0.77084,0.47393 1.13138,0.74696 0.25736,0.20629 0.49742,0.43268 0.73786,0.65805 0.20022,0.18507 0.41298,0.35511 0.633,0.51594 0.0228,0.0157 0.0462,0.0304 0.0692,0.0459 0.0261,-0.007 0.0519,-0.0144 0.078,-0.0218 0.22363,-0.0315 0.45009,-0.0324 0.6746,-0.0556 0.20421,-0.0157 0.41642,-0.022 0.61165,-0.0897 0.23353,-0.10539 0.4664,-0.21503 0.72568,-0.23636 0.33334,-0.0379 0.67055,-0.0551 1.00351,-0.008 0.29567,0.0372 0.58953,0.0863 0.88543,0.12143 0.25182,0.0241 0.5102,0.0265 0.7506,0.11244 0.15031,0.0629 0.29353,0.13884 0.42272,0.23692 -0.006,-0.01 -0.0129,-0.0194 -0.0191,-0.0291 -0.0348,-0.0629 -0.0721,-0.12453 -0.11331,-0.18339 -0.0416,-0.0632 -0.087,-0.12378 -0.12599,-0.18876 -0.0581,-0.0936 -0.10226,-0.19347 -0.14024,-0.29696 -0.0426,-0.11088 -0.0829,-0.22317 -0.11217,-0.33847 -0.0409,-0.16113 0.2152,-0.26891 0.36561,-0.21957 l 4.4e-4,1.8e-4 c 0.005,0.002 0.009,0.004 0.0143,0.005 z m -0.97584,4.38122 c -0.0431,0.12087 -0.085,0.24222 -0.124,0.36449 -0.0541,0.17849 -0.10309,0.3592 -0.14028,0.54189 0.0208,0.0592 0.043,0.11831 0.0626,0.17718 0.0414,0.12117 0.0774,0.24393 0.11227,0.36714 0.0316,0.11172 0.009,0.21497 -0.0477,0.3055 0.3244,0.3579 0.63531,0.72736 0.92172,1.11648 -0.032,-0.14125 -0.0658,-0.2821 -0.10417,-0.42179 -0.0922,-0.33132 -0.195,-0.65892 -0.29963,-0.98641 -0.0682,-0.23149 -0.12465,-0.46555 -0.1524,-0.706 -0.0307,-0.16678 -0.0648,-0.33339 -0.12195,-0.49334 -0.03,-0.0911 -0.0604,-0.18181 -0.10641,-0.26514 z m 2.04367,8.18756 c -0.0683,0.31634 -0.14613,0.6304 -0.23693,0.93966 0.0737,0.009 0.13788,0.0544 0.2068,0.0817 0.0484,0.0341 0.0989,0.0659 0.14549,0.10246 0.10241,0.0803 0.17803,0.19018 0.25688,0.29203 0.006,0.007 0.0122,0.0134 0.0181,0.0203 -0.064,-0.17022 -0.12948,-0.33991 -0.17603,-0.51614 -0.0842,-0.30373 -0.14904,-0.61168 -0.21437,-0.91998 z m -0.30001,3.32529 c -0.0272,0.0166 -0.0581,0.0286 -0.0832,0.0479 0.0555,-0.0312 0.11061,-0.0645 0.0832,-0.0479 z m -0.80057,0.92936 c -9.5e-4,0.001 -0.002,0.002 -0.003,0.003 -0.0874,0.11561 0.002,-4.2e-4 0.002,-0.001 z m 1.65685,2.55111 c 0.0948,0.0333 0.167,0.0986 0.18845,0.20148 0.0793,0.38039 0.16888,0.75873 0.23857,1.14111 0.0754,0.41363 -0.82761,0.54089 -0.90783,0.12816 -0.0699,-0.35985 -0.1527,-0.71726 -0.22757,-1.07614 -0.0644,-0.30866 0.42396,-0.49457 0.70838,-0.39461 z m -198.08106,-21.69151 c -0.10659,0.0326 -0.0638,0.0349 -0.14583,0.23167 0.0479,-0.0779 0.0948,-0.15633 0.14583,-0.23167 z m 26.80768,18.36179 c -1.43995,-0.28254 -2.84064,-0.85257 -4.18874,-1.54178 -4.20511,0.28938 -6.85295,0.39886 -8.46985,-0.0397 -0.0581,0.0956 -0.11701,0.19081 -0.17478,0.28667 -2.85949,3.55857 -3.48317,5.38596 -9.21671,3.22353 -0.33675,0.21427 -0.67463,0.42693 -1.00736,0.64775 -1.43365,0.94418 -2.92731,1.81461 -4.5927,2.27027 -0.086,0.065 -0.16688,0.13632 -0.254,0.19987 1.06687,9.9e-4 2.13415,-0.0176 3.20079,-0.0431 2.85877,-0.17 5.71824,-0.3237 8.57355,-0.55086 4.06529,-0.4454 8.09114,-1.19994 12.08404,-2.0867 1.35583,-0.32602 2.70538,-0.67804 4.05741,-1.01998 0.0188,-0.21489 0.0328,-0.4248 0.0207,-0.61511 -0.0149,-0.2366 -0.0247,-0.4822 -0.0324,-0.73088 z m -38.68114,1.5012 c -0.50519,0.47286 -1.01995,0.98368 -1.53246,1.4897 0.0493,0.0177 0.0965,0.0409 0.14605,0.0583 0.66203,0.23177 1.33784,0.41288 2.0172,0.58069 -0.31592,-0.65147 -0.4966,-1.36509 -0.63081,-2.12863 z" /></clipPath><clipPath
       clipPathUnits="userSpaceOnUse"
       id="clipPath4883"><path
         id="path4885"
         style="fill:#ff0000;fill-opacity:1;fill-rule:nonzero;stroke:none;stroke-width:0.235307"
         d="M -487.41969,-84.768517 V 67.989327 h 358.96434 V -84.768517 Z m 267.91206,2.095243 h 9.4e-4 4.7e-4 c 0.005,-2.35e-4 0.0102,-1.32e-4 0.0152,0 0.0449,0.0012 0.0854,0.01838 0.11352,0.05745 0.0584,0.08122 0.12469,0.156526 0.1921,0.23025 0.0539,0.05715 0.10493,0.117336 0.16959,0.162694 0.0579,0.0445 0.11956,0.0834 0.17924,0.125465 0.0699,0.04716 0.13674,0.09887 0.20176,0.152583 0.0878,0.06011 0.17416,0.122543 0.2615,0.183374 0.0933,0.06308 0.18406,0.129956 0.27575,0.195324 0.0688,0.05153 0.13827,0.102022 0.20222,0.159474 0.0671,0.06167 0.12571,0.130167 0.17418,0.207273 0.0302,0.04544 0.0534,0.09497 0.0809,0.14201 0.0241,0.03466 0.0525,0.0669 0.0827,0.09651 0.0494,0.05218 0.0942,0.108117 0.13971,0.163614 0.0497,0.06446 0.0956,0.131852 0.14156,0.198999 0.0472,0.06746 0.0922,0.136464 0.13925,0.204056 0.047,0.0678 0.0939,0.135619 0.14201,0.202674 0.0456,0.05905 0.0907,0.118527 0.1365,0.177401 0.0394,0.05407 0.0834,0.104483 0.12638,0.155799 0.0506,0.06037 0.10572,0.116775 0.1581,0.17556 0.0701,0.07024 0.13451,0.145836 0.19854,0.22152 0.064,0.07693 0.12708,0.154599 0.19165,0.23117 0.0551,0.06347 0.10893,0.127995 0.16682,0.188888 0.0436,0.05052 0.0936,0.094 0.14202,0.139716 0.0771,0.06811 0.13968,0.150547 0.20175,0.232088 0.0799,0.10505 0.1486,0.217936 0.21877,0.329521 0.0618,0.09801 0.12636,0.194467 0.18842,0.292296 0.0538,0.08971 0.11743,0.172315 0.17924,0.256447 0.0494,0.06724 0.096,0.136807 0.14201,0.206355 0.0373,0.05936 0.0793,0.115604 0.12041,0.172343 0.12907,0.178226 -0.25889,0.459084 -0.38788,0.280806 -0.0449,-0.06209 -0.0905,-0.124056 -0.13145,-0.188888 -0.042,-0.06324 -0.0842,-0.126414 -0.12914,-0.187511 -0.068,-0.09293 -0.13821,-0.184196 -0.19762,-0.283105 -0.0623,-0.0984 -0.1269,-0.19554 -0.18889,-0.294131 -0.0561,-0.08919 -0.11278,-0.178024 -0.17464,-0.263344 -0.0356,0.207376 -0.33623,0.317622 -0.58689,0.285404 0.0535,0.07115 0.10742,0.14205 0.16269,0.211868 0.15522,0.2001 0.30532,0.404222 0.46051,0.604353 0.18037,0.233095 0.3662,0.462133 0.55058,0.692131 0.0952,-0.08751 0.20314,-0.1577 0.3116,-0.162232 0.0719,-0.003 0.1402,0.01887 0.1967,0.07399 0.0802,0.07823 0.16097,0.155844 0.24128,0.233928 0.005,0.0048 0.01,0.0095 0.0143,0.01424 0.119,0.06044 0.22815,0.137179 0.33136,0.222438 0.0916,0.07585 0.16918,0.165809 0.24955,0.252772 -0.009,-0.01986 -0.018,-0.04024 -0.028,-0.05974 -0.0726,-0.140537 0.12888,-0.291169 0.28494,-0.291837 0.0611,-2.35e-4 0.11547,0.02245 0.14339,0.07767 0.0321,0.0634 0.0607,0.128635 0.091,0.193025 0.0231,0.04654 0.05,0.09 0.0813,0.131442 0.0328,0.04802 0.0722,0.09102 0.10938,0.135577 0.0487,0.05661 0.086,0.121816 0.12409,0.185671 0.0362,0.0574 0.07,0.116049 0.108,0.172344 0.0319,0.04683 0.0694,0.08957 0.10984,0.129143 0.0468,0.04254 0.0957,0.08224 0.13926,0.128224 0.0509,0.05395 0.0932,0.113559 0.13006,0.177859 0.0328,0.05626 0.0648,0.112829 0.10203,0.166369 0.0459,0.06677 0.0945,0.131602 0.13879,0.19946 0.0377,0.05604 0.0739,0.113559 0.11168,0.169586 0.0333,0.05663 0.0689,0.111422 0.10433,0.16683 0.0419,0.06759 0.0834,0.135692 0.13098,0.199458 0.0611,0.08725 0.12095,0.175409 0.17832,0.265181 0.0518,0.07952 0.10359,0.159223 0.15855,0.236684 0.0406,0.05872 0.0792,0.11906 0.12041,0.1774 0.0906,0.128461 -0.0837,0.299797 -0.23668,0.324926 0.0145,0.01696 0.029,0.0338 0.0437,0.05055 0.15107,0.179412 0.30827,0.353612 0.45866,0.533577 0.12231,0.137806 0.24076,0.278766 0.36169,0.417762 0.0522,0.05679 0.10374,0.114077 0.15534,0.171426 0.004,-0.05535 0.0135,-0.09831 0.04,-0.100189 0.0114,-7.06e-4 0.0263,0.0056 0.045,0.02068 0.0329,0.0265 0.0668,0.05096 0.0984,0.07951 0.0235,0.02153 0.0435,0.04676 0.0648,0.07031 0.0854,0.09447 0.16477,0.192914 0.24312,0.293216 0.0903,0.110839 0.16763,0.231556 0.23806,0.355719 0.0479,0.08639 0.093,0.17427 0.14799,0.256446 0.0384,0.05569 0.076,0.114694 0.12914,0.157637 0.0724,0.06266 0.14025,0.130106 0.20268,0.202677 0.0619,0.0687 0.11176,0.145384 0.15534,0.226575 0.0198,0.05167 0.053,0.09385 0.0855,0.137875 0.0444,0.05943 0.0809,0.124471 0.11903,0.187971 0.0343,0.05769 0.0659,0.11747 0.10019,0.175101 0.0318,0.05927 0.0601,0.120675 0.0956,0.177859 0.027,0.04772 0.061,0.09123 0.0956,0.133739 0.0409,0.05625 0.087,0.107938 0.12868,0.163611 0.0397,0.05526 0.0763,0.113232 0.11306,0.170506 0.0368,0.0646 0.0724,0.129734 0.10479,0.196702 0.0298,0.06121 0.0663,0.119118 0.10294,0.176481 0.0387,0.06341 0.0751,0.128145 0.11352,0.191645 0.0371,0.05057 0.0685,0.10438 0.10065,0.158098 0.0296,0.05157 0.0654,0.09858 0.10019,0.146606 0.0427,0.06204 0.082,0.126859 0.11811,0.193025 0.0412,0.07107 0.0737,0.146577 0.11076,0.219682 0.0225,0.0546 0.0515,0.105121 0.0804,0.156258 0.035,0.05871 0.0684,0.118303 0.10019,0.178779 0.0356,0.06982 0.0642,0.14278 0.0942,0.215085 0.0843,0.203251 -0.35834,0.386369 -0.44212,0.182913 -0.0243,-0.05903 -0.0482,-0.118656 -0.0763,-0.176019 -0.0123,-0.02361 -0.0261,-0.04626 -0.0391,-0.0694 -0.13425,0.2441 -0.49093,0.431158 -0.68386,0.252313 0.0137,0.03842 0.0277,0.07672 0.0409,0.115354 0.13606,0.398419 -0.72521,0.712032 -0.8608,0.313438 -0.008,-0.02399 -0.0192,-0.04687 -0.0276,-0.07077 -0.0215,0.01482 -0.0442,0.02987 -0.0699,0.04504 -0.13716,0.08084 -0.31177,0.08148 -0.47108,0.08227 -0.12887,7.06e-4 -0.28312,-0.104813 -0.39248,-0.174183 -0.10707,-0.07608 -0.21433,-0.151557 -0.32309,-0.225196 -0.16367,-0.115668 -0.31288,-0.249113 -0.45958,-0.385129 -0.0538,-0.04544 -0.10727,-0.09134 -0.16086,-0.136958 -0.0787,0.229186 -0.24559,0.395852 -0.45774,0.582295 -0.0529,0.04071 -0.10404,0.08328 -0.15856,0.121788 -0.31232,0.220621 -0.66788,0.371523 -1.0359,0.470613 -0.18654,0.03335 -0.41116,0.0945 -0.6016,0.03171 -0.14084,-0.04643 -0.29675,-0.09835 -0.39386,-0.209572 -1.17555,2.046994 -3.38461,2.604994 -5.45985,2.925251 -1.54407,0.234959 -3.09216,0.443822 -4.63629,0.678806 -1.80573,0.282208 -3.61607,0.572841 -5.38126,1.055206 -1.87646,0.510444 -3.72931,1.09704 -5.57383,1.712408 -2.33019,0.747723 -4.66721,1.482349 -6.94753,2.37375 -2.58639,0.996409 -5.14935,2.05186 -7.73847,3.040605 -2.7197,0.921784 -5.45666,1.809501 -8.25505,2.46383 -3.14416,0.743213 -6.28901,1.482745 -9.44858,2.159122 -2.59675,0.641864 -5.17806,1.34297 -7.61898,2.460614 -0.31884,0.132664 -0.64164,0.254922 -0.96145,0.385132 -0.17425,0.112446 -0.34684,0.227857 -0.52622,0.331818 -1.36516,0.791257 -2.83971,1.379239 -4.35272,1.824089 -0.76868,0.851435 -1.14883,0.796822 -2.73636,0.633305 -0.90511,0.323041 -1.80974,0.647226 -2.72074,0.954097 -1.33332,0.512435 -2.61848,1.140549 -3.93863,1.685294 -1.26384,0.49998 -2.51256,1.034091 -3.75939,1.573156 -0.46193,2.17877 -1.2959,6.00557 -3.27961,6.192891 -3.10774,0.29347 -5.17964,0.112957 -6.59412,-0.443499 -1.69856,0.704318 -3.00656,1.094998 -4.09533,1.186645 -0.15278,0.917464 -0.31277,1.829985 -0.48301,2.676616 -0.19121,0.950974 -0.28536,1.93512 -0.63425,2.840228 -0.56097,1.455417 -0.63883,3.589347 -2.07684,4.193241 -8.27838,3.476145 -8.19466,1.897056 -11.31175,-2.348471 -0.35919,-0.970911 -0.76154,-1.927071 -1.0777,-2.912842 -0.0388,-0.121059 -0.0731,-0.243345 -0.11029,-0.36491 -1.09232,0.697899 -2.23662,1.332014 -3.33936,2.017112 -0.24333,1.861275 -0.52777,3.716586 -0.90998,5.555909 -2.73784,5.624512 -1.94095,7.395976 -10.97485,5.590376 -0.0711,-0.01419 -0.13895,-0.03454 -0.2059,-0.05653 -0.19243,0.762029 -0.38592,1.350278 -0.55791,1.510192 -2.18412,2.029581 -4.7972,4.234327 -7.77249,4.425791 -3.45845,0.222549 -5.0483,-4.352537 -5.94197,-7.471453 -0.67825,0.339431 -1.34899,0.694495 -2.00378,1.080021 -0.56881,0.335854 -1.13599,0.676254 -1.70461,1.014303 -0.11862,2.299642 -0.3046,5.525886 -0.51012,6.407517 -0.23827,1.0221449 -0.58987,2.0117422 -0.96008,2.9960262 0.20806,0.980265 0.0362,1.929446 -0.74176,2.6136525 -1.15639,1.0171212 -2.36224,1.9741755 -3.64725,2.82552054 -2.22071,1.58594024 -4.44608,3.16659316 -6.69568,4.71119466 -3.73809,2.4746262 -7.56171,4.8296576 -11.55901,6.8661821 -2.72579,1.302137 -5.48117,2.541228 -8.23619,3.780535 -1.87184,0.770861 -3.74121,1.554527 -5.67447,2.162343 -1.0762,0.324015 -1.30993,0.413223 -2.40731,0.668693 -1.35496,0.315443 -2.73398,0.525198 -4.09674,0.802434 -1.96999,0.345377 -3.94946,0.649551 -5.95298,0.703622 -1.32306,0.02552 -2.65346,0.02252 -3.9685,-0.14385 -0.93092,-0.156461 -1.84805,-0.381572 -2.69179,-0.820355 -0.21528,-0.134979 -0.43701,-0.259934 -0.64571,-0.404895 -0.51047,-0.354544 -0.9347,-0.818887 -1.34612,-1.279482 -0.34872,-0.434884 -0.69067,-0.879701 -0.95915,-1.370017 -0.26308,-0.431323 -0.53335,-0.86009 -0.75741,-1.313491 -0.26446,0.08786 -0.61161,0.03499 -0.64893,-0.223358 -0.0127,-0.0881 -0.0277,-0.175814 -0.0464,-0.262882 -0.0321,-0.164324 -0.0596,-0.32947 -0.0974,-0.492674 -0.0276,-0.161044 -0.0477,-0.322599 -0.0768,-0.483483 -0.0169,-0.127505 -0.0426,-0.253821 -0.0772,-0.377776 -0.0305,-0.143134 -0.0761,-0.282227 -0.10387,-0.426034 -0.0253,-0.150656 -0.0675,-0.297461 -0.0951,-0.447636 -0.0256,-0.146848 -0.0481,-0.294162 -0.0726,-0.441201 -0.0214,-0.135541 -0.0514,-0.269775 -0.0671,-0.406271 -0.0195,-0.1356266 -0.0296,-0.271801 -0.0428,-0.4081096 -0.0165,-0.1582345 -0.0261,-0.3164243 -0.0231,-0.4756706 0,-0.1503164 -0.002,-0.3005692 -0.006,-0.4508503 -0.004,-0.1504247 -0.008,-0.3013364 -0.0257,-0.4508527 -0.0202,-0.1519354 -0.0556,-0.3010093 -0.0745,-0.4531494 -0.002,-0.014471 -0.002,-0.029178 -0.005,-0.043661 -0.0546,-0.038433 -0.0942,-0.092963 -0.10984,-0.1654489 -0.0212,-0.09773 -0.0101,-0.044937 -0.0317,-0.158098 -0.0183,-0.1377958 -0.053,-0.2728713 -0.0666,-0.4113259 -0.0195,-0.1583851 -0.0353,-0.3168031 -0.0446,-0.4761294 -0.0146,-0.1501234 -0.0347,-0.300061 -0.0294,-0.4513116 0,-0.1496693 -0.003,-0.2993974 -0.007,-0.4490126 -0.006,-0.1766519 -0.0151,-0.3532615 -0.0294,-0.5294405 -0.016,-0.2103502 -0.0285,-0.4204346 -0.0303,-0.6314696 -0.007,-0.1541495 -0.0165,-0.3085673 -0.0345,-0.4618815 -0.016,-0.1653478 -0.0214,-0.3304956 -0.0294,-0.4963493 -0.009,-0.1032104 -0.0221,-0.2064466 -0.0501,-0.3065438 -0.0431,-0.149481 -0.0761,-0.3008539 -0.0878,-0.4563659 -0.0153,-0.1406147 -0.0205,-0.2815 -0.0239,-0.4228183 -0.005,-0.099676 -0.012,-0.199512 -0.0331,-0.2973502 -0.0316,-0.1399653 -0.0836,-0.2738478 -0.11766,-0.413166 -0.0259,-0.1227125 -0.0569,-0.2440674 -0.0809,-0.3672058 -0.0272,-0.1494387 -0.0461,-0.30092225 -0.0409,-0.45314934 0.004,-0.10086665 0.0564,-0.17838616 0.13511,-0.2330103 -0.009,-0.0584596 -0.0249,-0.11612866 -0.0271,-0.17556012 -0.003,-0.10846472 -0.006,-0.21681648 -0.0139,-0.32492588 -0.0134,-0.14048293 -0.0351,-0.27981991 -0.0506,-0.42006046 -0.009,-0.1470527 -0.0238,-0.29356418 -0.0372,-0.44028038 -0.008,-0.13924521 -0.007,-0.27878922 -0.0106,-0.41822272 -0.003,-0.1079917 -0.006,-0.2162188 -0.0193,-0.323547 -0.0153,-0.112039 -0.0396,-0.2219485 -0.0717,-0.3304391 -0.0431,-0.1911139 -0.0536,-0.3855951 -0.0648,-0.5809139 -0.008,-0.2250405 1.4e-4,-0.4500527 0.004,-0.6751284 0.007,-0.1885703 0.0151,-0.3771099 0.0345,-0.5648284 0.0141,-0.1606087 0.0127,-0.3218645 0.0146,-0.4830238 0.003,-0.1659079 0.006,-0.3316369 0.0146,-0.4972694 0.009,-0.1392193 0.0219,-0.2779868 0.0354,-0.4168414 v -0.4706138 c 0,-0.1577686 0,-0.3151513 0.002,-0.4729128 0.002,-0.1657572 0.005,-0.3316368 0.0129,-0.4972693 0.0101,-0.2071219 0.0243,-0.414199 0.0579,-0.6190595 0.0333,-0.2121198 0.069,-0.4237972 0.0951,-0.6369829 0.025,-0.2209155 0.0618,-0.4400921 0.0878,-0.6608829 0.0212,-0.1621006 0.0349,-0.3248694 0.0331,-0.4885371 0.005,-0.2217485 0.012,-0.4439253 0.0308,-0.6650173 0.0127,-0.1322825 0.0309,-0.2636285 0.0473,-0.3952429 -0.0695,-0.381625 -0.13521,-0.76374 -0.16453,-1.151255 -0.0349,-0.477786 -0.1001,-0.952382 -0.16408,-1.42701 -0.0894,-0.834574 -0.14041,-1.672083 -0.16361,-2.511164 -0.0228,-0.440914 -0.0364,-0.884375 -0.14476,-1.314869 -0.0514,-0.224893 -0.10605,-0.449081 -0.1774,-0.668695 -0.06,-0.184914 -0.14481,-0.362747 -0.18751,-0.552421 -0.006,-0.02711 0.026,0.04927 0.0391,0.07445 1.54726,2.954711 5.0274,-4.174645 6.96546,-4.27229 0.35891,-0.01807 0.66509,0.205131 0.89619,0.778075 0.0674,0.16699 0.11909,0.339298 0.1806,0.5083 0.73236,-0.656372 1.59636,-1.158834 2.55437,-1.407246 0.78865,-0.204469 1.63799,-0.450761 2.4303,-0.261044 1.41254,0.338263 2.64746,1.196232 3.97125,1.794215 0.44028,0.615172 0.92113,1.203515 1.33141,1.838335 0.13956,-1.458792 0.26602,-2.918933 0.38652,-4.378913 0.40188,-5.518914 0.47148,-10.601642 9.74314,-9.511088 1.38603,0.16303 2.27447,1.357603 2.8931,2.800705 0.49748,-0.445316 0.99318,-0.89276 1.49822,-1.330037 1.5803,-1.326847 3.21942,-2.584889 5.00672,-3.624736 2.11086,-1.253562 4.24474,-2.471643 6.44842,-3.556259 1.85949,-0.909216 3.73822,-1.773219 5.61244,-2.65088 1.77904,-0.819749 3.57759,-1.593856 5.42032,-2.261152 1.99999,-0.747602 4.00295,-1.489422 5.98379,-2.286888 2.9475,-1.226015 5.88159,-2.490717 8.90857,-3.512598 3.32811,-1.117602 6.68521,-2.141364 10.03224,-3.200082 2.10861,-0.702653 4.15905,-1.555334 6.25401,-2.295621 0.45389,-0.125323 0.9045,-0.263448 1.36177,-0.375941 1.95171,-0.480169 3.96134,-0.703709 5.94701,-0.986726 2.70722,-0.32287 5.42062,-0.590592 8.12498,-0.937094 2.03877,-0.269581 4.07573,-0.566346 6.11981,-0.793699 1.01309,-0.112672 3.15111,-0.295419 4.16752,-0.403975 0.0148,-0.0016 0.0297,-0.0035 0.0446,-0.0051 0.0115,-0.0252 0.0287,-0.09055 0.0395,-0.109841 0.60081,-1.07319 1.41368,-2.012938 2.12052,-3.019466 2.0947,0.609116 4.27581,0.995537 6.37856,1.583726 0.27705,-0.158401 0.4728,-0.277911 0.71236,-0.42006 0.0125,-0.05643 0.0202,-0.111335 0.034,-0.168207 0.3962,-1.690216 0.95701,-3.33164 2.02721,-4.729118 0.22413,-0.28226 0.43457,-0.575779 0.67192,-0.847013 1.53545,-1.754686 3.48475,-3.074536 5.67447,-3.87337 0.45691,-0.14073 0.90744,-0.303626 1.37049,-0.422357 2.2714,-0.582472 4.68343,-0.729141 7.00774,-0.463263 2.27245,0.327446 4.53945,0.792904 6.62444,1.793297 0.39422,0.205644 0.71018,0.366903 1.02671,0.539552 0.56749,-0.143248 1.13599,-0.28242 1.70092,-0.435687 2.09197,-0.62815 4.14408,-1.382751 6.21679,-2.070884 2.28674,-0.75654 4.57429,-1.512887 6.87905,-2.212895 2.4987,-0.679597 5.02096,-1.272337 7.54452,-1.851665 1.98774,-0.421136 3.97523,-0.840742 5.95116,-1.314869 1.62817,-0.397782 3.28821,-0.730748 4.85827,-1.32314 0.79568,-0.297532 1.52232,-0.742937 2.27676,-1.127819 1.07339,-0.536375 2.16506,-1.049464 3.31452,-1.403109 1.08062,-0.354309 2.17287,-0.677675 3.28143,-0.933416 1.06304,-0.212322 2.13914,-0.387604 3.22076,-0.373641 h 9.4e-4 c 0.36055,0.0047 0.72139,0.03034 1.08279,0.08272 0.52016,0.06506 1.03632,0.154795 1.54511,0.272994 0.0341,-4.7e-4 0.068,-0.0019 0.10204,-0.0014 0.20068,0.0024 0.40118,0.01986 0.60113,0.04136 0.44974,0.0633 0.89278,0.1647 1.32911,0.289538 0.31565,0.09972 0.62248,0.224358 0.92929,0.347906 0.25453,0.100459 0.51529,0.182438 0.77945,0.25323 0.0266,0.0064 0.0533,0.01184 0.08,0.01793 0.0217,-0.01577 0.0428,-0.03214 0.0643,-0.04826 0.19723,-0.109549 0.40787,-0.191537 0.60894,-0.293672 0.18489,-0.08785 0.3807,-0.169821 0.53818,-0.302866 0.17948,-0.181859 0.35677,-0.367425 0.59102,-0.480266 0.29732,-0.154782 0.60588,-0.291613 0.93387,-0.367208 0.28962,-0.07141 0.58189,-0.131054 0.87092,-0.204515 0.24389,-0.06784 0.48596,-0.158305 0.74176,-0.164531 0.16295,0.0046 0.32413,0.02371 0.48028,0.06848 -0.009,-0.0065 -0.0185,-0.01275 -0.0276,-0.01929 -0.0554,-0.0461 -0.11286,-0.09004 -0.1728,-0.130064 -0.062,-0.04393 -0.12647,-0.08401 -0.1866,-0.130522 -0.0884,-0.06627 -0.16616,-0.143406 -0.23943,-0.226114 -0.0802,-0.08796 -0.15896,-0.178 -0.22842,-0.274831 -0.0971,-0.135306 0.10262,-0.327479 0.26105,-0.335496 z m 0.70821,4.42717 c 0.004,0.127979 0.009,0.255962 0.0175,0.383753 0.0148,0.185537 0.035,0.371326 0.0671,0.554717 0.041,0.0476 0.0834,0.0947 0.12317,0.142471 0.0829,0.09795 0.16143,0.1993 0.23898,0.301487 0.0703,0.09266 0.0868,0.196931 0.0671,0.301487 0.43375,0.216859 0.85877,0.449544 1.26845,0.709137 -0.0816,-0.120091 -0.16448,-0.239323 -0.25139,-0.355718 -0.20719,-0.275304 -0.42285,-0.543394 -0.6402,-0.810705 -0.14826,-0.191022 -0.28652,-0.388642 -0.4003,-0.602515 -0.0896,-0.144208 -0.18232,-0.287084 -0.29413,-0.415463 -0.0613,-0.07399 -0.12286,-0.14757 -0.19625,-0.208651 z m 4.90009,6.888242 c 0.0519,0.319043 0.094,0.639087 0.12225,0.95961 0.0723,-0.01777 0.14858,0.0012 0.22289,0.0019 0.0577,0.0144 0.11644,0.02586 0.17327,0.0432 0.12493,0.03802 0.23569,0.113174 0.34652,0.179697 0.008,0.0043 0.0163,0.0081 0.0244,0.0124 -0.12192,-0.135502 -0.2451,-0.269956 -0.35296,-0.417303 -0.18959,-0.252524 -0.36268,-0.515917 -0.53633,-0.779454 z m 0.93525,3.20284 c -0.0194,0.0252 -0.0438,0.0475 -0.0602,0.07445 0.0404,-0.04893 0.0797,-0.09975 0.0602,-0.07445 z m -0.40765,1.152176 c -4.7e-4,0.0014 -9.4e-4,0.0028 -10e-4,0.0041 -0.0393,0.138951 0.002,-0.0012 0.002,-0.0019 z m 2.47899,1.780428 c 0.10069,-0.003 0.19193,0.03187 0.24956,0.11995 0.21308,0.325688 0.43494,0.64568 0.63974,0.976618 0.22155,0.357968 -0.57487,0.800274 -0.8006,0.444876 -0.19681,-0.309895 -0.40468,-0.612881 -0.60573,-0.920088 -0.1729,-0.264217 0.215,-0.6124 0.51703,-0.621356 z m -192.83215,50.84743 c -0.0876,0.06854 -0.0469,0.05541 -0.0515,0.267937 0.0162,-0.08964 0.0313,-0.179509 0.0515,-0.267937 z m 31.73516,7.4774292 c -1.44749,0.253395 -2.96324,0.2251534 -4.47358,0.067098 -3.8196,1.7774259 -6.25131,2.8288807 -7.92093,3.0006241 -0.0193,0.1098531 -0.0395,0.219579 -0.0584,0.3295215 -1.37128,4.34542888 -1.25612,6.2768538 -7.43102,6.3137617 -0.23411,0.3176784 -0.47005,0.6341309 -0.69811,0.9563931 -0.99339,1.3932756 -2.0699,2.7393087 -3.45837,3.7607736 -0.059,0.095429 -0.11065,0.195133 -0.17143,0.2895381 1.00001,-0.3828467 1.9895,-0.7931631 2.97948,-1.2008935 2.6065,-1.1834713 5.21956,-2.3520547 7.80191,-3.5875101 3.63208,-1.8725205 7.11434,-4.0186888 10.51756,-6.2760749 1.14658,-0.7898429 2.27791,-1.6017082 3.41517,-2.4050036 -0.0609,-0.2065735 -0.12426,-0.4068409 -0.20497,-0.579535 -0.10041,-0.2148658 -0.19926,-0.4399909 -0.29736,-0.6686928 z M -407.5491,8.3721105 c -0.29877,0.6213302 -0.59257,1.2814155 -0.88607,1.9362275 0.0522,-0.0012 0.10446,0.0027 0.15672,0.0019 0.70479,-0.02179 1.40506,-0.0891 2.10258,-0.176939 -0.53598,-0.4942311 -0.96725,-1.0958709 -1.37323,-1.7611258 z" /></clipPath><clipPath
       clipPathUnits="userSpaceOnUse"
       id="clipPath4893"><path
         id="path4895"
         style="fill:#ff0000;fill-opacity:1;fill-rule:nonzero;stroke:none;stroke-width:0.235307"
         d="M -459.57122,-73.21412 V 53.375474 H -160.8698 V -73.21412 h -50.88466 c -0.0394,0.09004 -0.14756,0.162915 -0.24725,0.178318 0.0148,0.01736 0.0295,0.03477 0.0446,0.05193 0.15107,0.179412 0.30827,0.353612 0.45866,0.533577 0.12231,0.137805 0.24076,0.278766 0.36169,0.417762 0.0522,0.05679 0.10374,0.114076 0.15534,0.171425 0.004,-0.05535 0.0135,-0.09831 0.04,-0.100189 0.0114,-7.05e-4 0.0263,0.0056 0.045,0.02068 0.0329,0.0265 0.0669,0.05096 0.0984,0.07951 0.0235,0.02153 0.0435,0.04676 0.0648,0.07031 0.0854,0.09447 0.16477,0.192914 0.24312,0.293216 0.0903,0.110839 0.16763,0.231556 0.23806,0.355718 0.0479,0.08639 0.093,0.174271 0.14799,0.256447 0.0384,0.05569 0.076,0.114686 0.12914,0.157637 0.0724,0.06266 0.14025,0.130106 0.20268,0.202677 0.0619,0.0687 0.11176,0.145384 0.15534,0.226574 0.0198,0.05167 0.053,0.09385 0.0855,0.137876 0.0444,0.05943 0.0809,0.124471 0.11903,0.18797 0.0343,0.05769 0.0659,0.11747 0.10019,0.175102 0.0318,0.05927 0.0601,0.120674 0.0956,0.177859 0.027,0.04772 0.061,0.09123 0.0956,0.133739 0.0409,0.05625 0.087,0.107937 0.12868,0.163611 0.0397,0.05526 0.0763,0.113232 0.11306,0.170506 0.0368,0.0646 0.0724,0.129734 0.10479,0.196702 0.0298,0.06121 0.0663,0.119117 0.10294,0.17648 0.0387,0.06341 0.0751,0.128146 0.11352,0.191646 0.0371,0.05057 0.0685,0.10438 0.10065,0.158098 0.0296,0.05157 0.0654,0.09858 0.10019,0.146606 0.0427,0.06204 0.082,0.126858 0.11811,0.193024 0.0412,0.07107 0.0737,0.146578 0.11076,0.219683 0.0225,0.0546 0.0515,0.105121 0.0804,0.156258 0.035,0.05871 0.0684,0.118303 0.10019,0.178779 0.0356,0.06982 0.0642,0.142779 0.0942,0.215084 0.0843,0.203251 -0.35834,0.38637 -0.44212,0.182914 -0.0243,-0.05903 -0.0482,-0.118656 -0.0763,-0.176019 -0.0123,-0.02361 -0.0261,-0.04626 -0.0391,-0.0694 -0.13294,0.241714 -0.48593,0.432732 -0.68019,0.262882 0.0124,0.03492 0.0252,0.06969 0.0372,0.104785 0.13606,0.398419 -0.72521,0.712032 -0.8608,0.313438 -0.008,-0.02399 -0.0192,-0.04687 -0.0276,-0.07077 -0.0215,0.01482 -0.0442,0.02987 -0.0699,0.04504 -0.13716,0.08084 -0.31177,0.08148 -0.47108,0.08227 -0.12887,7.06e-4 -0.28312,-0.104813 -0.39248,-0.174184 -0.10707,-0.07607 -0.21433,-0.151556 -0.32309,-0.225195 -0.16367,-0.115668 -0.31288,-0.249113 -0.45958,-0.38513 -0.0538,-0.04544 -0.10727,-0.09133 -0.16086,-0.136958 -0.0787,0.229187 -0.24559,0.395852 -0.45774,0.582296 -0.0529,0.04071 -0.10404,0.08328 -0.15856,0.121787 -0.31232,0.220622 -0.66788,0.371524 -1.0359,0.470614 -0.18654,0.03335 -0.41116,0.0945 -0.6016,0.03171 -0.14074,-0.0464 -0.29627,-0.09851 -0.3934,-0.209571 -1.17554,2.04705 -3.38503,2.604991 -5.46031,2.925251 -1.54407,0.234958 -3.09216,0.443821 -4.63629,0.678806 -1.80575,0.282208 -3.61607,0.57284 -5.38126,1.055205 -1.87646,0.510449 -3.72929,1.097041 -5.57383,1.712409 -2.33019,0.747723 -4.66721,1.482349 -6.94753,2.37375 -2.58639,0.996414 -5.14933,2.05186 -7.73847,3.040605 -2.7197,0.921784 -5.45666,1.809501 -8.25505,2.46383 -3.14418,0.743217 -6.28901,1.48274 -9.44858,2.159122 -2.59675,0.641863 -5.17806,1.34297 -7.61898,2.460614 -0.31884,0.132664 -0.64164,0.254922 -0.96145,0.385131 -0.17425,0.112446 -0.34684,0.227857 -0.52622,0.331818 -1.36516,0.791257 -2.83971,1.37924 -4.35272,1.82409 -0.76868,0.851439 -1.14881,0.796822 -2.73636,0.633305 -0.90511,0.323041 -1.80974,0.647226 -2.72074,0.954097 -1.33332,0.512434 -2.61848,1.140549 -3.93863,1.685293 -1.26385,0.49998 -2.51257,1.034092 -3.7594,1.573156 -0.46193,2.178775 -1.2959,6.005571 -3.27959,6.192892 -3.10774,0.293475 -5.17964,0.112957 -6.59412,-0.443499 -1.69863,0.704318 -3.00656,1.094998 -4.09535,1.186645 -0.15281,0.917464 -0.31277,1.829984 -0.48301,2.676616 -0.19121,0.950974 -0.28534,1.935119 -0.63423,2.840227 -0.56097,1.455418 -0.63881,3.589348 -2.07684,4.193242 -8.27838,3.476149 -8.19468,1.89707 -11.31174,-2.348471 -0.35922,-0.970911 -0.76155,-1.927072 -1.07773,-2.912843 -0.0388,-0.121058 -0.0731,-0.243345 -0.11029,-0.364909 -1.09232,0.697909 -2.23662,1.332018 -3.33936,2.017112 -0.24333,1.86128 -0.52777,3.716578 -0.90998,5.555909 -2.73786,5.624519 -1.94095,7.395975 -10.97485,5.590376 -0.0711,-0.01419 -0.13895,-0.03454 -0.2059,-0.05653 -0.19243,0.76203 -0.38585,1.350279 -0.55791,1.510193 -2.18407,2.029586 -4.7972,4.234327 -7.77249,4.425791 -3.42494,0.220396 -5.05049,-4.349693 -5.94978,-7.467777 -0.67562,0.3383 -1.34368,0.692284 -1.99597,1.076345 -0.56881,0.335854 -1.13604,0.676253 -1.70461,1.014302 -0.11867,2.299648 -0.30461,5.525886 -0.51012,6.4075177 -0.23827,1.0221497 -0.58987,2.0117422 -0.96008,2.9960263 0.20806,0.980265 0.0362,1.9294365 -0.74176,2.6136525 -1.15639,1.0171211 -2.36224,1.9741707 -3.64725,2.8255205 -2.22071,1.58594025 -4.44608,3.1665884 -6.69568,4.7111947 -3.73809,2.4746308 -7.56171,4.8296599 -11.55901,6.8661823 -2.72582,1.302141 -5.48117,2.54122 -8.23619,3.780535 -1.87184,0.77086 -3.74121,1.554526 -5.67447,2.162343 -1.0762,0.32402 -1.30993,0.413222 -2.40731,0.668693 -1.35496,0.315443 -2.73398,0.525198 -4.09674,0.802434 -1.96999,0.345376 -3.94946,0.649551 -5.95298,0.703622 -1.32306,0.02552 -2.65346,0.02252 -3.9685,-0.14385 -0.93092,-0.156468 -1.84805,-0.381572 -2.69179,-0.820356 -0.21528,-0.134979 -0.43701,-0.259934 -0.64571,-0.404895 -0.51047,-0.354544 -0.93471,-0.818886 -1.34612,-1.279481 -0.34872,-0.434885 -0.69067,-0.879702 -0.95915,-1.370018 -0.26308,-0.431322 -0.53335,-0.860089 -0.75741,-1.31349 -0.26432,0.08722 -0.61032,0.03455 -0.64754,-0.223358 -0.0127,-0.0881 -0.0277,-0.175814 -0.0464,-0.262882 -0.0321,-0.164325 -0.0596,-0.32947 -0.0974,-0.492674 -0.0276,-0.161044 -0.048,-0.322599 -0.0768,-0.483483 -0.0169,-0.127506 -0.0426,-0.253814 -0.0772,-0.377776 -0.0305,-0.143135 -0.0761,-0.282227 -0.10386,-0.426035 -0.0253,-0.150655 -0.0675,-0.297461 -0.0951,-0.447636 -0.0256,-0.146848 -0.0477,-0.294162 -0.0722,-0.4412 -0.0214,-0.135549 -0.0514,-0.269775 -0.0671,-0.406272 -0.0195,-0.1356258 -0.0296,-0.2718003 -0.0428,-0.4081089 -0.0165,-0.1582344 -0.0268,-0.3164242 -0.0235,-0.4756705 0,-0.1503164 -0.002,-0.3005693 -0.006,-0.4508504 -0.004,-0.1504246 -0.008,-0.3013363 -0.0257,-0.4508527 -0.0202,-0.1519353 -0.056,-0.3010093 -0.0749,-0.4531493 -0.002,-0.014471 -0.002,-0.029178 -0.005,-0.043661 -0.0546,-0.038433 -0.0942,-0.092963 -0.10985,-0.165449 -0.0212,-0.09773 -0.0101,-0.044937 -0.0317,-0.158098 -0.0183,-0.1377957 -0.053,-0.2728666 -0.0666,-0.4113258 -0.0195,-0.1583851 -0.0353,-0.3168031 -0.0446,-0.4761294 -0.0146,-0.1501235 -0.0347,-0.300061 -0.0294,-0.4513116 0,-0.1496693 -0.003,-0.2993974 -0.007,-0.4490126 -0.006,-0.176652 -0.0146,-0.3532616 -0.029,-0.5294405 -0.016,-0.2103503 -0.0281,-0.4204346 -0.0299,-0.6314696 -0.007,-0.1541496 -0.0169,-0.3085674 -0.0349,-0.4618816 -0.016,-0.1653478 -0.0205,-0.3304956 -0.0285,-0.4963493 -0.009,-0.1032103 -0.0226,-0.2064465 -0.0506,-0.3065437 -0.0431,-0.149481 -0.0761,-0.300854 -0.0878,-0.4563659 -0.0153,-0.1406147 -0.0205,-0.2815 -0.0239,-0.4228183 -0.005,-0.099676 -0.012,-0.199512 -0.0331,-0.2973503 -0.0316,-0.1399652 -0.0841,-0.2738478 -0.11812,-0.4131659 -0.0259,-0.1227126 -0.0569,-0.2440674 -0.0809,-0.3672059 -0.0272,-0.1494387 -0.0457,-0.30091513 -0.0405,-0.45314927 0.004,-0.10086666 0.0564,-0.17838616 0.13512,-0.23301031 -0.009,-0.0584596 -0.0248,-0.11612866 -0.0271,-0.17556012 -0.003,-0.10846471 -0.006,-0.21681648 -0.0141,-0.32492588 -0.0134,-0.14048292 -0.0352,-0.2798199 -0.0506,-0.42006046 -0.009,-0.14705269 -0.0233,-0.29356418 -0.0367,-0.44028038 -0.008,-0.13924521 -0.008,-0.27878928 -0.0111,-0.41822268 -0.003,-0.1079918 -0.006,-0.2162188 -0.0193,-0.323547 -0.0153,-0.112039 -0.0396,-0.2219485 -0.0717,-0.3304391 -0.0431,-0.1911139 -0.0536,-0.3855951 -0.0648,-0.5809139 -0.008,-0.2250405 1.1e-4,-0.4500527 0.004,-0.6751285 0.007,-0.1885702 0.016,-0.3771028 0.0354,-0.5648283 0.0141,-0.1606087 0.0118,-0.3218645 0.0139,-0.4830239 0.003,-0.1659078 0.006,-0.3316368 0.0158,-0.4972693 0.009,-0.1392193 0.0224,-0.2779869 0.0358,-0.4168415 5e-5,-0.1567732 2.1e-4,-0.3138523 0,-0.4706138 0,-0.1577685 -1.6e-4,-0.3151512 0.002,-0.4729127 0.002,-0.1657573 0.005,-0.3316369 0.0134,-0.4972694 0.0101,-0.2071218 0.0239,-0.4141989 0.0575,-0.6190595 0.0333,-0.2121197 0.069,-0.4237971 0.0951,-0.6369828 0.025,-0.2209155 0.0618,-0.4400921 0.0878,-0.660883 0.0212,-0.1620982 0.0349,-0.3248694 0.0331,-0.4885371 0.005,-0.2217485 0.012,-0.4439253 0.0308,-0.6650173 0.0125,-0.1298188 0.03,-0.2587411 0.0464,-0.3878893 -0.07,-0.3840873 -0.13636,-0.7685973 -0.16591,-1.1586093 -0.0348,-0.477786 -0.1001,-0.952381 -0.16408,-1.427009 -0.0894,-0.834575 -0.14041,-1.672084 -0.16361,-2.511165 -0.0228,-0.440913 -0.0364,-0.884375 -0.14476,-1.314869 -0.0514,-0.224892 -0.10608,-0.44908 -0.1774,-0.668695 -0.06,-0.184913 -0.1448,-0.362746 -0.18751,-0.55242 -0.006,-0.02711 0.0263,0.04927 0.0395,0.07445 1.54727,2.954742 5.02734,-4.174645 6.96547,-4.272291 h 0.002 c 0.35894,-0.01807 0.66512,0.205131 0.89619,0.778075 0.0674,0.166991 0.11911,0.339299 0.18062,0.508301 0.73237,-0.656372 1.59635,-1.158835 2.55437,-1.407246 0.78861,-0.20447 1.63802,-0.450761 2.43028,-0.261045 1.41264,0.338264 2.64744,1.196228 3.97127,1.794216 0.44026,0.615172 0.92111,1.203507 1.33142,1.838335 0.13956,-1.4588 0.26599,-2.918928 0.38649,-4.378913 0.40197,-5.518924 0.47139,-10.601647 9.74318,-9.511089 1.38559,0.162976 2.27408,1.35686 2.89263,2.799326 0.49714,-0.444951 0.99269,-0.891726 1.49731,-1.328658 1.58029,-1.326846 3.21937,-2.584888 5.00672,-3.624735 2.11084,-1.253562 4.2447,-2.471643 6.44842,-3.556259 1.85949,-0.909217 3.73827,-1.773219 5.61244,-2.650881 1.77904,-0.819748 3.57761,-1.593856 5.42032,-2.261151 1.99999,-0.747603 4.00295,-1.489422 5.98378,-2.286889 2.94744,-1.226014 5.88159,-2.490711 8.90858,-3.512597 3.32816,-1.117602 6.68521,-2.141359 10.03224,-3.200082 2.10866,-0.702657 4.15907,-1.55533 6.25404,-2.295622 0.4539,-0.125322 0.90444,-0.263447 1.36174,-0.37594 1.95171,-0.48017 3.96132,-0.703709 5.94701,-0.986727 2.7072,-0.322869 5.4206,-0.590592 8.12498,-0.937093 2.03874,-0.269586 4.07575,-0.566346 6.11981,-0.793699 1.01312,-0.112672 3.15111,-0.295419 4.16752,-0.403975 0.0153,-0.0016 0.0309,-0.0039 0.0464,-0.0055 0.0115,-0.02508 0.0283,-0.09016 0.0391,-0.109383 0.60081,-1.073195 1.41367,-2.012937 2.12053,-3.019465 2.09468,0.609115 4.27574,0.995536 6.37856,1.583726 0.27644,-0.158051 0.47186,-0.277272 0.71098,-0.41914 0.0125,-0.05672 0.02,-0.111957 0.034,-0.169127 0.39621,-1.690217 0.95702,-3.33164 2.02722,-4.729118 0.22413,-0.28226 0.43501,-0.57578 0.67237,-0.847013 1.53547,-1.754691 3.48473,-3.074532 5.67449,-3.873371 0.45687,-0.14073 0.90743,-0.303621 1.37047,-0.422357 2.27142,-0.582474 4.68297,-0.729136 7.00728,-0.463263 2.27245,0.327446 4.53945,0.792905 6.62444,1.793298 0.39422,0.205644 0.71018,0.366902 1.02671,0.539552 0.56749,-0.143248 1.136,-0.282421 1.70092,-0.435688 2.09199,-0.628154 4.14408,-1.38275 6.21679,-2.070884 2.28675,-0.756545 4.57429,-1.512877 6.87906,-2.212894 0.59793,-0.162625 1.19752,-0.319688 1.79788,-0.473372 z m 245.68154,1.870506 c 0.0508,0.314029 0.0912,0.629011 0.11903,0.944444 0.0704,-0.0152 0.14433,0.0021 0.21646,0.0028 0.0577,0.0144 0.11644,0.02586 0.17327,0.0432 0.12493,0.03802 0.23569,0.113174 0.34652,0.179697 0.008,0.0043 0.0163,0.0081 0.0244,0.0124 -0.12192,-0.135502 -0.2451,-0.269956 -0.35296,-0.417303 -0.18614,-0.247933 -0.3562,-0.506472 -0.52668,-0.765206 z m 0.9256,3.188592 c -0.0194,0.0252 -0.0438,0.0475 -0.0602,0.07445 0.0404,-0.04893 0.0797,-0.09975 0.0602,-0.07445 z m -0.40765,1.152176 c -4.7e-4,0.0014 -9.4e-4,0.0028 -10e-4,0.0041 -0.0393,0.138951 0.002,-0.0012 0.002,-0.0019 z m 2.47899,1.780428 c 0.10069,-0.003 0.19193,0.03187 0.24956,0.11995 0.21308,0.325688 0.43494,0.64568 0.63974,0.976618 0.22155,0.357972 -0.57487,0.800274 -0.8006,0.444876 -0.19681,-0.309895 -0.40468,-0.612881 -0.60573,-0.920088 -0.1729,-0.264217 0.215,-0.6124 0.51703,-0.621356 z m -192.83215,50.84743 c -0.0876,0.06854 -0.0469,0.05541 -0.0515,0.267937 0.0162,-0.08964 0.0313,-0.179509 0.0515,-0.267937 z m 31.73516,7.4774292 c -1.44749,0.2533973 -2.96324,0.2251534 -4.47358,0.067098 -3.8196,1.7774306 -6.25131,2.8288807 -7.92093,3.0006241 -0.0193,0.1098578 -0.0395,0.219579 -0.0584,0.3295215 -1.37128,4.34543829 -1.25612,6.2768538 -7.43102,6.3137617 -0.23411,0.3176784 -0.47005,0.6341309 -0.69811,0.9563931 -0.99339,1.3932803 -2.0699,2.739304 -3.45837,3.7607736 -0.059,0.095429 -0.11065,0.195133 -0.17143,0.2895381 1.00001,-0.3828467 1.9895,-0.7931631 2.97948,-1.2008935 2.6065,-1.183476 5.21956,-2.3520547 7.80191,-3.5875101 3.63208,-1.8725252 7.11434,-4.0186841 10.51756,-6.2760749 1.14524,-0.788904 2.28429,-1.5865874 3.42023,-2.388918 -0.0623,-0.2124468 -0.1272,-0.4183568 -0.21003,-0.5956206 -0.10041,-0.2148658 -0.19926,-0.4399909 -0.29736,-0.6686928 z M -407.5491,8.3721105 c -0.29926,0.6223444 -0.59349,1.2835944 -0.88746,1.9394445 0.0527,-0.0012 0.1054,2.35e-4 0.15811,-0.0014 0.70479,-0.02179 1.40506,-0.0891 2.10258,-0.176939 -0.53598,-0.4942318 -0.96725,-1.0958715 -1.37323,-1.7611265 z" /></clipPath></defs><g
     id="layer1"
     transform="translate(528.03909,-64.48733)"><g
       id="g3351"
       transform="translate(-120.37635,31.527141)"
       style="display:inline"><path
         id="path354"
         style="fill:#5babde;stroke:#fef2f0;stroke-width:0"
         d="M -31.527145,162.29312 A 129.33293,129.33293 0 0 1 -160.86008,291.62605 129.33293,129.33293 0 0 1 -290.19301,162.29312 129.33293,129.33293 0 0 1 -160.86008,32.96019 129.33293,129.33293 0 0 1 -31.527145,162.29312 Z" /><path
         style="fill:#5f91cc;fill-opacity:1;stroke:#fef2f0;stroke-width:0"
         d="m -267.62235,91.088331 c 1.254,-0.447856 3.76183,-1.343511 8.77757,-3.52298 5.01574,-2.179469 12.53911,-5.642608 21.19729,-7.971316 8.65817,-2.328709 18.45049,-3.522894 27.58631,-3.79156 9.13582,-0.268667 17.61454,0.388136 25.13812,0.686676 7.52358,0.29854 14.0916,0.238831 21.40616,-1.22413 7.31456,-1.462961 15.37532,-4.329009 20.83877,-7.374242 5.46346,-3.045233 8.3295,-6.269532 11.88234,-9.732795 3.55283,-3.463264 7.79219,-7.16524 10.21044,-10.090977 2.41825,-2.925738 3.01534,-5.075274 3.34003,-6.176272 0.3247,-1.100998 0.37695,-1.153251 0.66821,-1.086018 0.29125,0.06723 0.82117,0.253826 1.66833,0.578514 0.84715,0.324688 2.01148,0.787434 3.09001,1.235273 1.07853,0.447838 2.0712,0.880731 3.146,1.358422 1.0748,0.477692 2.23167,1.000149 3.38857,1.556217 1.1569,0.556068 2.31377,1.145699 3.51173,1.754006 1.19795,0.608307 2.436918,1.235253 3.825199,2.004046 1.388281,0.768793 2.925795,1.679359 4.049105,2.354843 1.12331,0.675483 1.832359,1.11584 2.212972,1.36966 0.380614,0.25382 0.43286,0.320993 -0.160615,0.802254 -0.593476,0.481261 -1.832445,1.376901 -5.232257,3.612345 -3.399814,2.235443 -8.960244,5.810538 -14.367784,8.553503 -5.40755,2.742964 -10.66197,4.653662 -16.3345,6.265864 -5.67253,1.612201 -11.76288,2.925806 -17.16678,4.926131 -5.4039,2.000325 -10.12094,4.687245 -14.09176,7.672828 -3.97083,2.985582 -7.19513,6.269593 -11.07625,8.389302 -3.88113,2.11971 -8.41903,3.075059 -12.86745,2.836276 -4.44842,-0.238783 -8.8072,-1.671806 -13.70353,-2.627218 -4.89633,-0.955411 -10.32988,-1.433086 -16.15176,-0.985278 -5.82188,0.447808 -12.03164,1.82112 -17.40567,3.582597 -5.37403,1.761476 -9.91194,3.911014 -15.25602,5.135108 -5.34408,1.22408 -11.49414,1.52263 -16.89804,2.41828 -5.40389,0.89565 -10.0612,2.38838 -12.52363,3.12102 -2.46243,0.73264 -2.72997,0.70507 -2.86124,0.67552 -0.13126,-0.0296 -0.12597,-0.0612 0.21181,-0.7922 0.33777,-0.731 1.00803,-2.16124 1.7624,-3.63561 0.75437,-1.47436 1.59281,-2.992742 2.42629,-4.449835 0.83348,-1.457094 1.66194,-2.852799 2.35609,-3.983584 0.69414,-1.130784 1.25391,-1.996561 1.58987,-2.451915 0.33596,-0.455355 0.44793,-0.500143 0.50384,-0.522505 0.0559,-0.02236 0.0558,-0.02239 1.30983,-0.47025 z"
         id="path1447" /><path
         style="fill:#5f91cc;fill-opacity:1;stroke:#fef2f0;stroke-width:0"
         d="m -54.089345,233.40364 c -1.253998,0.44786 -3.761826,1.34351 -8.77757,3.52298 -5.015744,2.17947 -12.539117,5.64261 -21.197292,7.97131 -8.658175,2.32871 -18.450493,3.5229 -27.586313,3.79156 -9.13582,0.26867 -17.61454,-0.38813 -25.13812,-0.68667 -7.52358,-0.29854 -14.0916,-0.23883 -21.40616,1.22413 -7.31456,1.46296 -15.37532,4.32901 -20.83877,7.37424 -5.46345,3.04523 -8.3295,6.26954 -11.88234,9.7328 -3.55283,3.46326 -7.79219,7.16524 -10.21043,10.09097 -2.41824,2.92574 -3.01534,5.07528 -3.34004,6.17628 -0.3247,1.101 -0.37695,1.15324 -0.6682,1.08601 -0.29125,-0.0672 -0.82117,-0.25382 -1.66833,-0.57851 -0.84715,-0.32468 -2.01149,-0.78743 -3.09002,-1.23527 -1.07853,-0.44784 -2.07119,-0.88074 -3.14599,-1.35843 -1.0748,-0.47769 -2.23167,-1.00014 -3.38857,-1.55621 -1.1569,-0.55607 -2.31377,-1.1457 -3.51173,-1.75401 -1.19795,-0.60831 -2.43692,-1.23525 -3.82521,-2.00405 -1.38828,-0.76879 -2.92579,-1.67935 -4.0491,-2.35483 -1.12331,-0.67549 -1.83236,-1.11585 -2.21296,-1.36965 -0.3806,-0.25381 -0.43287,-0.32101 0.1606,-0.80227 0.59348,-0.48126 1.83245,-1.3769 5.23226,-3.61234 3.39982,-2.23545 8.96025,-5.81054 14.36779,-8.55351 5.40754,-2.74296 10.66196,-4.65366 16.33449,-6.26586 5.67253,-1.6122 11.76288,-2.92581 17.16678,-4.92613 5.4039,-2.00033 10.12094,-4.68725 14.09176,-7.67283 3.97083,-2.98559 7.19513,-6.2696 11.07625,-8.38931 3.88112,-2.1197 8.41903,-3.07505 12.86745,-2.83627 4.44842,0.23878 8.8072,1.67181 13.70353,2.62722 4.89633,0.95541 10.32988,1.43308 16.15176,0.98527 5.82188,-0.4478 12.031639,-1.82112 17.405672,-3.58259 5.374032,-1.76148 9.911939,-3.91102 15.256022,-5.1351 5.344083,-1.22409 11.494143,-1.52264 16.898037,-2.41829 5.403895,-0.89565 10.061205,-2.38838 12.523632,-3.12102 2.462426,-0.73264 2.72997,-0.70507 2.861238,-0.67552 0.131267,0.0296 0.125973,0.0612 -0.211803,0.7922 -0.337776,0.731 -1.008032,2.16124 -1.762404,3.63561 -0.754372,1.47436 -1.59281,2.99274 -2.426288,4.44983 -0.833478,1.4571 -1.661943,2.8528 -2.356087,3.98359 -0.694144,1.13078 -1.25392,1.99656 -1.589876,2.45191 -0.335956,0.45535 -0.447929,0.50014 -0.503834,0.52251 -0.05591,0.0224 -0.05584,0.0224 -1.309834,0.47025 z"
         id="path1447-9" /><path
         style="fill:#93d4ea;fill-opacity:1;stroke:#fef2f0;stroke-width:0"
         d="m -282.34096,121.1675 c 1.1346,-0.19407 3.40359,-0.58219 7.46399,-0.74638 4.0604,-0.16418 9.91193,-0.10447 14.47984,0.55242 4.5679,0.65689 7.85191,1.91078 11.98688,2.43318 4.13497,0.5224 9.1207,0.31342 13.68856,-0.37329 4.56785,-0.6867 8.71764,-1.85103 12.44961,-2.65712 3.73196,-0.80609 7.04583,-1.2539 10.4792,-1.89581 3.43338,-0.6419 6.98608,-1.47783 10.31502,-1.74649 3.32893,-0.26866 6.43382,0.0299 9.59852,0.47774 3.16469,0.44784 6.389,1.04494 10.12087,0.67168 3.73188,-0.37325 7.97124,-1.71672 11.65839,-2.95572 3.68714,-1.23901 6.82189,-2.37349 9.80742,-3.62742 2.98553,-1.25393 5.82173,-2.62725 9.29999,-3.07502 3.47827,-0.44778 7.59821,0.0299 12.98705,-1.52266 5.38884,-1.55255 12.04643,-5.13511 16.92776,-8.195289 4.88133,-3.060174 7.98621,-5.597816 9.91184,-7.941386 1.92563,-2.34357 2.672,-4.493105 6.01593,-6.971222 3.34393,-2.478117 9.285006,-5.284454 14.47986,-7.792316 5.194853,-2.507862 9.643197,-4.717107 11.941987,-6.538148 2.29879,-1.821041 2.448063,-3.254064 2.527514,-3.965907 0.07945,-0.711844 0.08877,-0.702524 0.169019,-0.632557 0.08025,0.06997 0.231389,0.200581 0.440378,0.383448 0.208988,0.182867 0.475814,0.417971 1.291248,1.146639 0.815434,0.728668 2.179419,1.950843 3.53317,3.27103 1.353752,1.320187 2.697213,2.738284 3.406812,3.505594 0.7096,0.767311 0.785365,0.883763 0.791513,0.96293 0.0061,0.07917 -0.05718,0.121386 -1.302695,0.533049 -1.245513,0.411663 -3.673214,1.192749 -7.716002,2.575529 -4.042788,1.382779 -9.700384,3.36716 -13.5743,5.140498 -3.873917,1.773337 -5.963847,3.335507 -8.307166,4.950498 -2.343319,1.614991 -4.939908,3.282716 -7.473228,4.876598 -2.53332,1.593883 -5.00324,3.113834 -6.77662,4.866124 -1.77339,1.752289 -2.85002,3.736668 -5.38327,5.541588 -2.53325,1.80493 -6.52312,3.43043 -10.61864,4.82376 -4.09553,1.39333 -8.2965,2.5544 -12.71924,3.35663 -4.42274,0.80223 -9.06704,1.24555 -13.19433,2.70221 -4.1273,1.45667 -7.73718,3.92659 -12.56099,5.68936 -4.82381,1.76276 -10.86139,2.81828 -16.32913,3.34607 -5.46773,0.52779 -10.36535,0.52779 -15.15759,1.03444 -4.79225,0.50665 -9.47876,1.51995 -13.36316,2.04774 -3.88439,0.52779 -6.96651,0.57001 -11.83263,0.72834 -4.86612,0.15833 -11.51591,0.43277 -16.92032,0.55945 -5.40441,0.12667 -9.56317,0.10557 -13.53208,0.54889 -3.96891,0.44332 -7.74769,1.35107 -11.38931,1.98441 -3.64163,0.63334 -7.14596,0.99221 -10.35481,0.9078 -3.20884,-0.0844 -6.12209,-0.61217 -7.82756,-1.02715 -1.70548,-0.41498 -2.20314,-0.71731 -2.44467,-0.91324 -0.24154,-0.19592 -0.2266,-0.2855 -0.0997,-0.74829 0.12688,-0.46278 0.36572,-1.29872 0.65681,-2.26903 0.29109,-0.97031 0.63441,-2.07493 0.83593,-2.70564 0.20153,-0.63071 0.26124,-0.78744 0.31723,-0.89571 0.056,-0.10827 0.10825,-0.168 0.13439,-0.19787 0.0261,-0.0299 0.0261,-0.0299 1.16073,-0.22398 z"
         id="path2410" /><path
         style="fill:#93d4ea;fill-opacity:1;stroke:#fef2f0;stroke-width:0"
         d="m -39.37612,199.92089 c -1.1346,0.19407 -3.403588,0.58219 -7.463991,0.74638 -4.060402,0.16418 -9.911932,0.10447 -14.479837,-0.55242 -4.567906,-0.65689 -7.851915,-1.91078 -11.986883,-2.43318 -4.134968,-0.5224 -9.120698,-0.31342 -13.688555,0.37329 -4.567857,0.6867 -8.717644,1.85103 -12.449609,2.65712 -3.731965,0.80609 -7.045835,1.2539 -10.479205,1.89581 -3.43338,0.6419 -6.98608,1.47783 -10.31502,1.74649 -3.32893,0.26866 -6.43382,-0.0299 -9.62852,1.37364 -3.19471,1.40353 -6.47779,4.50753 -10.2099,4.88085 -3.73212,0.37331 -7.91177,-1.9852 -11.56914,-2.59719 -3.65736,-0.61199 -6.79211,0.52249 -9.77764,1.77642 -2.98553,1.25393 -5.82173,2.62725 -9.08889,3.66619 -3.26717,1.03894 -6.9642,1.74331 -11.97338,3.84476 -5.00917,2.10146 -11.32856,5.59934 -15.89341,8.11072 -4.56485,2.51138 -7.37419,4.03572 -9.67986,5.83048 -2.30567,1.79476 -4.10737,3.85964 -7.97917,6.29559 -3.87179,2.43595 -9.81287,5.24229 -15.00773,7.75015 -5.19485,2.50787 -9.64319,4.71711 -11.94198,6.53815 -2.29879,1.82104 -2.44807,3.25407 -2.79863,4.29602 -0.35056,1.04195 -0.89993,1.68968 -1.19959,2.00842 -0.29966,0.31874 -0.34524,0.30346 -0.5367,0.14363 -0.19147,-0.15984 -0.52684,-0.46282 -1.37045,-1.25088 -0.8436,-0.78806 -2.19272,-2.05869 -3.63907,-3.51613 -1.44636,-1.45744 -2.97911,-3.0904 -3.81243,-3.9929 -0.83331,-0.90251 -0.94971,-1.05572 -1.01377,-1.17222 -0.0641,-0.1165 -0.0753,-0.19597 1.53918,-0.80681 1.61453,-0.61083 4.84151,-1.74778 9.2874,-3.30972 4.4459,-1.56194 10.10349,-3.54632 13.97741,-5.31965 3.87392,-1.77334 5.96385,-3.33551 8.30717,-4.9505 2.34332,-1.61499 4.93991,-3.28271 7.47323,-4.87659 2.53332,-1.59389 5.00324,-3.11384 6.77662,-4.86613 1.77338,-1.75229 2.85002,-3.73667 5.38327,-5.54159 2.53325,-1.80493 6.52312,-3.43043 10.61864,-4.82376 4.09553,-1.39333 8.2965,-2.5544 12.71924,-3.35663 4.42274,-0.80223 9.06704,-1.24555 13.19433,-2.70221 4.1273,-1.45667 7.73718,-3.92659 12.56099,-5.68936 4.82381,-1.76276 10.86139,-2.81828 16.32913,-3.34607 5.46773,-0.52779 10.36535,-0.52779 15.15759,-1.03444 4.79225,-0.50665 9.47876,-1.51995 13.36316,-2.04774 3.88439,-0.52779 6.96651,-0.57001 11.832632,-0.72834 4.866119,-0.15833 11.51591,-0.43277 16.920318,-0.55945 5.404408,-0.12667 9.563168,-0.10557 13.532082,-0.54889 3.968913,-0.44332 7.747683,-1.35107 11.389311,-1.98441 3.641627,-0.63334 7.145957,-0.99221 10.759637,-0.85557 3.61368,0.13664 7.336739,0.7689 9.202934,1.14869 1.866195,0.37978 1.874959,0.50654 1.85503,0.67466 -0.01993,0.16812 -0.06815,0.37584 -0.210657,0.92708 -0.142503,0.55124 -0.376374,1.43476 -0.637714,2.37979 -0.26134,0.94503 -0.548484,1.94539 -0.726272,2.55901 -0.177787,0.61361 -0.245756,0.83891 -0.305419,0.95093 -0.05966,0.11201 -0.110808,0.11001 -0.306428,0.10667 -0.19562,-0.003 -0.534916,-0.008 -0.704885,-0.0103 -0.169969,-0.002 -0.169969,-0.002 -1.304569,0.19217 z"
         id="path2410-7" /><path
         style="fill:#5f91cc;fill-opacity:1;stroke:#fef2f0;stroke-width:0"
         d="m -287.05812,167.75661 c 2.95575,-0.89568 8.86709,-2.687 15.51,-3.68713 6.64291,-1.00013 14.01701,-1.20911 22.03317,-3.19455 8.01616,-1.98544 16.674,-5.74712 23.74973,-9.19543 7.07573,-3.44831 12.56899,-6.58305 20.12252,-9.01626 7.55354,-2.43321 17.16674,-4.16478 25.73524,-6.38904 8.5685,-2.22425 16.09188,-4.94103 21.76449,-5.53802 5.67262,-0.597 9.49401,0.92559 11.97201,1.98547 2.47799,1.05989 3.61247,1.65698 7.4339,0.31335 3.82143,-1.34362 10.32975,-4.62764 15.67381,-9.00144 5.34406,-4.3738 9.52372,-9.8372 15.43523,-13.65874 5.91152,-3.82154 13.554311,-6.00093 19.092402,-8.9566 5.53809,-2.955679 8.971374,-6.687509 12.046501,-9.8522 3.075126,-3.164692 5.791899,-5.762047 8.31475,-7.568324 2.52285,-1.806276 4.851512,-2.821334 6.035251,-3.309938 1.183738,-0.488603 1.222357,-0.451052 1.334016,-0.324068 0.11166,0.126983 0.296376,0.343365 0.803038,0.979344 0.506663,0.63598 1.335246,1.6915 2.142741,2.739138 0.807495,1.047637 1.593858,2.087325 2.641486,3.604692 1.047627,1.517367 2.356474,3.512303 3.792021,5.802858 1.435547,2.290556 2.997718,4.876583 3.963524,6.565458 0.965805,1.68888 1.335237,2.48052 1.836628,3.54136 0.501391,1.06083 1.134702,2.39078 1.401583,3.12741 0.26688,0.73663 0.167507,0.88016 -2.240745,2.54917 -2.408252,1.66901 -7.125284,4.86345 -13.36504,7.3116 -6.239757,2.44814 -14.001964,4.14986 -20.182028,5.25452 -6.180065,1.10465 -10.777682,1.61218 -15.300865,3.06017 -4.523183,1.44799 -8.971523,3.83636 -13.673713,5.40378 -4.7022,1.56742 -9.65806,2.31378 -13.8827,3.97078 -4.22464,1.65699 -7.71764,4.22449 -14.56164,6.48586 -6.844,2.26136 -17.0387,4.21648 -24.71178,6.58739 -7.67308,2.37092 -12.82402,5.15749 -18.65069,8.49305 -5.82667,3.33555 -12.32868,7.21987 -19.71752,10.68208 -7.38885,3.4622 -15.66413,6.5021 -23.85527,10.97767 -8.19114,4.47557 -16.29755,10.38649 -24.53082,14.94646 -8.23326,4.55996 -16.593,7.76875 -21.94068,10.54539 -5.34768,2.77664 -7.68292,5.12092 -8.86914,6.25589 -1.18623,1.13498 -1.22354,1.06038 -1.51092,0.32145 -0.28739,-0.73893 -0.82477,-2.1421 -1.27634,-3.36991 -0.45157,-1.22781 -0.81728,-2.28017 -1.28751,-3.70952 -0.47023,-1.42934 -1.04493,-3.23555 -1.5898,-5.15004 -0.54487,-1.91448 -1.05987,-3.93715 -1.52637,-5.93747 -0.4665,-2.00032 -0.88448,-3.97819 -1.3062,-6.4786 -0.42172,-2.50041 -0.84715,-5.5232 -1.15691,-8.2102 -0.30975,-2.687 -0.50381,-5.03805 -0.59711,-6.26961 -0.0933,-1.23155 -0.0858,-1.34349 -0.0783,-1.45546 0.007,-0.11196 0.015,-0.22392 0.0188,-0.28001 0.004,-0.0561 0.004,-0.0561 2.9593,-0.95178 z"
         id="path2813" /><path
         style="fill:#93d4ea;fill-opacity:1;stroke:#fef2f0;stroke-width:0"
         d="m -273.82764,219.22068 c 2.34222,-1.65234 7.11326,-4.73451 12.96104,-8.23896 5.84779,-3.50444 12.77201,-7.43098 18.38756,-10.23874 5.61555,-2.80776 9.92209,-4.4966 19.54551,-8.4495 9.62343,-3.95291 24.56308,-10.1696 37.64594,-16.02474 13.08285,-5.85515 24.30821,-11.34841 35.71303,-16.84183 11.40482,-5.49342 22.98843,-10.98668 34.99038,-16.06212 12.00194,-5.07543 24.421481,-9.73276 35.587482,-12.71828 11.166001,-2.98553 21.077744,-4.29914 27.728017,-5.35155 6.650273,-1.05241 10.038776,-1.84356 11.755426,-2.18671 1.71665,-0.34315 1.761431,-0.23866 2.045044,0.62715 0.283613,0.86582 0.806071,2.4929 1.35839,4.38127 0.552319,1.88836 1.134485,4.0379 1.589764,6.0606 0.455279,2.02271 0.78368,3.91848 0.900399,4.90404 0.11672,0.98557 0.02174,1.06125 -10.054529,3.64377 -10.076268,2.58252 -30.133195,7.67171 -50.193451,14.51559 -20.060252,6.84389 -40.122582,15.44202 -64.723622,28.69793 -24.60104,13.25592 -53.73918,31.16871 -71.5031,41.64792 -17.76391,10.47922 -24.15281,13.5244 -27.39202,15.00984 -3.23921,1.48544 -3.32877,1.41081 -3.8214,0.88835 -0.49264,-0.52246 -1.38828,-1.49273 -2.71688,-3.17956 -1.32859,-1.68684 -3.09002,-4.09014 -4.67984,-6.50843 -1.58982,-2.41829 -3.00792,-4.85145 -4.19468,-6.93387 -1.18675,-2.08242 -2.14211,-3.81399 -2.6631,-4.79085 -0.521,-0.97686 -0.60758,-1.19898 1.73464,-2.85132 z"
         id="path2892" /><path
         style="fill:#5f91cc;fill-opacity:1;stroke:#fef2f0;stroke-width:0"
         d="m -64.248323,181.0422 c -4.060212,1.25394 -8.239949,1.19423 -10.568771,-0.20884 -2.328822,-1.40308 -2.806498,-4.14971 -1.91085,-6.80699 0.895648,-2.65729 3.164602,-5.22479 5.612801,-7.34456 2.448198,-2.11976 5.075406,-3.79163 7.463839,-5.37397 2.388432,-1.58234 4.537971,-3.07507 6.98625,-3.58256 2.44828,-0.50748 5.19491,-0.0298 5.851535,1.58242 0.656625,1.61224 -0.776399,4.35887 -1.373463,7.10567 -0.597063,2.7468 -0.358226,5.49343 -2.209272,8.15041 -1.851046,2.65697 -5.791858,5.22447 -9.852069,6.47842 z"
         id="path3095" /></g><g
       id="g3341"
       transform="matrix(1.1244181,0,0,1.1244181,62.670424,201.68964)"
       clip-path="url(#clipPath3597)"><path
         id="path3315"
         style="fill:#c4d6ec;fill-opacity:1;stroke:#fef2f0;stroke-width:0"
         d="m -73.732853,-134.20321 a 233.79425,43.966957 0 0 0 -209.683787,-24.52068 233.79425,43.966957 0 0 0 -233.79434,43.96702 233.79425,43.966957 0 0 0 233.79421,43.966938 233.79425,43.966957 0 0 0 233.79434,-43.967018 233.79425,43.966957 0 0 0 -24.110423,-19.44626 z m -20.772861,-1.17934 a 208.78192,39.26318 0 0 1 21.531528,17.36562 208.78192,39.26318 0 0 1 -208.782214,39.263238 208.78192,39.26318 0 0 1 -208.78173,-39.263208 208.78192,39.26318 0 0 1 208.78174,-39.26343 208.78192,39.26318 0 0 1 187.250676,21.89778 z"
         transform="matrix(0.93347876,-0.35863268,0.36547529,0.93082104,0,0)"
         clip-path="url(#clipPath4873)" /><path
         id="path3334"
         style="fill:#c4d6ec;fill-opacity:1;stroke:#fef2f0;stroke-width:0"
         d="m -153.23525,-84.767773 c -34.64297,0.118388 -99.73003,16.739316 -167.88078,42.870801 -98.85333,37.9039077 -173.08943,83.629053 -165.81087,102.129907 7.27845,18.500856 93.31509,2.77163 192.16824,-35.132216 98.85332,-37.903906 173.08942,-83.629051 165.81087,-102.129904 -2.02134,-5.138402 -10.33145,-7.78621 -24.28746,-7.738588 z m -16.25689,5.199389 c 12.46294,-0.04259 24.33796,0.09929 26.14327,4.687817 6.49989,16.521558 -64.24805,59.577429 -152.52569,93.426221 -88.27746,33.848731 -169.56333,52.340249 -176.063,35.818645 -6.50032,-16.521426 64.24749,-61.7998904 152.52527,-95.648781 60.86006,-23.335883 118.98392,-38.178502 149.92015,-38.283902 z"
         clip-path="url(#clipPath4883)" /><path
         id="path3336"
         style="fill:#c4d6ec;fill-opacity:1;stroke:#fef2f0;stroke-width:0"
         d="m -181.48377,-73.213454 c -28.82774,0.09851 -82.98919,13.929427 -139.70003,35.674438 -82.25965,31.5412947 -144.03436,69.590942 -137.97759,84.986212 6.05668,15.395272 76.57628,-0.559725 158.83577,-32.100969 82.25964,-31.541293 145.10914,-66.724836 139.05238,-82.120104 -1.68203,-4.275862 -8.5972,-6.479205 -20.21053,-6.439577 z m -13.52798,4.326611 c 10.37089,-0.03544 20.25254,0.08263 21.75482,3.900913 5.40881,13.748222 -54.98589,46.173165 -128.4451,74.3400421 -73.45906,28.1668269 -139.57752,46.9578269 -144.98615,33.2095659 -5.40916,-13.748111 53.46279,-51.426058 126.92212,-79.593018 50.64399,-19.418683 99.01109,-31.769796 124.75431,-31.857503 z"
         clip-path="url(#clipPath4893)" /></g></g></svg>
