<?xml version="1.0" encoding="UTF-8" standalone="no"?>
<!-- Created with Inkscape (http://www.inkscape.org/) -->

<svg
   width="234.69055mm"
   height="234.47569mm"
   viewBox="0 0 234.69055 234.47569"
   version="1.1"
   id="svg5832"
   xml:space="preserve"
   xmlns="http://www.w3.org/2000/svg"
   xmlns:svg="http://www.w3.org/2000/svg"><defs
     id="defs5829" /><g
     id="layer1"
     transform="translate(-28.467751,30.896469)"><path
       id="path354"
       style="fill:#ea914f;stroke-width:0"
       d="M 262.94344,86.341377 A 117.23785,117.23785 0 0 1 145.7056,203.57922 117.23785,117.23785 0 0 1 28.467751,86.341377 117.23785,117.23785 0 0 1 145.7056,-30.896469 117.23785,117.23785 0 0 1 262.94344,86.341377 Z" /><path
       style="display:inline;fill:#e8c67e;fill-opacity:1;stroke-width:0"
       d="m 210.59156,-9.3154528 c -0.46274,0.3731773 -1.38825,1.1195622 -2.62722,1.8957908 -1.23897,0.7762287 -2.79142,1.5823096 -5.49334,2.7765325 -2.70192,1.1942229 -6.55317,2.7765188 -10.35974,4.19465614 C 188.30468,0.969664 184.543,2.223557 180.15427,3.1640152 175.76553,4.1044734 170.74994,4.7314222 165.98801,5.0449161 161.22607,5.35841 156.71802,5.35841 151.97099,5.1942127 147.22397,5.0300154 142.23824,4.7016151 137.44643,4.3134973 132.65462,3.9253795 128.057,3.4775579 123.60853,2.8953851 119.16007,2.3132122 114.861,1.5967032 111.06934,0.99959019 c -3.79165,-0.59711305 -7.07566,-1.07478961 -10.03137,-1.3882852 -2.955706,-0.31349558 -5.582906,-0.46276551 -7.553376,-0.52247958 -1.970469,-0.0597141 -3.28407,-0.0298481 -5.239625,0.0597212 -1.955555,0.0895693 -4.552885,0.23884173 -7.419044,0.59709902 -2.866159,0.35825728 -6.000889,0.92549412 -8.44905,1.41810597 -2.44816,0.4926118 -4.209598,0.9105792 -5.388895,1.2091287 -1.179296,0.2985495 -1.776387,0.4776758 -2.149522,0.5076735 -0.373135,0.029998 -0.522409,-0.08942 0.238778,-0.8956505 0.761186,-0.8062305 2.433056,-2.29897246 4.149761,-3.7469724 1.716705,-1.448 3.478122,-2.8511603 5.627736,-4.4932214 2.149614,-1.642061 4.687256,-3.5228981 7.433978,-5.3888725 2.746723,-1.865974 5.70233,-3.71696 8.434134,-5.239597 2.731804,-1.522637 5.239603,-2.716829 7.628047,-3.761767 2.388448,-1.044938 4.657408,-1.940577 7.598198,-2.955666 2.94079,-1.015089 6.5532,-2.149566 9.58356,-2.970587 3.03035,-0.821021 5.47843,-1.328551 8.26994,-1.806236 2.79151,-0.477685 5.92625,-0.925506 9.3895,-1.283765 3.46326,-0.358259 7.2548,-0.62695 10.24036,-0.746354 2.98555,-0.119404 5.16494,-0.08954 7.80717,0.0299 2.64223,0.119437 5.74712,0.328419 8.50876,0.56727 2.76164,0.238852 5.17986,0.507542 7.79223,0.955396 2.61237,0.447854 5.4187,1.074799 8.06092,1.79135 2.64222,0.71655 5.12016,1.522625 7.8818,2.492939 2.76165,0.970314 5.80682,2.104791 8.26989,3.164687 2.46308,1.059896 4.34392,2.045097 6.18004,3.015403 1.83611,0.970307 3.62739,1.925659 5.41872,2.895969 1.79134,0.97031 3.58261,1.955512 4.85146,2.686981 1.26885,0.731468 2.01522,1.209145 2.4032,1.686875 0.38798,0.47773 0.41785,0.955403 0.43278,1.1941048 0.0149,0.2387022 0.0149,0.2386322 -0.44786,0.6118094 z"
       id="path2924" /><path
       style="display:inline;fill:#cf5536;fill-opacity:1;stroke-width:0"
       d="m 215.05501,-5.7477895 c -0.53736,0.2686905 -1.19418,0.5373888 -2.58247,1.0897184 -1.38829,0.5523297 -3.50797,1.3882593 -5.64264,2.2540707 -2.13467,0.8658113 -4.28421,1.76145537 -7.53846,2.85118705 C 196.0372,1.5369183 191.67842,2.8206663 186.67763,3.9701096 181.67683,5.119553 176.0343,6.1346132 170.77976,6.6272388 165.52522,7.1198644 160.65891,7.0899983 155.53869,6.970574 150.41846,6.8511497 145.04463,6.6421674 139.74528,6.2092739 134.44593,5.7763804 129.22137,5.1195809 124.38478,4.4179821 119.54818,3.7163832 115.09984,2.9700142 111.44254,2.3878281 107.78524,1.8056421 104.9192,1.3876774 102.18741,1.0741844 99.45562,0.7606913 96.858259,0.55170808 94.738517,0.43227275 92.618775,0.31283742 90.976766,0.28297132 88.901794,0.31281379 c -2.074973,0.0298425 -4.582754,0.11940346 -6.68758,0.2835971 -2.104825,0.16419364 -3.806546,0.40303324 -5.86659,0.76129681 -2.060045,0.3582636 -4.478284,0.8359401 -6.583114,1.3285532 -2.10483,0.4926131 -3.896107,1.000142 -5.403868,1.671898 -1.50776,0.6717561 -2.731802,1.5076835 -3.582703,2.149588 -0.8509,0.6419046 -1.328575,1.0897298 -1.746576,1.5973143 -0.418001,0.5075846 -0.776256,1.0748214 -1.23901,1.7166997 -0.462755,0.6418781 -1.029993,1.3583901 -1.552472,2.0600061 -0.522478,0.701616 -1.000158,1.388276 -1.283786,1.895877 -0.283629,0.5076 -0.373189,0.836 0.07471,0.701537 0.447898,-0.134463 1.4331,-0.731559 2.298917,-1.239105 0.865816,-0.507547 1.612176,-0.925507 2.731795,-1.447988 1.119619,-0.522481 2.612338,-1.149424 4.523182,-0.693987 1.910843,0.455437 4.239457,1.992921 6.269665,3.105016 2.030209,1.112094 3.761744,1.798737 5.769496,1.918077 2.007752,0.119341 4.291564,-0.328466 6.306853,-0.679276 2.015288,-0.35081 3.761737,-0.604579 5.874051,-0.86582 2.112314,-0.261242 4.590193,-0.529927 6.5159,-0.723982 1.925708,-0.194056 3.298978,-0.313459 4.329028,-0.373156 1.030048,-0.0597 1.716678,-0.0597 2.657128,-0.104491 0.94046,-0.04479 2.1346,-0.134357 3.29899,-0.208995 1.1644,-0.07464 2.29885,-0.134345 3.46324,-0.104468 1.16439,0.02988 2.35856,0.149297 3.82145,0.02984 1.46289,-0.119458 3.19447,-0.477715 5.70239,-0.40303 2.50791,0.07469 5.79193,0.582214 8.43414,1.000191 2.64221,0.417978 4.64247,0.746383 6.98613,1.059857 2.34366,0.313474 5.03058,0.612018 7.8967,0.776212 2.86612,0.164194 5.91129,0.19406 9.15062,0.223927 3.23933,0.02987 6.67262,0.05973 10.18064,0.02988 3.50802,-0.02985 7.09058,-0.119415 10.30004,-0.25377 3.20946,-0.134354 6.04566,-0.313485 9.91195,-0.731471 3.86629,-0.417987 8.76246,-1.074789 12.95714,-1.806257 4.19468,-0.731469 7.68767,-1.537545 11.0464,-2.463073 3.35874,-0.925529 6.58304,-1.9704405 9.2551,-2.866105 2.67206,-0.8956645 4.79174,-1.6420298 6.62783,-2.3884187 1.8361,-0.7463889 3.38854,-1.4927567 4.25427,-1.9853236 0.86573,-0.4925669 1.04486,-0.7314005 0.91062,-1.2089591 C 226.37023,1.5969461 225.92241,0.88043438 225.10142,-3.3724839e-4 224.28044,-0.88110888 223.08625,-1.9260222 221.95174,-2.9411074 c -1.13452,-1.0150853 -2.20929,-2.000288 -3.11986,-2.5974768 -0.91057,-0.5971889 -1.65694,-0.8061725 -2.23924,-0.7763785 -0.58231,0.029794 -1.00027,0.2984827 -1.53763,0.5671732 z"
       id="path5574" /><path
       style="display:inline;fill:#ffd167;fill-opacity:1;stroke-width:0"
       d="m 53.344013,16.061497 c 0.552363,-0.313504 1.656996,-0.940458 2.940807,-1.597286 1.283811,-0.656829 2.746692,-1.343487 4.239548,-1.627072 1.492857,-0.283585 3.015432,-0.164168 5.463603,0.940574 2.448171,1.104741 5.821714,3.194548 8.598229,3.925892 2.776515,0.731344 4.955849,0.10441 7.284638,-0.462851 2.328788,-0.567262 4.806674,-1.074779 7.045877,-1.37332 2.239203,-0.298541 4.239445,-0.388104 6.553252,-0.582173 2.313807,-0.194068 4.940973,-0.492608 6.926393,-0.686666 1.98542,-0.194058 3.32885,-0.283622 5.10528,-0.343327 1.77644,-0.05971 3.98564,-0.08956 6.18003,-0.149272 2.1944,-0.05971 4.37379,-0.149278 7.70272,0.134379 3.32892,0.283657 7.80712,0.940457 11.27035,1.403211 3.46324,0.462754 5.91131,0.731448 8.55353,0.955358 2.64221,0.223909 5.47841,0.403036 8.13554,0.537381 2.65714,0.134345 5.13508,0.22391 8.55354,0.194045 3.41845,-0.02987 7.77723,-0.17914 11.62858,-0.388135 3.85136,-0.208994 7.19508,-0.477685 10.91209,-0.806099 3.71702,-0.328414 7.80711,-0.716527 11.61368,-1.253938 3.80656,-0.537411 7.32941,-1.224067 10.73292,-2.060029 3.40352,-0.835962 6.68752,-1.821165 9.77756,-2.8362548 3.09004,-1.0150897 5.98593,-2.0600012 8.62816,-2.9407371 2.64222,-0.8807359 5.0306,-1.5972482 6.56821,-1.9106834 1.53762,-0.3134352 2.22427,-0.2238706 2.70193,-0.014754 0.47766,0.2091167 0.74635,0.5375161 1.37333,1.2391194 0.62698,0.7016033 1.61218,1.7763708 2.71683,3.0452362 1.10465,1.2688657 2.32869,2.7317477 3.68712,4.4036597 1.35842,1.671912 2.85116,3.552764 4.03041,5.299322 1.17926,1.746558 2.04505,3.358706 2.67201,4.552926 0.62696,1.19422 1.01507,1.97044 0.62693,2.567364 -0.38813,0.596925 -1.55246,1.014888 -3.85134,1.686644 -2.29888,0.671755 -5.73215,1.597248 -9.28496,2.492917 -3.5528,0.895668 -7.22492,1.761453 -11.86747,2.746691 -4.64254,0.985238 -10.25521,2.089859 -14.67381,2.83625 -4.4186,0.74639 -7.6429,1.134499 -10.77772,1.388279 -3.13482,0.25378 -6.17999,0.373201 -10.55384,0.44785 -4.37384,0.07465 -10.07608,0.104516 -15.61428,0.134383 -5.5382,0.02987 -10.91204,0.05973 -17.45041,0.04481 -6.53838,-0.01492 -14.24088,-0.07463 -22.31681,-0.179122 -8.07593,-0.104494 -16.5248,-0.253768 -23.48112,-0.358262 C 98.739032,37.363312 93.275623,37.303603 87.22987,37.184182 81.184117,37.06476 74.556387,36.885631 71.01848,36.870674 c -3.537908,-0.01496 -3.985744,0.134323 -5.060547,0.507517 -1.074803,0.373195 -2.776525,0.970289 -5.568023,1.925669 -2.791499,0.955379 -6.672598,2.268982 -9.34468,3.254213 -2.672082,0.985231 -4.134964,1.642037 -5.747183,2.492924 -1.612219,0.850886 -3.373637,1.895793 -4.881345,2.836244 -1.507708,0.94045 -2.761619,1.776394 -3.776703,2.448141 -1.015085,0.671748 -1.7913,1.179271 -2.030201,1.074857 -0.238901,-0.104414 0.05964,-0.82093 0.656757,-2.373422 0.597113,-1.552492 1.492754,-3.940861 2.642197,-6.702514 1.149444,-2.761653 2.552614,-5.896388 3.672194,-8.210198 1.119581,-2.31381 1.955513,-3.80655 2.836253,-5.359037 0.88074,-1.552487 1.806243,-3.164641 2.910901,-4.970911 1.104658,-1.806271 2.388403,-3.806541 3.328879,-5.075435 0.940477,-1.268895 1.537571,-1.80627 1.836121,-2.074961 0.29855,-0.268691 0.29855,-0.268763 0.850913,-0.582266 z"
       id="path6660" /><path
       style="display:inline;fill:#e8c67e;fill-opacity:1;stroke-width:0"
       d="m 247.4032,30.43682 c -0.91045,0 -2.73162,0 -5.23953,0.32093 -2.5079,0.320929 -5.70235,0.962803 -9.88214,1.851007 -4.17979,0.888203 -9.34465,2.022681 -13.92,2.940741 -4.57534,0.918059 -8.56093,1.619644 -13.55427,2.224226 -4.99333,0.604582 -10.99412,1.112109 -16.37702,1.445867 -5.3829,0.333757 -10.14761,0.493717 -15.63336,0.573703 -5.48576,0.07999 -11.69223,0.07999 -16.92776,0.05888 -5.23553,-0.02111 -9.49984,-0.06333 -14.79872,-0.211102 -5.29888,-0.147773 -11.63201,-0.401098 -18.15811,-0.639103 -6.52609,-0.238005 -13.24477,-0.460674 -18.5448,-0.616796 C 99.067466,38.229051 95.186366,38.139486 91.096143,38.0947 87.00592,38.04991 82.70687,38.04991 79.168984,38.10962 c -3.537886,0.05971 -6.314366,0.179123 -8.568482,0.417954 -2.254116,0.238831 -3.985685,0.597088 -7.180255,1.537535 -3.194571,0.940448 -7.851902,2.463033 -11.37486,3.731888 -3.522958,1.268855 -5.911354,2.283925 -8.031099,3.254228 -2.119746,0.970303 -3.970746,1.895803 -5.5979,2.895974 -1.627154,1.000171 -3.030317,2.074937 -3.791661,2.687006 -0.761345,0.612069 -0.880756,0.76133 -1.030049,1.134596 -0.149294,0.373265 -0.328427,0.97037 -0.522485,1.671982 -0.194058,0.701612 -0.403035,1.507677 -0.597097,2.254071 -0.194062,0.746393 -0.373192,1.43305 -0.492605,1.970466 -0.119413,0.537417 -0.179119,0.925531 0.164238,0.731356 0.343357,-0.194175 1.089724,-0.970398 2.209345,-1.821305 1.11962,-0.850907 2.612349,-1.776399 4.373837,-2.873596 1.761487,-1.097198 3.791591,-2.366011 5.896424,-3.597558 2.104833,-1.231547 4.284209,-2.425726 6.359195,-3.433356 2.074985,-1.00763 4.045388,-1.828634 6.1129,-2.57502 2.067511,-0.746385 4.231963,-1.418109 6.359186,-2.000288 2.127223,-0.58218 4.217062,-1.074784 6.277108,-1.492757 2.060045,-0.417973 4.090165,-0.761303 7.157835,-1.082241 3.06767,-0.320937 7.17268,-0.619484 10.844924,-0.791146 3.672243,-0.171663 6.911483,-0.216445 10.844952,-0.194048 3.933465,0.0224 8.560965,0.111962 12.472035,0.261247 3.91107,0.149285 7.10552,0.358268 10.36724,0.649367 3.26172,0.291099 6.59052,0.664282 9.98659,1.044941 3.39607,0.380659 6.8592,0.76877 10.32243,1.02253 3.46324,0.25376 6.92638,0.373177 10.60608,0.492598 3.6797,0.119421 7.57573,0.238838 13.58417,0.298544 6.00845,0.05971 14.12891,0.05971 19.54766,0.05224 5.41876,-0.0075 8.13554,-0.0224 11.42711,-0.06719 3.29158,-0.04479 7.15775,-0.119422 10.51649,-0.30603 3.35873,-0.186608 6.20985,-0.485155 9.13568,-0.955391 2.92583,-0.470236 5.92621,-1.112109 9.12822,-1.851036 3.202,-0.738927 6.60543,-1.574857 9.40438,-2.321248 2.79894,-0.746391 4.99326,-1.403195 7.11299,-2.089874 2.11973,-0.686679 4.16478,-1.403193 5.39629,-1.858487 1.23151,-0.455294 1.64948,-0.649351 1.94797,-0.850838 0.29848,-0.201486 0.47761,-0.41047 0.46274,-0.828302 -0.0149,-0.417833 -0.22385,-1.044776 -0.53724,-1.544889 -0.3134,-0.500113 -0.73136,-0.873297 -0.94049,-1.060018 -0.20913,-0.186721 -0.20913,-0.186701 -1.11958,-0.186701 z"
       id="path6803" /><path
       style="display:inline;fill:#cf5536;fill-opacity:1;stroke-width:0"
       d="m 252.28445,37.064845 c 0.11946,0.403204 0.35831,1.209297 0.71658,2.306492 0.35828,1.097195 0.83595,2.485436 1.07474,3.24672 0.23879,0.761283 0.23879,0.895623 0.11945,0.992502 -0.11933,0.09688 -0.35816,0.156584 -1.27619,0.216313 -0.91803,0.05973 -2.51526,0.119439 -3.97819,0.223925 -1.46293,0.104487 -2.79146,0.25376 -3.92599,0.417959 -1.13452,0.164199 -2.07494,0.343326 -3.19453,0.589631 -1.11959,0.246305 -2.41828,0.559779 -3.82895,0.910582 -1.41068,0.350803 -2.93326,0.738913 -4.97093,1.373344 -2.03766,0.634431 -4.59023,1.515142 -6.79955,2.336168 -2.20931,0.821026 -4.07523,1.582319 -6.01584,2.395883 -1.94062,0.813564 -3.95581,1.679349 -5.96359,2.515305 -2.00778,0.835956 -4.00804,1.642032 -6.0125,2.424839 -2.00446,0.782807 -4.01301,1.542299 -5.91454,2.259833 -1.90152,0.717534 -3.69591,1.393068 -6.37701,2.269182 -2.6811,0.876114 -6.24877,1.952749 -10.39708,2.997752 -4.14831,1.045002 -8.87705,2.058301 -12.82479,2.73386 -3.94774,0.67556 -7.11431,1.013327 -10.16485,1.266664 -3.05054,0.253337 -5.98489,0.42222 -9.49986,-1.066007 -3.51497,-1.488226 -7.6103,-4.633611 -11.67425,-6.174853 -4.06394,-1.541241 -8.09594,-1.47791 -12.25488,-1.245694 -4.15894,0.232216 -8.44426,0.633304 -12.02262,0.992194 -3.57837,0.358889 -6.44933,0.675538 -9.08639,0.512006 -2.63705,-0.163531 -5.03994,-0.807327 -7.5311,-1.282798 -2.491161,-0.475471 -5.070184,-0.782496 -7.535068,-1.307244 -2.464885,-0.524748 -4.815355,-1.267223 -7.401502,-1.710163 -2.586147,-0.442939 -5.407706,-0.586211 -8.28574,-0.816175 -2.878034,-0.229964 -5.812365,-0.546619 -8.662376,-0.715516 -2.850012,-0.168897 -5.615462,-0.189997 -8.117141,-0.095 -2.50168,0.09499 -4.73939,0.306102 -7.262161,0.643871 -2.522772,0.33777 -5.330482,0.802201 -7.631606,1.340523 -2.301125,0.538321 -4.095526,1.150528 -5.825516,1.797784 -1.729991,0.647256 -3.39546,1.329526 -4.564096,1.797561 -1.168635,0.468034 -1.840355,0.721795 -2.318035,0.893466 -0.47768,0.17167 -0.761317,0.261238 -0.888278,0.09718 -0.126962,-0.164059 -0.09709,-0.582031 0.179109,-0.977758 0.276204,-0.395726 0.798671,-0.768919 1.858543,-1.522772 1.059872,-0.753854 2.657097,-1.888331 4.366333,-3.03777 1.709237,-1.14944 3.530382,-2.313777 5.06048,-3.246759 1.530099,-0.932981 2.769068,-1.634564 4.172291,-2.388419 1.403223,-0.753855 2.970595,-1.55993 4.657447,-2.32871 1.686852,-0.768779 3.493058,-1.500219 5.150066,-2.089866 1.657008,-0.589648 3.164656,-1.037464 5.015716,-1.522616 1.85106,-0.485152 4.045361,-1.007606 6.075562,-1.403186 2.0302,-0.395579 3.8961,-0.664268 5.777015,-0.90311 1.880915,-0.238842 3.776675,-0.447825 5.777004,-0.604559 2.000329,-0.156734 4.105089,-0.261226 6.881668,-0.350788 2.77658,-0.08956 6.224789,-0.164197 9.001341,-0.20898 2.776552,-0.04478 4.881314,-0.05972 6.635324,-0.07465 1.75402,-0.01493 3.15719,-0.02987 4.91867,-8e-6 1.76148,0.02986 3.88116,0.104494 5.87402,0.216459 1.99287,0.111965 3.85878,0.261238 5.72475,0.425447 1.86597,0.164209 3.73189,0.343339 5.59786,0.522472 1.86597,0.179134 3.73189,0.35826 6.05317,0.63443 2.32127,0.276169 5.09776,0.649353 7.64294,0.955367 2.54518,0.306015 4.85891,0.544852 7.15777,0.641865 2.29886,0.09701 4.58274,0.05223 7.23244,0.164204 2.6497,0.111975 5.66502,0.380666 8.18033,0.492606 2.51531,0.111941 4.5305,0.06716 7.51607,0.06716 2.98557,5e-6 6.94131,0.04479 11.29276,0.08211 4.35145,0.03733 9.09834,0.06719 13.39753,0.03734 4.29919,-0.02985 8.15043,-0.119419 11.45692,-0.32842 3.30649,-0.209001 6.06804,-0.5374 8.95655,-0.947919 2.88852,-0.410519 5.90384,-0.903122 8.52366,-1.365885 2.61981,-0.462763 4.84398,-0.895654 8.00121,-1.530087 3.15724,-0.634433 7.24733,-1.470364 10.2627,-2.224222 3.01538,-0.753858 4.95593,-1.425587 6.49349,-1.940593 1.53756,-0.515006 2.67204,-0.873263 3.48567,-0.977681 0.81364,-0.104417 1.30624,0.04486 1.55239,0.119446 0.24615,0.07459 0.24611,0.07456 0.36558,0.477766 z"
       id="path7018" /><path
       style="display:inline;fill:#ffd167;fill-opacity:1;stroke-width:0"
       d="m 31.355598,64.904684 c 0.418007,-0.283646 1.253958,-0.850894 2.328787,-1.462941 1.074828,-0.612046 2.388428,-1.268848 4.135007,-1.970454 1.746579,-0.701607 3.925953,-1.447966 6.120359,-2.074929 2.194407,-0.626963 4.403647,-1.134492 6.896609,-1.567391 2.492961,-0.432899 5.269442,-0.791154 7.971381,-1.015058 2.70194,-0.223905 5.32915,-0.313466 7.687754,-0.268664 2.358605,0.0448 4.448415,0.223927 6.583092,0.477709 2.134676,0.253782 4.314076,0.582184 6.269613,0.88074 1.955537,0.298556 3.687056,0.567241 5.791906,0.940448 2.10485,0.373206 4.582755,0.850873 7.10555,1.253913 2.522796,0.403039 5.090277,0.731437 7.672802,1.179289 2.582522,0.447851 5.179812,1.015077 8.105662,1.119528 2.92584,0.104451 6.17993,-0.253797 9.62829,-0.537423 3.44835,-0.283625 7.09054,-0.492605 10.53891,-0.50752 3.44837,-0.01491 6.70246,0.16421 9.64328,0.791246 2.94082,0.627035 5.56799,1.701793 8.28486,3.119982 2.71688,1.418189 5.52321,3.179614 8.5983,3.910958 3.07508,0.731343 6.4188,0.432796 9.97161,0.01481 3.55281,-0.417984 7.31449,-0.955366 10.68815,-1.522626 3.37367,-0.567261 6.35914,-1.164356 9.55367,-1.940607 3.19453,-0.77625 6.59796,-1.731598 9.83727,-2.776546 3.23931,-1.044947 6.31433,-2.179421 9.59844,-3.448285 3.28411,-1.268864 6.7771,-2.672032 10.2702,-4.09017 3.4931,-1.418138 6.9861,-2.851163 10.21051,-4.075236 3.2244,-1.224074 6.18001,-2.239132 8.58338,-3.030302 2.40337,-0.79117 4.25436,-1.358408 6.41892,-1.821158 2.16456,-0.462751 4.6425,-0.821008 7.03095,-1.089699 2.38845,-0.268692 4.68726,-0.447818 6.07554,-0.537374 1.38828,-0.08955 1.86596,-0.08955 2.38835,0.895846 0.52238,0.9854 1.08962,2.955808 1.5076,4.403793 0.41797,1.447985 0.68666,2.373487 0.7314,2.925653 0.0447,0.552166 -0.13439,0.73129 -0.91051,0.805926 -0.77611,0.07464 -2.14942,0.04477 -3.91092,0.134319 -1.7615,0.08955 -3.91104,0.298535 -6.01586,0.552303 -2.10482,0.253769 -4.16479,0.552312 -6.00093,0.940425 -1.83614,0.388112 -3.4483,0.865786 -4.97853,1.366467 -1.53024,0.500681 -2.97843,1.024338 -5.09591,1.866734 -2.11747,0.842395 -4.90404,2.003467 -7.35293,3.059018 -2.44888,1.055552 -4.55992,2.005519 -7.31492,3.24052 -2.755,1.235 -6.15378,2.754953 -9.55265,4.20106 -3.39888,1.446106 -6.79766,2.818283 -10.15431,4.053279 -3.35664,1.234996 -6.67097,2.332735 -9.86929,3.282734 -3.19831,0.949999 -6.28043,1.752196 -9.15152,2.396088 -2.87109,0.643892 -5.531,1.129432 -8.72931,1.425 -3.19831,0.295568 -6.93486,0.40112 -10.88262,0.36946 -3.94776,-0.03166 -8.10651,-0.200542 -12.84594,-0.559422 -4.73944,-0.35888 -10.05927,-0.907749 -14.81979,-1.583289 -4.76053,-0.675541 -8.96151,-1.477739 -13.07816,-2.279958 -4.11665,-0.802219 -8.14875,-1.604418 -12.28653,-2.100548 -4.13778,-0.496131 -8.380979,-0.686124 -12.381525,-0.770579 -4.000547,-0.08445 -7.758207,-0.06336 -11.610986,0.09497 -3.85278,0.158321 -7.80042,0.453868 -11.505444,0.992191 -3.705024,0.538322 -7.167124,1.319405 -10.618789,2.142735 -3.451665,0.82333 -6.892654,1.688854 -10.027684,2.776075 -3.135029,1.087221 -5.963818,2.396064 -8.507719,3.778843 -2.543901,1.382779 -4.802727,2.839405 -6.586617,4.063847 -1.783891,1.224442 -3.092735,2.216627 -3.757738,2.596781 -0.665003,0.380154 -0.686102,0.147943 -0.696665,0.03169 -0.01056,-0.116252 -0.01056,-7.652822 0.126647,-9.394383 0.13721,-1.74156 0.411638,-5.224782 0.664963,-7.747552 0.253325,-2.52277 0.485547,-4.084942 0.683028,-5.196282 0.19748,-1.111341 0.36022,-1.771751 0.441614,-2.102058 0.0814,-0.330307 0.08139,-0.330277 0.499393,-0.613923 z"
       id="path7024" /><path
       style="display:inline;fill:#e8c67e;fill-opacity:1;stroke-width:0"
       d="m 29.425493,90.718741 c 0.369464,-0.2639 1.108346,-0.791666 2.586152,-1.6889 1.477806,-0.897234 3.694406,-2.163865 5.826618,-3.356637 2.132213,-1.192773 4.179933,-2.311632 6.30161,-3.314404 2.121677,-1.002772 4.317159,-1.889406 6.692187,-2.670513 2.375028,-0.781107 4.929378,-1.456637 7.811051,-2.142746 2.881672,-0.686108 6.090463,-1.382755 9.183249,-1.899966 3.092786,-0.517212 6.069347,-0.854977 8.708234,-1.066078 2.638887,-0.211101 4.939936,-0.295543 7.188266,-0.33776 2.24833,-0.04222 4.44382,-0.04222 6.692144,-0.01055 2.248323,0.03167 4.549383,0.095 7.473279,0.348353 2.923897,0.253349 6.470447,0.696667 9.352097,1.076669 2.88166,0.380001 5.09824,0.696656 8.01158,1.213889 2.91334,0.517233 6.52322,1.234988 9.7321,1.794422 3.20887,0.559434 6.01655,0.960531 9.33099,1.351079 3.31444,0.390547 7.13542,0.770532 10.23874,1.04497 3.10332,0.274437 5.4888,0.44332 8.25434,0.527754 2.76554,0.08443 5.911,0.08443 9.14098,-0.04224 3.22998,-0.126676 6.54432,-0.380002 10.04874,-0.855012 3.50441,-0.47501 7.19874,-1.171654 10.17537,-1.857768 2.97664,-0.686115 5.23546,-1.361649 7.5471,-2.142761 2.31165,-0.781111 4.67602,-1.667751 7.32546,-2.702194 2.64943,-1.034444 5.58378,-2.216627 8.98266,-3.620515 3.39889,-1.403888 7.2621,-3.029392 10.61874,-4.475496 3.35665,-1.446105 6.20656,-2.712732 8.52877,-3.736616 2.32221,-1.023884 4.1166,-1.804972 5.97439,-2.533303 1.85779,-0.728331 3.77884,-1.403866 6.13275,-2.026635 2.35391,-0.622768 5.14049,-1.192751 8.40217,-1.572733 3.26169,-0.379983 6.99824,-0.569976 9.22545,-0.633288 2.22722,-0.06331 2.94498,2e-5 3.35656,0.169056 0.41158,0.169037 0.51713,0.443467 0.72822,1.171804 0.2111,0.728338 0.52775,1.910516 0.8233,3.039955 0.29556,1.129439 0.57,2.206079 0.7283,2.976618 0.15831,0.770538 0.20053,1.234956 -0.0738,1.509242 -0.27435,0.274286 -0.86544,0.358728 -2.12155,0.517064 -1.25612,0.158336 -3.17716,0.390551 -4.93486,0.572766 -1.75769,0.182216 -3.35194,0.314413 -4.71637,0.503657 -1.36443,0.189245 -2.4989,0.435545 -3.7118,0.767684 -1.2129,0.332138 -2.50411,0.7501 -3.79165,1.242715 -1.28754,0.492615 -2.57129,1.059854 -3.90361,1.690555 -1.33231,0.630701 -2.71309,1.324823 -3.9372,2.078687 -1.2241,0.753863 -2.2914,1.5674 -3.65684,2.575676 -1.36543,1.008276 -3.02891,2.211227 -4.85288,3.435493 -1.82397,1.224266 -3.80835,2.469781 -5.88779,3.747 -2.07944,1.277218 -4.25381,2.586063 -5.96379,3.567723 -1.70998,0.98166 -2.95549,1.636081 -4.50715,2.353858 -1.55165,0.717777 -3.40936,1.498859 -4.92933,2.047748 -1.51997,0.548889 -2.70215,0.865545 -4.96102,1.224445 -2.25888,0.358899 -5.59432,0.759998 -9.17264,1.087223 -3.57832,0.327225 -7.39931,0.580549 -11.39984,0.686111 -4.00054,0.105563 -8.18041,0.06334 -12.32872,-0.126648 -4.14831,-0.18999 -8.26485,-0.527757 -11.77982,-0.907746 -3.51498,-0.379989 -6.42822,-0.802197 -10.0171,-1.467187 -3.58889,-0.66499 -7.85319,-1.572738 -11.41039,-2.427725 -3.55721,-0.854988 -6.40711,-1.657184 -9.10933,-2.343303 -2.70222,-0.686119 -5.25658,-1.2561 -7.97992,-1.688896 -2.72335,-0.432795 -5.61546,-0.728337 -8.58158,-0.897237 -2.96612,-0.168901 -6.00602,-0.211123 -9.341574,-0.158352 -3.335557,0.05277 -6.966547,0.200545 -9.943203,0.327211 -2.976656,0.126666 -5.298796,0.232216 -7.51548,0.464428 -2.216684,0.232212 -4.327715,0.59109 -6.301601,0.939422 -1.973887,0.348332 -3.810488,0.686096 -5.984951,1.256088 -2.174464,0.569991 -4.686632,1.372197 -7.357177,2.23775 -2.670546,0.865553 -5.499336,1.794412 -8.359903,2.849968 -2.860567,1.055556 -5.752682,2.237733 -7.969339,3.17717 -2.216657,0.939437 -3.757727,1.636085 -5.341091,2.533316 -1.583364,0.897231 -3.208859,1.994967 -4.559957,2.860516 -1.351098,0.865549 -2.427736,1.498863 -3.061,1.836643 -0.633265,0.33777 -0.82326,0.37999 -1.023884,-0.13706 -0.200624,-0.51705 -0.41173,-1.593685 -0.591194,-2.976472 -0.179464,-1.382787 -0.327241,-3.071619 -0.390597,-4.243295 -0.06336,-1.171676 -0.04226,-1.826103 -0.0317,-2.153448 0.01055,-0.327345 0.01059,-0.327345 0.380057,-0.591244 z"
       id="path7097" /><path
       style="display:inline;fill:#cf5536;fill-opacity:1;stroke-width:0"
       d="m 260.96928,67.803086 c 0.11614,0.570146 0.34836,1.710136 0.57001,3.219573 0.22166,1.509437 0.43276,3.388257 0.64387,5.351586 0.21111,1.963329 0.42221,4.011039 0.55942,6.090471 0.13721,2.079432 0.20054,4.190472 0.26388,6.006023 0.0633,1.815552 0.12667,3.335504 0.14777,4.190472 0.0211,0.854967 -10e-6,1.044973 -1.07663,1.804834 -1.07661,0.759861 -3.20876,2.089818 -6.03697,3.81368 -2.82821,1.723865 -6.35229,3.841515 -9.35336,5.467625 -3.00108,1.62611 -5.47901,2.76059 -8.166,3.8951 -2.68699,1.13451 -5.58289,2.26899 -8.88191,3.31393 -3.29902,1.04495 -7.001,2.0003 -10.25523,2.70191 -3.25424,0.70161 -6.06057,1.14942 -9.04611,1.49277 -2.98555,0.34335 -6.15014,0.58218 -9.43424,0.71654 -3.2841,0.13436 -6.68753,0.16423 -10.64338,-0.1343 -3.95585,-0.29853 -8.46391,-0.92548 -11.539,-1.52256 -3.0751,-0.59707 -4.7171,-1.16431 -6.92642,-1.851 -2.20932,-0.68669 -4.9858,-1.49276 -7.38916,-2.41824 -2.40337,-0.92549 -4.43349,-1.97041 -6.38902,-2.92579 -1.95554,-0.95538 -3.83638,-1.82117 -6.10541,-2.86612 -2.26903,-1.04495 -4.92609,-2.26899 -8.25498,-3.74684 -3.3289,-1.477859 -7.32943,-3.209426 -10.55382,-4.627559 -3.2244,-1.418133 -5.67248,-2.522755 -8.04599,-3.463221 -2.37352,-0.940466 -4.67233,-1.716687 -6.62787,-2.209335 -1.95555,-0.492648 -3.5677,-0.70163 -5.31425,-0.985249 -1.74654,-0.283619 -3.62739,-0.641877 -6.22486,-0.701622 -2.59747,-0.05975 -5.91132,0.179088 -9.285008,0.552275 -3.373687,0.373187 -6.806977,0.880717 -10.225455,1.477828 -3.418478,0.597111 -6.821889,1.283767 -9.613408,2.045079 -2.79152,0.761312 -4.970919,1.597244 -7.89677,2.82132 -2.925851,1.224076 -6.597981,2.836229 -9.553717,4.448443 -2.955736,1.612211 -5.194826,3.224361 -7.702688,5.000771 -2.507863,1.7764 -5.284343,3.71695 -7.747458,5.85165 -2.463116,2.1347 -4.61265,4.46336 -6.19499,6.18005 -1.582341,1.71669 -2.597392,2.82131 -3.224345,3.47811 -0.626953,0.65681 -0.865793,0.86579 -1.14934,0.67189 -0.283546,-0.1939 -0.611943,-0.79099 -1.01504,-2.01508 -0.403097,-1.22408 -0.880775,-3.07508 -1.358476,-5.22468 -0.477701,-2.1496 -0.955379,-4.59769 -1.253935,-6.16509 -0.298556,-1.56741 -0.417972,-2.25407 -0.462779,-2.88106 -0.04481,-0.62699 -0.01494,-1.19423 0.223956,-1.61236 0.238896,-0.41812 0.686728,-0.68682 1.507738,-1.269 0.821011,-0.58218 2.015184,-1.4778 3.89612,-2.627255 1.880935,-1.149452 4.448428,-2.552615 6.926466,-3.776699 2.478038,-1.224083 4.8664,-2.268992 7.628054,-3.388578 2.761654,-1.119586 5.896386,-2.313771 8.986443,-3.328854 3.090057,-1.015083 6.135255,-1.85102 9.165602,-2.582475 3.030346,-0.731455 6.045648,-1.358397 8.628166,-1.806223 2.582518,-0.447825 4.732048,-0.716516 6.941372,-0.88071 2.209324,-0.164194 4.478285,-0.223902 6.717453,-0.298544 2.239168,-0.07464 4.448408,-0.164206 6.58309,-0.194048 2.134682,-0.02984 4.194639,2.3e-5 6.478599,0.11946 2.28396,0.119437 4.79176,0.328417 6.97122,0.537411 2.17946,0.208994 4.03044,0.417978 5.568,0.656841 1.53756,0.238863 2.7616,0.507554 4.17975,0.865831 1.41814,0.358276 3.0303,0.806096 4.71713,1.298716 1.68684,0.492621 3.44827,1.030008 5.40381,1.552468 1.95553,0.522459 4.10507,1.029985 6.91149,1.612161 2.80643,0.582176 6.26957,1.238979 9.32976,1.746515 3.06018,0.507535 5.71724,0.865791 8.79236,1.179266 3.07512,0.313474 6.56811,0.582166 10.40454,0.716504 3.83644,0.134338 8.01609,0.134338 11.35989,0.05969 3.3438,-0.07465 5.85159,-0.22392 8.56845,-0.432914 2.71685,-0.208993 5.6426,-0.477685 7.97133,-0.716533 2.32872,-0.238848 4.06029,-0.447831 6.09044,-0.925535 2.03015,-0.477704 4.35881,-1.224069 7.20999,-2.463081 2.85118,-1.239011 6.22475,-2.97058 9.03114,-4.5977 2.80639,-1.627119 5.04549,-3.149708 7.15031,-4.612626 2.10481,-1.462919 4.07522,-2.86609 6.15018,-4.284229 2.07497,-1.418138 4.25436,-2.851162 6.46371,-4.000604 2.20935,-1.149441 4.44845,-2.015227 6.70256,-2.731755 2.25412,-0.716529 4.52307,-1.283767 7.1504,-1.656943 2.62732,-0.373177 5.61278,-0.552303 7.47883,-0.450283 1.86604,0.102019 2.6125,0.484995 2.98558,0.676405 0.37308,0.19141 0.373,0.19135 0.48914,0.761496 z"
       id="path7101" /><path
       style="display:inline;fill:#ffd167;fill-opacity:1;stroke-width:0"
       d="m 108.32618,89.205712 c -2.5555,-0.0036 -7.66878,-0.01086 -12.94561,0.522784 -5.27683,0.533645 -10.715254,1.607777 -14.339896,2.458755 -3.624642,0.850978 -5.432125,1.478107 -5.830841,2.057976 -0.398715,0.579869 0.610778,1.112533 1.499762,1.72799 0.888985,0.615457 1.656162,1.312594 2.673899,2.029374 1.017737,0.716781 2.284025,1.451862 3.533176,1.985155 1.249151,0.533294 2.479335,0.864074 4.240606,1.095454 1.761271,0.23138 4.052446,0.36322 6.611706,0.6146 2.55926,0.25138 5.386042,0.62222 7.628308,0.87281 2.24227,0.25059 3.89701,0.38063 5.8082,0.54565 1.91118,0.16501 4.07579,0.36473 6.0203,0.62212 1.9445,0.25739 3.66626,0.57204 4.97828,0.76345 1.31203,0.19141 2.20968,0.25897 3.10155,0.38413 0.89187,0.12517 1.77446,0.30742 2.87806,0.4693 1.10359,0.16189 2.42647,0.30313 3.54507,0.49925 1.11859,0.19613 2.03309,0.44716 2.90529,0.42192 0.87219,-0.0252 1.7026,-0.32654 2.35507,-0.51235 0.65248,-0.18582 1.12712,-0.25616 1.55763,-0.30399 0.43051,-0.0478 0.81859,-0.0734 1.1071,-0.0824 0.28852,-0.009 0.47713,-0.001 1.38919,0.27306 0.91206,0.27455 2.54225,0.81436 4.85782,2.01378 2.31558,1.19942 5.31291,3.05692 8.18401,4.66134 2.87111,1.60442 5.61546,2.95549 8.65546,4.24324 3.04,1.28776 6.37544,2.51216 9.66877,3.54658 3.29332,1.03442 6.54433,1.87884 11.04097,2.42769 4.49665,0.54885 10.23869,0.80218 15.36865,0.71771 5.12996,-0.0845 9.64759,-0.50667 14.0809,-1.1189 4.43331,-0.61224 8.78205,-1.41443 12.22314,-2.11109 3.44109,-0.69667 5.97434,-1.28776 9.11988,-2.21666 3.14553,-0.92889 6.90319,-2.19552 10.32315,-3.65218 3.41995,-1.45667 6.50207,-3.10328 8.8032,-4.20105 2.30112,-1.09777 3.82107,-1.64664 5.59443,-2.1533 1.77335,-0.50666 3.79995,-0.97109 4.93982,-1.41437 1.13987,-0.44327 1.3932,-0.86548 1.60431,-1.62541 0.21112,-0.75993 0.38,-1.85767 0.52778,-2.87099 0.14778,-1.01333 0.27444,-1.942195 0.35889,-2.596633 0.0845,-0.654437 0.12666,-1.034421 0.0635,-1.266679 -0.0632,-0.232258 -0.23205,-0.316698 -1.77329,0.50654 -1.54123,0.823237 -4.45447,2.554292 -7.47334,4.137622 -3.01886,1.58332 -6.14321,3.01883 -9.37318,4.36994 -3.22998,1.3511 -6.56543,2.61773 -10.89319,4.03218 -4.32776,1.41444 -9.64759,2.97661 -14.48199,4.01106 -4.83439,1.03444 -9.18314,1.54109 -13.63756,1.73111 -4.45441,0.19001 -9.01426,0.0633 -12.68757,-0.0844 -3.67331,-0.14777 -6.4599,-0.31666 -9.81654,-0.86552 -3.35665,-0.54886 -7.28319,-1.47772 -11.39985,-2.76547 -4.11665,-1.28776 -8.42318,-2.93437 -12.56094,-4.70769 -4.13777,-1.77331 -8.10653,-3.67325 -12.26541,-5.61547 -4.15887,-1.94222 -8.50763,-3.926607 -12.49761,-5.699937 -3.98999,-1.773331 -7.62099,-3.335505 -10.10153,-4.36995 -2.48053,-1.034445 -3.81047,-1.541087 -5.72104,-2.037232 -1.91057,-0.496145 -4.4022,-0.981801 -5.6476,-1.224548 -1.24539,-0.242746 -1.24539,-0.242682 -3.80089,-0.246301 z"
       id="path7105" /><path
       style="display:inline;fill:#e8c67e;fill-opacity:1;stroke-width:0"
       d="m 260.41593,110.22598 c -0.11169,0.93887 -0.21725,1.99441 -0.72393,4.2744 -0.50668,2.27998 -1.41443,5.78431 -1.98443,7.87427 -0.57,2.08997 -0.80221,2.7655 -0.9711,3.22993 -0.16889,0.46443 -0.27444,0.71776 -0.53819,0.876 -0.26375,0.15825 -0.68596,0.22158 -1.75209,0.44325 -1.06613,0.22166 -2.77607,0.60165 -4.54941,1.06609 -1.77335,0.46444 -3.60996,1.01331 -5.58386,1.70997 -1.9739,0.69667 -4.08494,1.54108 -5.88993,2.2483 -1.80498,0.70722 -3.30383,1.2772 -5.05605,1.91054 -1.75221,0.63333 -3.7577,1.32998 -5.73157,1.98442 -1.97388,0.65444 -3.91604,1.26664 -5.94269,1.83665 -2.02666,0.57 -4.1377,1.09776 -6.95602,1.64665 -2.81832,0.5489 -6.34376,1.11888 -9.4154,1.48833 -3.07164,0.36944 -5.68933,0.53833 -8.29653,0.57001 -2.6072,0.0317 -5.20378,-0.0739 -7.70543,-0.3483 -2.50164,-0.27442 -4.90823,-0.71774 -7.86378,-1.39328 -2.95555,-0.67555 -6.45988,-1.58329 -9.60542,-2.55439 -3.14555,-0.97109 -5.93212,-2.0055 -8.53934,-2.78663 -2.60722,-0.78113 -5.03492,-1.30889 -7.4838,-1.81556 -2.44889,-0.50667 -4.91881,-0.99221 -7.51549,-1.20335 -2.59669,-0.21114 -5.31993,-0.14781 -8.84549,-0.0211 -3.52556,0.12666 -7.85319,0.31665 -11.51599,0.77053 -3.66279,0.45387 -6.66047,1.17163 -9.64766,1.63608 -2.98719,0.46445 -5.96376,0.67556 -8.81374,0.81278 -2.84999,0.13723 -5.57324,0.20056 -8.14876,0.0845 -2.575532,-0.11609 -5.003243,-0.41164 -7.694895,-0.87607 -2.691653,-0.46442 -5.647103,-1.09774 -8.560425,-1.82606 -2.913322,-0.72832 -5.78434,-1.55163 -8.412663,-2.23774 -2.628323,-0.68612 -5.013802,-1.23499 -7.48381,-1.74167 -2.470008,-0.50667 -5.024349,-0.9711 -7.346597,-1.14002 -2.322247,-0.16892 -4.412167,-0.0423 -6.375519,0.20051 -1.963351,0.24276 -3.799951,0.60164 -5.45721,1.09774 -1.657258,0.49611 -3.135005,1.12943 -4.380583,1.80498 -1.245577,0.67556 -2.258886,1.39332 -3.124469,2.14279 -0.865584,0.74947 -1.583344,1.53056 -2.121644,2.05831 -0.5383,0.52775 -0.897178,0.80219 -1.150424,0.83402 -0.253247,0.0318 -0.401023,-0.17928 -0.78106,-1.01316 -0.380037,-0.83388 -0.992239,-2.29051 -1.509486,-3.81051 -0.517247,-1.52 -0.93946,-3.10328 -1.277233,-4.31716 -0.337773,-1.21388 -0.591096,-2.05829 -0.517275,-2.80786 0.07382,-0.74956 0.474929,-1.40399 1.952748,-2.88182 1.477818,-1.47783 4.032169,-3.77885 6.020926,-5.61119 1.988757,-1.83234 3.411803,-3.19589 4.645827,-4.32552 1.234024,-1.12963 2.278943,-2.02527 3.831454,-3.18965 1.552511,-1.16438 3.612478,-2.5974 6.254712,-4.23946 2.642234,-1.64207 5.866528,-3.49305 8.896897,-4.955972 3.030369,-1.462922 5.866568,-2.537691 8.421641,-1.701002 2.555074,0.836689 4.828745,3.584362 7.987281,4.927834 3.158537,1.34347 7.201577,1.28288 10.366063,1.55799 3.164485,0.27512 5.450004,0.88581 8.016074,1.19114 2.56608,0.30532 5.41245,0.30532 8.03978,0.45718 2.62734,0.15186 5.03528,0.45552 6.92429,0.78973 1.88901,0.33422 3.25887,0.69891 4.65674,0.9815 1.39788,0.28259 2.82362,0.48308 4.43712,0.66224 1.61349,0.17917 3.41453,0.337 5.11204,0.31359 1.69751,-0.0234 3.29134,-0.22799 5.2154,-0.002 1.92406,0.22618 4.17809,0.88298 7.05169,2.24146 2.87361,1.35848 6.3666,3.41845 9.82984,5.31426 3.46325,1.89582 6.89653,3.62739 10.65834,5.06041 3.7618,1.43303 7.85188,2.56751 12.12121,3.35864 4.26933,0.79114 8.71768,1.23896 12.34511,1.41807 3.62742,0.17912 6.43375,0.0896 8.74754,-0.0747 2.31378,-0.16422 4.13492,-0.40306 7.00107,-0.73147 2.86614,-0.32841 6.7771,-0.74637 10.92701,-1.4032 4.14991,-0.65684 8.53854,-1.55247 12.49437,-2.59742 3.95583,-1.04496 7.47868,-2.23914 10.92699,-3.49308 3.44831,-1.25393 6.82189,-2.56753 9.47902,-3.61248 2.65713,-1.04494 4.59768,-1.82116 6.23973,-2.47798 1.64205,-0.65682 2.98552,-1.19421 4.10514,-1.55247 1.11961,-0.35825 2.01525,-0.53738 2.40405,-0.21571 0.38879,0.32168 0.27097,1.14385 0.15929,2.08273 z"
       id="path7167" /><path
       style="display:inline;fill:#cf5536;fill-opacity:1;stroke-width:0"
       d="m 254.1354,131.31779 c 0.0895,-0.32831 0.26867,-0.98513 0.4478,-1.6121 0.17914,-0.62697 0.35827,-1.22406 0.40314,-1.62704 0.0449,-0.40297 -0.0447,-0.61196 -0.67168,-0.38822 -0.627,0.22374 -1.79133,0.88054 -3.73192,1.70156 -1.94059,0.82103 -4.65736,1.80623 -7.22495,2.82132 -2.56759,1.01509 -4.98581,2.06 -8.19526,3.14973 -3.20946,1.08973 -7.20998,2.22421 -11.80773,3.31394 -4.59774,1.08973 -9.79245,2.13465 -13.94234,2.77655 -4.14989,0.6419 -7.25478,0.88074 -11.04642,0.8509 -3.79164,-0.0298 -8.26984,-0.32839 -12.3451,-0.9404 -4.07526,-0.61201 -7.74738,-1.53751 -11.65846,-2.59738 -3.91108,-1.05986 -8.06088,-2.25405 -11.27034,-3.17957 -3.20946,-0.92551 -5.47842,-1.58232 -7.70266,-2.11973 -2.22424,-0.53741 -4.40363,-0.95538 -6.97123,-1.20917 -2.56759,-0.2538 -5.5232,-0.34336 -8.40428,-0.22396 -2.88108,0.11941 -5.68742,0.44781 -8.88197,0.83593 -3.19455,0.38812 -6.77711,0.83594 -10.07614,1.22406 -3.29903,0.38813 -6.31436,0.71653 -9.10584,0.95538 -2.79148,0.23884 -5.35897,0.38812 -8.21016,0.34335 -2.8512,-0.0448 -5.985931,-0.2836 -8.434072,-0.56721 -2.44814,-0.28362 -4.20955,-0.61201 -5.762061,-0.82102 -1.55251,-0.20901 -2.895951,-0.29857 -3.343757,-0.23879 -0.447807,0.0598 5e-6,0.26875 0.94047,0.6718 0.940465,0.40305 2.373467,1.00013 3.791609,1.52259 1.418143,0.52246 2.821304,0.97027 4.50814,1.43302 1.686837,0.46275 3.657238,0.94043 5.254491,1.19417 1.59726,0.25374 2.82131,0.28361 4.26929,0.22389 1.44797,-0.0597 3.11982,-0.20899 4.80665,-0.41799 1.68683,-0.209 3.38855,-0.47769 5.16496,-0.71653 1.77641,-0.23884 3.6274,-0.44782 5.43366,-0.64188 1.80626,-0.19406 3.56769,-0.37319 5.09032,-0.52247 1.52263,-0.14927 2.80638,-0.26869 4.52311,-0.1343 1.71673,0.13439 3.86627,0.5225 5.59789,0.85091 1.73162,0.32842 3.04522,0.59711 4.83656,1.07481 1.79134,0.47771 4.0603,1.16437 5.89641,1.83615 1.83611,0.67178 3.23928,1.32858 5.50831,2.19437 2.26903,0.86579 5.40377,1.94056 8.28483,2.85114 2.88105,0.91058 5.50826,1.65695 7.89669,2.20925 2.38844,0.55231 4.53798,0.91057 7.23988,0.98517 2.7019,0.0746 5.95606,-0.13438 8.91175,-0.37323 2.95569,-0.23885 5.61276,-0.50754 8.58338,-0.89567 2.97062,-0.38812 6.25463,-0.89565 9.56859,-1.52263 3.31395,-0.62697 6.65767,-1.37333 9.58351,-2.06001 2.92583,-0.68668 5.43362,-1.31363 8.67295,-2.16451 3.23934,-0.85089 7.21,-1.92566 10.7628,-2.98553 3.55279,-1.05988 6.68753,-2.10479 9.21032,-2.91089 2.52279,-0.80609 4.43349,-1.37333 6.32933,-1.8958 1.89583,-0.52247 3.77667,-1.00014 4.97088,-1.31363 1.19421,-0.31348 1.70174,-0.46275 1.95542,-0.53737 0.25369,-0.0746 0.25369,-0.0746 0.34323,-0.40296 z"
       id="path7389" /><path
       style="display:inline;fill:#ffd167;fill-opacity:1;stroke-width:0"
       d="m 252.9188,134.38538 c -0.36575,0.72404 -1.09721,2.17202 -2.25411,4.2843 -1.15691,2.11228 -2.7392,4.88876 -3.94834,6.91892 -1.20915,2.03015 -2.04508,3.3139 -2.92582,4.73205 -0.88075,1.41815 -1.80624,2.97059 -2.33616,3.83638 -0.52993,0.86579 -0.66427,1.04491 -1.3359,1.20908 -0.67163,0.16417 -1.88074,0.31345 -4.20949,0.73888 -2.32876,0.42544 -5.77697,1.12702 -9.06107,1.71667 -3.28411,0.58965 -6.40392,1.06732 -10.54637,1.46292 -4.14245,0.39559 -9.30731,0.70907 -13.99461,0.79865 -4.6873,0.0896 -8.8968,-0.0448 -13.47217,-0.25376 -4.57537,-0.20899 -9.51631,-0.49261 -14.7261,-0.83594 -5.20979,-0.34334 -10.68812,-0.74638 -16.76373,-1.2987 -6.07561,-0.55232 -12.74812,-1.25391 -18.01013,-2.02267 -5.26202,-0.76877 -9.11327,-1.6047 -13.8006,-2.69442 -4.68732,-1.08973 -10.21043,-2.43319 -15.59937,-3.43336 -5.38893,-1.00018 -10.643351,-1.65698 -15.33814,-2.08243 -4.694788,-0.42545 -8.829668,-0.61951 -12.792991,-0.61952 -3.963323,-1e-5 -7.754883,0.19405 -10.889709,0.36571 -3.134827,0.17167 -5.612757,0.32094 -7.81467,0.8434 -2.201914,0.52246 -4.127526,1.4181 -6.083072,2.3884 -1.955546,0.97031 -3.940891,2.01523 -5.097789,2.63473 -1.156899,0.6195 -1.485303,0.81355 -1.791202,0.85095 -0.305899,0.0374 -0.589528,-0.082 -1.552443,-1.62696 -0.962915,-1.54495 -2.604924,-4.51549 -4.00813,-7.06066 -1.403207,-2.54518 -2.567536,-4.66486 -3.321388,-6.04567 -0.753851,-1.38081 -1.097186,-2.02269 -1.246569,-2.43327 -0.149383,-0.41058 -0.104602,-0.58969 0.559721,-1.28394 0.664323,-0.69425 1.948063,-1.90335 3.515526,-2.9931 1.567463,-1.08975 3.418459,-2.06003 5.336718,-2.79895 1.91826,-0.73892 3.90359,-1.24645 5.941269,-1.57484 2.037679,-0.3284 4.127489,-0.47767 6.224869,-0.35821 2.097379,0.11946 4.202139,0.50757 7.501195,1.37341 3.299056,0.86583 7.792185,2.20929 10.867293,3.23933 3.075108,1.03003 4.732038,1.74654 6.336773,2.41082 1.604734,0.66428 3.157183,1.2763 4.985832,1.91819 1.828649,0.64188 3.933418,1.31361 5.747126,1.78381 1.813709,0.4702 3.336311,0.73889 5.478421,0.85827 2.14212,0.11939 4.90368,0.0895 7.44138,-0.11949 2.5377,-0.20902 4.85142,-0.59713 7.29959,-0.93299 2.44817,-0.33587 5.03059,-0.61949 7.11302,-0.79115 2.08243,-0.17166 3.66473,-0.23137 5.50833,-0.0895 1.8436,0.14185 3.94836,0.48517 6.2771,0.99274 2.32875,0.50756 4.88132,1.17929 7.29215,1.92569 2.41083,0.74641 4.6798,1.56742 6.69504,2.30634 2.01524,0.73893 3.77667,1.39573 5.5904,2.1272 1.81372,0.73148 3.67963,1.53755 5.91879,2.16447 2.23917,0.62692 4.85145,1.07474 7.79221,1.40314 2.94077,0.32839 6.20986,0.53737 9.78505,0.54482 3.57519,0.007 7.45629,-0.18661 10.76277,-0.49264 3.30647,-0.30603 6.03817,-0.724 8.87445,-1.20916 2.83627,-0.48515 5.77695,-1.03747 8.08329,-1.4629 2.30634,-0.42544 3.9782,-0.72399 6.44127,-1.33603 2.46307,-0.61205 5.71723,-1.53755 9.591,-2.6422 3.87376,-1.10466 8.36688,-2.38841 12.05402,-3.52292 3.68714,-1.13452 6.56812,-2.11972 9.3223,-2.94821 2.75419,-0.82848 5.3814,-1.50021 6.88912,-1.85847 1.50771,-0.35825 1.89583,-0.40303 2.05242,-0.3059 0.1566,0.0971 0.082,0.33596 0.0447,0.4553 -0.0373,0.11934 -0.0373,0.11938 -0.40304,0.84342 z"
       id="path7531" /><path
       style="display:inline;fill:#e8c67e;fill-opacity:1;stroke-width:0"
       d="m 237.99119,159.37419 c -0.47024,0.58965 -1.41068,1.76894 -2.06749,2.56756 -0.65681,0.79862 -1.03,1.21659 -1.70162,1.47034 -0.67162,0.25375 -1.64191,0.34331 -3.73926,0.45528 -2.09736,0.11196 -5.32166,0.24631 -8.69534,0.38812 -3.37367,0.14182 -6.89652,0.29109 -10.84492,0.39559 -3.94839,0.1045 -8.3221,0.16421 -12.48694,0.14928 -4.16484,-0.0149 -8.12058,-0.10449 -12.59146,-0.17913 -4.47088,-0.0746 -9.45661,-0.13435 -13.60652,-0.14927 -4.14991,-0.0149 -7.46378,0.0149 -9.7776,0.11943 -2.31381,0.10448 -3.62741,0.28361 -5.66505,0.46275 -2.03764,0.17914 -4.79919,0.35827 -8.03106,0.59711 -3.23187,0.23885 -6.93385,0.53739 -9.88953,0.67174 -2.95568,0.13436 -5.16492,0.10449 -7.01596,0.0746 -1.85103,-0.0299 -3.34376,-0.0597 -5.28436,-0.53737 -1.94059,-0.47764 -4.32897,-1.40313 -7.40409,-2.65706 -3.07513,-1.25393 -6.83682,-2.83623 -10.46426,-4.40364 -3.62744,-1.56741 -7.12044,-3.11986 -10.105879,-4.36087 -2.985437,-1.24101 -5.463158,-2.17051 -8.232622,-2.96252 -2.769465,-0.79202 -5.830457,-1.44644 -9.081589,-1.76314 -3.251132,-0.3167 -6.692142,-0.2956 -9.584376,-0.0212 -2.892234,0.27442 -5.235493,0.80218 -7.441609,1.36162 -2.206115,0.55945 -4.274944,1.15054 -5.921638,1.7522 -1.646694,0.60167 -2.871086,1.21386 -3.92663,1.70997 -1.055544,0.49611 -1.942193,0.8761 -2.501543,0.98179 -0.55935,0.10568 -0.791564,-0.0632 -0.960509,-0.2426 -0.168946,-0.1794 -0.274497,-0.36938 0.274338,-0.85512 0.548835,-0.48574 1.75213,-1.26683 3.018828,-1.94239 1.266699,-0.67556 2.596659,-1.24554 4.412231,-1.8472 1.815571,-0.60165 4.116622,-1.23497 6.565527,-1.70996 2.448905,-0.47498 5.045496,-0.79164 7.568274,-0.99218 2.522778,-0.20054 4.971598,-0.28499 7.990485,-0.28498 3.018888,1e-5 6.607678,0.0844 9.985447,0.28502 3.377769,0.20056 6.544329,0.51722 9.531555,0.91834 2.98722,0.40112 5.79492,0.88666 8.6027,1.44612 2.80777,0.55945 5.61544,1.19276 9.47878,2.04776 3.86333,0.855 8.78206,1.93163 13.10982,2.76551 4.32775,0.83387 8.0643,1.42496 11.61095,1.89995 3.54666,0.47499 6.90321,0.83387 10.60821,1.23498 3.705,0.40111 7.75819,0.84443 12.14929,1.20331 4.39109,0.35888 9.11983,0.63332 14.85149,0.86553 5.73166,0.23222 12.46589,0.42221 17.69085,0.49609 5.22497,0.0739 8.94041,0.0317 13.54261,-0.29557 4.60221,-0.32723 10.09092,-0.93943 14.22867,-1.45666 4.13775,-0.51722 6.92432,-0.93943 8.9932,-1.24554 2.06888,-0.30611 3.41994,-0.4961 4.02146,-0.46438 0.60153,0.0317 0.45375,0.28506 0.20512,0.56546 -0.24864,0.28041 -0.59818,0.58797 -0.77296,0.74176 -0.17479,0.1538 -0.17479,0.15387 -0.64502,0.74353 z"
       id="path7608" /><path
       style="display:inline;fill:#cf5536;fill-opacity:1;stroke-width:0"
       d="m 230.46407,167.42503 c -0.68611,0.76 -2.05831,2.27998 -3.28274,3.52551 -1.22442,1.24554 -2.30106,2.21662 -3.28262,2.7655 -0.98155,0.54887 -1.86819,0.67553 -3.51487,0.99219 -1.64668,0.31667 -4.05327,0.82332 -7.64216,1.45665 -3.58888,0.63334 -8.35984,1.39332 -12.75093,2.02665 -4.39109,0.63333 -8.40207,1.13998 -12.17038,1.50943 -3.76832,0.36945 -7.29376,0.60166 -11.80097,0.6439 -4.5072,0.0422 -9.99591,-0.10555 -14.91477,-0.5383 -4.91886,-0.43276 -9.2676,-1.15051 -12.83536,-1.76273 -3.56776,-0.61221 -6.35434,-1.11886 -9.27823,-1.59387 -2.92388,-0.47501 -5.9849,-0.91833 -9.13046,-1.16112 -3.14556,-0.2428 -6.37546,-0.28502 -10.37601,-0.31668 -4.00055,-0.0317 -8.7715,-0.0528 -12.88817,0.12668 -4.11667,0.17944 -7.578772,0.55942 -11.030451,1.13997 -3.451679,0.58054 -6.89269,1.36163 -9.774393,2.33274 -2.881703,0.97111 -5.203843,2.13218 -6.692061,2.62835 -1.488218,0.49617 -2.142636,0.32728 -4.105992,-1.27709 -1.963356,-1.60437 -5.235463,-4.64426 -7.937682,-7.17759 -2.702218,-2.53332 -4.834363,-4.55992 -6.977149,-6.74491 -2.142786,-2.18499 -4.296054,-4.52824 -5.678838,-6.1221 -1.382784,-1.59386 -1.994981,-2.43828 -1.931668,-2.98735 0.06331,-0.54906 0.802163,-0.80238 1.83658,-1.25627 1.034418,-0.45389 2.364397,-1.10832 4.137756,-1.78387 1.77336,-0.67555 3.989958,-1.3722 6.333302,-1.94219 2.343343,-0.56999 4.813263,-1.01331 7.504958,-1.2455 2.691696,-0.2322 5.604917,-0.2533 8.212151,-0.12661 2.607234,0.12669 4.908264,0.40113 6.744932,0.76005 1.836668,0.35893 3.208848,0.80224 4.718299,1.37226 1.509451,0.57002 3.15606,1.26666 5.837175,2.39611 2.681111,1.12944 6.396551,2.69162 9.605421,4.06383 3.20887,1.37222 5.91101,2.5544 8.33877,3.63107 2.42777,1.07666 4.58105,2.04775 6.58658,2.69158 2.00554,0.64384 3.86326,0.9605 5.59435,1.18215 1.7311,0.22165 3.3355,0.34831 5.98493,0.33774 2.64943,-0.0106 6.34375,-0.15835 9.17262,-0.30613 2.82887,-0.14778 4.79214,-0.29555 8.25437,-0.45388 3.46224,-0.15833 8.42319,-0.32721 13.51096,-0.44332 5.08777,-0.11611 10.30205,-0.17944 15.25259,-0.17944 4.95054,1e-5 9.63705,0.0633 14.29204,0.0317 4.65498,-0.0317 9.27816,-0.15834 13.08871,-0.19 3.81055,-0.0317 6.80823,0.0317 10.27043,0 3.46221,-0.0317 7.38875,-0.15834 9.93264,-0.14776 2.54389,0.0106 3.70496,0.15835 4.05316,0.41165 0.34819,0.25331 -0.11624,0.61219 -0.34847,0.79164 -0.23224,0.17946 -0.23224,0.17939 -0.91835,0.93939 z"
       id="path8476" /><path
       style="display:inline;fill:#ffd167;fill-opacity:1;stroke-width:0"
       d="m 216.4432,179.37717 c -0.65678,0.44034 -1.97041,1.32107 -3.76921,2.53769 -1.79881,1.21662 -4.08269,2.76906 -6.41141,4.2469 -2.32872,1.47785 -4.70216,2.88101 -7.30704,4.20212 -2.60488,1.3211 -5.44107,2.56007 -8.64307,3.79161 -3.20199,1.23154 -6.76962,2.45558 -10.41945,3.57516 -3.64982,1.11959 -7.38166,2.13465 -11.7928,2.99301 -4.41114,0.85835 -9.50136,1.55993 -13.9722,1.92568 -4.47084,0.36575 -8.3221,0.39561 -12.42723,0.23142 -4.10513,-0.16419 -8.4639,-0.52244 -12.32272,-0.99265 -3.85881,-0.47021 -7.21746,-1.05238 -10.88969,-1.90325 -3.67223,-0.85086 -7.65782,-1.97041 -11.33005,-3.26164 -3.67223,-1.29123 -7.03087,-2.75411 -10.023895,-4.11253 -2.993021,-1.35842 -5.62022,-2.61231 -8.016132,-3.83638 -2.395911,-1.22407 -4.560361,-2.41825 -5.993441,-3.32881 -1.43308,-0.91055 -2.134655,-1.53749 -2.500522,-1.99277 -0.365866,-0.45528 -0.395732,-0.73889 0.21634,-1.20182 0.612071,-0.46294 1.865984,-1.10482 3.575252,-1.76165 1.709268,-0.65682 3.873719,-1.32855 6.493573,-1.97044 2.619854,-0.64188 5.694875,-1.2539 8.620731,-1.69426 2.925854,-0.44035 5.702334,-0.70905 9.038714,-0.86578 3.33639,-0.15673 7.23241,-0.20151 10.53891,-0.17911 3.3065,0.0224 6.02328,0.11196 9.23276,0.38067 3.20949,0.26871 6.91146,0.71653 10.03136,1.19424 3.11991,0.4777 5.65756,0.98523 8.59833,1.43305 2.94077,0.44782 6.28449,0.83593 9.67309,1.20912 3.3886,0.37319 6.82188,0.73145 10.15077,0.97028 3.32889,0.23884 6.55319,0.35826 10.32991,0.31346 3.77673,-0.0448 8.10565,-0.25378 12.34512,-0.62699 4.23947,-0.3732 8.38927,-0.91059 12.50933,-1.49277 4.12006,-0.58219 8.21015,-1.20913 10.94195,-1.4778 2.73179,-0.26867 4.10512,-0.17911 4.57519,0.0896 0.47007,0.26869 0.0372,0.71651 -0.17927,0.94042 -0.21645,0.22391 -0.21641,0.22388 -0.8732,0.66423 z"
       id="path8480" /></g></svg>
